<svg width="68" height="57" viewBox="0 0 68 57" fill="none" xmlns="http://www.w3.org/2000/svg">
<path d="M22.6667 28.5H11.3333C9.76854 28.5 8.5 29.5633 8.5 30.875V45.125C8.5 46.4367 9.76854 47.5 11.3333 47.5H22.6667C24.2315 47.5 25.5 46.4367 25.5 45.125V30.875C25.5 29.5633 24.2315 28.5 22.6667 28.5Z" stroke="#015249" stroke-width="4" stroke-linecap="round" stroke-linejoin="round"/>
<path d="M39.6667 19H28.3333C26.7685 19 25.5 20.0633 25.5 21.375V45.125C25.5 46.4367 26.7685 47.5 28.3333 47.5H39.6667C41.2315 47.5 42.5 46.4367 42.5 45.125V21.375C42.5 20.0633 41.2315 19 39.6667 19Z" stroke="#015249" stroke-width="4" stroke-linecap="round" stroke-linejoin="round"/>
<path d="M56.6667 9.5H45.3333C43.7685 9.5 42.5 10.5633 42.5 11.875V45.125C42.5 46.4367 43.7685 47.5 45.3333 47.5H56.6667C58.2315 47.5 59.5 46.4367 59.5 45.125V11.875C59.5 10.5633 58.2315 9.5 56.6667 9.5Z" stroke="#015249" stroke-width="4" stroke-linecap="round" stroke-linejoin="round"/>
<path d="M11.3333 47.5H50.9999" stroke="#015249" stroke-width="4" stroke-linecap="round" stroke-linejoin="round"/>
</svg>
