<svg width="680" height="324" viewBox="0 0 680 324" fill="none" xmlns="http://www.w3.org/2000/svg">
<path d="M1 185H679" stroke="#E2E7E7" stroke-dasharray="3 6"/>
<path d="M1 145H679" stroke="#E2E7E7" stroke-dasharray="3 6"/>
<path d="M1 225H679" stroke="#E2E7E7" stroke-dasharray="3 6"/>
<path d="M1 265H679" stroke="#E2E7E7"/>
<path opacity="0.5" d="M15.7167 279.941C15.7167 278.68 15.922 277.697 16.3327 276.993C16.7433 276.282 17.462 275.926 18.4887 275.926C19.508 275.926 20.223 276.282 20.6337 276.993C21.0443 277.697 21.2497 278.68 21.2497 279.941C21.2497 281.224 21.0443 282.222 20.6337 282.933C20.223 283.644 19.508 284 18.4887 284C17.462 284 16.7433 283.644 16.3327 282.933C15.922 282.222 15.7167 281.224 15.7167 279.941ZM20.2597 279.941C20.2597 279.303 20.2157 278.764 20.1277 278.324C20.047 277.877 19.8747 277.517 19.6107 277.246C19.354 276.975 18.98 276.839 18.4887 276.839C17.99 276.839 17.6087 276.975 17.3447 277.246C17.088 277.517 16.9157 277.877 16.8277 278.324C16.747 278.764 16.7067 279.303 16.7067 279.941C16.7067 280.601 16.747 281.155 16.8277 281.602C16.9157 282.049 17.088 282.409 17.3447 282.68C17.6087 282.951 17.99 283.087 18.4887 283.087C18.98 283.087 19.354 282.951 19.6107 282.68C19.8747 282.409 20.047 282.049 20.1277 281.602C20.2157 281.155 20.2597 280.601 20.2597 279.941ZM22.8599 276.96V276.047H24.9279V284H23.9159V276.96H22.8599Z" fill="#737B8B"/>
<path d="M9 175H17V265H9V175Z" fill="#57BC90"/>
<path d="M23 215H31V265H23V215Z" fill="#E6E8EC"/>
<path opacity="0.5" d="M361.976 279.941C361.976 278.68 362.181 277.697 362.592 276.993C363.003 276.282 363.721 275.926 364.748 275.926C365.767 275.926 366.482 276.282 366.893 276.993C367.304 277.697 367.509 278.68 367.509 279.941C367.509 281.224 367.304 282.222 366.893 282.933C366.482 283.644 365.767 284 364.748 284C363.721 284 363.003 283.644 362.592 282.933C362.181 282.222 361.976 281.224 361.976 279.941ZM366.519 279.941C366.519 279.303 366.475 278.764 366.387 278.324C366.306 277.877 366.134 277.517 365.87 277.246C365.613 276.975 365.239 276.839 364.748 276.839C364.249 276.839 363.868 276.975 363.604 277.246C363.347 277.517 363.175 277.877 363.087 278.324C363.006 278.764 362.966 279.303 362.966 279.941C362.966 280.601 363.006 281.155 363.087 281.602C363.175 282.049 363.347 282.409 363.604 282.68C363.868 282.951 364.249 283.087 364.748 283.087C365.239 283.087 365.613 282.951 365.87 282.68C366.134 282.409 366.306 282.049 366.387 281.602C366.475 281.155 366.519 280.601 366.519 279.941ZM374.278 276.828L371.22 284H370.208L373.31 276.927H369.064V276.069H374.278V276.828Z" fill="#737B8B"/>
<path d="M357 175H365V265H357V175Z" fill="#57BC90"/>
<path d="M371 215H379V265H371V215Z" fill="#E6E8EC"/>
<path opacity="0.5" d="M71.8148 279.941C71.8148 278.68 72.0201 277.697 72.4308 276.993C72.8415 276.282 73.5601 275.926 74.5868 275.926C75.6061 275.926 76.3211 276.282 76.7318 276.993C77.1425 277.697 77.3478 278.68 77.3478 279.941C77.3478 281.224 77.1425 282.222 76.7318 282.933C76.3211 283.644 75.6061 284 74.5868 284C73.5601 284 72.8415 283.644 72.4308 282.933C72.0201 282.222 71.8148 281.224 71.8148 279.941ZM76.3578 279.941C76.3578 279.303 76.3138 278.764 76.2258 278.324C76.1451 277.877 75.9728 277.517 75.7088 277.246C75.4521 276.975 75.0781 276.839 74.5868 276.839C74.0881 276.839 73.7068 276.975 73.4428 277.246C73.1861 277.517 73.0138 277.877 72.9258 278.324C72.8451 278.764 72.8048 279.303 72.8048 279.941C72.8048 280.601 72.8451 281.155 72.9258 281.602C73.0138 282.049 73.1861 282.409 73.4428 282.68C73.7068 282.951 74.0881 283.087 74.5868 283.087C75.0781 283.087 75.4521 282.951 75.7088 282.68C75.9728 282.409 76.1451 282.049 76.2258 281.602C76.3138 281.155 76.3578 280.601 76.3578 279.941ZM79.101 283.197C80.0324 282.449 80.762 281.837 81.29 281.36C81.818 280.876 82.2617 280.374 82.621 279.853C82.9877 279.325 83.171 278.808 83.171 278.302C83.171 277.825 83.0537 277.451 82.819 277.18C82.5917 276.901 82.2214 276.762 81.708 276.762C81.2094 276.762 80.8207 276.92 80.542 277.235C80.2707 277.543 80.124 277.957 80.102 278.478H79.134C79.1634 277.657 79.4127 277.022 79.882 276.575C80.3514 276.128 80.9564 275.904 81.697 275.904C82.4524 275.904 83.05 276.113 83.49 276.531C83.9374 276.949 84.161 277.525 84.161 278.258C84.161 278.867 83.9777 279.461 83.611 280.04C83.2517 280.612 82.841 281.118 82.379 281.558C81.917 281.991 81.3267 282.497 80.608 283.076H84.392V283.912H79.101V283.197Z" fill="#737B8B"/>
<path d="M67 195H75V265H67V195Z" fill="#57BC90"/>
<path d="M81 175H89V265H81V175Z" fill="#E6E8EC"/>
<path opacity="0.5" d="M420.009 279.941C420.009 278.68 420.214 277.697 420.625 276.993C421.035 276.282 421.754 275.926 422.781 275.926C423.8 275.926 424.515 276.282 424.926 276.993C425.336 277.697 425.542 278.68 425.542 279.941C425.542 281.224 425.336 282.222 424.926 282.933C424.515 283.644 423.8 284 422.781 284C421.754 284 421.035 283.644 420.625 282.933C420.214 282.222 420.009 281.224 420.009 279.941ZM424.552 279.941C424.552 279.303 424.508 278.764 424.42 278.324C424.339 277.877 424.167 277.517 423.903 277.246C423.646 276.975 423.272 276.839 422.781 276.839C422.282 276.839 421.901 276.975 421.637 277.246C421.38 277.517 421.208 277.877 421.12 278.324C421.039 278.764 420.999 279.303 420.999 279.941C420.999 280.601 421.039 281.155 421.12 281.602C421.208 282.049 421.38 282.409 421.637 282.68C421.901 282.951 422.282 283.087 422.781 283.087C423.272 283.087 423.646 282.951 423.903 282.68C424.167 282.409 424.339 282.049 424.42 281.602C424.508 281.155 424.552 280.601 424.552 279.941ZM428.868 279.864C428.457 279.703 428.142 279.468 427.922 279.16C427.702 278.852 427.592 278.478 427.592 278.038C427.592 277.642 427.691 277.286 427.889 276.971C428.087 276.648 428.38 276.395 428.769 276.212C429.165 276.021 429.642 275.926 430.199 275.926C430.756 275.926 431.229 276.021 431.618 276.212C432.014 276.395 432.311 276.648 432.509 276.971C432.714 277.286 432.817 277.642 432.817 278.038C432.817 278.463 432.703 278.837 432.476 279.16C432.249 279.475 431.937 279.71 431.541 279.864C431.996 280.003 432.355 280.249 432.619 280.601C432.89 280.946 433.026 281.364 433.026 281.855C433.026 282.332 432.909 282.75 432.674 283.109C432.439 283.461 432.106 283.736 431.673 283.934C431.248 284.125 430.756 284.22 430.199 284.22C429.642 284.22 429.15 284.125 428.725 283.934C428.307 283.736 427.981 283.461 427.746 283.109C427.511 282.75 427.394 282.332 427.394 281.855C427.394 281.364 427.526 280.942 427.79 280.59C428.054 280.238 428.413 279.996 428.868 279.864ZM431.849 278.159C431.849 277.712 431.702 277.367 431.409 277.125C431.116 276.883 430.712 276.762 430.199 276.762C429.693 276.762 429.293 276.883 429 277.125C428.707 277.367 428.56 277.715 428.56 278.17C428.56 278.581 428.71 278.911 429.011 279.16C429.319 279.409 429.715 279.534 430.199 279.534C430.69 279.534 431.086 279.409 431.387 279.16C431.695 278.903 431.849 278.57 431.849 278.159ZM430.199 280.304C429.656 280.304 429.213 280.432 428.868 280.689C428.523 280.938 428.351 281.316 428.351 281.822C428.351 282.291 428.516 282.669 428.846 282.955C429.183 283.241 429.634 283.384 430.199 283.384C430.764 283.384 431.211 283.241 431.541 282.955C431.871 282.669 432.036 282.291 432.036 281.822C432.036 281.331 431.867 280.957 431.53 280.7C431.193 280.436 430.749 280.304 430.199 280.304Z" fill="#737B8B"/>
<path d="M415 195H423V265H415V195Z" fill="#57BC90"/>
<path d="M429 175H437V265H429V175Z" fill="#E6E8EC"/>
<path opacity="0.5" d="M129.74 279.941C129.74 278.68 129.945 277.697 130.356 276.993C130.766 276.282 131.485 275.926 132.512 275.926C133.531 275.926 134.246 276.282 134.657 276.993C135.067 277.697 135.273 278.68 135.273 279.941C135.273 281.224 135.067 282.222 134.657 282.933C134.246 283.644 133.531 284 132.512 284C131.485 284 130.766 283.644 130.356 282.933C129.945 282.222 129.74 281.224 129.74 279.941ZM134.283 279.941C134.283 279.303 134.239 278.764 134.151 278.324C134.07 277.877 133.898 277.517 133.634 277.246C133.377 276.975 133.003 276.839 132.512 276.839C132.013 276.839 131.632 276.975 131.368 277.246C131.111 277.517 130.939 277.877 130.851 278.324C130.77 278.764 130.73 279.303 130.73 279.941C130.73 280.601 130.77 281.155 130.851 281.602C130.939 282.049 131.111 282.409 131.368 282.68C131.632 282.951 132.013 283.087 132.512 283.087C133.003 283.087 133.377 282.951 133.634 282.68C133.898 282.409 134.07 282.049 134.151 281.602C134.239 281.155 134.283 280.601 134.283 279.941ZM137.125 278.049C137.176 277.374 137.437 276.846 137.906 276.465C138.375 276.084 138.984 275.893 139.732 275.893C140.231 275.893 140.66 275.985 141.019 276.168C141.386 276.344 141.661 276.586 141.844 276.894C142.035 277.202 142.13 277.55 142.13 277.939C142.13 278.394 141.998 278.786 141.734 279.116C141.477 279.446 141.14 279.659 140.722 279.754V279.809C141.199 279.926 141.576 280.157 141.855 280.502C142.134 280.847 142.273 281.298 142.273 281.855C142.273 282.273 142.178 282.651 141.987 282.988C141.796 283.318 141.51 283.578 141.129 283.769C140.748 283.96 140.289 284.055 139.754 284.055C138.977 284.055 138.339 283.853 137.84 283.45C137.341 283.039 137.063 282.46 137.004 281.712H137.972C138.023 282.152 138.203 282.511 138.511 282.79C138.819 283.069 139.23 283.208 139.743 283.208C140.256 283.208 140.645 283.076 140.909 282.812C141.18 282.541 141.316 282.192 141.316 281.767C141.316 281.217 141.133 280.821 140.766 280.579C140.399 280.337 139.846 280.216 139.105 280.216H138.852V279.38H139.116C139.791 279.373 140.3 279.263 140.645 279.05C140.99 278.83 141.162 278.493 141.162 278.038C141.162 277.649 141.034 277.338 140.777 277.103C140.528 276.868 140.168 276.751 139.699 276.751C139.244 276.751 138.878 276.868 138.599 277.103C138.32 277.338 138.155 277.653 138.104 278.049H137.125Z" fill="#737B8B"/>
<path d="M125 185H133V265H125V185Z" fill="#57BC90"/>
<path d="M139 225H147V265H139V225Z" fill="#E6E8EC"/>
<path opacity="0.5" d="M478.014 279.941C478.014 278.68 478.219 277.697 478.63 276.993C479.041 276.282 479.759 275.926 480.786 275.926C481.805 275.926 482.52 276.282 482.931 276.993C483.342 277.697 483.547 278.68 483.547 279.941C483.547 281.224 483.342 282.222 482.931 282.933C482.52 283.644 481.805 284 480.786 284C479.759 284 479.041 283.644 478.63 282.933C478.219 282.222 478.014 281.224 478.014 279.941ZM482.557 279.941C482.557 279.303 482.513 278.764 482.425 278.324C482.344 277.877 482.172 277.517 481.908 277.246C481.651 276.975 481.277 276.839 480.786 276.839C480.287 276.839 479.906 276.975 479.642 277.246C479.385 277.517 479.213 277.877 479.125 278.324C479.044 278.764 479.004 279.303 479.004 279.941C479.004 280.601 479.044 281.155 479.125 281.602C479.213 282.049 479.385 282.409 479.642 282.68C479.906 282.951 480.287 283.087 480.786 283.087C481.277 283.087 481.651 282.951 481.908 282.68C482.172 282.409 482.344 282.049 482.425 281.602C482.513 281.155 482.557 280.601 482.557 279.941ZM486.708 281.866C486.782 282.284 486.95 282.607 487.214 282.834C487.486 283.061 487.849 283.175 488.303 283.175C488.912 283.175 489.359 282.937 489.645 282.46C489.939 281.983 490.078 281.18 490.063 280.051C489.909 280.381 489.653 280.641 489.293 280.832C488.934 281.015 488.534 281.107 488.094 281.107C487.603 281.107 487.163 281.008 486.774 280.81C486.393 280.605 486.092 280.308 485.872 279.919C485.652 279.53 485.542 279.061 485.542 278.511C485.542 277.726 485.77 277.096 486.224 276.619C486.679 276.135 487.324 275.893 488.16 275.893C489.187 275.893 489.906 276.227 490.316 276.894C490.734 277.561 490.943 278.555 490.943 279.875C490.943 280.799 490.859 281.562 490.69 282.163C490.529 282.764 490.25 283.223 489.854 283.538C489.466 283.853 488.93 284.011 488.248 284.011C487.5 284.011 486.917 283.809 486.499 283.406C486.081 283.003 485.843 282.489 485.784 281.866H486.708ZM488.259 280.26C488.751 280.26 489.154 280.11 489.469 279.809C489.785 279.501 489.942 279.087 489.942 278.566C489.942 278.016 489.788 277.572 489.48 277.235C489.172 276.898 488.74 276.729 488.182 276.729C487.669 276.729 487.258 276.89 486.95 277.213C486.65 277.536 486.499 277.961 486.499 278.489C486.499 279.024 486.65 279.453 486.95 279.776C487.251 280.099 487.687 280.26 488.259 280.26Z" fill="#737B8B"/>
<path d="M473 185H481V265H473V185Z" fill="#57BC90"/>
<path d="M487 225H495V265H487V225Z" fill="#E6E8EC"/>
<path opacity="0.5" d="M188.019 279.941C188.019 278.68 188.225 277.697 188.635 276.993C189.046 276.282 189.765 275.926 190.791 275.926C191.811 275.926 192.526 276.282 192.936 276.993C193.347 277.697 193.552 278.68 193.552 279.941C193.552 281.224 193.347 282.222 192.936 282.933C192.526 283.644 191.811 284 190.791 284C189.765 284 189.046 283.644 188.635 282.933C188.225 282.222 188.019 281.224 188.019 279.941ZM192.562 279.941C192.562 279.303 192.518 278.764 192.43 278.324C192.35 277.877 192.177 277.517 191.913 277.246C191.657 276.975 191.283 276.839 190.791 276.839C190.293 276.839 189.911 276.975 189.647 277.246C189.391 277.517 189.218 277.877 189.13 278.324C189.05 278.764 189.009 279.303 189.009 279.941C189.009 280.601 189.05 281.155 189.13 281.602C189.218 282.049 189.391 282.409 189.647 282.68C189.911 282.951 190.293 283.087 190.791 283.087C191.283 283.087 191.657 282.951 191.913 282.68C192.177 282.409 192.35 282.049 192.43 281.602C192.518 281.155 192.562 280.601 192.562 279.941ZM195.185 282.229V281.47L199.046 276.124H200.245V281.36H201.345V282.229H200.245V284H199.255V282.229H195.185ZM199.299 277.169L196.34 281.36H199.299V277.169Z" fill="#737B8B"/>
<path d="M183 205H191V265H183V205Z" fill="#57BC90"/>
<path d="M197 185H205V265H197V185Z" fill="#E6E8EC"/>
<path opacity="0.5" d="M537.453 276.96V276.047H539.521V284H538.509V276.96H537.453ZM541.74 279.941C541.74 278.68 541.945 277.697 542.356 276.993C542.767 276.282 543.485 275.926 544.512 275.926C545.531 275.926 546.246 276.282 546.657 276.993C547.068 277.697 547.273 278.68 547.273 279.941C547.273 281.224 547.068 282.222 546.657 282.933C546.246 283.644 545.531 284 544.512 284C543.485 284 542.767 283.644 542.356 282.933C541.945 282.222 541.74 281.224 541.74 279.941ZM546.283 279.941C546.283 279.303 546.239 278.764 546.151 278.324C546.07 277.877 545.898 277.517 545.634 277.246C545.377 276.975 545.003 276.839 544.512 276.839C544.013 276.839 543.632 276.975 543.368 277.246C543.111 277.517 542.939 277.877 542.851 278.324C542.77 278.764 542.73 279.303 542.73 279.941C542.73 280.601 542.77 281.155 542.851 281.602C542.939 282.049 543.111 282.409 543.368 282.68C543.632 282.951 544.013 283.087 544.512 283.087C545.003 283.087 545.377 282.951 545.634 282.68C545.898 282.409 546.07 282.049 546.151 281.602C546.239 281.155 546.283 280.601 546.283 279.941Z" fill="#737B8B"/>
<path d="M531 205H539V265H531V205Z" fill="#57BC90"/>
<path d="M545 185H553V265H545V185Z" fill="#E6E8EC"/>
<path opacity="0.5" d="M246.025 279.941C246.025 278.68 246.23 277.697 246.641 276.993C247.051 276.282 247.77 275.926 248.797 275.926C249.816 275.926 250.531 276.282 250.942 276.993C251.352 277.697 251.558 278.68 251.558 279.941C251.558 281.224 251.352 282.222 250.942 282.933C250.531 283.644 249.816 284 248.797 284C247.77 284 247.051 283.644 246.641 282.933C246.23 282.222 246.025 281.224 246.025 279.941ZM250.568 279.941C250.568 279.303 250.524 278.764 250.436 278.324C250.355 277.877 250.183 277.517 249.919 277.246C249.662 276.975 249.288 276.839 248.797 276.839C248.298 276.839 247.917 276.975 247.653 277.246C247.396 277.517 247.224 277.877 247.136 278.324C247.055 278.764 247.015 279.303 247.015 279.941C247.015 280.601 247.055 281.155 247.136 281.602C247.224 282.049 247.396 282.409 247.653 282.68C247.917 282.951 248.298 283.087 248.797 283.087C249.288 283.087 249.662 282.951 249.919 282.68C250.183 282.409 250.355 282.049 250.436 281.602C250.524 281.155 250.568 280.601 250.568 279.941ZM258.503 276.916H254.642V279.424C254.811 279.189 255.06 278.999 255.39 278.852C255.72 278.698 256.076 278.621 256.457 278.621C257.066 278.621 257.561 278.749 257.942 279.006C258.323 279.255 258.595 279.582 258.756 279.985C258.925 280.381 259.009 280.803 259.009 281.25C259.009 281.778 258.91 282.251 258.712 282.669C258.514 283.087 258.21 283.417 257.799 283.659C257.396 283.901 256.893 284.022 256.292 284.022C255.522 284.022 254.899 283.824 254.422 283.428C253.945 283.032 253.656 282.504 253.553 281.844H254.532C254.627 282.262 254.829 282.588 255.137 282.823C255.445 283.058 255.834 283.175 256.303 283.175C256.882 283.175 257.319 283.003 257.612 282.658C257.905 282.306 258.052 281.844 258.052 281.272C258.052 280.7 257.905 280.26 257.612 279.952C257.319 279.637 256.886 279.479 256.314 279.479C255.925 279.479 255.584 279.574 255.291 279.765C255.005 279.948 254.796 280.201 254.664 280.524H253.718V276.036H258.503V276.916Z" fill="#737B8B"/>
<path d="M241 165H249V265H241V165Z" fill="#57BC90"/>
<path d="M255 195H263V265H255V195Z" fill="#E6E8EC"/>
<path opacity="0.5" d="M596.645 276.96V276.047H598.713V284H597.701V276.96H596.645ZM600.668 276.96V276.047H602.736V284H601.724V276.96H600.668Z" fill="#737B8B"/>
<path d="M589 165H597V265H589V165Z" fill="#57BC90"/>
<path d="M603 195H611V265H603V195Z" fill="#E6E8EC"/>
<path opacity="0.5" d="M303.987 279.941C303.987 278.68 304.193 277.697 304.603 276.993C305.014 276.282 305.733 275.926 306.759 275.926C307.779 275.926 308.494 276.282 308.904 276.993C309.315 277.697 309.52 278.68 309.52 279.941C309.52 281.224 309.315 282.222 308.904 282.933C308.494 283.644 307.779 284 306.759 284C305.733 284 305.014 283.644 304.603 282.933C304.193 282.222 303.987 281.224 303.987 279.941ZM308.53 279.941C308.53 279.303 308.486 278.764 308.398 278.324C308.318 277.877 308.145 277.517 307.881 277.246C307.625 276.975 307.251 276.839 306.759 276.839C306.261 276.839 305.879 276.975 305.615 277.246C305.359 277.517 305.186 277.877 305.098 278.324C305.018 278.764 304.977 279.303 304.977 279.941C304.977 280.601 305.018 281.155 305.098 281.602C305.186 282.049 305.359 282.409 305.615 282.68C305.879 282.951 306.261 283.087 306.759 283.087C307.251 283.087 307.625 282.951 307.881 282.68C308.145 282.409 308.318 282.049 308.398 281.602C308.486 281.155 308.53 280.601 308.53 279.941ZM315.827 277.939C315.666 277.125 315.164 276.718 314.32 276.718C313.668 276.718 313.18 276.971 312.857 277.477C312.535 277.976 312.377 278.801 312.384 279.952C312.553 279.571 312.832 279.274 313.22 279.061C313.616 278.841 314.056 278.731 314.54 278.731C315.296 278.731 315.897 278.966 316.344 279.435C316.799 279.904 317.026 280.553 317.026 281.382C317.026 281.881 316.927 282.328 316.729 282.724C316.539 283.12 316.245 283.435 315.849 283.67C315.461 283.905 314.988 284.022 314.43 284.022C313.675 284.022 313.085 283.853 312.659 283.516C312.234 283.179 311.937 282.713 311.768 282.119C311.6 281.525 311.515 280.792 311.515 279.919C311.515 277.228 312.454 275.882 314.331 275.882C315.05 275.882 315.615 276.076 316.025 276.465C316.436 276.854 316.678 277.345 316.751 277.939H315.827ZM314.331 279.578C314.016 279.578 313.719 279.644 313.44 279.776C313.162 279.901 312.934 280.095 312.758 280.359C312.59 280.616 312.505 280.931 312.505 281.305C312.505 281.862 312.667 282.317 312.989 282.669C313.312 283.014 313.774 283.186 314.375 283.186C314.889 283.186 315.296 283.028 315.596 282.713C315.904 282.39 316.058 281.958 316.058 281.415C316.058 280.843 315.912 280.396 315.618 280.073C315.325 279.743 314.896 279.578 314.331 279.578Z" fill="#737B8B"/>
<path d="M299 155H307V265H299V155Z" fill="#57BC90"/>
<path d="M313 215H321V265H313V215Z" fill="#E6E8EC"/>
<path opacity="0.5" d="M653.743 276.96V276.047H655.811V284H654.799V276.96H653.743ZM657.909 283.197C658.84 282.449 659.57 281.837 660.098 281.36C660.626 280.876 661.07 280.374 661.429 279.853C661.796 279.325 661.979 278.808 661.979 278.302C661.979 277.825 661.862 277.451 661.627 277.18C661.4 276.901 661.029 276.762 660.516 276.762C660.017 276.762 659.629 276.92 659.35 277.235C659.079 277.543 658.932 277.957 658.91 278.478H657.942C657.971 277.657 658.221 277.022 658.69 276.575C659.159 276.128 659.764 275.904 660.505 275.904C661.26 275.904 661.858 276.113 662.298 276.531C662.745 276.949 662.969 277.525 662.969 278.258C662.969 278.867 662.786 279.461 662.419 280.04C662.06 280.612 661.649 281.118 661.187 281.558C660.725 281.991 660.135 282.497 659.416 283.076H663.2V283.912H657.909V283.197Z" fill="#737B8B"/>
<path d="M647 155H655V265H647V155Z" fill="#57BC90"/>
<path d="M661 215H669V265H661V215Z" fill="#E6E8EC"/>
<g filter="url(#filter0_d_0_201)">
<path d="M570 5C570 2.23858 572.239 0 575 0H674C676.761 0 679 2.23858 679 5V27C679 29.7614 676.761 32 674 32H575C572.239 32 570 29.7614 570 27V5Z" fill="#FBFCFE"/>
<path d="M575 0.25H674C676.623 0.25 678.75 2.37665 678.75 5V27C678.75 29.6234 676.623 31.75 674 31.75H575C572.377 31.75 570.25 29.6234 570.25 27V5C570.25 2.37665 572.377 0.25 575 0.25Z" stroke="#DDE4F0" stroke-width="0.5"/>
</g>
<path d="M594.087 11.66L590.955 20H589.371L586.227 11.66H587.691L590.163 18.596L592.647 11.66H594.087ZM596.427 12.512C596.179 12.512 595.971 12.428 595.803 12.26C595.635 12.092 595.551 11.884 595.551 11.636C595.551 11.388 595.635 11.18 595.803 11.012C595.971 10.844 596.179 10.76 596.427 10.76C596.667 10.76 596.871 10.844 597.039 11.012C597.207 11.18 597.291 11.388 597.291 11.636C597.291 11.884 597.207 12.092 597.039 12.26C596.871 12.428 596.667 12.512 596.427 12.512ZM597.099 13.388V20L595.731 20V13.388L597.099 13.388ZM605.455 16.532C605.455 16.78 605.439 17.004 605.407 17.204H600.355C600.395 17.732 600.591 18.156 600.943 18.476C601.295 18.796 601.727 18.956 602.239 18.956C602.975 18.956 603.495 18.648 603.799 18.032H605.275C605.075 18.64 604.711 19.14 604.183 19.532C603.663 19.916 603.015 20.108 602.239 20.108C601.607 20.108 601.039 19.968 600.535 19.688C600.039 19.4 599.647 19 599.359 18.488C599.079 17.968 598.939 17.368 598.939 16.688C598.939 16.008 599.075 15.412 599.347 14.9C599.627 14.38 600.015 13.98 600.511 13.7C601.015 13.42 601.591 13.28 602.239 13.28C602.863 13.28 603.419 13.416 603.907 13.688C604.395 13.96 604.775 14.344 605.047 14.84C605.319 15.328 605.455 15.892 605.455 16.532ZM604.027 16.1C604.019 15.596 603.839 15.192 603.487 14.888C603.135 14.584 602.699 14.432 602.179 14.432C601.707 14.432 601.303 14.584 600.967 14.888C600.631 15.184 600.431 15.588 600.367 16.1H604.027ZM616.181 13.388L614.129 20H612.689L611.357 15.116L610.025 20H608.585L606.521 13.388L607.913 13.388L609.293 18.704L610.697 13.388H612.125L613.469 18.68L614.837 13.388L616.181 13.388ZM625.653 20L623.733 16.664H622.689V20H621.321V11.66L624.201 11.66C624.841 11.66 625.381 11.772 625.821 11.996C626.269 12.22 626.601 12.52 626.817 12.896C627.041 13.272 627.153 13.692 627.153 14.156C627.153 14.7 626.993 15.196 626.673 15.644C626.361 16.084 625.877 16.384 625.221 16.544L627.285 20H625.653ZM622.689 15.572L624.201 15.572C624.713 15.572 625.097 15.444 625.353 15.188C625.617 14.932 625.749 14.588 625.749 14.156C625.749 13.724 625.621 13.388 625.365 13.148C625.109 12.9 624.721 12.776 624.201 12.776L622.689 12.776V15.572ZM635.463 16.532C635.463 16.78 635.447 17.004 635.415 17.204H630.363C630.403 17.732 630.599 18.156 630.951 18.476C631.303 18.796 631.735 18.956 632.247 18.956C632.983 18.956 633.503 18.648 633.807 18.032H635.283C635.083 18.64 634.719 19.14 634.191 19.532C633.671 19.916 633.023 20.108 632.247 20.108C631.615 20.108 631.047 19.968 630.543 19.688C630.047 19.4 629.655 19 629.367 18.488C629.087 17.968 628.947 17.368 628.947 16.688C628.947 16.008 629.083 15.412 629.355 14.9C629.635 14.38 630.023 13.98 630.519 13.7C631.023 13.42 631.599 13.28 632.247 13.28C632.871 13.28 633.427 13.416 633.915 13.688C634.403 13.96 634.783 14.344 635.055 14.84C635.327 15.328 635.463 15.892 635.463 16.532ZM634.035 16.1C634.027 15.596 633.847 15.192 633.495 14.888C633.143 14.584 632.707 14.432 632.187 14.432C631.715 14.432 631.311 14.584 630.975 14.888C630.639 15.184 630.439 15.588 630.375 16.1H634.035ZM638.677 14.36C638.909 14.056 639.225 13.8 639.625 13.592C640.025 13.384 640.477 13.28 640.981 13.28C641.557 13.28 642.081 13.424 642.553 13.712C643.033 13.992 643.409 14.388 643.681 14.9C643.953 15.412 644.089 16 644.089 16.664C644.089 17.328 643.953 17.924 643.681 18.452C643.409 18.972 643.033 19.38 642.553 19.676C642.081 19.964 641.557 20.108 640.981 20.108C640.477 20.108 640.029 20.008 639.637 19.808C639.245 19.6 638.925 19.344 638.677 19.04V23.144L637.309 23.144V13.388H638.677V14.36ZM642.697 16.664C642.697 16.208 642.601 15.816 642.409 15.488C642.225 15.152 641.977 14.9 641.665 14.732C641.361 14.556 641.033 14.468 640.681 14.468C640.337 14.468 640.009 14.556 639.697 14.732C639.393 14.908 639.145 15.164 638.953 15.5C638.769 15.836 638.677 16.232 638.677 16.688C638.677 17.144 638.769 17.544 638.953 17.888C639.145 18.224 639.393 18.48 639.697 18.656C640.009 18.832 640.337 18.92 640.681 18.92C641.033 18.92 641.361 18.832 641.665 18.656C641.977 18.472 642.225 18.208 642.409 17.864C642.601 17.52 642.697 17.12 642.697 16.664ZM648.81 20.108C648.186 20.108 647.622 19.968 647.118 19.688C646.614 19.4 646.218 19 645.93 18.488C645.642 17.968 645.498 17.368 645.498 16.688C645.498 16.016 645.646 15.42 645.942 14.9C646.238 14.38 646.642 13.98 647.154 13.7C647.666 13.42 648.238 13.28 648.87 13.28C649.502 13.28 650.074 13.42 650.586 13.7C651.098 13.98 651.502 14.38 651.798 14.9C652.094 15.42 652.242 16.016 652.242 16.688C652.242 17.36 652.09 17.956 651.786 18.476C651.482 18.996 651.066 19.4 650.538 19.688C650.018 19.968 649.442 20.108 648.81 20.108ZM648.81 18.92C649.162 18.92 649.49 18.836 649.794 18.668C650.106 18.5 650.358 18.248 650.55 17.912C650.742 17.576 650.838 17.168 650.838 16.688C650.838 16.208 650.746 15.804 650.562 15.476C650.378 15.14 650.134 14.888 649.83 14.72C649.526 14.552 649.198 14.468 648.846 14.468C648.494 14.468 648.166 14.552 647.862 14.72C647.566 14.888 647.33 15.14 647.154 15.476C646.978 15.804 646.89 16.208 646.89 16.688C646.89 17.4 647.07 17.952 647.43 18.344C647.798 18.728 648.258 18.92 648.81 18.92ZM655.462 14.348C655.662 14.012 655.926 13.752 656.254 13.568C656.59 13.376 656.986 13.28 657.442 13.28V14.696H657.094C656.558 14.696 656.15 14.832 655.87 15.104C655.598 15.376 655.462 15.848 655.462 16.52V20H654.094V13.388L655.462 13.388V14.348ZM660.796 14.504V18.164C660.796 18.412 660.852 18.592 660.964 18.704C661.084 18.808 661.284 18.86 661.564 18.86H662.404V20H661.324C660.708 20 660.236 19.856 659.908 19.568C659.58 19.28 659.416 18.812 659.416 18.164V14.504H658.636V13.388H659.416V11.744H660.796V13.388L662.404 13.388V14.504H660.796Z" fill="#5A6ACF"/>
<path d="M9.47 9.07C9.19933 8.50067 8.80733 8.062 8.294 7.754C7.78067 7.43667 7.18333 7.278 6.502 7.278C5.82067 7.278 5.20467 7.43667 4.654 7.754C4.11267 8.062 3.68333 8.51 3.366 9.098C3.058 9.67667 2.904 10.3487 2.904 11.114C2.904 11.8793 3.058 12.5513 3.366 13.13C3.68333 13.7087 4.11267 14.1567 4.654 14.474C5.20467 14.782 5.82067 14.936 6.502 14.936C7.454 14.936 8.238 14.6513 8.854 14.082C9.47 13.5127 9.82933 12.7427 9.932 11.772H6.04V10.736H11.29V11.716C11.2153 12.5187 10.9633 13.256 10.534 13.928C10.1047 14.5907 9.54 15.118 8.84 15.51C8.14 15.8927 7.36067 16.084 6.502 16.084C5.59667 16.084 4.77067 15.874 4.024 15.454C3.27733 15.0247 2.68467 14.432 2.246 13.676C1.81667 12.92 1.602 12.066 1.602 11.114C1.602 10.162 1.81667 9.308 2.246 8.552C2.68467 7.78667 3.27733 7.194 4.024 6.774C4.77067 6.34467 5.59667 6.13 6.502 6.13C7.538 6.13 8.45267 6.38667 9.246 6.9C10.0487 7.41333 10.632 8.13667 10.996 9.07H9.47ZM12.9985 12.136C12.9985 11.352 13.1572 10.666 13.4745 10.078C13.7918 9.48067 14.2258 9.01867 14.7765 8.692C15.3365 8.36533 15.9572 8.202 16.6385 8.202C17.3105 8.202 17.8938 8.34667 18.3885 8.636C18.8832 8.92533 19.2518 9.28933 19.4945 9.728V8.328H20.7825V16H19.4945V14.572C19.2425 15.02 18.8645 15.3933 18.3605 15.692C17.8658 15.9813 17.2872 16.126 16.6245 16.126C15.9432 16.126 15.3272 15.958 14.7765 15.622C14.2258 15.286 13.7918 14.8147 13.4745 14.208C13.1572 13.6013 12.9985 12.9107 12.9985 12.136ZM19.4945 12.15C19.4945 11.5713 19.3778 11.0673 19.1445 10.638C18.9112 10.2087 18.5938 9.882 18.1925 9.658C17.8005 9.42467 17.3665 9.308 16.8905 9.308C16.4145 9.308 15.9805 9.42 15.5885 9.644C15.1965 9.868 14.8838 10.1947 14.6505 10.624C14.4172 11.0533 14.3005 11.5573 14.3005 12.136C14.3005 12.724 14.4172 13.2373 14.6505 13.676C14.8838 14.1053 15.1965 14.4367 15.5885 14.67C15.9805 14.894 16.4145 15.006 16.8905 15.006C17.3665 15.006 17.8005 14.894 18.1925 14.67C18.5938 14.4367 18.9112 14.1053 19.1445 13.676C19.3778 13.2373 19.4945 12.7287 19.4945 12.15ZM26.1514 16.126C25.5634 16.126 25.0361 16.028 24.5694 15.832C24.1028 15.6267 23.7341 15.3467 23.4634 14.992C23.1928 14.628 23.0434 14.2127 23.0154 13.746H24.3314C24.3688 14.1287 24.5461 14.4413 24.8634 14.684C25.1901 14.9267 25.6148 15.048 26.1374 15.048C26.6228 15.048 27.0054 14.9407 27.2854 14.726C27.5654 14.5113 27.7054 14.2407 27.7054 13.914C27.7054 13.578 27.5561 13.3307 27.2574 13.172C26.9588 13.004 26.4968 12.8407 25.8714 12.682C25.3021 12.5327 24.8354 12.3833 24.4714 12.234C24.1168 12.0753 23.8088 11.8467 23.5474 11.548C23.2954 11.24 23.1694 10.8387 23.1694 10.344C23.1694 9.952 23.2861 9.59267 23.5194 9.266C23.7528 8.93933 24.0841 8.68267 24.5134 8.496C24.9428 8.3 25.4328 8.202 25.9834 8.202C26.8328 8.202 27.5188 8.41667 28.0414 8.846C28.5641 9.27533 28.8441 9.86333 28.8814 10.61H27.6074C27.5794 10.2087 27.4161 9.88667 27.1174 9.644C26.8281 9.40133 26.4361 9.28 25.9414 9.28C25.4841 9.28 25.1201 9.378 24.8494 9.574C24.5788 9.77 24.4434 10.0267 24.4434 10.344C24.4434 10.596 24.5228 10.806 24.6814 10.974C24.8494 11.1327 25.0548 11.2633 25.2974 11.366C25.5494 11.4593 25.8948 11.5667 26.3334 11.688C26.8841 11.8373 27.3321 11.9867 27.6774 12.136C28.0228 12.276 28.3168 12.4907 28.5594 12.78C28.8114 13.0693 28.9421 13.4473 28.9514 13.914C28.9514 14.334 28.8348 14.712 28.6014 15.048C28.3681 15.384 28.0368 15.65 27.6074 15.846C27.1874 16.0327 26.7021 16.126 26.1514 16.126ZM32.8039 9.378V13.9C32.8039 14.2733 32.8832 14.5393 33.0419 14.698C33.2005 14.8473 33.4759 14.922 33.8679 14.922H34.8059V16H33.6579C32.9485 16 32.4165 15.8367 32.0619 15.51C31.7072 15.1833 31.5299 14.6467 31.5299 13.9V9.378H30.5359V8.328H31.5299V6.396H32.8039V8.328H34.8059V9.378H32.8039ZM40.1955 16.126C39.4768 16.126 38.8235 15.9627 38.2355 15.636C37.6568 15.3093 37.1995 14.8473 36.8635 14.25C36.5368 13.6433 36.3735 12.9433 36.3735 12.15C36.3735 11.366 36.5415 10.6753 36.8775 10.078C37.2228 9.47133 37.6895 9.00933 38.2775 8.692C38.8655 8.36533 39.5235 8.202 40.2515 8.202C40.9795 8.202 41.6375 8.36533 42.2255 8.692C42.8135 9.00933 43.2755 9.46667 43.6115 10.064C43.9568 10.6613 44.1295 11.3567 44.1295 12.15C44.1295 12.9433 43.9522 13.6433 43.5975 14.25C43.2522 14.8473 42.7808 15.3093 42.1835 15.636C41.5862 15.9627 40.9235 16.126 40.1955 16.126ZM40.1955 15.006C40.6528 15.006 41.0822 14.8987 41.4835 14.684C41.8848 14.4693 42.2068 14.1473 42.4495 13.718C42.7015 13.2887 42.8275 12.766 42.8275 12.15C42.8275 11.534 42.7062 11.0113 42.4635 10.582C42.2208 10.1527 41.9035 9.83533 41.5115 9.63C41.1195 9.41533 40.6948 9.308 40.2375 9.308C39.7708 9.308 39.3415 9.41533 38.9495 9.63C38.5668 9.83533 38.2588 10.1527 38.0255 10.582C37.7922 11.0113 37.6755 11.534 37.6755 12.15C37.6755 12.7753 37.7875 13.3027 38.0115 13.732C38.2448 14.1613 38.5528 14.4833 38.9355 14.698C39.3182 14.9033 39.7382 15.006 40.1955 15.006ZM49.0206 16.126C48.4326 16.126 47.9052 16.028 47.4386 15.832C46.9719 15.6267 46.6032 15.3467 46.3326 14.992C46.0619 14.628 45.9126 14.2127 45.8846 13.746H47.2006C47.2379 14.1287 47.4152 14.4413 47.7326 14.684C48.0592 14.9267 48.4839 15.048 49.0066 15.048C49.4919 15.048 49.8746 14.9407 50.1546 14.726C50.4346 14.5113 50.5746 14.2407 50.5746 13.914C50.5746 13.578 50.4252 13.3307 50.1266 13.172C49.8279 13.004 49.3659 12.8407 48.7406 12.682C48.1712 12.5327 47.7046 12.3833 47.3406 12.234C46.9859 12.0753 46.6779 11.8467 46.4166 11.548C46.1646 11.24 46.0386 10.8387 46.0386 10.344C46.0386 9.952 46.1552 9.59267 46.3886 9.266C46.6219 8.93933 46.9532 8.68267 47.3826 8.496C47.8119 8.3 48.3019 8.202 48.8526 8.202C49.7019 8.202 50.3879 8.41667 50.9106 8.846C51.4332 9.27533 51.7132 9.86333 51.7506 10.61H50.4766C50.4486 10.2087 50.2852 9.88667 49.9866 9.644C49.6972 9.40133 49.3052 9.28 48.8106 9.28C48.3532 9.28 47.9892 9.378 47.7186 9.574C47.4479 9.77 47.3126 10.0267 47.3126 10.344C47.3126 10.596 47.3919 10.806 47.5506 10.974C47.7186 11.1327 47.9239 11.2633 48.1666 11.366C48.4186 11.4593 48.7639 11.5667 49.2026 11.688C49.7532 11.8373 50.2012 11.9867 50.5466 12.136C50.8919 12.276 51.1859 12.4907 51.4286 12.78C51.6806 13.0693 51.8112 13.4473 51.8206 13.914C51.8206 14.334 51.7039 14.712 51.4706 15.048C51.2372 15.384 50.9059 15.65 50.4766 15.846C50.0566 16.0327 49.5712 16.126 49.0206 16.126ZM67.5774 8.188C68.1748 8.188 68.7068 8.314 69.1734 8.566C69.6401 8.80867 70.0088 9.17733 70.2794 9.672C70.5501 10.1667 70.6854 10.7687 70.6854 11.478V16H69.4254V11.66C69.4254 10.8947 69.2341 10.3113 68.8514 9.91C68.4781 9.49933 67.9694 9.294 67.3254 9.294C66.6628 9.294 66.1354 9.50867 65.7434 9.938C65.3514 10.358 65.1554 10.9693 65.1554 11.772V16H63.8954V11.66C63.8954 10.8947 63.7041 10.3113 63.3214 9.91C62.9481 9.49933 62.4394 9.294 61.7954 9.294C61.1328 9.294 60.6054 9.50867 60.2134 9.938C59.8214 10.358 59.6254 10.9693 59.6254 11.772V16H58.3514V8.328H59.6254V9.434C59.8774 9.03267 60.2134 8.72467 60.6334 8.51C61.0628 8.29533 61.5341 8.188 62.0474 8.188C62.6914 8.188 63.2608 8.33267 63.7554 8.622C64.2501 8.91133 64.6188 9.336 64.8614 9.896C65.0761 9.35467 65.4308 8.93467 65.9254 8.636C66.4201 8.33733 66.9708 8.188 67.5774 8.188ZM80.2753 11.87C80.2753 12.1127 80.2613 12.3693 80.2333 12.64H74.1013C74.1479 13.396 74.4046 13.9887 74.8713 14.418C75.3473 14.838 75.9213 15.048 76.5933 15.048C77.1439 15.048 77.6013 14.922 77.9653 14.67C78.3386 14.4087 78.5999 14.0633 78.7493 13.634H80.1213C79.9159 14.3713 79.5053 14.9733 78.8893 15.44C78.2733 15.8973 77.5079 16.126 76.5933 16.126C75.8653 16.126 75.2119 15.9627 74.6333 15.636C74.0639 15.3093 73.6159 14.8473 73.2893 14.25C72.9626 13.6433 72.7993 12.9433 72.7993 12.15C72.7993 11.3567 72.9579 10.6613 73.2753 10.064C73.5926 9.46667 74.0359 9.00933 74.6053 8.692C75.1839 8.36533 75.8466 8.202 76.5933 8.202C77.3213 8.202 77.9653 8.36067 78.5253 8.678C79.0853 8.99533 79.5146 9.434 79.8133 9.994C80.1213 10.5447 80.2753 11.17 80.2753 11.87ZM78.9593 11.604C78.9593 11.1187 78.8519 10.7033 78.6373 10.358C78.4226 10.0033 78.1286 9.73733 77.7553 9.56C77.3913 9.37333 76.9853 9.28 76.5373 9.28C75.8933 9.28 75.3426 9.48533 74.8853 9.896C74.4373 10.3067 74.1806 10.876 74.1153 11.604H78.9593ZM86.1949 8.188C87.1282 8.188 87.8842 8.47267 88.4629 9.042C89.0416 9.602 89.3309 10.414 89.3309 11.478V16H88.0709V11.66C88.0709 10.8947 87.8796 10.3113 87.4969 9.91C87.1142 9.49933 86.5916 9.294 85.9289 9.294C85.2569 9.294 84.7202 9.504 84.3189 9.924C83.9269 10.344 83.7309 10.9553 83.7309 11.758V16H82.4569V8.328H83.7309V9.42C83.9829 9.028 84.3236 8.72467 84.7529 8.51C85.1916 8.29533 85.6722 8.188 86.1949 8.188ZM94.628 16.126C94.04 16.126 93.5127 16.028 93.046 15.832C92.5793 15.6267 92.2107 15.3467 91.94 14.992C91.6693 14.628 91.52 14.2127 91.492 13.746H92.808C92.8453 14.1287 93.0227 14.4413 93.34 14.684C93.6667 14.9267 94.0913 15.048 94.614 15.048C95.0993 15.048 95.482 14.9407 95.762 14.726C96.042 14.5113 96.182 14.2407 96.182 13.914C96.182 13.578 96.0327 13.3307 95.734 13.172C95.4353 13.004 94.9733 12.8407 94.348 12.682C93.7787 12.5327 93.312 12.3833 92.948 12.234C92.5933 12.0753 92.2853 11.8467 92.024 11.548C91.772 11.24 91.646 10.8387 91.646 10.344C91.646 9.952 91.7627 9.59267 91.996 9.266C92.2293 8.93933 92.5607 8.68267 92.99 8.496C93.4193 8.3 93.9093 8.202 94.46 8.202C95.3093 8.202 95.9953 8.41667 96.518 8.846C97.0407 9.27533 97.3207 9.86333 97.358 10.61H96.084C96.056 10.2087 95.8927 9.88667 95.594 9.644C95.3047 9.40133 94.9127 9.28 94.418 9.28C93.9607 9.28 93.5967 9.378 93.326 9.574C93.0553 9.77 92.92 10.0267 92.92 10.344C92.92 10.596 92.9993 10.806 93.158 10.974C93.326 11.1327 93.5313 11.2633 93.774 11.366C94.026 11.4593 94.3713 11.5667 94.81 11.688C95.3607 11.8373 95.8087 11.9867 96.154 12.136C96.4993 12.276 96.7933 12.4907 97.036 12.78C97.288 13.0693 97.4187 13.4473 97.428 13.914C97.428 14.334 97.3113 14.712 97.078 15.048C96.8447 15.384 96.5133 15.65 96.084 15.846C95.664 16.0327 95.1787 16.126 94.628 16.126ZM99.2504 12.136C99.2504 11.352 99.4091 10.666 99.7264 10.078C100.044 9.48067 100.478 9.01867 101.028 8.692C101.588 8.36533 102.209 8.202 102.89 8.202C103.562 8.202 104.146 8.34667 104.64 8.636C105.135 8.92533 105.504 9.28933 105.746 9.728V8.328H107.034V16H105.746V14.572C105.494 15.02 105.116 15.3933 104.612 15.692C104.118 15.9813 103.539 16.126 102.876 16.126C102.195 16.126 101.579 15.958 101.028 15.622C100.478 15.286 100.044 14.8147 99.7264 14.208C99.4091 13.6013 99.2504 12.9107 99.2504 12.136ZM105.746 12.15C105.746 11.5713 105.63 11.0673 105.396 10.638C105.163 10.2087 104.846 9.882 104.444 9.658C104.052 9.42467 103.618 9.308 103.142 9.308C102.666 9.308 102.232 9.42 101.84 9.644C101.448 9.868 101.136 10.1947 100.902 10.624C100.669 11.0533 100.552 11.5573 100.552 12.136C100.552 12.724 100.669 13.2373 100.902 13.676C101.136 14.1053 101.448 14.4367 101.84 14.67C102.232 14.894 102.666 15.006 103.142 15.006C103.618 15.006 104.052 14.894 104.444 14.67C104.846 14.4367 105.163 14.1053 105.396 13.676C105.63 13.2373 105.746 12.7287 105.746 12.15ZM110.345 7.082C110.103 7.082 109.897 6.998 109.729 6.83C109.561 6.662 109.477 6.45667 109.477 6.214C109.477 5.97133 109.561 5.766 109.729 5.598C109.897 5.43 110.103 5.346 110.345 5.346C110.579 5.346 110.775 5.43 110.933 5.598C111.101 5.766 111.185 5.97133 111.185 6.214C111.185 6.45667 111.101 6.662 110.933 6.83C110.775 6.998 110.579 7.082 110.345 7.082ZM110.961 8.328V16H109.687V8.328H110.961ZM116.349 16.126C115.761 16.126 115.233 16.028 114.767 15.832C114.3 15.6267 113.931 15.3467 113.661 14.992C113.39 14.628 113.241 14.2127 113.213 13.746H114.529C114.566 14.1287 114.743 14.4413 115.061 14.684C115.387 14.9267 115.812 15.048 116.335 15.048C116.82 15.048 117.203 14.9407 117.483 14.726C117.763 14.5113 117.903 14.2407 117.903 13.914C117.903 13.578 117.753 13.3307 117.455 13.172C117.156 13.004 116.694 12.8407 116.069 12.682C115.499 12.5327 115.033 12.3833 114.669 12.234C114.314 12.0753 114.006 11.8467 113.745 11.548C113.493 11.24 113.367 10.8387 113.367 10.344C113.367 9.952 113.483 9.59267 113.717 9.266C113.95 8.93933 114.281 8.68267 114.711 8.496C115.14 8.3 115.63 8.202 116.181 8.202C117.03 8.202 117.716 8.41667 118.239 8.846C118.761 9.27533 119.041 9.86333 119.079 10.61H117.805C117.777 10.2087 117.613 9.88667 117.315 9.644C117.025 9.40133 116.633 9.28 116.139 9.28C115.681 9.28 115.317 9.378 115.047 9.574C114.776 9.77 114.641 10.0267 114.641 10.344C114.641 10.596 114.72 10.806 114.879 10.974C115.047 11.1327 115.252 11.2633 115.495 11.366C115.747 11.4593 116.092 11.5667 116.531 11.688C117.081 11.8373 117.529 11.9867 117.875 12.136C118.22 12.276 118.514 12.4907 118.757 12.78C119.009 13.0693 119.139 13.4473 119.149 13.914C119.149 14.334 119.032 14.712 118.799 15.048C118.565 15.384 118.234 15.65 117.805 15.846C117.385 16.0327 116.899 16.126 116.349 16.126Z" fill="black"/>
<path d="M7.08 51.14C6.14667 51.14 5.30667 50.98 4.56 50.66C3.81333 50.3267 3.22667 49.86 2.8 49.26C2.37333 48.66 2.16 47.96 2.16 47.16H4.6C4.65333 47.76 4.88667 48.2533 5.3 48.64C5.72667 49.0267 6.32 49.22 7.08 49.22C7.86667 49.22 8.48 49.0333 8.92 48.66C9.36 48.2733 9.58 47.78 9.58 47.18C9.58 46.7133 9.44 46.3333 9.16 46.04C8.89333 45.7467 8.55333 45.52 8.14 45.36C7.74 45.2 7.18 45.0267 6.46 44.84C5.55333 44.6 4.81333 44.36 4.24 44.12C3.68 43.8667 3.2 43.48 2.8 42.96C2.4 42.44 2.2 41.7467 2.2 40.88C2.2 40.08 2.4 39.38 2.8 38.78C3.2 38.18 3.76 37.72 4.48 37.4C5.2 37.08 6.03333 36.92 6.98 36.92C8.32667 36.92 9.42667 37.26 10.28 37.94C11.1467 38.6067 11.6267 39.5267 11.72 40.7H9.2C9.16 40.1933 8.92 39.76 8.48 39.4C8.04 39.04 7.46 38.86 6.74 38.86C6.08667 38.86 5.55333 39.0267 5.14 39.36C4.72667 39.6933 4.52 40.1733 4.52 40.8C4.52 41.2267 4.64667 41.58 4.9 41.86C5.16667 42.1267 5.5 42.34 5.9 42.5C6.3 42.66 6.84667 42.8333 7.54 43.02C8.46 43.2733 9.20667 43.5267 9.78 43.78C10.3667 44.0333 10.86 44.4267 11.26 44.96C11.6733 45.48 11.88 46.18 11.88 47.06C11.88 47.7667 11.6867 48.4333 11.3 49.06C10.9267 49.6867 10.3733 50.1933 9.64 50.58C8.92 50.9533 8.06667 51.14 7.08 51.14ZM14.3103 45.44C14.3103 44.3333 14.537 43.3533 14.9903 42.5C15.457 41.6467 16.0836 40.9867 16.8703 40.52C17.6703 40.04 18.5503 39.8 19.5103 39.8C20.377 39.8 21.1303 39.9733 21.7703 40.32C22.4236 40.6533 22.9436 41.0733 23.3303 41.58V39.98H25.6303V51H23.3303V49.36C22.9436 49.88 22.417 50.3133 21.7503 50.66C21.0836 51.0067 20.3236 51.18 19.4703 51.18C18.5236 51.18 17.657 50.94 16.8703 50.46C16.0836 49.9667 15.457 49.2867 14.9903 48.42C14.537 47.54 14.3103 46.5467 14.3103 45.44ZM23.3303 45.48C23.3303 44.72 23.1703 44.06 22.8503 43.5C22.5436 42.94 22.137 42.5133 21.6303 42.22C21.1236 41.9267 20.577 41.78 19.9903 41.78C19.4036 41.78 18.857 41.9267 18.3503 42.22C17.8436 42.5 17.4303 42.92 17.1103 43.48C16.8036 44.0267 16.6503 44.68 16.6503 45.44C16.6503 46.2 16.8036 46.8667 17.1103 47.44C17.4303 48.0133 17.8436 48.4533 18.3503 48.76C18.8703 49.0533 19.417 49.2 19.9903 49.2C20.577 49.2 21.1236 49.0533 21.6303 48.76C22.137 48.4667 22.5436 48.04 22.8503 47.48C23.1703 46.9067 23.3303 46.24 23.3303 45.48ZM31.405 36.2V51H29.125V36.2H31.405ZM34.1384 45.44C34.1384 44.3333 34.3651 43.3533 34.8184 42.5C35.2851 41.6467 35.9118 40.9867 36.6984 40.52C37.4984 40.04 38.3851 39.8 39.3584 39.8C40.0784 39.8 40.7851 39.96 41.4784 40.28C42.1851 40.5867 42.7451 41 43.1584 41.52V36.2H45.4584V51H43.1584V49.34C42.7851 49.8733 42.2651 50.3133 41.5984 50.66C40.9451 51.0067 40.1918 51.18 39.3384 51.18C38.3784 51.18 37.4984 50.94 36.6984 50.46C35.9118 49.9667 35.2851 49.2867 34.8184 48.42C34.3651 47.54 34.1384 46.5467 34.1384 45.44ZM43.1584 45.48C43.1584 44.72 42.9984 44.06 42.6784 43.5C42.3718 42.94 41.9651 42.5133 41.4584 42.22C40.9518 41.9267 40.4051 41.78 39.8184 41.78C39.2318 41.78 38.6851 41.9267 38.1784 42.22C37.6718 42.5 37.2584 42.92 36.9384 43.48C36.6318 44.0267 36.4784 44.68 36.4784 45.44C36.4784 46.2 36.6318 46.8667 36.9384 47.44C37.2584 48.0133 37.6718 48.4533 38.1784 48.76C38.6984 49.0533 39.2451 49.2 39.8184 49.2C40.4051 49.2 40.9518 49.0533 41.4584 48.76C41.9651 48.4667 42.3718 48.04 42.6784 47.48C42.9984 46.9067 43.1584 46.24 43.1584 45.48ZM53.7331 51.18C52.6931 51.18 51.7531 50.9467 50.9131 50.48C50.0731 50 49.4131 49.3333 48.9331 48.48C48.4531 47.6133 48.2131 46.6133 48.2131 45.48C48.2131 44.36 48.4598 43.3667 48.9531 42.5C49.4465 41.6333 50.1198 40.9667 50.9731 40.5C51.8265 40.0333 52.7798 39.8 53.8331 39.8C54.8865 39.8 55.8398 40.0333 56.6931 40.5C57.5465 40.9667 58.2198 41.6333 58.7131 42.5C59.2065 43.3667 59.4531 44.36 59.4531 45.48C59.4531 46.6 59.1998 47.5933 58.6931 48.46C58.1865 49.3267 57.4931 50 56.6131 50.48C55.7465 50.9467 54.7865 51.18 53.7331 51.18ZM53.7331 49.2C54.3198 49.2 54.8665 49.06 55.3731 48.78C55.8931 48.5 56.3131 48.08 56.6331 47.52C56.9531 46.96 57.1131 46.28 57.1131 45.48C57.1131 44.68 56.9598 44.0067 56.6531 43.46C56.3465 42.9 55.9398 42.48 55.4331 42.2C54.9265 41.92 54.3798 41.78 53.7931 41.78C53.2065 41.78 52.6598 41.92 52.1531 42.2C51.6598 42.48 51.2665 42.9 50.9731 43.46C50.6798 44.0067 50.5331 44.68 50.5331 45.48C50.5331 46.6667 50.8331 47.5867 51.4331 48.24C52.0465 48.88 52.8131 49.2 53.7331 49.2ZM63.127 51.14C62.7137 51.14 62.367 51 62.087 50.72C61.807 50.44 61.667 50.0933 61.667 49.68C61.667 49.2667 61.807 48.92 62.087 48.64C62.367 48.36 62.7137 48.22 63.127 48.22C63.527 48.22 63.867 48.36 64.147 48.64C64.427 48.92 64.567 49.2667 64.567 49.68C64.567 50.0933 64.427 50.44 64.147 50.72C63.867 51 63.527 51.14 63.127 51.14ZM63.127 42.74C62.7137 42.74 62.367 42.6 62.087 42.32C61.807 42.04 61.667 41.6933 61.667 41.28C61.667 40.8667 61.807 40.52 62.087 40.24C62.367 39.96 62.7137 39.82 63.127 39.82C63.527 39.82 63.867 39.96 64.147 40.24C64.427 40.52 64.567 40.8667 64.567 41.28C64.567 41.6933 64.427 42.04 64.147 42.32C63.867 42.6 63.527 42.74 63.127 42.74ZM80.5247 51L77.3247 45.44H75.5847V51H73.3047V37.1H78.1047C79.1714 37.1 80.0714 37.2867 80.8047 37.66C81.5514 38.0333 82.1047 38.5333 82.4647 39.16C82.838 39.7867 83.0247 40.4867 83.0247 41.26C83.0247 42.1667 82.758 42.9933 82.2247 43.74C81.7047 44.4733 80.898 44.9733 79.8047 45.24L83.2447 51H80.5247ZM75.5847 43.62H78.1047C78.958 43.62 79.598 43.4067 80.0247 42.98C80.4647 42.5533 80.6847 41.98 80.6847 41.26C80.6847 40.54 80.4714 39.98 80.0447 39.58C79.618 39.1667 78.9714 38.96 78.1047 38.96H75.5847V43.62ZM95.8214 47.04C95.8214 47.7067 95.6547 48.3333 95.3214 48.92C95.0014 49.5067 94.5214 50 93.8814 50.4C93.2547 50.8 92.5081 51.04 91.6414 51.12V52.74H90.3414V51.12C89.0881 51 88.0747 50.6067 87.3014 49.94C86.5281 49.2733 86.1414 48.3933 86.1414 47.3H88.5814C88.6214 47.82 88.7881 48.2533 89.0814 48.6C89.3747 48.9333 89.7947 49.1467 90.3414 49.24V44.84C89.4481 44.6133 88.7214 44.3867 88.1614 44.16C87.6014 43.92 87.1214 43.5467 86.7214 43.04C86.3347 42.5333 86.1414 41.84 86.1414 40.96C86.1414 39.8533 86.5281 38.94 87.3014 38.22C88.0747 37.4867 89.0881 37.06 90.3414 36.94V35.32H91.6414V36.94C92.8147 37.0467 93.7547 37.42 94.4614 38.06C95.1814 38.6867 95.5881 39.5533 95.6814 40.66H93.2414C93.2014 40.2467 93.0414 39.88 92.7614 39.56C92.4814 39.2267 92.1081 39 91.6414 38.88V43.2C92.5347 43.4133 93.2614 43.64 93.8214 43.88C94.3814 44.1067 94.8547 44.4733 95.2414 44.98C95.6281 45.4733 95.8214 46.16 95.8214 47.04ZM88.4614 40.84C88.4614 41.3867 88.6214 41.8133 88.9414 42.12C89.2747 42.4267 89.7414 42.6733 90.3414 42.86V38.82C89.7681 38.8867 89.3081 39.0933 88.9614 39.44C88.6281 39.7867 88.4614 40.2533 88.4614 40.84ZM91.6414 49.24C92.2281 49.1467 92.6881 48.9133 93.0214 48.54C93.3547 48.1533 93.5214 47.6933 93.5214 47.16C93.5214 46.6267 93.3547 46.2133 93.0214 45.92C92.7014 45.6133 92.2414 45.3667 91.6414 45.18V49.24ZM114.585 38.18L109.025 51H106.725L112.345 38.42H104.945V36.48H114.585V38.18ZM118.256 51.14C117.843 51.14 117.496 51 117.216 50.72C116.936 50.44 116.796 50.0933 116.796 49.68C116.796 49.2667 116.936 48.92 117.216 48.64C117.496 48.36 117.843 48.22 118.256 48.22C118.656 48.22 118.996 48.36 119.276 48.64C119.556 48.92 119.696 49.2667 119.696 49.68C119.696 50.0933 119.556 50.44 119.276 50.72C118.996 51 118.656 51.14 118.256 51.14ZM124.82 43.38C123.433 42.6867 122.74 41.5933 122.74 40.1C122.74 39.38 122.92 38.72 123.28 38.12C123.64 37.52 124.18 37.0467 124.9 36.7C125.62 36.34 126.5 36.16 127.54 36.16C128.567 36.16 129.44 36.34 130.16 36.7C130.893 37.0467 131.44 37.52 131.8 38.12C132.16 38.72 132.34 39.38 132.34 40.1C132.34 40.8467 132.147 41.5067 131.76 42.08C131.387 42.64 130.887 43.0733 130.26 43.38C131.02 43.66 131.62 44.12 132.06 44.76C132.5 45.3867 132.72 46.1267 132.72 46.98C132.72 47.8467 132.5 48.6133 132.06 49.28C131.62 49.9467 131.007 50.46 130.22 50.82C129.433 51.18 128.54 51.36 127.54 51.36C126.54 51.36 125.647 51.18 124.86 50.82C124.087 50.46 123.48 49.9467 123.04 49.28C122.6 48.6133 122.38 47.8467 122.38 46.98C122.38 46.1133 122.6 45.3667 123.04 44.74C123.48 44.1133 124.073 43.66 124.82 43.38ZM130.16 40.38C130.16 39.6333 129.927 39.06 129.46 38.66C128.993 38.26 128.353 38.06 127.54 38.06C126.74 38.06 126.107 38.26 125.64 38.66C125.173 39.06 124.94 39.64 124.94 40.4C124.94 41.0667 125.18 41.6133 125.66 42.04C126.153 42.4533 126.78 42.66 127.54 42.66C128.3 42.66 128.927 42.4467 129.42 42.02C129.913 41.5933 130.16 41.0467 130.16 40.38ZM127.54 44.38C126.66 44.38 125.94 44.6 125.38 45.04C124.833 45.4667 124.56 46.0867 124.56 46.9C124.56 47.66 124.827 48.28 125.36 48.76C125.893 49.2267 126.62 49.46 127.54 49.46C128.447 49.46 129.16 49.22 129.68 48.74C130.213 48.26 130.48 47.6467 130.48 46.9C130.48 46.1 130.207 45.48 129.66 45.04C129.127 44.6 128.42 44.38 127.54 44.38ZM145.014 38.38H138.314V42.36C138.594 41.9867 139.007 41.6733 139.554 41.42C140.114 41.1667 140.707 41.04 141.334 41.04C142.454 41.04 143.361 41.28 144.054 41.76C144.761 42.24 145.261 42.8467 145.554 43.58C145.861 44.3133 146.014 45.0867 146.014 45.9C146.014 46.8867 145.821 47.7667 145.434 48.54C145.061 49.3 144.494 49.9 143.734 50.34C142.987 50.78 142.067 51 140.974 51C139.521 51 138.354 50.64 137.474 49.92C136.594 49.2 136.067 48.2467 135.894 47.06H138.114C138.261 47.6867 138.587 48.1867 139.094 48.56C139.601 48.92 140.234 49.1 140.994 49.1C141.941 49.1 142.647 48.8133 143.114 48.24C143.594 47.6667 143.834 46.9067 143.834 45.96C143.834 45 143.594 44.2667 143.114 43.76C142.634 43.24 141.927 42.98 140.994 42.98C140.341 42.98 139.787 43.1467 139.334 43.48C138.894 43.8 138.574 44.24 138.374 44.8H136.214V36.38H145.014V38.38ZM150.148 47.9C151.428 46.7933 152.434 45.8867 153.168 45.18C153.914 44.46 154.534 43.7133 155.028 42.94C155.521 42.1667 155.768 41.3933 155.768 40.62C155.768 39.82 155.574 39.1933 155.188 38.74C154.814 38.2867 154.221 38.06 153.408 38.06C152.621 38.06 152.008 38.3133 151.568 38.82C151.141 39.3133 150.914 39.98 150.888 40.82H148.688C148.728 39.3 149.181 38.14 150.048 37.34C150.928 36.5267 152.041 36.12 153.388 36.12C154.841 36.12 155.974 36.52 156.788 37.32C157.614 38.12 158.028 39.1867 158.028 40.52C158.028 41.48 157.781 42.4067 157.288 43.3C156.808 44.18 156.228 44.9733 155.548 45.68C154.881 46.3733 154.028 47.18 152.988 48.1L152.088 48.9H158.428V50.8H148.708V49.14L150.148 47.9ZM163.73 48.26L161.31 53.78H159.83L161.25 48.26H163.73ZM165.923 43.52C165.923 41.2133 166.309 39.4133 167.083 38.12C167.869 36.8133 169.216 36.16 171.123 36.16C173.029 36.16 174.369 36.8133 175.143 38.12C175.929 39.4133 176.323 41.2133 176.323 43.52C176.323 45.8533 175.929 47.68 175.143 49C174.369 50.3067 173.029 50.96 171.123 50.96C169.216 50.96 167.869 50.3067 167.083 49C166.309 47.68 165.923 45.8533 165.923 43.52ZM174.083 43.52C174.083 42.44 174.009 41.5267 173.863 40.78C173.729 40.0333 173.449 39.4267 173.023 38.96C172.596 38.48 171.963 38.24 171.123 38.24C170.283 38.24 169.649 38.48 169.223 38.96C168.796 39.4267 168.509 40.0333 168.363 40.78C168.229 41.5267 168.163 42.44 168.163 43.52C168.163 44.64 168.229 45.58 168.363 46.34C168.496 47.1 168.776 47.7133 169.203 48.18C169.643 48.6467 170.283 48.88 171.123 48.88C171.963 48.88 172.596 48.6467 173.023 48.18C173.463 47.7133 173.749 47.1 173.883 46.34C174.016 45.58 174.083 44.64 174.083 43.52ZM179.235 43.52C179.235 41.2133 179.622 39.4133 180.395 38.12C181.182 36.8133 182.528 36.16 184.435 36.16C186.342 36.16 187.682 36.8133 188.455 38.12C189.242 39.4133 189.635 41.2133 189.635 43.52C189.635 45.8533 189.242 47.68 188.455 49C187.682 50.3067 186.342 50.96 184.435 50.96C182.528 50.96 181.182 50.3067 180.395 49C179.622 47.68 179.235 45.8533 179.235 43.52ZM187.395 43.52C187.395 42.44 187.322 41.5267 187.175 40.78C187.042 40.0333 186.762 39.4267 186.335 38.96C185.908 38.48 185.275 38.24 184.435 38.24C183.595 38.24 182.962 38.48 182.535 38.96C182.108 39.4267 181.822 40.0333 181.675 40.78C181.542 41.5267 181.475 42.44 181.475 43.52C181.475 44.64 181.542 45.58 181.675 46.34C181.808 47.1 182.088 47.7133 182.515 48.18C182.955 48.6467 183.595 48.88 184.435 48.88C185.275 48.88 185.908 48.6467 186.335 48.18C186.775 47.7133 187.062 47.1 187.195 46.34C187.328 45.58 187.395 44.64 187.395 43.52Z" fill="black"/>
<path d="M18.164 76.104C18.932 75.464 19.544 74.932 20 74.508C20.456 74.076 20.836 73.628 21.14 73.164C21.444 72.7 21.596 72.244 21.596 71.796C21.596 71.388 21.5 71.068 21.308 70.836C21.116 70.604 20.82 70.488 20.42 70.488C20.02 70.488 19.712 70.624 19.496 70.896C19.28 71.16 19.168 71.524 19.16 71.988H17.528C17.56 71.028 17.844 70.3 18.38 69.804C18.924 69.308 19.612 69.06 20.444 69.06C21.356 69.06 22.056 69.304 22.544 69.792C23.032 70.272 23.276 70.908 23.276 71.7C23.276 72.324 23.108 72.92 22.772 73.488C22.436 74.056 22.052 74.552 21.62 74.976C21.188 75.392 20.624 75.896 19.928 76.488H23.468V77.88H17.54V76.632L18.164 76.104ZM25.9626 78.084C25.6586 78.084 25.4066 77.992 25.2066 77.808C25.0146 77.616 24.9186 77.38 24.9186 77.1C24.9186 76.82 25.0146 76.588 25.2066 76.404C25.4066 76.212 25.6586 76.116 25.9626 76.116C26.2586 76.116 26.5026 76.212 26.6946 76.404C26.8866 76.588 26.9826 76.82 26.9826 77.1C26.9826 77.38 26.8866 77.616 26.6946 77.808C26.5026 77.992 26.2586 78.084 25.9626 78.084ZM28.4398 70.8V69.252H31.3318V78H29.6038V70.8H28.4398ZM33.2995 71.4C33.2995 70.792 33.4755 70.316 33.8275 69.972C34.1875 69.628 34.6475 69.456 35.2075 69.456C35.7675 69.456 36.2235 69.628 36.5755 69.972C36.9355 70.316 37.1155 70.792 37.1155 71.4C37.1155 72.016 36.9355 72.496 36.5755 72.84C36.2235 73.184 35.7675 73.356 35.2075 73.356C34.6475 73.356 34.1875 73.184 33.8275 72.84C33.4755 72.496 33.2995 72.016 33.2995 71.4ZM41.0035 69.6L36.2875 78H34.6555L39.3595 69.6H41.0035ZM35.1955 70.464C34.7555 70.464 34.5355 70.776 34.5355 71.4C34.5355 72.032 34.7555 72.348 35.1955 72.348C35.4115 72.348 35.5795 72.272 35.6995 72.12C35.8195 71.96 35.8795 71.72 35.8795 71.4C35.8795 70.776 35.6515 70.464 35.1955 70.464ZM38.5675 76.188C38.5675 75.572 38.7435 75.096 39.0955 74.76C39.4555 74.416 39.9155 74.244 40.4755 74.244C41.0355 74.244 41.4875 74.416 41.8315 74.76C42.1835 75.096 42.3595 75.572 42.3595 76.188C42.3595 76.804 42.1835 77.284 41.8315 77.628C41.4875 77.972 41.0355 78.144 40.4755 78.144C39.9075 78.144 39.4475 77.972 39.0955 77.628C38.7435 77.284 38.5675 76.804 38.5675 76.188ZM40.4635 75.252C40.0075 75.252 39.7795 75.564 39.7795 76.188C39.7795 76.82 40.0075 77.136 40.4635 77.136C40.9115 77.136 41.1355 76.82 41.1355 76.188C41.1355 75.564 40.9115 75.252 40.4635 75.252Z" fill="#149D52"/>
<path d="M50.3759 76.992L52.4159 71.424H53.5799L50.9999 78H49.7279L47.1479 71.424H48.3239L50.3759 76.992ZM57.4825 78.108C56.9785 78.108 56.5265 78.024 56.1265 77.856C55.7265 77.68 55.4105 77.44 55.1785 77.136C54.9465 76.824 54.8185 76.468 54.7945 76.068H55.9225C55.9545 76.396 56.1065 76.664 56.3785 76.872C56.6585 77.08 57.0225 77.184 57.4705 77.184C57.8865 77.184 58.2145 77.092 58.4545 76.908C58.6945 76.724 58.8145 76.492 58.8145 76.212C58.8145 75.924 58.6865 75.712 58.4305 75.576C58.1745 75.432 57.7785 75.292 57.2425 75.156C56.7545 75.028 56.3545 74.9 56.0425 74.772C55.7385 74.636 55.4745 74.44 55.2505 74.184C55.0345 73.92 54.9265 73.576 54.9265 73.152C54.9265 72.816 55.0265 72.508 55.2265 72.228C55.4265 71.948 55.7105 71.728 56.0785 71.568C56.4465 71.4 56.8665 71.316 57.3385 71.316C58.0665 71.316 58.6545 71.5 59.1025 71.868C59.5505 72.236 59.7905 72.74 59.8225 73.38H58.7305C58.7065 73.036 58.5665 72.76 58.3105 72.552C58.0625 72.344 57.7265 72.24 57.3025 72.24C56.9105 72.24 56.5985 72.324 56.3665 72.492C56.1345 72.66 56.0185 72.88 56.0185 73.152C56.0185 73.368 56.0865 73.548 56.2225 73.692C56.3665 73.828 56.5425 73.94 56.7505 74.028C56.9665 74.108 57.2625 74.2 57.6385 74.304C58.1105 74.432 58.4945 74.56 58.7905 74.688C59.0865 74.808 59.3385 74.992 59.5465 75.24C59.7625 75.488 59.8745 75.812 59.8825 76.212C59.8825 76.572 59.7825 76.896 59.5825 77.184C59.3825 77.472 59.0985 77.7 58.7305 77.868C58.3705 78.028 57.9545 78.108 57.4825 78.108ZM66.7152 69.12V78H65.6232V69.12H66.7152ZM68.6683 74.688C68.6683 74.016 68.8043 73.428 69.0763 72.924C69.3483 72.412 69.7203 72.016 70.1923 71.736C70.6723 71.456 71.2043 71.316 71.7883 71.316C72.3643 71.316 72.8643 71.44 73.2883 71.688C73.7123 71.936 74.0283 72.248 74.2363 72.624V71.424H75.3403V78H74.2363V76.776C74.0203 77.16 73.6963 77.48 73.2643 77.736C72.8403 77.984 72.3443 78.108 71.7763 78.108C71.1923 78.108 70.6643 77.964 70.1923 77.676C69.7203 77.388 69.3483 76.984 69.0763 76.464C68.8043 75.944 68.6683 75.352 68.6683 74.688ZM74.2363 74.7C74.2363 74.204 74.1363 73.772 73.9363 73.404C73.7363 73.036 73.4643 72.756 73.1203 72.564C72.7843 72.364 72.4123 72.264 72.0043 72.264C71.5963 72.264 71.2243 72.36 70.8883 72.552C70.5523 72.744 70.2843 73.024 70.0843 73.392C69.8843 73.76 69.7843 74.192 69.7843 74.688C69.7843 75.192 69.8843 75.632 70.0843 76.008C70.2843 76.376 70.5523 76.66 70.8883 76.86C71.2243 77.052 71.5963 77.148 72.0043 77.148C72.4123 77.148 72.7843 77.052 73.1203 76.86C73.4643 76.66 73.7363 76.376 73.9363 76.008C74.1363 75.632 74.2363 75.196 74.2363 74.7ZM80.0137 78.108C79.5097 78.108 79.0577 78.024 78.6577 77.856C78.2577 77.68 77.9417 77.44 77.7097 77.136C77.4777 76.824 77.3497 76.468 77.3257 76.068H78.4537C78.4857 76.396 78.6377 76.664 78.9097 76.872C79.1897 77.08 79.5537 77.184 80.0017 77.184C80.4177 77.184 80.7457 77.092 80.9857 76.908C81.2257 76.724 81.3457 76.492 81.3457 76.212C81.3457 75.924 81.2177 75.712 80.9617 75.576C80.7057 75.432 80.3097 75.292 79.7737 75.156C79.2857 75.028 78.8857 74.9 78.5737 74.772C78.2697 74.636 78.0057 74.44 77.7817 74.184C77.5657 73.92 77.4577 73.576 77.4577 73.152C77.4577 72.816 77.5577 72.508 77.7577 72.228C77.9577 71.948 78.2417 71.728 78.6097 71.568C78.9777 71.4 79.3977 71.316 79.8697 71.316C80.5977 71.316 81.1857 71.5 81.6337 71.868C82.0817 72.236 82.3217 72.74 82.3537 73.38H81.2617C81.2377 73.036 81.0977 72.76 80.8417 72.552C80.5937 72.344 80.2577 72.24 79.8337 72.24C79.4417 72.24 79.1297 72.324 78.8977 72.492C78.6657 72.66 78.5497 72.88 78.5497 73.152C78.5497 73.368 78.6177 73.548 78.7537 73.692C78.8977 73.828 79.0737 73.94 79.2817 74.028C79.4977 74.108 79.7937 74.2 80.1697 74.304C80.6417 74.432 81.0257 74.56 81.3217 74.688C81.6177 74.808 81.8697 74.992 82.0777 75.24C82.2937 75.488 82.4057 75.812 82.4137 76.212C82.4137 76.572 82.3137 76.896 82.1137 77.184C81.9137 77.472 81.6297 77.7 81.2617 77.868C80.9017 78.028 80.4857 78.108 80.0137 78.108ZM85.7873 72.324V76.2C85.7873 76.52 85.8553 76.748 85.9913 76.884C86.1273 77.012 86.3633 77.076 86.6992 77.076H87.5033V78H86.5193C85.9113 78 85.4553 77.86 85.1513 77.58C84.8473 77.3 84.6953 76.84 84.6953 76.2V72.324H83.8433V71.424H84.6953V69.768H85.7873V71.424H87.5033V72.324H85.7873ZM101.786 71.424L99.7336 78H98.6056L97.0216 72.78L95.4376 78H94.3096L92.2456 71.424H93.3616L94.8736 76.944L96.5056 71.424H97.6216L99.2176 76.956L100.706 71.424H101.786ZM109.369 74.46C109.369 74.668 109.357 74.888 109.333 75.12H104.077C104.117 75.768 104.337 76.276 104.737 76.644C105.145 77.004 105.637 77.184 106.213 77.184C106.685 77.184 107.077 77.076 107.389 76.86C107.709 76.636 107.933 76.34 108.061 75.972H109.237C109.061 76.604 108.709 77.12 108.181 77.52C107.653 77.912 106.997 78.108 106.213 78.108C105.589 78.108 105.029 77.968 104.533 77.688C104.045 77.408 103.661 77.012 103.381 76.5C103.101 75.98 102.961 75.38 102.961 74.7C102.961 74.02 103.097 73.424 103.369 72.912C103.641 72.4 104.021 72.008 104.509 71.736C105.005 71.456 105.573 71.316 106.213 71.316C106.837 71.316 107.389 71.452 107.869 71.724C108.349 71.996 108.717 72.372 108.973 72.852C109.237 73.324 109.369 73.86 109.369 74.46ZM108.241 74.232C108.241 73.816 108.149 73.46 107.965 73.164C107.781 72.86 107.529 72.632 107.209 72.48C106.897 72.32 106.549 72.24 106.165 72.24C105.613 72.24 105.141 72.416 104.749 72.768C104.365 73.12 104.145 73.608 104.089 74.232H108.241ZM117.311 74.46C117.311 74.668 117.299 74.888 117.275 75.12H112.019C112.059 75.768 112.279 76.276 112.679 76.644C113.087 77.004 113.579 77.184 114.155 77.184C114.627 77.184 115.019 77.076 115.331 76.86C115.651 76.636 115.875 76.34 116.003 75.972H117.179C117.003 76.604 116.651 77.12 116.123 77.52C115.595 77.912 114.939 78.108 114.155 78.108C113.531 78.108 112.971 77.968 112.475 77.688C111.987 77.408 111.603 77.012 111.323 76.5C111.043 75.98 110.903 75.38 110.903 74.7C110.903 74.02 111.039 73.424 111.311 72.912C111.583 72.4 111.963 72.008 112.451 71.736C112.947 71.456 113.515 71.316 114.155 71.316C114.779 71.316 115.331 71.452 115.811 71.724C116.291 71.996 116.659 72.372 116.915 72.852C117.179 73.324 117.311 73.86 117.311 74.46ZM116.183 74.232C116.183 73.816 116.091 73.46 115.907 73.164C115.723 72.86 115.471 72.632 115.151 72.48C114.839 72.32 114.491 72.24 114.107 72.24C113.555 72.24 113.083 72.416 112.691 72.768C112.307 73.12 112.087 73.608 112.031 74.232H116.183ZM122.924 78L120.344 75.096V78H119.252V69.12H120.344V74.34L122.876 71.424H124.4L121.304 74.7L124.412 78H122.924Z" fill="#737B8B"/>
<path d="M4.6086 78L4.6086 68.9639" stroke="#149D52" stroke-width="1.5" stroke-linecap="round" stroke-linejoin="round"/>
<path d="M1.00001 71.5575L4.55761 67.9999L8.1152 71.5575" stroke="#149D52" stroke-width="1.5" stroke-linecap="round" stroke-linejoin="round"/>
<path opacity="0.5" d="M4.874 119.091C4.276 119.091 3.73867 118.987 3.262 118.779C2.794 118.562 2.42567 118.268 2.157 117.895C1.88833 117.514 1.74967 117.076 1.741 116.582H3.002C3.04533 117.007 3.21867 117.366 3.522 117.661C3.834 117.947 4.28467 118.09 4.874 118.09C5.43733 118.09 5.87933 117.951 6.2 117.674C6.52933 117.388 6.694 117.024 6.694 116.582C6.694 116.235 6.59867 115.954 6.408 115.737C6.21733 115.52 5.979 115.356 5.693 115.243C5.407 115.13 5.02133 115.009 4.536 114.879C3.938 114.723 3.457 114.567 3.093 114.411C2.73767 114.255 2.43 114.012 2.17 113.683C1.91867 113.345 1.793 112.894 1.793 112.331C1.793 111.837 1.91867 111.399 2.17 111.018C2.42133 110.637 2.77233 110.342 3.223 110.134C3.68233 109.926 4.20667 109.822 4.796 109.822C5.64533 109.822 6.33867 110.034 6.876 110.459C7.422 110.884 7.72967 111.447 7.799 112.149H6.499C6.45567 111.802 6.27367 111.499 5.953 111.239C5.63233 110.97 5.20767 110.836 4.679 110.836C4.185 110.836 3.782 110.966 3.47 111.226C3.158 111.477 3.002 111.833 3.002 112.292C3.002 112.621 3.093 112.89 3.275 113.098C3.46567 113.306 3.69533 113.466 3.964 113.579C4.24133 113.683 4.627 113.804 5.121 113.943C5.719 114.108 6.2 114.272 6.564 114.437C6.928 114.593 7.24 114.84 7.5 115.178C7.76 115.507 7.89 115.958 7.89 116.53C7.89 116.972 7.773 117.388 7.539 117.778C7.305 118.168 6.95833 118.484 6.499 118.727C6.03967 118.97 5.498 119.091 4.874 119.091ZM9.68888 115.412C9.68888 114.684 9.83622 114.047 10.1309 113.501C10.4255 112.946 10.8285 112.517 11.3399 112.214C11.8599 111.911 12.4362 111.759 13.0689 111.759C13.6929 111.759 14.2345 111.893 14.6939 112.162C15.1532 112.431 15.4955 112.769 15.7209 113.176V111.876H16.9169V119H15.7209V117.674C15.4869 118.09 15.1359 118.437 14.6679 118.714C14.2085 118.983 13.6712 119.117 13.0559 119.117C12.4232 119.117 11.8512 118.961 11.3399 118.649C10.8285 118.337 10.4255 117.899 10.1309 117.336C9.83622 116.773 9.68888 116.131 9.68888 115.412ZM15.7209 115.425C15.7209 114.888 15.6125 114.42 15.3959 114.021C15.1792 113.622 14.8845 113.319 14.5119 113.111C14.1479 112.894 13.7449 112.786 13.3029 112.786C12.8609 112.786 12.4579 112.89 12.0939 113.098C11.7299 113.306 11.4395 113.609 11.2229 114.008C11.0062 114.407 10.8979 114.875 10.8979 115.412C10.8979 115.958 11.0062 116.435 11.2229 116.842C11.4395 117.241 11.7299 117.548 12.0939 117.765C12.4579 117.973 12.8609 118.077 13.3029 118.077C13.7449 118.077 14.1479 117.973 14.5119 117.765C14.8845 117.548 15.1792 117.241 15.3959 116.842C15.6125 116.435 15.7209 115.962 15.7209 115.425ZM20.599 109.38V119H19.416V109.38H20.599ZM29.6153 115.165C29.6153 115.39 29.6023 115.629 29.5763 115.88H23.8823C23.9256 116.582 24.1639 117.132 24.5973 117.531C25.0393 117.921 25.5723 118.116 26.1963 118.116C26.7076 118.116 27.1323 117.999 27.4703 117.765C27.8169 117.522 28.0596 117.202 28.1983 116.803H29.4723C29.2816 117.488 28.9003 118.047 28.3283 118.48C27.7563 118.905 27.0456 119.117 26.1963 119.117C25.5203 119.117 24.9136 118.965 24.3763 118.662C23.8476 118.359 23.4316 117.93 23.1283 117.375C22.8249 116.812 22.6733 116.162 22.6733 115.425C22.6733 114.688 22.8206 114.043 23.1153 113.488C23.4099 112.933 23.8216 112.509 24.3503 112.214C24.8876 111.911 25.5029 111.759 26.1963 111.759C26.8723 111.759 27.4703 111.906 27.9903 112.201C28.5103 112.496 28.9089 112.903 29.1863 113.423C29.4723 113.934 29.6153 114.515 29.6153 115.165ZM28.3933 114.918C28.3933 114.467 28.2936 114.082 28.0943 113.761C27.8949 113.432 27.6219 113.185 27.2753 113.02C26.9373 112.847 26.5603 112.76 26.1443 112.76C25.5463 112.76 25.0349 112.951 24.6103 113.332C24.1943 113.713 23.9559 114.242 23.8953 114.918H28.3933ZM34.1988 119.117C33.6528 119.117 33.1631 119.026 32.7298 118.844C32.2964 118.653 31.9541 118.393 31.7028 118.064C31.4514 117.726 31.3128 117.34 31.2868 116.907H32.5088C32.5434 117.262 32.7081 117.553 33.0028 117.778C33.3061 118.003 33.7004 118.116 34.1858 118.116C34.6364 118.116 34.9918 118.016 35.2518 117.817C35.5118 117.618 35.6418 117.366 35.6418 117.063C35.6418 116.751 35.5031 116.521 35.2258 116.374C34.9484 116.218 34.5194 116.066 33.9388 115.919C33.4101 115.78 32.9768 115.642 32.6388 115.503C32.3094 115.356 32.0234 115.143 31.7808 114.866C31.5468 114.58 31.4298 114.207 31.4298 113.748C31.4298 113.384 31.5381 113.05 31.7548 112.747C31.9714 112.444 32.2791 112.205 32.6778 112.032C33.0764 111.85 33.5314 111.759 34.0428 111.759C34.8314 111.759 35.4684 111.958 35.9538 112.357C36.4391 112.756 36.6991 113.302 36.7338 113.995H35.5508C35.5248 113.622 35.3731 113.323 35.0958 113.098C34.8271 112.873 34.4631 112.76 34.0038 112.76C33.5791 112.76 33.2411 112.851 32.9898 113.033C32.7384 113.215 32.6128 113.453 32.6128 113.748C32.6128 113.982 32.6864 114.177 32.8338 114.333C32.9898 114.48 33.1804 114.602 33.4058 114.697C33.6398 114.784 33.9604 114.883 34.3678 114.996C34.8791 115.135 35.2951 115.273 35.6158 115.412C35.9364 115.542 36.2094 115.741 36.4348 116.01C36.6688 116.279 36.7901 116.63 36.7988 117.063C36.7988 117.453 36.6904 117.804 36.4738 118.116C36.2571 118.428 35.9494 118.675 35.5508 118.857C35.1608 119.03 34.7101 119.117 34.1988 119.117ZM45.8336 112.851H44.3386V119H43.1556V112.851H42.2326V111.876H43.1556V111.369C43.1556 110.572 43.3593 109.991 43.7666 109.627C44.1826 109.254 44.8456 109.068 45.7556 109.068V110.056C45.2356 110.056 44.8673 110.16 44.6506 110.368C44.4426 110.567 44.3386 110.901 44.3386 111.369V111.876H45.8336V112.851ZM48.8959 113.033C49.1039 112.626 49.3986 112.309 49.7799 112.084C50.1699 111.859 50.6422 111.746 51.1969 111.746V112.968H50.8849C49.5589 112.968 48.8959 113.687 48.8959 115.126V119H47.7129V111.876H48.8959V113.033ZM56.1695 119.117C55.5022 119.117 54.8955 118.965 54.3495 118.662C53.8122 118.359 53.3875 117.93 53.0755 117.375C52.7722 116.812 52.6205 116.162 52.6205 115.425C52.6205 114.697 52.7765 114.056 53.0885 113.501C53.4092 112.938 53.8425 112.509 54.3885 112.214C54.9345 111.911 55.5455 111.759 56.2215 111.759C56.8975 111.759 57.5085 111.911 58.0545 112.214C58.6005 112.509 59.0295 112.933 59.3415 113.488C59.6622 114.043 59.8225 114.688 59.8225 115.425C59.8225 116.162 59.6579 116.812 59.3285 117.375C59.0079 117.93 58.5702 118.359 58.0155 118.662C57.4609 118.965 56.8455 119.117 56.1695 119.117ZM56.1695 118.077C56.5942 118.077 56.9929 117.977 57.3655 117.778C57.7382 117.579 58.0372 117.28 58.2625 116.881C58.4965 116.482 58.6135 115.997 58.6135 115.425C58.6135 114.853 58.5009 114.368 58.2755 113.969C58.0502 113.57 57.7555 113.276 57.3915 113.085C57.0275 112.886 56.6332 112.786 56.2085 112.786C55.7752 112.786 55.3765 112.886 55.0125 113.085C54.6572 113.276 54.3712 113.57 54.1545 113.969C53.9379 114.368 53.8295 114.853 53.8295 115.425C53.8295 116.006 53.9335 116.495 54.1415 116.894C54.3582 117.293 54.6442 117.592 54.9995 117.791C55.3549 117.982 55.7449 118.077 56.1695 118.077ZM70.445 111.746C70.9996 111.746 71.4936 111.863 71.927 112.097C72.3603 112.322 72.7026 112.665 72.954 113.124C73.2053 113.583 73.331 114.142 73.331 114.801V119H72.161V114.97C72.161 114.259 71.9833 113.718 71.628 113.345C71.2813 112.964 70.809 112.773 70.211 112.773C69.5956 112.773 69.106 112.972 68.742 113.371C68.378 113.761 68.196 114.329 68.196 115.074V119H67.026V114.97C67.026 114.259 66.8483 113.718 66.493 113.345C66.1463 112.964 65.674 112.773 65.076 112.773C64.4606 112.773 63.971 112.972 63.607 113.371C63.243 113.761 63.061 114.329 63.061 115.074V119H61.878V111.876H63.061V112.903C63.295 112.53 63.607 112.244 63.997 112.045C64.3956 111.846 64.8333 111.746 65.31 111.746C65.908 111.746 66.4366 111.88 66.896 112.149C67.3553 112.418 67.6976 112.812 67.923 113.332C68.1223 112.829 68.4516 112.439 68.911 112.162C69.3703 111.885 69.8816 111.746 70.445 111.746ZM79.2303 110.68V109.601H81.6743V119H80.4783V110.68H79.2303ZM89.3414 113.735V114.736H84.1544V113.735H89.3414ZM91.5545 110.68V109.601H93.9985V119H92.8025V110.68H91.5545ZM96.3876 118.051C97.4883 117.167 98.3506 116.443 98.9746 115.88C99.5986 115.308 100.123 114.714 100.548 114.099C100.981 113.475 101.198 112.864 101.198 112.266C101.198 111.703 101.059 111.261 100.782 110.94C100.513 110.611 100.075 110.446 99.4686 110.446C98.8793 110.446 98.4199 110.632 98.0906 111.005C97.7699 111.369 97.5966 111.859 97.5706 112.474H96.4266C96.4613 111.503 96.7559 110.754 97.3106 110.225C97.8653 109.696 98.5803 109.432 99.4556 109.432C100.348 109.432 101.055 109.679 101.575 110.173C102.103 110.667 102.368 111.347 102.368 112.214C102.368 112.933 102.151 113.635 101.718 114.32C101.293 114.996 100.808 115.594 100.262 116.114C99.7156 116.625 99.0179 117.223 98.1686 117.908H102.641V118.896H96.3876V118.051ZM111.49 109.939C112.478 109.939 113.332 110.125 114.051 110.498C114.779 110.862 115.334 111.386 115.715 112.071C116.105 112.756 116.3 113.562 116.3 114.489C116.3 115.416 116.105 116.222 115.715 116.907C115.334 117.583 114.779 118.103 114.051 118.467C113.332 118.822 112.478 119 111.49 119H108.669V109.939H111.49ZM111.49 118.025C112.66 118.025 113.553 117.717 114.168 117.102C114.783 116.478 115.091 115.607 115.091 114.489C115.091 113.362 114.779 112.483 114.155 111.85C113.54 111.217 112.651 110.901 111.49 110.901H109.852V118.025H111.49ZM124.86 115.165C124.86 115.39 124.847 115.629 124.821 115.88H119.127C119.171 116.582 119.409 117.132 119.842 117.531C120.284 117.921 120.817 118.116 121.441 118.116C121.953 118.116 122.377 117.999 122.715 117.765C123.062 117.522 123.305 117.202 123.443 116.803H124.717C124.527 117.488 124.145 118.047 123.573 118.48C123.001 118.905 122.291 119.117 121.441 119.117C120.765 119.117 120.159 118.965 119.621 118.662C119.093 118.359 118.677 117.93 118.373 117.375C118.07 116.812 117.918 116.162 117.918 115.425C117.918 114.688 118.066 114.043 118.36 113.488C118.655 112.933 119.067 112.509 119.595 112.214C120.133 111.911 120.748 111.759 121.441 111.759C122.117 111.759 122.715 111.906 123.235 112.201C123.755 112.496 124.154 112.903 124.431 113.423C124.717 113.934 124.86 114.515 124.86 115.165ZM123.638 114.918C123.638 114.467 123.539 114.082 123.339 113.761C123.14 113.432 122.867 113.185 122.52 113.02C122.182 112.847 121.805 112.76 121.389 112.76C120.791 112.76 120.28 112.951 119.855 113.332C119.439 113.713 119.201 114.242 119.14 114.918H123.638ZM126.48 115.425C126.48 114.688 126.627 114.047 126.922 113.501C127.217 112.946 127.624 112.517 128.144 112.214C128.673 111.911 129.275 111.759 129.951 111.759C130.826 111.759 131.546 111.971 132.109 112.396C132.681 112.821 133.058 113.41 133.24 114.164H131.966C131.845 113.731 131.606 113.388 131.251 113.137C130.904 112.886 130.471 112.76 129.951 112.76C129.275 112.76 128.729 112.994 128.313 113.462C127.897 113.921 127.689 114.576 127.689 115.425C127.689 116.283 127.897 116.946 128.313 117.414C128.729 117.882 129.275 118.116 129.951 118.116C130.471 118.116 130.904 117.995 131.251 117.752C131.598 117.509 131.836 117.163 131.966 116.712H133.24C133.049 117.44 132.668 118.025 132.096 118.467C131.524 118.9 130.809 119.117 129.951 119.117C129.275 119.117 128.673 118.965 128.144 118.662C127.624 118.359 127.217 117.93 126.922 117.375C126.627 116.82 126.48 116.17 126.48 115.425ZM136.54 117.362L135.084 120.859H134.291L135.24 117.362H136.54ZM142.023 118.051C143.124 117.167 143.986 116.443 144.61 115.88C145.234 115.308 145.759 114.714 146.183 114.099C146.617 113.475 146.833 112.864 146.833 112.266C146.833 111.703 146.695 111.261 146.417 110.94C146.149 110.611 145.711 110.446 145.104 110.446C144.515 110.446 144.056 110.632 143.726 111.005C143.406 111.369 143.232 111.859 143.206 112.474H142.062C142.097 111.503 142.392 110.754 142.946 110.225C143.501 109.696 144.216 109.432 145.091 109.432C145.984 109.432 146.69 109.679 147.21 110.173C147.739 110.667 148.003 111.347 148.003 112.214C148.003 112.933 147.787 113.635 147.353 114.32C146.929 114.996 146.443 115.594 145.897 116.114C145.351 116.625 144.654 117.223 143.804 117.908H148.276V118.896H142.023V118.051ZM150.144 114.203C150.144 112.712 150.387 111.551 150.872 110.719C151.357 109.878 152.207 109.458 153.42 109.458C154.625 109.458 155.47 109.878 155.955 110.719C156.44 111.551 156.683 112.712 156.683 114.203C156.683 115.72 156.44 116.898 155.955 117.739C155.47 118.58 154.625 119 153.42 119C152.207 119 151.357 118.58 150.872 117.739C150.387 116.898 150.144 115.72 150.144 114.203ZM155.513 114.203C155.513 113.449 155.461 112.812 155.357 112.292C155.262 111.763 155.058 111.339 154.746 111.018C154.443 110.697 154.001 110.537 153.42 110.537C152.831 110.537 152.38 110.697 152.068 111.018C151.765 111.339 151.561 111.763 151.457 112.292C151.362 112.812 151.314 113.449 151.314 114.203C151.314 114.983 151.362 115.637 151.457 116.166C151.561 116.695 151.765 117.119 152.068 117.44C152.38 117.761 152.831 117.921 153.42 117.921C154.001 117.921 154.443 117.761 154.746 117.44C155.058 117.119 155.262 116.695 155.357 116.166C155.461 115.637 155.513 114.983 155.513 114.203ZM158.664 118.051C159.765 117.167 160.627 116.443 161.251 115.88C161.875 115.308 162.399 114.714 162.824 114.099C163.257 113.475 163.474 112.864 163.474 112.266C163.474 111.703 163.335 111.261 163.058 110.94C162.789 110.611 162.352 110.446 161.745 110.446C161.156 110.446 160.696 110.632 160.367 111.005C160.046 111.369 159.873 111.859 159.847 112.474H158.703C158.738 111.503 159.032 110.754 159.587 110.225C160.142 109.696 160.857 109.432 161.732 109.432C162.625 109.432 163.331 109.679 163.851 110.173C164.38 110.667 164.644 111.347 164.644 112.214C164.644 112.933 164.427 113.635 163.994 114.32C163.569 114.996 163.084 115.594 162.538 116.114C161.992 116.625 161.294 117.223 160.445 117.908H164.917V118.896H158.664V118.051ZM166.785 114.203C166.785 112.712 167.027 111.551 167.513 110.719C167.998 109.878 168.847 109.458 170.061 109.458C171.265 109.458 172.11 109.878 172.596 110.719C173.081 111.551 173.324 112.712 173.324 114.203C173.324 115.72 173.081 116.898 172.596 117.739C172.11 118.58 171.265 119 170.061 119C168.847 119 167.998 118.58 167.513 117.739C167.027 116.898 166.785 115.72 166.785 114.203ZM172.154 114.203C172.154 113.449 172.102 112.812 171.998 112.292C171.902 111.763 171.699 111.339 171.387 111.018C171.083 110.697 170.641 110.537 170.061 110.537C169.471 110.537 169.021 110.697 168.709 111.018C168.405 111.339 168.202 111.763 168.098 112.292C168.002 112.812 167.955 113.449 167.955 114.203C167.955 114.983 168.002 115.637 168.098 116.166C168.202 116.695 168.405 117.119 168.709 117.44C169.021 117.761 169.471 117.921 170.061 117.921C170.641 117.921 171.083 117.761 171.387 117.44C171.699 117.119 171.902 116.695 171.998 116.166C172.102 115.637 172.154 114.983 172.154 114.203Z" fill="black"/>
<circle cx="5.5" cy="316.5" r="4.5" fill="#5A6ACF"/>
<path opacity="0.7" d="M20.016 319.112H22.944V320H18.924V311.636H20.016V319.112ZM24.1957 316.688C24.1957 316.016 24.3317 315.428 24.6037 314.924C24.8757 314.412 25.2477 314.016 25.7197 313.736C26.1997 313.456 26.7317 313.316 27.3157 313.316C27.8917 313.316 28.3917 313.44 28.8157 313.688C29.2397 313.936 29.5557 314.248 29.7637 314.624V313.424H30.8677V320H29.7637V318.776C29.5477 319.16 29.2237 319.48 28.7917 319.736C28.3677 319.984 27.8717 320.108 27.3037 320.108C26.7197 320.108 26.1917 319.964 25.7197 319.676C25.2477 319.388 24.8757 318.984 24.6037 318.464C24.3317 317.944 24.1957 317.352 24.1957 316.688ZM29.7637 316.7C29.7637 316.204 29.6637 315.772 29.4637 315.404C29.2637 315.036 28.9917 314.756 28.6477 314.564C28.3117 314.364 27.9397 314.264 27.5317 314.264C27.1237 314.264 26.7517 314.36 26.4157 314.552C26.0797 314.744 25.8117 315.024 25.6117 315.392C25.4117 315.76 25.3117 316.192 25.3117 316.688C25.3117 317.192 25.4117 317.632 25.6117 318.008C25.8117 318.376 26.0797 318.66 26.4157 318.86C26.7517 319.052 27.1237 319.148 27.5317 319.148C27.9397 319.148 28.3117 319.052 28.6477 318.86C28.9917 318.66 29.2637 318.376 29.4637 318.008C29.6637 317.632 29.7637 317.196 29.7637 316.7ZM35.5411 320.108C35.0371 320.108 34.5851 320.024 34.1851 319.856C33.7851 319.68 33.4691 319.44 33.2371 319.136C33.0051 318.824 32.8771 318.468 32.8531 318.068H33.9811C34.0131 318.396 34.1651 318.664 34.4371 318.872C34.7171 319.08 35.0811 319.184 35.5291 319.184C35.9451 319.184 36.2731 319.092 36.5131 318.908C36.7531 318.724 36.8731 318.492 36.8731 318.212C36.8731 317.924 36.7451 317.712 36.4891 317.576C36.2331 317.432 35.8371 317.292 35.3011 317.156C34.8131 317.028 34.4131 316.9 34.1011 316.772C33.7971 316.636 33.5331 316.44 33.3091 316.184C33.0931 315.92 32.9851 315.576 32.9851 315.152C32.9851 314.816 33.0851 314.508 33.2851 314.228C33.4851 313.948 33.7691 313.728 34.1371 313.568C34.5051 313.4 34.9251 313.316 35.3971 313.316C36.1251 313.316 36.7131 313.5 37.1611 313.868C37.6091 314.236 37.8491 314.74 37.8811 315.38H36.7891C36.7651 315.036 36.6251 314.76 36.3691 314.552C36.1211 314.344 35.7851 314.24 35.3611 314.24C34.9691 314.24 34.6571 314.324 34.4251 314.492C34.1931 314.66 34.0771 314.88 34.0771 315.152C34.0771 315.368 34.1451 315.548 34.2811 315.692C34.4251 315.828 34.6011 315.94 34.8091 316.028C35.0251 316.108 35.3211 316.2 35.6971 316.304C36.1691 316.432 36.5531 316.56 36.8491 316.688C37.1451 316.808 37.3971 316.992 37.6051 317.24C37.8211 317.488 37.9331 317.812 37.9411 318.212C37.9411 318.572 37.8411 318.896 37.6411 319.184C37.4411 319.472 37.1571 319.7 36.7891 319.868C36.4291 320.028 36.0131 320.108 35.5411 320.108ZM41.3146 314.324V318.2C41.3146 318.52 41.3826 318.748 41.5186 318.884C41.6546 319.012 41.8906 319.076 42.2266 319.076H43.0306V320H42.0466C41.4386 320 40.9826 319.86 40.6786 319.58C40.3746 319.3 40.2226 318.84 40.2226 318.2V314.324H39.3706V313.424H40.2226V311.768H41.3146V313.424H43.0306V314.324H41.3146ZM53.2089 313.388C53.0329 312.5 52.4849 312.056 51.5649 312.056C50.8529 312.056 50.3209 312.332 49.9689 312.884C49.6169 313.428 49.4449 314.328 49.4529 315.584C49.6369 315.168 49.9409 314.844 50.3649 314.612C50.7969 314.372 51.2769 314.252 51.8049 314.252C52.6289 314.252 53.2849 314.508 53.7729 315.02C54.2689 315.532 54.5169 316.24 54.5169 317.144C54.5169 317.688 54.4089 318.176 54.1929 318.608C53.9849 319.04 53.6649 319.384 53.2329 319.64C52.8089 319.896 52.2929 320.024 51.6849 320.024C50.8609 320.024 50.2169 319.84 49.7529 319.472C49.2889 319.104 48.9649 318.596 48.7809 317.948C48.5969 317.3 48.5049 316.5 48.5049 315.548C48.5049 312.612 49.5289 311.144 51.5769 311.144C52.3609 311.144 52.9769 311.356 53.4249 311.78C53.8729 312.204 54.1369 312.74 54.2169 313.388H53.2089ZM51.5769 315.176C51.2329 315.176 50.9089 315.248 50.6049 315.392C50.3009 315.528 50.0529 315.74 49.8609 316.028C49.6769 316.308 49.5849 316.652 49.5849 317.06C49.5849 317.668 49.7609 318.164 50.1129 318.548C50.4649 318.924 50.9689 319.112 51.6249 319.112C52.1849 319.112 52.6289 318.94 52.9569 318.596C53.2929 318.244 53.4609 317.772 53.4609 317.18C53.4609 316.556 53.3009 316.068 52.9809 315.716C52.6609 315.356 52.1929 315.176 51.5769 315.176ZM59.9613 316.688C59.9613 316.016 60.0973 315.428 60.3693 314.924C60.6413 314.412 61.0133 314.016 61.4853 313.736C61.9653 313.456 62.5013 313.316 63.0933 313.316C63.6053 313.316 64.0813 313.436 64.5213 313.676C64.9613 313.908 65.2973 314.216 65.5293 314.6V311.12H66.6333V320H65.5293V318.764C65.3133 319.156 64.9933 319.48 64.5693 319.736C64.1453 319.984 63.6493 320.108 63.0813 320.108C62.4973 320.108 61.9653 319.964 61.4853 319.676C61.0133 319.388 60.6413 318.984 60.3693 318.464C60.0973 317.944 59.9613 317.352 59.9613 316.688ZM65.5293 316.7C65.5293 316.204 65.4293 315.772 65.2293 315.404C65.0293 315.036 64.7573 314.756 64.4133 314.564C64.0773 314.364 63.7053 314.264 63.2973 314.264C62.8893 314.264 62.5173 314.36 62.1813 314.552C61.8453 314.744 61.5773 315.024 61.3773 315.392C61.1773 315.76 61.0773 316.192 61.0773 316.688C61.0773 317.192 61.1773 317.632 61.3773 318.008C61.5773 318.376 61.8453 318.66 62.1813 318.86C62.5173 319.052 62.8893 319.148 63.2973 319.148C63.7053 319.148 64.0773 319.052 64.4133 318.86C64.7573 318.66 65.0293 318.376 65.2293 318.008C65.4293 317.632 65.5293 317.196 65.5293 316.7ZM68.5707 316.688C68.5707 316.016 68.7067 315.428 68.9787 314.924C69.2507 314.412 69.6227 314.016 70.0947 313.736C70.5747 313.456 71.1067 313.316 71.6907 313.316C72.2667 313.316 72.7667 313.44 73.1907 313.688C73.6147 313.936 73.9307 314.248 74.1387 314.624V313.424H75.2427V320H74.1387V318.776C73.9227 319.16 73.5987 319.48 73.1667 319.736C72.7427 319.984 72.2467 320.108 71.6787 320.108C71.0947 320.108 70.5667 319.964 70.0947 319.676C69.6227 319.388 69.2507 318.984 68.9787 318.464C68.7067 317.944 68.5707 317.352 68.5707 316.688ZM74.1387 316.7C74.1387 316.204 74.0387 315.772 73.8387 315.404C73.6387 315.036 73.3667 314.756 73.0227 314.564C72.6867 314.364 72.3147 314.264 71.9067 314.264C71.4987 314.264 71.1267 314.36 70.7907 314.552C70.4547 314.744 70.1867 315.024 69.9867 315.392C69.7867 315.76 69.6867 316.192 69.6867 316.688C69.6867 317.192 69.7867 317.632 69.9867 318.008C70.1867 318.376 70.4547 318.66 70.7907 318.86C71.1267 319.052 71.4987 319.148 71.9067 319.148C72.3147 319.148 72.6867 319.052 73.0227 318.86C73.3667 318.66 73.6387 318.376 73.8387 318.008C74.0387 317.632 74.1387 317.196 74.1387 316.7ZM83.2521 313.424L79.2921 323.096H78.1641L79.4601 319.928L76.8081 313.424H78.0201L80.0841 318.752L82.1241 313.424H83.2521ZM87.1778 320.108C86.6738 320.108 86.2218 320.024 85.8218 319.856C85.4218 319.68 85.1058 319.44 84.8738 319.136C84.6418 318.824 84.5138 318.468 84.4898 318.068H85.6178C85.6498 318.396 85.8018 318.664 86.0738 318.872C86.3538 319.08 86.7178 319.184 87.1658 319.184C87.5818 319.184 87.9098 319.092 88.1498 318.908C88.3898 318.724 88.5098 318.492 88.5098 318.212C88.5098 317.924 88.3818 317.712 88.1258 317.576C87.8698 317.432 87.4738 317.292 86.9378 317.156C86.4498 317.028 86.0498 316.9 85.7378 316.772C85.4338 316.636 85.1698 316.44 84.9458 316.184C84.7298 315.92 84.6218 315.576 84.6218 315.152C84.6218 314.816 84.7218 314.508 84.9218 314.228C85.1218 313.948 85.4058 313.728 85.7738 313.568C86.1418 313.4 86.5618 313.316 87.0338 313.316C87.7618 313.316 88.3498 313.5 88.7978 313.868C89.2458 314.236 89.4858 314.74 89.5178 315.38H88.4258C88.4018 315.036 88.2618 314.76 88.0058 314.552C87.7578 314.344 87.4218 314.24 86.9978 314.24C86.6058 314.24 86.2938 314.324 86.0618 314.492C85.8298 314.66 85.7138 314.88 85.7138 315.152C85.7138 315.368 85.7818 315.548 85.9178 315.692C86.0618 315.828 86.2378 315.94 86.4458 316.028C86.6618 316.108 86.9578 316.2 87.3338 316.304C87.8058 316.432 88.1898 316.56 88.4858 316.688C88.7818 316.808 89.0338 316.992 89.2418 317.24C89.4578 317.488 89.5698 317.812 89.5778 318.212C89.5778 318.572 89.4778 318.896 89.2778 319.184C89.0778 319.472 88.7938 319.7 88.4258 319.868C88.0658 320.028 87.6498 320.108 87.1778 320.108Z" fill="#121212"/>
<circle cx="119.5" cy="316.5" r="4.5" fill="#D8D9DB"/>
<path opacity="0.7" d="M134.016 319.112H136.944V320H132.924V311.636H134.016V319.112ZM138.196 316.688C138.196 316.016 138.332 315.428 138.604 314.924C138.876 314.412 139.248 314.016 139.72 313.736C140.2 313.456 140.732 313.316 141.316 313.316C141.892 313.316 142.392 313.44 142.816 313.688C143.24 313.936 143.556 314.248 143.764 314.624V313.424H144.868V320H143.764V318.776C143.548 319.16 143.224 319.48 142.792 319.736C142.368 319.984 141.872 320.108 141.304 320.108C140.72 320.108 140.192 319.964 139.72 319.676C139.248 319.388 138.876 318.984 138.604 318.464C138.332 317.944 138.196 317.352 138.196 316.688ZM143.764 316.7C143.764 316.204 143.664 315.772 143.464 315.404C143.264 315.036 142.992 314.756 142.648 314.564C142.312 314.364 141.94 314.264 141.532 314.264C141.124 314.264 140.752 314.36 140.416 314.552C140.08 314.744 139.812 315.024 139.612 315.392C139.412 315.76 139.312 316.192 139.312 316.688C139.312 317.192 139.412 317.632 139.612 318.008C139.812 318.376 140.08 318.66 140.416 318.86C140.752 319.052 141.124 319.148 141.532 319.148C141.94 319.148 142.312 319.052 142.648 318.86C142.992 318.66 143.264 318.376 143.464 318.008C143.664 317.632 143.764 317.196 143.764 316.7ZM149.541 320.108C149.037 320.108 148.585 320.024 148.185 319.856C147.785 319.68 147.469 319.44 147.237 319.136C147.005 318.824 146.877 318.468 146.853 318.068H147.981C148.013 318.396 148.165 318.664 148.437 318.872C148.717 319.08 149.081 319.184 149.529 319.184C149.945 319.184 150.273 319.092 150.513 318.908C150.753 318.724 150.873 318.492 150.873 318.212C150.873 317.924 150.745 317.712 150.489 317.576C150.233 317.432 149.837 317.292 149.301 317.156C148.813 317.028 148.413 316.9 148.101 316.772C147.797 316.636 147.533 316.44 147.309 316.184C147.093 315.92 146.985 315.576 146.985 315.152C146.985 314.816 147.085 314.508 147.285 314.228C147.485 313.948 147.769 313.728 148.137 313.568C148.505 313.4 148.925 313.316 149.397 313.316C150.125 313.316 150.713 313.5 151.161 313.868C151.609 314.236 151.849 314.74 151.881 315.38H150.789C150.765 315.036 150.625 314.76 150.369 314.552C150.121 314.344 149.785 314.24 149.361 314.24C148.969 314.24 148.657 314.324 148.425 314.492C148.193 314.66 148.077 314.88 148.077 315.152C148.077 315.368 148.145 315.548 148.281 315.692C148.425 315.828 148.601 315.94 148.809 316.028C149.025 316.108 149.321 316.2 149.697 316.304C150.169 316.432 150.553 316.56 150.849 316.688C151.145 316.808 151.397 316.992 151.605 317.24C151.821 317.488 151.933 317.812 151.941 318.212C151.941 318.572 151.841 318.896 151.641 319.184C151.441 319.472 151.157 319.7 150.789 319.868C150.429 320.028 150.013 320.108 149.541 320.108ZM155.315 314.324V318.2C155.315 318.52 155.383 318.748 155.519 318.884C155.655 319.012 155.891 319.076 156.227 319.076H157.031V320H156.047C155.439 320 154.983 319.86 154.679 319.58C154.375 319.3 154.223 318.84 154.223 318.2V314.324H153.371V313.424H154.223V311.768H155.315V313.424H157.031V314.324H155.315ZM173.065 311.636L170.641 320H169.417L167.473 313.268L165.457 320L164.245 320.012L161.905 311.636H163.069L164.893 318.728L166.909 311.636H168.133L170.053 318.704L171.889 311.636H173.065ZM180.76 316.46C180.76 316.668 180.748 316.888 180.724 317.12H175.468C175.508 317.768 175.728 318.276 176.128 318.644C176.536 319.004 177.028 319.184 177.604 319.184C178.076 319.184 178.468 319.076 178.78 318.86C179.1 318.636 179.324 318.34 179.452 317.972H180.628C180.452 318.604 180.1 319.12 179.572 319.52C179.044 319.912 178.388 320.108 177.604 320.108C176.98 320.108 176.42 319.968 175.924 319.688C175.436 319.408 175.052 319.012 174.772 318.5C174.492 317.98 174.352 317.38 174.352 316.7C174.352 316.02 174.488 315.424 174.76 314.912C175.032 314.4 175.412 314.008 175.9 313.736C176.396 313.456 176.964 313.316 177.604 313.316C178.228 313.316 178.78 313.452 179.26 313.724C179.74 313.996 180.108 314.372 180.364 314.852C180.628 315.324 180.76 315.86 180.76 316.46ZM179.632 316.232C179.632 315.816 179.54 315.46 179.356 315.164C179.172 314.86 178.92 314.632 178.6 314.48C178.288 314.32 177.94 314.24 177.556 314.24C177.004 314.24 176.532 314.416 176.14 314.768C175.756 315.12 175.536 315.608 175.48 316.232H179.632ZM188.701 316.46C188.701 316.668 188.689 316.888 188.665 317.12H183.409C183.449 317.768 183.669 318.276 184.069 318.644C184.477 319.004 184.969 319.184 185.545 319.184C186.017 319.184 186.409 319.076 186.721 318.86C187.041 318.636 187.265 318.34 187.393 317.972H188.569C188.393 318.604 188.041 319.12 187.513 319.52C186.985 319.912 186.329 320.108 185.545 320.108C184.921 320.108 184.361 319.968 183.865 319.688C183.377 319.408 182.993 319.012 182.713 318.5C182.433 317.98 182.293 317.38 182.293 316.7C182.293 316.02 182.429 315.424 182.701 314.912C182.973 314.4 183.353 314.008 183.841 313.736C184.337 313.456 184.905 313.316 185.545 313.316C186.169 313.316 186.721 313.452 187.201 313.724C187.681 313.996 188.049 314.372 188.305 314.852C188.569 315.324 188.701 315.86 188.701 316.46ZM187.573 316.232C187.573 315.816 187.481 315.46 187.297 315.164C187.113 314.86 186.861 314.632 186.541 314.48C186.229 314.32 185.881 314.24 185.497 314.24C184.945 314.24 184.473 314.416 184.081 314.768C183.697 315.12 183.477 315.608 183.421 316.232H187.573ZM194.315 320L191.735 317.096V320H190.643V311.12H191.735V316.34L194.267 313.424H195.791L192.695 316.7L195.803 320H194.315Z" fill="#121212"/>
<defs>
<filter id="filter0_d_0_201" x="569" y="0" width="111" height="35" filterUnits="userSpaceOnUse" color-interpolation-filters="sRGB">
<feFlood flood-opacity="0" result="BackgroundImageFix"/>
<feColorMatrix in="SourceAlpha" type="matrix" values="0 0 0 0 0 0 0 0 0 0 0 0 0 0 0 0 0 0 127 0" result="hardAlpha"/>
<feOffset dy="2"/>
<feGaussianBlur stdDeviation="0.5"/>
<feColorMatrix type="matrix" values="0 0 0 0 0.25098 0 0 0 0 0.282353 0 0 0 0 0.321569 0 0 0 0.05 0"/>
<feBlend mode="normal" in2="BackgroundImageFix" result="effect1_dropShadow_0_201"/>
<feBlend mode="normal" in="SourceGraphic" in2="effect1_dropShadow_0_201" result="shape"/>
</filter>
</defs>
</svg>
