<svg width="712" height="472" viewBox="0 0 712 472" fill="none" xmlns="http://www.w3.org/2000/svg">
<rect x="0.5" y="0.5" width="711" height="471" rx="3.5" fill="white" stroke="#E5E5E5"/>
<path d="M75.4267 315.464V323.864H76.7587V317.588L79.4107 322.988H80.3347L82.9867 317.588L82.9987 323.864H84.3067V315.464H82.6387L79.8787 321.044L77.1067 315.464H75.4267ZM89.5763 317.432C87.5963 317.432 86.2403 318.74 86.2403 320.66C86.2403 322.592 87.5963 323.912 89.5763 323.912C91.5443 323.912 92.9003 322.592 92.9003 320.66C92.9003 318.74 91.5443 317.432 89.5763 317.432ZM89.5763 318.608C90.7163 318.608 91.5203 319.46 91.5203 320.684C91.5203 321.92 90.7163 322.76 89.5763 322.76C88.4243 322.76 87.6203 321.92 87.6203 320.684C87.6203 319.46 88.4243 318.608 89.5763 318.608ZM98.4723 317.432C97.3923 317.432 96.5763 317.816 96.1203 318.704V317.48H94.7403V323.864H96.1203V320.468C96.2163 319.472 96.8763 318.74 97.9323 318.728C98.8923 318.728 99.4683 319.316 99.4683 320.276V323.864H100.848V319.892C100.848 318.368 99.9603 317.432 98.4723 317.432Z" fill="#9C9C9C"/>
<rect x="87" y="103.864" width="1" height="200" fill="#E5E5E5"/>
<rect x="72" y="303.424" width="608" height="0.983047" fill="#E5E5E5"/>
<path d="M173.015 315.464V316.736H175.667V323.864H177.083V316.736H179.747V315.464H173.015ZM185.235 317.48V320.624C185.235 321.74 184.587 322.592 183.483 322.616C182.559 322.616 181.995 322.028 181.995 321.068V317.48H180.615V321.452C180.615 322.976 181.491 323.912 182.955 323.912C183.999 323.9 184.803 323.504 185.235 322.616V323.864H186.615V317.48H185.235ZM191.687 317.432C189.791 317.444 188.459 318.752 188.459 320.684C188.459 322.604 189.755 323.912 191.723 323.912C192.827 323.912 193.739 323.516 194.363 322.832L193.631 322.052C193.163 322.532 192.527 322.796 191.831 322.796C190.823 322.796 190.067 322.184 189.851 321.2H194.675C194.843 318.896 193.931 317.432 191.687 317.432ZM189.827 320.192C189.971 319.172 190.691 318.536 191.699 318.536C192.743 318.536 193.427 319.16 193.475 320.192H189.827Z" fill="#9C9C9C"/>
<rect x="183" y="103.864" width="1" height="200" fill="#E5E5E5"/>
<path d="M266.124 315.464L268.908 323.864H270.372L272.388 317.312L274.38 323.864H275.832L278.64 315.464H277.176L275.148 322.292L273.108 315.464H271.716L269.688 322.292L267.648 315.464H266.124ZM281.925 317.432C280.029 317.444 278.697 318.752 278.697 320.684C278.697 322.604 279.993 323.912 281.961 323.912C283.065 323.912 283.977 323.516 284.601 322.832L283.869 322.052C283.401 322.532 282.765 322.796 282.069 322.796C281.061 322.796 280.305 322.184 280.089 321.2H284.913C285.081 318.896 284.169 317.432 281.925 317.432ZM280.065 320.192C280.209 319.172 280.929 318.536 281.937 318.536C282.981 318.536 283.665 319.16 283.713 320.192H280.065ZM291.456 314.96V318.584C290.988 317.84 290.22 317.42 289.188 317.42C287.388 317.42 286.152 318.728 286.152 320.648C286.152 322.592 287.376 323.924 289.212 323.924C290.232 323.924 291 323.516 291.456 322.772V323.864H292.836V314.96H291.456ZM289.5 322.772C288.336 322.772 287.544 321.908 287.532 320.696C287.544 319.472 288.348 318.596 289.5 318.596C290.652 318.596 291.456 319.46 291.456 320.696C291.456 321.908 290.652 322.772 289.5 322.772Z" fill="#9C9C9C"/>
<rect x="279" y="103.864" width="1" height="200" fill="#E5E5E5"/>
<path d="M364.616 315.464V316.736H367.268V323.864H368.684V316.736H371.348V315.464H364.616ZM376.049 317.432C374.957 317.432 374.141 317.828 373.685 318.728V314.96H372.305V323.864H373.685V320.72C373.685 319.592 374.369 318.74 375.509 318.728C376.469 318.728 377.045 319.316 377.045 320.276V323.864H378.425V319.892C378.425 318.368 377.537 317.432 376.049 317.432ZM385.088 317.48V320.624C385.088 321.74 384.44 322.592 383.336 322.616C382.412 322.616 381.848 322.028 381.848 321.068V317.48H380.468V321.452C380.468 322.976 381.344 323.912 382.808 323.912C383.852 323.9 384.656 323.504 385.088 322.616V323.864H386.468V317.48H385.088Z" fill="#9C9C9C"/>
<rect x="375" y="103.864" width="1" height="200" fill="#E5E5E5"/>
<path d="M465.186 315.464V323.864H466.602V320.42H470.418V319.16H466.602V316.736H470.814L470.826 315.464H465.186ZM473.785 318.752V317.48H472.405V323.864H473.785V320.528C473.893 319.436 474.709 318.68 475.993 318.752V317.432C474.985 317.432 474.217 317.888 473.785 318.752ZM478.211 314.828C477.755 314.828 477.407 315.176 477.407 315.656C477.407 316.124 477.755 316.472 478.211 316.472C478.667 316.472 479.015 316.124 479.015 315.656C479.015 315.176 478.667 314.828 478.211 314.828ZM477.527 317.48V323.864H478.895V317.48H477.527Z" fill="#9C9C9C"/>
<rect x="471" y="103.864" width="1" height="200" fill="#E5E5E5"/>
<path d="M564.125 317.516L564.713 316.268C563.933 315.752 562.865 315.404 561.773 315.404C559.949 315.404 558.713 316.304 558.713 317.744C558.713 320.732 563.249 319.688 563.249 321.56C563.249 322.208 562.661 322.58 561.677 322.58C560.777 322.58 559.697 322.148 558.833 321.356L558.221 322.58C559.085 323.372 560.333 323.912 561.653 323.912C563.501 323.912 564.821 322.988 564.821 321.488C564.833 318.464 560.297 319.448 560.297 317.612C560.297 317.048 560.837 316.736 561.665 316.736C562.301 316.736 563.213 316.964 564.125 317.516ZM571.977 323.864L571.965 319.676C571.953 318.272 571.029 317.432 569.385 317.432C568.173 317.432 567.525 317.708 566.637 318.236L567.201 319.196C567.837 318.764 568.473 318.548 569.085 318.548C570.093 318.548 570.609 319.028 570.609 319.832V320.024H568.677C567.141 320.036 566.265 320.78 566.265 321.944C566.265 323.072 567.129 323.924 568.509 323.924C569.433 323.924 570.165 323.648 570.621 323.084V323.864H571.977ZM568.797 322.832C568.029 322.832 567.561 322.46 567.561 321.884C567.561 321.272 567.981 321.032 568.881 321.032H570.609V321.62C570.537 322.316 569.781 322.832 568.797 322.832ZM577.489 322.4C577.117 322.58 576.817 322.676 576.529 322.676C576.097 322.676 575.845 322.472 575.845 321.812V318.752H577.729V317.72H575.845V315.968H574.477V317.72H573.577V318.752H574.477V322.064C574.477 323.372 575.305 323.924 576.265 323.924C576.805 323.924 577.333 323.756 577.837 323.456L577.489 322.4Z" fill="#9C9C9C"/>
<rect x="567" y="103.864" width="1" height="200" fill="#E5E5E5"/>
<path d="M658.185 317.516L658.773 316.268C657.993 315.752 656.925 315.404 655.833 315.404C654.009 315.404 652.773 316.304 652.773 317.744C652.773 320.732 657.309 319.688 657.309 321.56C657.309 322.208 656.721 322.58 655.737 322.58C654.837 322.58 653.757 322.148 652.893 321.356L652.281 322.58C653.145 323.372 654.393 323.912 655.713 323.912C657.561 323.912 658.881 322.988 658.881 321.488C658.893 318.464 654.357 319.448 654.357 317.612C654.357 317.048 654.897 316.736 655.725 316.736C656.361 316.736 657.273 316.964 658.185 317.516ZM665.27 317.48V320.624C665.27 321.74 664.622 322.592 663.518 322.616C662.594 322.616 662.03 322.028 662.03 321.068V317.48H660.65V321.452C660.65 322.976 661.526 323.912 662.99 323.912C664.034 323.9 664.838 323.504 665.27 322.616V323.864H666.65V317.48H665.27ZM672.826 317.432C671.746 317.432 670.93 317.816 670.474 318.704V317.48H669.094V323.864H670.474V320.468C670.57 319.472 671.23 318.74 672.286 318.728C673.246 318.728 673.822 319.316 673.822 320.276V323.864H675.202V319.892C675.202 318.368 674.314 317.432 672.826 317.432Z" fill="#9C9C9C"/>
<rect x="663" y="103.864" width="1" height="200" fill="#E5E5E5"/>
<path d="M60.3018 294.321C58.2618 294.321 57.1338 295.833 57.1338 298.557C57.1338 301.293 58.2618 302.805 60.3018 302.805C62.3298 302.805 63.4578 301.293 63.4578 298.557C63.4578 295.833 62.3298 294.321 60.3018 294.321ZM60.3018 295.425C61.4658 295.425 62.0538 296.421 62.0538 298.557C62.0538 300.693 61.4658 301.701 60.3018 301.701C59.1258 301.701 58.5378 300.693 58.5378 298.557C58.5378 296.421 59.1258 295.425 60.3018 295.425Z" fill="#9C9C9C"/>
<path d="M35.7739 247.825C35.7739 247.261 36.3139 246.949 37.1419 246.949C37.7779 246.949 38.6899 247.177 39.6019 247.729L40.1899 246.481C39.5299 246.037 38.6539 245.725 37.7419 245.641V244.069L36.6859 244.081V245.653C35.1739 245.821 34.1899 246.673 34.1899 247.957C34.1899 250.945 38.7259 249.901 38.7259 251.773C38.7259 252.421 38.1379 252.793 37.1539 252.793C36.2539 252.793 35.1739 252.361 34.3099 251.569L33.6979 252.793C34.4659 253.501 35.5339 254.005 36.6859 254.101V255.781H37.7419V254.089C39.2659 253.909 40.2979 253.033 40.2979 251.701C40.3099 248.677 35.7739 249.661 35.7739 247.825ZM42.5228 245.665V246.937H44.3348V254.077H45.7508V245.665H42.5228ZM52.765 245.629C50.725 245.629 49.597 247.141 49.597 249.865C49.597 252.601 50.725 254.113 52.765 254.113C54.793 254.113 55.921 252.601 55.921 249.865C55.921 247.141 54.793 245.629 52.765 245.629ZM52.765 246.733C53.929 246.733 54.517 247.729 54.517 249.865C54.517 252.001 53.929 253.009 52.765 253.009C51.589 253.009 51.001 252.001 51.001 249.865C51.001 247.729 51.589 246.733 52.765 246.733ZM62.2753 254.077H63.9073L61.3633 250.165L63.7273 247.693H62.1433L59.3233 250.549V245.173H57.9433V254.077H59.3233V252.289L60.4033 251.149L62.2753 254.077Z" fill="#9C9C9C"/>
<path d="M35.7739 199.133C35.7739 198.569 36.3139 198.257 37.1419 198.257C37.7779 198.257 38.6899 198.485 39.6019 199.037L40.1899 197.789C39.5299 197.345 38.6539 197.033 37.7419 196.949V195.377L36.6859 195.389V196.961C35.1739 197.129 34.1899 197.981 34.1899 199.265C34.1899 202.253 38.7259 201.209 38.7259 203.081C38.7259 203.729 38.1379 204.101 37.1539 204.101C36.2539 204.101 35.1739 203.669 34.3099 202.877L33.6979 204.101C34.4659 204.809 35.5339 205.313 36.6859 205.409V207.089H37.7419V205.397C39.2659 205.217 40.2979 204.341 40.2979 203.009C40.3099 199.985 35.7739 200.969 35.7739 199.133ZM45.0788 201.029L41.8748 204.341V205.385H48.0308V204.113H43.7348L46.0388 201.785C46.9628 200.825 47.6228 199.877 47.6228 199.037C47.6228 197.741 46.5068 196.913 44.8628 196.913C43.7588 196.913 42.6668 197.369 41.7308 198.113L42.3068 199.205C43.0268 198.557 43.9148 198.161 44.6708 198.161C45.5948 198.161 46.1468 198.557 46.1468 199.241C46.1468 199.721 45.7148 200.393 45.0788 201.029ZM52.765 196.937C50.725 196.937 49.597 198.449 49.597 201.173C49.597 203.909 50.725 205.421 52.765 205.421C54.793 205.421 55.921 203.909 55.921 201.173C55.921 198.449 54.793 196.937 52.765 196.937ZM52.765 198.041C53.929 198.041 54.517 199.037 54.517 201.173C54.517 203.309 53.929 204.317 52.765 204.317C51.589 204.317 51.001 203.309 51.001 201.173C51.001 199.037 51.589 198.041 52.765 198.041ZM62.2753 205.385H63.9073L61.3633 201.473L63.7273 199.001H62.1433L59.3233 201.857V196.481H57.9433V205.385H59.3233V203.597L60.4033 202.457L62.2753 205.385Z" fill="#9C9C9C"/>
<path d="M34.7739 150.44C34.7739 149.876 35.3139 149.564 36.1419 149.564C36.7779 149.564 37.6899 149.792 38.6019 150.344L39.1899 149.096C38.5299 148.652 37.6539 148.34 36.7419 148.256V146.684L35.6859 146.696V148.268C34.1739 148.436 33.1899 149.288 33.1899 150.572C33.1899 153.56 37.7259 152.516 37.7259 154.388C37.7259 155.036 37.1379 155.408 36.1539 155.408C35.2539 155.408 34.1739 154.976 33.3099 154.184L32.6979 155.408C33.4659 156.116 34.5339 156.62 35.6859 156.716V158.396H36.7419V156.704C38.2659 156.524 39.2979 155.648 39.2979 154.316C39.3099 151.292 34.7739 152.276 34.7739 150.44ZM44.2228 151.82L43.7308 151.784L46.4308 149.18V148.292H40.9108L40.9228 149.552H44.6668L42.2068 151.916V152.732H43.4308C44.7148 152.732 45.4708 153.2 45.4708 154.112C45.4708 154.988 44.7268 155.564 43.4548 155.564C42.6028 155.564 41.7508 155.252 41.0908 154.688L40.5028 155.84C41.2708 156.392 42.4348 156.752 43.5508 156.752C45.5788 156.752 46.8508 155.66 46.8508 154.088C46.8508 152.756 45.7948 151.952 44.2228 151.82ZM51.765 148.244C49.725 148.244 48.597 149.756 48.597 152.48C48.597 155.216 49.725 156.728 51.765 156.728C53.793 156.728 54.921 155.216 54.921 152.48C54.921 149.756 53.793 148.244 51.765 148.244ZM51.765 149.348C52.929 149.348 53.517 150.344 53.517 152.48C53.517 154.616 52.929 155.624 51.765 155.624C50.589 155.624 50.001 154.616 50.001 152.48C50.001 150.344 50.589 149.348 51.765 149.348ZM61.2753 156.692H62.9073L60.3633 152.78L62.7273 150.308H61.1433L58.3233 153.164V147.788H56.9433V156.692H58.3233V154.904L59.4033 153.764L61.2753 156.692Z" fill="#9C9C9C"/>
<path d="M34.7739 101.748C34.7739 101.184 35.3139 100.872 36.1419 100.872C36.7779 100.872 37.6899 101.1 38.6019 101.652L39.1899 100.404C38.5299 99.96 37.6539 99.648 36.7419 99.564V97.992L35.6859 98.004V99.576C34.1739 99.744 33.1899 100.596 33.1899 101.88C33.1899 104.868 37.7259 103.824 37.7259 105.696C37.7259 106.344 37.1379 106.716 36.1539 106.716C35.2539 106.716 34.1739 106.284 33.3099 105.492L32.6979 106.716C33.4659 107.424 34.5339 107.928 35.6859 108.024V109.704H36.7419V108.012C38.2659 107.832 39.2979 106.956 39.2979 105.624C39.3099 102.6 34.7739 103.584 34.7739 101.748ZM43.5988 99.588L40.6588 104.88V105.936H44.7508V108H46.0708V105.936H47.3188V104.664H46.0828L46.0708 102.684H44.7508L44.7628 104.664H42.1828L44.9668 99.588H43.5988ZM51.765 99.552C49.725 99.552 48.597 101.064 48.597 103.788C48.597 106.524 49.725 108.036 51.765 108.036C53.793 108.036 54.921 106.524 54.921 103.788C54.921 101.064 53.793 99.552 51.765 99.552ZM51.765 100.656C52.929 100.656 53.517 101.652 53.517 103.788C53.517 105.924 52.929 106.932 51.765 106.932C50.589 106.932 50.001 105.924 50.001 103.788C50.001 101.652 50.589 100.656 51.765 100.656ZM61.2753 108H62.9073L60.3633 104.088L62.7273 101.616H61.1433L58.3233 104.472V99.096H56.9433V108H58.3233V106.212L59.4033 105.072L61.2753 108Z" fill="#9C9C9C"/>
<path d="M105.569 237.752C102.375 237.752 102.375 245.277 97.5833 245.277C96.2755 245.277 90.4011 245.277 88.0051 245.63C88.0045 253.448 88.0051 297.827 88 304H663V245.63C658.213 244.806 656.616 243.16 653.417 243.16C648.625 243.16 648.625 240.104 645.431 240.104C640.639 240.104 640.639 238.928 635.847 238.928C631.056 238.928 631.056 243.043 626.264 243.043C621.472 243.043 621.472 228.816 616.681 228.816C613.486 228.816 613.486 231.991 608.694 231.991C603.903 231.991 603.903 231.756 599.111 231.756C594.319 231.756 594.319 218.235 589.528 218.235C584.736 218.235 584.736 207.653 581.542 207.653C576.75 207.653 576.75 232.696 571.958 232.696C567.167 232.696 567.167 204.361 562.375 204.361C557.583 204.361 557.583 226.112 552.792 226.112C549.597 226.112 549.597 200.128 544.806 200.128C540.014 200.128 540.014 193.074 535.222 193.074C530.431 193.074 530.431 214.002 525.639 214.002C520.847 214.002 520.847 198.953 517.653 198.953C512.861 198.953 512.861 200.834 508.069 200.834C503.278 200.834 503.278 229.992 498.486 229.992C493.694 229.992 493.694 205.889 488.903 205.889C485.708 205.889 485.708 207.065 480.917 207.065C476.125 207.065 476.125 232.931 471.333 232.931C466.542 232.931 466.542 170.617 461.75 170.617C456.958 170.617 456.958 180.611 453.764 180.611C448.972 180.611 448.972 205.066 444.181 205.066C439.389 205.066 439.389 180.023 434.597 180.023C429.806 180.023 429.806 218.705 425.014 218.705C421.819 218.705 421.819 230.933 417.028 230.933C412.236 230.933 412.236 243.513 407.444 243.513C402.653 243.513 402.653 218.705 397.861 218.705C393.069 218.705 393.069 165.797 389.875 165.797C385.083 165.797 385.083 240.339 380.292 240.339C375.5 240.339 375.5 219.058 370.708 219.058C365.917 219.058 365.917 207.418 361.125 207.418C357.931 207.418 357.931 201.657 353.139 201.657C348.347 201.657 348.347 187.43 343.556 187.43C338.764 187.43 338.764 182.375 333.972 182.375C329.181 182.375 329.181 184.491 325.986 184.491C321.194 184.491 321.194 234.578 316.403 234.578C311.611 234.578 311.611 245.512 306.819 245.512C302.028 245.512 302.028 234.813 297.236 234.813C294.042 234.813 294.042 211.415 289.25 211.415C284.458 211.415 284.458 227.523 279.667 227.523C274.875 227.523 274.875 235.871 270.083 235.871C265.292 235.871 265.292 205.184 262.097 205.184C257.306 205.184 257.306 224.584 252.514 224.584C247.722 224.584 247.722 236.694 242.931 236.694C238.139 236.694 238.139 202.362 233.347 202.362C230.153 202.362 230.153 184.021 225.361 184.021C220.569 184.021 220.569 192.133 215.778 192.133C210.986 192.133 210.986 236.811 206.194 236.811C201.403 236.811 201.403 196.131 198.208 196.131C193.417 196.131 193.417 231.168 188.625 231.168C183.833 231.168 183.833 215.295 179.042 215.295C174.25 215.295 174.25 208.123 169.458 208.123C166.264 208.123 166.264 223.761 161.472 223.761C156.681 223.761 156.681 212.591 151.889 212.591C147.097 212.591 147.097 245.277 142.306 245.277C137.514 245.277 137.514 237.164 134.319 237.164C129.528 237.164 129.528 228.581 124.736 228.581C119.944 228.581 119.944 237.634 115.153 237.634C110.361 237.634 110.361 237.752 105.569 237.752Z" fill="#007AFF" fill-opacity="0.33"/>
<path d="M105.569 237.752C102.375 237.752 102.375 245.277 97.5833 245.277C96.2755 245.277 90.4011 245.277 88.0051 245.63C88.0045 253.448 88.0051 297.827 88 304H663V245.63C658.213 244.806 656.616 243.16 653.417 243.16C648.625 243.16 648.625 240.104 645.431 240.104C640.639 240.104 640.639 238.928 635.847 238.928C631.056 238.928 631.056 243.043 626.264 243.043C621.472 243.043 621.472 228.816 616.681 228.816C613.486 228.816 613.486 231.991 608.694 231.991C603.903 231.991 603.903 231.756 599.111 231.756C594.319 231.756 594.319 218.235 589.528 218.235C584.736 218.235 584.736 207.653 581.542 207.653C576.75 207.653 576.75 232.696 571.958 232.696C567.167 232.696 567.167 204.361 562.375 204.361C557.583 204.361 557.583 226.112 552.792 226.112C549.597 226.112 549.597 200.128 544.806 200.128C540.014 200.128 540.014 193.074 535.222 193.074C530.431 193.074 530.431 214.002 525.639 214.002C520.847 214.002 520.847 198.953 517.653 198.953C512.861 198.953 512.861 200.834 508.069 200.834C503.278 200.834 503.278 229.992 498.486 229.992C493.694 229.992 493.694 205.889 488.903 205.889C485.708 205.889 485.708 207.065 480.917 207.065C476.125 207.065 476.125 232.931 471.333 232.931C466.542 232.931 466.542 170.617 461.75 170.617C456.958 170.617 456.958 180.611 453.764 180.611C448.972 180.611 448.972 205.066 444.181 205.066C439.389 205.066 439.389 180.023 434.597 180.023C429.806 180.023 429.806 218.705 425.014 218.705C421.819 218.705 421.819 230.933 417.028 230.933C412.236 230.933 412.236 243.513 407.444 243.513C402.653 243.513 402.653 218.705 397.861 218.705C393.069 218.705 393.069 165.797 389.875 165.797C385.083 165.797 385.083 240.339 380.292 240.339C375.5 240.339 375.5 219.058 370.708 219.058C365.917 219.058 365.917 207.418 361.125 207.418C357.931 207.418 357.931 201.657 353.139 201.657C348.347 201.657 348.347 187.43 343.556 187.43C338.764 187.43 338.764 182.375 333.972 182.375C329.181 182.375 329.181 184.491 325.986 184.491C321.194 184.491 321.194 234.578 316.403 234.578C311.611 234.578 311.611 245.512 306.819 245.512C302.028 245.512 302.028 234.813 297.236 234.813C294.042 234.813 294.042 211.415 289.25 211.415C284.458 211.415 284.458 227.523 279.667 227.523C274.875 227.523 274.875 235.871 270.083 235.871C265.292 235.871 265.292 205.184 262.097 205.184C257.306 205.184 257.306 224.584 252.514 224.584C247.722 224.584 247.722 236.694 242.931 236.694C238.139 236.694 238.139 202.362 233.347 202.362C230.153 202.362 230.153 184.021 225.361 184.021C220.569 184.021 220.569 192.133 215.778 192.133C210.986 192.133 210.986 236.811 206.194 236.811C201.403 236.811 201.403 196.131 198.208 196.131C193.417 196.131 193.417 231.168 188.625 231.168C183.833 231.168 183.833 215.295 179.042 215.295C174.25 215.295 174.25 208.123 169.458 208.123C166.264 208.123 166.264 223.761 161.472 223.761C156.681 223.761 156.681 212.591 151.889 212.591C147.097 212.591 147.097 245.277 142.306 245.277C137.514 245.277 137.514 237.164 134.319 237.164C129.528 237.164 129.528 228.581 124.736 228.581C119.944 228.581 119.944 237.634 115.153 237.634C110.361 237.634 110.361 237.752 105.569 237.752Z" fill="url(#paint0_linear_11_137)"/>
<path d="M88 245.63C92.7917 245.63 92.7917 245.277 97.5833 245.277C102.375 245.277 102.375 237.752 105.569 237.752C110.361 237.752 110.361 237.634 115.153 237.634C119.944 237.634 119.944 228.581 124.736 228.581C129.528 228.581 129.528 237.164 134.319 237.164C137.514 237.164 137.514 245.277 142.306 245.277C147.097 245.277 147.097 212.591 151.889 212.591C156.681 212.591 156.681 223.761 161.472 223.761C166.264 223.761 166.264 208.123 169.458 208.123C174.25 208.123 174.25 215.295 179.042 215.295C183.833 215.295 183.833 231.168 188.625 231.168C193.417 231.168 193.417 196.131 198.208 196.131C201.403 196.131 201.403 236.811 206.194 236.811C210.986 236.811 210.986 192.133 215.778 192.133C220.569 192.133 220.569 184.021 225.361 184.021C230.153 184.021 230.153 202.362 233.347 202.362C238.139 202.362 238.139 236.694 242.931 236.694C247.722 236.694 247.722 224.584 252.514 224.584C257.306 224.584 257.306 205.184 262.097 205.184C265.292 205.184 265.292 235.871 270.083 235.871C274.875 235.871 274.875 227.523 279.667 227.523C284.458 227.523 284.458 211.415 289.25 211.415C294.042 211.415 294.042 234.813 297.236 234.813C302.028 234.813 302.028 245.512 306.819 245.512C311.611 245.512 311.611 234.578 316.403 234.578C321.194 234.578 321.194 184.491 325.986 184.491C329.181 184.491 329.181 182.375 333.972 182.375C338.764 182.375 338.764 187.43 343.556 187.43C348.347 187.43 348.347 201.657 353.139 201.657C357.931 201.657 357.931 207.418 361.125 207.418C365.917 207.418 365.917 219.058 370.708 219.058C375.5 219.058 375.5 240.339 380.292 240.339C385.083 240.339 385.083 165.797 389.875 165.797C393.069 165.797 393.069 218.705 397.861 218.705C402.653 218.705 402.653 243.513 407.444 243.513C412.236 243.513 412.236 230.933 417.028 230.933C421.819 230.933 421.819 218.705 425.014 218.705C429.806 218.705 429.806 180.023 434.597 180.023C439.389 180.023 439.389 205.066 444.181 205.066C448.972 205.066 448.972 180.611 453.764 180.611C456.958 180.611 456.958 170.617 461.75 170.617C466.542 170.617 466.542 232.932 471.333 232.932C476.125 232.932 476.125 207.065 480.917 207.065C485.708 207.065 485.708 205.889 488.903 205.889C493.694 205.889 493.694 229.992 498.486 229.992C503.278 229.992 503.278 200.834 508.069 200.834C512.861 200.834 512.861 198.953 517.653 198.953C520.847 198.953 520.847 214.002 525.639 214.002C530.431 214.002 530.431 193.074 535.222 193.074C540.014 193.074 540.014 200.128 544.806 200.128C549.597 200.128 549.597 226.112 552.792 226.112C557.583 226.112 557.583 204.361 562.375 204.361C567.167 204.361 567.167 232.696 571.958 232.696C576.75 232.696 576.75 207.653 581.542 207.653C584.736 207.653 584.736 218.235 589.528 218.235C594.319 218.235 594.319 231.756 599.111 231.756C603.903 231.756 603.903 231.991 608.694 231.991C613.486 231.991 613.486 228.816 616.681 228.816C621.472 228.816 621.472 243.043 626.264 243.043C631.056 243.043 631.056 238.928 635.847 238.928C640.639 238.928 640.639 240.104 645.431 240.104C648.625 240.104 648.625 243.16 653.417 243.16C658.208 243.16 658.208 245.63 663 245.63" stroke="#007AFF"/>
<rect x="520.5" y="32.5" width="159" height="31" rx="3.5" stroke="#E5E5E5"/>
<path d="M541.67 43.158C538.744 43.158 536.476 45.286 536.476 48.1C536.476 50.9 538.744 53.07 541.67 53.07C544.596 53.07 546.864 50.9 546.864 48.1C546.864 45.3 544.596 43.158 541.67 43.158ZM541.684 44.642C543.602 44.642 545.17 46.154 545.17 48.1C545.17 50.046 543.602 51.586 541.684 51.586C539.766 51.586 538.156 50.046 538.156 48.1C538.156 46.154 539.752 44.642 541.684 44.642ZM554.024 47.75L554.906 46.714C554.22 45.93 553.17 45.496 551.826 45.496C549.614 45.496 548.074 47.036 548.074 49.29C548.074 51.53 549.614 53.056 551.826 53.056C553.24 53.056 554.318 52.552 554.99 51.67L554.094 50.774C553.59 51.362 552.834 51.67 551.896 51.67C550.608 51.67 549.684 50.704 549.684 49.29C549.684 47.876 550.608 46.91 551.896 46.91C552.792 46.896 553.506 47.218 554.024 47.75ZM560.734 51.292C560.3 51.502 559.95 51.614 559.614 51.614C559.11 51.614 558.816 51.376 558.816 50.606V47.036H561.014V45.832H558.816V43.788H557.22V45.832H556.17V47.036H557.22V50.9C557.22 52.426 558.186 53.07 559.306 53.07C559.936 53.07 560.552 52.874 561.14 52.524L560.734 51.292ZM566.989 48.184V49.29H570.433V48.184H566.989ZM577.274 43.2V53H578.926V45.972L584.148 53H585.772V43.2H584.148V50.242L578.898 43.2H577.274ZM591.706 45.496C589.396 45.496 587.814 47.022 587.814 49.262C587.814 51.516 589.396 53.056 591.706 53.056C594.002 53.056 595.584 51.516 595.584 49.262C595.584 47.022 594.002 45.496 591.706 45.496ZM591.706 46.868C593.036 46.868 593.974 47.862 593.974 49.29C593.974 50.732 593.036 51.712 591.706 51.712C590.362 51.712 589.424 50.732 589.424 49.29C589.424 47.862 590.362 46.868 591.706 46.868ZM596.065 45.552L598.949 53H600.615L603.471 45.552H601.861L599.817 51.418L597.745 45.552H596.065ZM612.57 47.918L608.832 51.782V53H616.014V51.516H611.002L613.69 48.8C614.768 47.68 615.538 46.574 615.538 45.594C615.538 44.082 614.236 43.116 612.318 43.116C611.03 43.116 609.756 43.648 608.664 44.516L609.336 45.79C610.176 45.034 611.212 44.572 612.094 44.572C613.172 44.572 613.816 45.034 613.816 45.832C613.816 46.392 613.312 47.176 612.57 47.918ZM621.32 43.144C618.94 43.144 617.624 44.908 617.624 48.086C617.624 51.278 618.94 53.042 621.32 53.042C623.686 53.042 625.002 51.278 625.002 48.086C625.002 44.908 623.686 43.144 621.32 43.144ZM621.32 44.432C622.678 44.432 623.364 45.594 623.364 48.086C623.364 50.578 622.678 51.754 621.32 51.754C619.948 51.754 619.262 50.578 619.262 48.086C619.262 45.594 619.948 44.432 621.32 44.432ZM627.369 43.186V44.67H629.483V53H631.135V43.186H627.369ZM636.273 51.082L635.629 52.328C636.427 52.776 637.575 53.07 638.541 53.07C641.117 53.07 642.755 51.026 642.755 47.89C642.755 44.88 641.243 43.116 638.779 43.116C636.707 43.116 635.349 44.376 635.349 46.406C635.349 48.31 636.539 49.542 638.485 49.542C639.717 49.542 640.627 49.066 641.145 48.142C641.201 50.27 640.319 51.698 638.429 51.698C637.687 51.698 636.875 51.474 636.273 51.082ZM638.863 44.53C640.277 44.53 640.893 45.51 640.879 46.364C640.893 47.372 640.123 48.24 638.793 48.24C637.617 48.24 636.889 47.54 636.889 46.42C636.889 45.23 637.687 44.53 638.863 44.53Z" fill="#333333"/>
<path fill-rule="evenodd" clip-rule="evenodd" d="M658 44.6667C658 43.5621 658.895 42.6667 660 42.6667H668C669.105 42.6667 670 43.5621 670 44.6667V52.6667C670 53.7712 669.105 54.6667 668 54.6667H660C658.895 54.6667 658 53.7712 658 52.6667V44.6667Z" stroke="#333333" stroke-width="2" stroke-linecap="round" stroke-linejoin="round"/>
<path d="M666.667 41.3333V44" stroke="#333333" stroke-width="2" stroke-linecap="round" stroke-linejoin="round"/>
<path d="M661.333 41.3333V44" stroke="#333333" stroke-width="2" stroke-linecap="round" stroke-linejoin="round"/>
<path d="M658 46.6667H670" stroke="#333333" stroke-width="2" stroke-linecap="round" stroke-linejoin="round"/>
<path d="M48.704 57L45.2 51.504C47.144 50.496 48.2 48.624 48.2 46.08C48.2 42.336 45.656 40.176 41.192 40.176H33.632V57H38.024V52.344H41.192H41.288L43.736 57H48.704ZM38.024 43.68H41.216C42.992 43.68 44.024 44.568 44.024 46.224C44.024 47.928 42.992 48.84 41.216 48.84H38.024V43.68ZM56.7112 43.872C52.6552 43.872 49.9432 46.536 49.9432 50.568C49.9432 54.528 52.5592 57.144 56.8072 57.144C59.2072 57.144 61.1512 56.328 62.4712 54.84L60.2392 52.608C59.3752 53.472 58.2952 53.928 57.1912 53.928C55.7272 53.928 54.6472 53.112 54.2392 51.648H63.2632C63.5512 46.92 61.2472 43.872 56.7112 43.872ZM54.1432 49.368C54.4312 47.88 55.3432 46.872 56.7352 46.872C58.1752 46.872 59.1352 47.88 59.1352 49.368H54.1432ZM63.3097 44.016L68.1577 57H72.5497L77.4217 44.016H73.1497L70.4137 53.04L67.7017 44.016H63.3097ZM84.1799 43.872C80.1239 43.872 77.4119 46.536 77.4119 50.568C77.4119 54.528 80.0279 57.144 84.2759 57.144C86.6759 57.144 88.6199 56.328 89.9399 54.84L87.7079 52.608C86.8439 53.472 85.7639 53.928 84.6599 53.928C83.1959 53.928 82.1159 53.112 81.7079 51.648H90.7319C91.0199 46.92 88.7159 43.872 84.1799 43.872ZM81.6119 49.368C81.8999 47.88 82.8119 46.872 84.2039 46.872C85.6439 46.872 86.6039 47.88 86.6039 49.368H81.6119ZM101.497 43.848C99.6009 43.848 98.1129 44.64 97.2009 46.128V44.016H92.9289V57H97.2009V50.136C97.3689 48.672 98.3049 47.688 99.7449 47.664C101.089 47.664 101.953 48.576 101.953 50.04V57H106.201V48.816C106.201 45.768 104.329 43.848 101.497 43.848ZM117.501 44.016V50.424C117.501 52.128 116.589 53.328 115.077 53.352C113.805 53.352 112.989 52.464 112.989 51V44.016H108.717V52.224C108.717 55.248 110.541 57.192 113.349 57.192C115.197 57.168 116.613 56.4 117.501 54.888V57H121.773V44.016H117.501ZM130.75 43.872C126.694 43.872 123.982 46.536 123.982 50.568C123.982 54.528 126.598 57.144 130.846 57.144C133.246 57.144 135.19 56.328 136.51 54.84L134.278 52.608C133.414 53.472 132.334 53.928 131.23 53.928C129.766 53.928 128.686 53.112 128.278 51.648H137.302C137.59 46.92 135.286 43.872 130.75 43.872ZM128.182 49.368C128.47 47.88 129.382 46.872 130.774 46.872C132.214 46.872 133.174 47.88 133.174 49.368H128.182Z" fill="#333333"/>
<path d="M32.108 363.6V364.872H34.76V372H36.176V364.872H38.84V363.6H32.108ZM42.2615 365.568C40.2815 365.568 38.9255 366.876 38.9255 368.796C38.9255 370.728 40.2815 372.048 42.2615 372.048C44.2295 372.048 45.5855 370.728 45.5855 368.796C45.5855 366.876 44.2295 365.568 42.2615 365.568ZM42.2615 366.744C43.4015 366.744 44.2055 367.596 44.2055 368.82C44.2055 370.056 43.4015 370.896 42.2615 370.896C41.1095 370.896 40.3055 370.056 40.3055 368.82C40.3055 367.596 41.1095 366.744 42.2615 366.744ZM50.6895 370.536C50.3175 370.716 50.0175 370.812 49.7295 370.812C49.2975 370.812 49.0455 370.608 49.0455 369.948V366.888H50.9295V365.856H49.0455V364.104H47.6775V365.856H46.7775V366.888H47.6775V370.2C47.6775 371.508 48.5055 372.06 49.4655 372.06C50.0055 372.06 50.5335 371.892 51.0375 371.592L50.6895 370.536ZM57.8962 372L57.8842 367.812C57.8722 366.408 56.9482 365.568 55.3042 365.568C54.0922 365.568 53.4442 365.844 52.5562 366.372L53.1202 367.332C53.7562 366.9 54.3922 366.684 55.0042 366.684C56.0122 366.684 56.5282 367.164 56.5282 367.968V368.16H54.5962C53.0602 368.172 52.1842 368.916 52.1842 370.08C52.1842 371.208 53.0482 372.06 54.4282 372.06C55.3522 372.06 56.0842 371.784 56.5402 371.22V372H57.8962ZM54.7162 370.968C53.9482 370.968 53.4802 370.596 53.4802 370.02C53.4802 369.408 53.9002 369.168 54.8002 369.168H56.5282V369.756C56.4562 370.452 55.7002 370.968 54.7162 370.968ZM60.2034 363.096V372H61.5834V363.096H60.2034ZM75.1002 372L73.2162 369.192C74.3322 368.76 74.9562 367.812 74.9562 366.468C74.9562 364.644 73.7202 363.6 71.5722 363.6H68.1642V372H69.5802V369.468H71.5722C71.7042 369.468 71.8362 369.468 71.9562 369.456L73.4922 372H75.1002ZM69.5802 368.196V364.872H71.5722C72.8682 364.872 73.6122 365.4 73.6122 366.504C73.6122 367.644 72.8682 368.196 71.5722 368.196H69.5802ZM79.78 365.568C77.884 365.58 76.552 366.888 76.552 368.82C76.552 370.74 77.848 372.048 79.816 372.048C80.92 372.048 81.832 371.652 82.456 370.968L81.724 370.188C81.256 370.668 80.62 370.932 79.924 370.932C78.916 370.932 78.16 370.32 77.944 369.336H82.768C82.936 367.032 82.024 365.568 79.78 365.568ZM77.92 368.328C78.064 367.308 78.784 366.672 79.792 366.672C80.836 366.672 81.52 367.296 81.568 368.328H77.92ZM83.3643 365.616L85.8363 372H87.2643L89.7123 365.616H88.3323L86.5803 370.644L84.8043 365.616H83.3643ZM93.4707 365.568C91.5747 365.58 90.2427 366.888 90.2427 368.82C90.2427 370.74 91.5387 372.048 93.5067 372.048C94.6107 372.048 95.5227 371.652 96.1467 370.968L95.4147 370.188C94.9467 370.668 94.3107 370.932 93.6147 370.932C92.6067 370.932 91.8507 370.32 91.6347 369.336H96.4587C96.6267 367.032 95.7147 365.568 93.4707 365.568ZM91.6107 368.328C91.7547 367.308 92.4747 366.672 93.4827 366.672C94.5267 366.672 95.2107 367.296 95.2587 368.328H91.6107ZM102.029 365.568C100.949 365.568 100.133 365.952 99.6773 366.84V365.616H98.2973V372H99.6773V368.604C99.7733 367.608 100.433 366.876 101.489 366.864C102.449 366.864 103.025 367.452 103.025 368.412V372H104.405V368.028C104.405 366.504 103.517 365.568 102.029 365.568ZM111.07 365.616V368.76C111.07 369.876 110.422 370.728 109.318 370.752C108.394 370.752 107.83 370.164 107.83 369.204V365.616H106.45V369.588C106.45 371.112 107.326 372.048 108.79 372.048C109.834 372.036 110.638 371.64 111.07 370.752V372H112.45V365.616H111.07ZM117.522 365.568C115.626 365.58 114.294 366.888 114.294 368.82C114.294 370.74 115.59 372.048 117.558 372.048C118.662 372.048 119.574 371.652 120.198 370.968L119.466 370.188C118.998 370.668 118.362 370.932 117.666 370.932C116.658 370.932 115.902 370.32 115.686 369.336H120.51C120.678 367.032 119.766 365.568 117.522 365.568ZM115.662 368.328C115.806 367.308 116.526 366.672 117.534 366.672C118.578 366.672 119.262 367.296 119.31 368.328H115.662Z" fill="#9C9C9C"/>
<path d="M46.904 395.96C46.904 389.912 38.048 391.496 38.048 388.712C38.048 387.944 38.744 387.56 39.8 387.56C41.192 387.56 43.448 388.352 45.224 389.36L46.88 385.88C45.464 384.968 43.592 384.296 41.624 384.08V380.576H38.432V384.104C35.36 384.608 33.44 386.456 33.44 389.12C33.44 395.072 42.296 393.344 42.296 396.2C42.296 397.088 41.48 397.568 40.184 397.568C38.432 397.568 35.816 396.512 34.088 395.024L32.384 398.456C33.992 399.776 36.176 400.712 38.432 401.024V404.72H41.624V401.048C44.648 400.64 46.904 398.912 46.904 395.96ZM48.4036 384.152V390.056H52.2916V387.704H56.9956L50.8516 401H55.4836L61.8196 387.2V384.152H48.4036ZM74.6161 388.4L76.2241 385.376C74.8321 384.512 72.7441 383.984 70.8721 383.984C66.2401 383.984 63.2401 387.464 63.2401 392.84C63.2401 398 65.9281 401.192 70.3921 401.192C74.0881 401.192 76.5841 398.936 76.5841 395.384C76.5841 392.096 74.4721 389.936 71.2081 389.936C69.3841 389.936 68.0881 390.608 67.2961 391.736C67.2481 389 68.5201 387.32 71.1361 387.32C72.4321 387.32 73.6561 387.704 74.6161 388.4ZM70.2721 393.08C71.7601 393.08 72.6241 393.944 72.6241 395.36C72.6241 396.896 71.7121 397.736 70.2241 397.736C68.5201 397.736 67.7521 396.656 67.7521 395.432C67.7521 394.064 68.6641 393.08 70.2721 393.08ZM89.4286 388.4L91.0366 385.376C89.6446 384.512 87.5566 383.984 85.6846 383.984C81.0526 383.984 78.0526 387.464 78.0526 392.84C78.0526 398 80.7406 401.192 85.2046 401.192C88.9006 401.192 91.3966 398.936 91.3966 395.384C91.3966 392.096 89.2846 389.936 86.0206 389.936C84.1966 389.936 82.9006 390.608 82.1086 391.736C82.0606 389 83.3326 387.32 85.9486 387.32C87.2446 387.32 88.4686 387.704 89.4286 388.4ZM85.0846 393.08C86.5726 393.08 87.4366 393.944 87.4366 395.36C87.4366 396.896 86.5246 397.736 85.0366 397.736C83.3326 397.736 82.5646 396.656 82.5646 395.432C82.5646 394.064 83.4766 393.08 85.0846 393.08ZM99.3211 383.96C95.7691 383.96 93.4411 385.688 93.4411 388.4C93.4411 389.816 94.3051 391.184 95.6731 391.976C93.8011 392.768 92.6011 394.424 92.6011 396.32C92.6011 399.296 95.2411 401.192 99.3451 401.192C103.473 401.192 106.137 399.272 106.137 396.248C106.137 394.376 105.009 392.768 103.257 391.976C104.505 391.256 105.273 389.936 105.273 388.52C105.273 385.736 102.969 383.96 99.3211 383.96ZM99.3451 386.912C100.809 386.912 101.601 387.56 101.601 388.76C101.601 389.912 100.809 390.56 99.3451 390.56C97.9051 390.56 97.1131 389.912 97.1131 388.76C97.1131 387.56 97.9051 386.912 99.3451 386.912ZM99.3691 393.776C101.073 393.776 102.033 394.52 102.033 395.864C102.033 397.232 101.073 397.976 99.3451 397.976C97.6411 397.976 96.7051 397.232 96.7051 395.864C96.7051 394.52 97.6411 393.776 99.3691 393.776ZM112.67 390.272V387.704H119.942V384.152H108.638V393.752C109.694 393.68 112.454 393.656 113.342 393.656C115.022 393.656 115.982 394.376 115.982 395.648C115.982 397.016 115.022 397.784 113.318 397.784C111.782 397.784 110.246 397.064 108.926 395.672L107.174 399.08C108.998 400.352 111.59 401.192 113.846 401.192C117.998 401.192 120.71 398.888 120.71 395.336C120.71 392.336 118.142 390.248 114.182 390.248C113.846 390.248 113.03 390.248 112.67 390.272ZM124.506 397.04C123.306 397.04 122.466 397.88 122.466 399.104C122.466 400.328 123.306 401.192 124.506 401.192C125.706 401.192 126.57 400.328 126.57 399.104C126.57 397.88 125.706 397.04 124.506 397.04ZM133.125 384.152L128.133 394.4V397.352H135.741V401H139.773V397.352H141.933V394.016H139.773V390.464H135.741L135.765 394.016H132.621L137.301 384.152H133.125ZM144.481 384.176V387.776H147.721V401H152.113V384.176H144.481Z" fill="#333333"/>
<path d="M47.576 419.588V422.036H48.836L48.848 420.86H52.4L48.932 428H50.432L53.972 420.668V419.588H47.576ZM56.1143 426.548C55.6823 426.548 55.3703 426.872 55.3703 427.316C55.3703 427.568 55.4783 427.796 55.6943 427.94L55.2383 428.984H55.9463L56.6303 427.952C56.7623 427.76 56.8463 427.556 56.8463 427.316C56.8463 426.836 56.4983 426.548 56.1143 426.548ZM61.4807 419.552C59.4407 419.552 58.3127 421.064 58.3127 423.788C58.3127 426.524 59.4407 428.036 61.4807 428.036C63.5087 428.036 64.6367 426.524 64.6367 423.788C64.6367 421.064 63.5087 419.552 61.4807 419.552ZM61.4807 420.656C62.6447 420.656 63.2327 421.652 63.2327 423.788C63.2327 425.924 62.6447 426.932 61.4807 426.932C60.3047 426.932 59.7167 425.924 59.7167 423.788C59.7167 421.652 60.3047 420.656 61.4807 420.656ZM69.2869 419.552C67.2469 419.552 66.1189 421.064 66.1189 423.788C66.1189 426.524 67.2469 428.036 69.2869 428.036C71.3149 428.036 72.4429 426.524 72.4429 423.788C72.4429 421.064 71.3149 419.552 69.2869 419.552ZM69.2869 420.656C70.4509 420.656 71.0389 421.652 71.0389 423.788C71.0389 425.924 70.4509 426.932 69.2869 426.932C68.1109 426.932 67.5229 425.924 67.5229 423.788C67.5229 421.652 68.1109 420.656 69.2869 420.656ZM76.0612 419.576C74.6812 419.576 73.8412 420.512 73.8412 422.072C73.8412 423.644 74.6812 424.58 76.0612 424.58C77.4412 424.58 78.2812 423.644 78.2812 422.072C78.2812 420.512 77.4412 419.576 76.0612 419.576ZM81.6052 419.6L75.4252 428H76.7572L82.9252 419.6H81.6052ZM76.0612 420.38C76.8892 420.38 77.3692 421.004 77.3692 422.072C77.3692 423.152 76.8892 423.764 76.0612 423.764C75.2332 423.764 74.7652 423.152 74.7652 422.072C74.7652 421.004 75.2332 420.38 76.0612 420.38ZM82.3852 423.02C81.0052 423.02 80.1652 423.956 80.1652 425.516C80.1652 427.088 81.0052 428.024 82.3852 428.024C83.7652 428.024 84.6052 427.088 84.6052 425.516C84.6052 423.956 83.7652 423.02 82.3852 423.02ZM82.3852 423.824C83.2132 423.824 83.6932 424.448 83.6932 425.516C83.6932 426.596 83.2132 427.208 82.3852 427.208C81.5572 427.208 81.0892 426.596 81.0892 425.516C81.0892 424.448 81.5572 423.824 82.3852 423.824Z" fill="#4AAF05"/>
<path d="M36 426.667V421.333" stroke="#4AAF05" stroke-width="2" stroke-linecap="round" stroke-linejoin="round"/>
<path d="M34 423.333L36 421.333L38 423.333" stroke="#4AAF05" stroke-width="2" stroke-linecap="round" stroke-linejoin="round"/>
<defs>
<linearGradient id="paint0_linear_11_137" x1="375.505" y1="165.797" x2="375.505" y2="304" gradientUnits="userSpaceOnUse">
<stop stop-color="white" stop-opacity="0"/>
<stop offset="1" stop-color="white"/>
</linearGradient>
</defs>
</svg>
