<svg width="680" height="324" viewBox="0 0 680 324" fill="none" xmlns="http://www.w3.org/2000/svg">
<path d="M1 185H679" stroke="#E2E7E7" stroke-dasharray="3 6"/>
<path d="M1 145H679" stroke="#E2E7E7" stroke-dasharray="3 6"/>
<path d="M1 225H679" stroke="#E2E7E7" stroke-dasharray="3 6"/>
<path d="M1 265H679" stroke="#E2E7E7"/>
<path opacity="0.5" d="M15.7168 279.941C15.7168 278.68 15.9221 277.697 16.3328 276.993C16.7434 276.282 17.4621 275.926 18.4888 275.926C19.5081 275.926 20.2231 276.282 20.6338 276.993C21.0444 277.697 21.2498 278.68 21.2498 279.941C21.2498 281.224 21.0444 282.222 20.6338 282.933C20.2231 283.644 19.5081 284 18.4888 284C17.4621 284 16.7434 283.644 16.3328 282.933C15.9221 282.222 15.7168 281.224 15.7168 279.941ZM20.2598 279.941C20.2598 279.303 20.2158 278.764 20.1278 278.324C20.0471 277.877 19.8748 277.517 19.6108 277.246C19.3541 276.975 18.9801 276.839 18.4888 276.839C17.9901 276.839 17.6088 276.975 17.3448 277.246C17.0881 277.517 16.9158 277.877 16.8278 278.324C16.7471 278.764 16.7068 279.303 16.7068 279.941C16.7068 280.601 16.7471 281.155 16.8278 281.602C16.9158 282.049 17.0881 282.409 17.3448 282.68C17.6088 282.951 17.9901 283.087 18.4888 283.087C18.9801 283.087 19.3541 282.951 19.6108 282.68C19.8748 282.409 20.0471 282.049 20.1278 281.602C20.2158 281.155 20.2598 280.601 20.2598 279.941ZM22.86 276.96V276.047H24.928V284H23.916V276.96H22.86Z" fill="#737B8B"/>
<path d="M9 175H17V265H9V175Z" fill="#015249"/>
<path d="M23 215H31V265H23V215Z" fill="#E6E8EC"/>
<path opacity="0.5" d="M361.976 279.941C361.976 278.68 362.181 277.697 362.592 276.993C363.003 276.282 363.721 275.926 364.748 275.926C365.767 275.926 366.482 276.282 366.893 276.993C367.304 277.697 367.509 278.68 367.509 279.941C367.509 281.224 367.304 282.222 366.893 282.933C366.482 283.644 365.767 284 364.748 284C363.721 284 363.003 283.644 362.592 282.933C362.181 282.222 361.976 281.224 361.976 279.941ZM366.519 279.941C366.519 279.303 366.475 278.764 366.387 278.324C366.306 277.877 366.134 277.517 365.87 277.246C365.613 276.975 365.239 276.839 364.748 276.839C364.249 276.839 363.868 276.975 363.604 277.246C363.347 277.517 363.175 277.877 363.087 278.324C363.006 278.764 362.966 279.303 362.966 279.941C362.966 280.601 363.006 281.155 363.087 281.602C363.175 282.049 363.347 282.409 363.604 282.68C363.868 282.951 364.249 283.087 364.748 283.087C365.239 283.087 365.613 282.951 365.87 282.68C366.134 282.409 366.306 282.049 366.387 281.602C366.475 281.155 366.519 280.601 366.519 279.941ZM374.278 276.828L371.22 284H370.208L373.31 276.927H369.064V276.069H374.278V276.828Z" fill="#737B8B"/>
<path d="M357 175H365V265H357V175Z" fill="#015249"/>
<path d="M371 215H379V265H371V215Z" fill="#E6E8EC"/>
<path opacity="0.5" d="M71.8147 279.941C71.8147 278.68 72.02 277.697 72.4307 276.993C72.8414 276.282 73.56 275.926 74.5867 275.926C75.606 275.926 76.321 276.282 76.7317 276.993C77.1424 277.697 77.3477 278.68 77.3477 279.941C77.3477 281.224 77.1424 282.222 76.7317 282.933C76.321 283.644 75.606 284 74.5867 284C73.56 284 72.8414 283.644 72.4307 282.933C72.02 282.222 71.8147 281.224 71.8147 279.941ZM76.3577 279.941C76.3577 279.303 76.3137 278.764 76.2257 278.324C76.145 277.877 75.9727 277.517 75.7087 277.246C75.452 276.975 75.078 276.839 74.5867 276.839C74.088 276.839 73.7067 276.975 73.4427 277.246C73.186 277.517 73.0137 277.877 72.9257 278.324C72.845 278.764 72.8047 279.303 72.8047 279.941C72.8047 280.601 72.845 281.155 72.9257 281.602C73.0137 282.049 73.186 282.409 73.4427 282.68C73.7067 282.951 74.088 283.087 74.5867 283.087C75.078 283.087 75.452 282.951 75.7087 282.68C75.9727 282.409 76.145 282.049 76.2257 281.602C76.3137 281.155 76.3577 280.601 76.3577 279.941ZM79.1009 283.197C80.0323 282.449 80.7619 281.837 81.2899 281.36C81.8179 280.876 82.2616 280.374 82.6209 279.853C82.9876 279.325 83.1709 278.808 83.1709 278.302C83.1709 277.825 83.0536 277.451 82.8189 277.18C82.5916 276.901 82.2213 276.762 81.7079 276.762C81.2093 276.762 80.8206 276.92 80.5419 277.235C80.2706 277.543 80.1239 277.957 80.1019 278.478H79.1339C79.1633 277.657 79.4126 277.022 79.8819 276.575C80.3513 276.128 80.9563 275.904 81.6969 275.904C82.4523 275.904 83.0499 276.113 83.4899 276.531C83.9373 276.949 84.1609 277.525 84.1609 278.258C84.1609 278.867 83.9776 279.461 83.6109 280.04C83.2516 280.612 82.8409 281.118 82.3789 281.558C81.9169 281.991 81.3266 282.497 80.6079 283.076H84.3919V283.912H79.1009V283.197Z" fill="#737B8B"/>
<path d="M67 195H75V265H67V195Z" fill="#015249"/>
<path d="M81 175H89V265H81V175Z" fill="#E6E8EC"/>
<path opacity="0.5" d="M420.009 279.941C420.009 278.68 420.214 277.697 420.625 276.993C421.035 276.282 421.754 275.926 422.781 275.926C423.8 275.926 424.515 276.282 424.926 276.993C425.336 277.697 425.542 278.68 425.542 279.941C425.542 281.224 425.336 282.222 424.926 282.933C424.515 283.644 423.8 284 422.781 284C421.754 284 421.035 283.644 420.625 282.933C420.214 282.222 420.009 281.224 420.009 279.941ZM424.552 279.941C424.552 279.303 424.508 278.764 424.42 278.324C424.339 277.877 424.167 277.517 423.903 277.246C423.646 276.975 423.272 276.839 422.781 276.839C422.282 276.839 421.901 276.975 421.637 277.246C421.38 277.517 421.208 277.877 421.12 278.324C421.039 278.764 420.999 279.303 420.999 279.941C420.999 280.601 421.039 281.155 421.12 281.602C421.208 282.049 421.38 282.409 421.637 282.68C421.901 282.951 422.282 283.087 422.781 283.087C423.272 283.087 423.646 282.951 423.903 282.68C424.167 282.409 424.339 282.049 424.42 281.602C424.508 281.155 424.552 280.601 424.552 279.941ZM428.868 279.864C428.457 279.703 428.142 279.468 427.922 279.16C427.702 278.852 427.592 278.478 427.592 278.038C427.592 277.642 427.691 277.286 427.889 276.971C428.087 276.648 428.38 276.395 428.769 276.212C429.165 276.021 429.642 275.926 430.199 275.926C430.756 275.926 431.229 276.021 431.618 276.212C432.014 276.395 432.311 276.648 432.509 276.971C432.714 277.286 432.817 277.642 432.817 278.038C432.817 278.463 432.703 278.837 432.476 279.16C432.249 279.475 431.937 279.71 431.541 279.864C431.996 280.003 432.355 280.249 432.619 280.601C432.89 280.946 433.026 281.364 433.026 281.855C433.026 282.332 432.909 282.75 432.674 283.109C432.439 283.461 432.106 283.736 431.673 283.934C431.248 284.125 430.756 284.22 430.199 284.22C429.642 284.22 429.15 284.125 428.725 283.934C428.307 283.736 427.981 283.461 427.746 283.109C427.511 282.75 427.394 282.332 427.394 281.855C427.394 281.364 427.526 280.942 427.79 280.59C428.054 280.238 428.413 279.996 428.868 279.864ZM431.849 278.159C431.849 277.712 431.702 277.367 431.409 277.125C431.116 276.883 430.712 276.762 430.199 276.762C429.693 276.762 429.293 276.883 429 277.125C428.707 277.367 428.56 277.715 428.56 278.17C428.56 278.581 428.71 278.911 429.011 279.16C429.319 279.409 429.715 279.534 430.199 279.534C430.69 279.534 431.086 279.409 431.387 279.16C431.695 278.903 431.849 278.57 431.849 278.159ZM430.199 280.304C429.656 280.304 429.213 280.432 428.868 280.689C428.523 280.938 428.351 281.316 428.351 281.822C428.351 282.291 428.516 282.669 428.846 282.955C429.183 283.241 429.634 283.384 430.199 283.384C430.764 283.384 431.211 283.241 431.541 282.955C431.871 282.669 432.036 282.291 432.036 281.822C432.036 281.331 431.867 280.957 431.53 280.7C431.193 280.436 430.749 280.304 430.199 280.304Z" fill="#737B8B"/>
<path d="M415 195H423V265H415V195Z" fill="#015249"/>
<path d="M429 175H437V265H429V175Z" fill="#E6E8EC"/>
<path opacity="0.5" d="M129.74 279.941C129.74 278.68 129.945 277.697 130.356 276.993C130.766 276.282 131.485 275.926 132.512 275.926C133.531 275.926 134.246 276.282 134.657 276.993C135.067 277.697 135.273 278.68 135.273 279.941C135.273 281.224 135.067 282.222 134.657 282.933C134.246 283.644 133.531 284 132.512 284C131.485 284 130.766 283.644 130.356 282.933C129.945 282.222 129.74 281.224 129.74 279.941ZM134.283 279.941C134.283 279.303 134.239 278.764 134.151 278.324C134.07 277.877 133.898 277.517 133.634 277.246C133.377 276.975 133.003 276.839 132.512 276.839C132.013 276.839 131.632 276.975 131.368 277.246C131.111 277.517 130.939 277.877 130.851 278.324C130.77 278.764 130.73 279.303 130.73 279.941C130.73 280.601 130.77 281.155 130.851 281.602C130.939 282.049 131.111 282.409 131.368 282.68C131.632 282.951 132.013 283.087 132.512 283.087C133.003 283.087 133.377 282.951 133.634 282.68C133.898 282.409 134.07 282.049 134.151 281.602C134.239 281.155 134.283 280.601 134.283 279.941ZM137.125 278.049C137.176 277.374 137.437 276.846 137.906 276.465C138.375 276.084 138.984 275.893 139.732 275.893C140.231 275.893 140.66 275.985 141.019 276.168C141.386 276.344 141.661 276.586 141.844 276.894C142.035 277.202 142.13 277.55 142.13 277.939C142.13 278.394 141.998 278.786 141.734 279.116C141.477 279.446 141.14 279.659 140.722 279.754V279.809C141.199 279.926 141.576 280.157 141.855 280.502C142.134 280.847 142.273 281.298 142.273 281.855C142.273 282.273 142.178 282.651 141.987 282.988C141.796 283.318 141.51 283.578 141.129 283.769C140.748 283.96 140.289 284.055 139.754 284.055C138.977 284.055 138.339 283.853 137.84 283.45C137.341 283.039 137.063 282.46 137.004 281.712H137.972C138.023 282.152 138.203 282.511 138.511 282.79C138.819 283.069 139.23 283.208 139.743 283.208C140.256 283.208 140.645 283.076 140.909 282.812C141.18 282.541 141.316 282.192 141.316 281.767C141.316 281.217 141.133 280.821 140.766 280.579C140.399 280.337 139.846 280.216 139.105 280.216H138.852V279.38H139.116C139.791 279.373 140.3 279.263 140.645 279.05C140.99 278.83 141.162 278.493 141.162 278.038C141.162 277.649 141.034 277.338 140.777 277.103C140.528 276.868 140.168 276.751 139.699 276.751C139.244 276.751 138.878 276.868 138.599 277.103C138.32 277.338 138.155 277.653 138.104 278.049H137.125Z" fill="#737B8B"/>
<path d="M125 185H133V265H125V185Z" fill="#015249"/>
<path d="M139 225H147V265H139V225Z" fill="#E6E8EC"/>
<path opacity="0.5" d="M478.014 279.941C478.014 278.68 478.219 277.697 478.63 276.993C479.041 276.282 479.759 275.926 480.786 275.926C481.805 275.926 482.52 276.282 482.931 276.993C483.342 277.697 483.547 278.68 483.547 279.941C483.547 281.224 483.342 282.222 482.931 282.933C482.52 283.644 481.805 284 480.786 284C479.759 284 479.041 283.644 478.63 282.933C478.219 282.222 478.014 281.224 478.014 279.941ZM482.557 279.941C482.557 279.303 482.513 278.764 482.425 278.324C482.344 277.877 482.172 277.517 481.908 277.246C481.651 276.975 481.277 276.839 480.786 276.839C480.287 276.839 479.906 276.975 479.642 277.246C479.385 277.517 479.213 277.877 479.125 278.324C479.044 278.764 479.004 279.303 479.004 279.941C479.004 280.601 479.044 281.155 479.125 281.602C479.213 282.049 479.385 282.409 479.642 282.68C479.906 282.951 480.287 283.087 480.786 283.087C481.277 283.087 481.651 282.951 481.908 282.68C482.172 282.409 482.344 282.049 482.425 281.602C482.513 281.155 482.557 280.601 482.557 279.941ZM486.708 281.866C486.782 282.284 486.95 282.607 487.214 282.834C487.486 283.061 487.849 283.175 488.303 283.175C488.912 283.175 489.359 282.937 489.645 282.46C489.939 281.983 490.078 281.18 490.063 280.051C489.909 280.381 489.653 280.641 489.293 280.832C488.934 281.015 488.534 281.107 488.094 281.107C487.603 281.107 487.163 281.008 486.774 280.81C486.393 280.605 486.092 280.308 485.872 279.919C485.652 279.53 485.542 279.061 485.542 278.511C485.542 277.726 485.77 277.096 486.224 276.619C486.679 276.135 487.324 275.893 488.16 275.893C489.187 275.893 489.906 276.227 490.316 276.894C490.734 277.561 490.943 278.555 490.943 279.875C490.943 280.799 490.859 281.562 490.69 282.163C490.529 282.764 490.25 283.223 489.854 283.538C489.466 283.853 488.93 284.011 488.248 284.011C487.5 284.011 486.917 283.809 486.499 283.406C486.081 283.003 485.843 282.489 485.784 281.866H486.708ZM488.259 280.26C488.751 280.26 489.154 280.11 489.469 279.809C489.785 279.501 489.942 279.087 489.942 278.566C489.942 278.016 489.788 277.572 489.48 277.235C489.172 276.898 488.74 276.729 488.182 276.729C487.669 276.729 487.258 276.89 486.95 277.213C486.65 277.536 486.499 277.961 486.499 278.489C486.499 279.024 486.65 279.453 486.95 279.776C487.251 280.099 487.687 280.26 488.259 280.26Z" fill="#737B8B"/>
<path d="M473 185H481V265H473V185Z" fill="#015249"/>
<path d="M487 225H495V265H487V225Z" fill="#E6E8EC"/>
<path opacity="0.5" d="M188.019 279.941C188.019 278.68 188.225 277.697 188.635 276.993C189.046 276.282 189.765 275.926 190.791 275.926C191.811 275.926 192.526 276.282 192.936 276.993C193.347 277.697 193.552 278.68 193.552 279.941C193.552 281.224 193.347 282.222 192.936 282.933C192.526 283.644 191.811 284 190.791 284C189.765 284 189.046 283.644 188.635 282.933C188.225 282.222 188.019 281.224 188.019 279.941ZM192.562 279.941C192.562 279.303 192.518 278.764 192.43 278.324C192.35 277.877 192.177 277.517 191.913 277.246C191.657 276.975 191.283 276.839 190.791 276.839C190.293 276.839 189.911 276.975 189.647 277.246C189.391 277.517 189.218 277.877 189.13 278.324C189.05 278.764 189.009 279.303 189.009 279.941C189.009 280.601 189.05 281.155 189.13 281.602C189.218 282.049 189.391 282.409 189.647 282.68C189.911 282.951 190.293 283.087 190.791 283.087C191.283 283.087 191.657 282.951 191.913 282.68C192.177 282.409 192.35 282.049 192.43 281.602C192.518 281.155 192.562 280.601 192.562 279.941ZM195.185 282.229V281.47L199.046 276.124H200.245V281.36H201.345V282.229H200.245V284H199.255V282.229H195.185ZM199.299 277.169L196.34 281.36H199.299V277.169Z" fill="#737B8B"/>
<path d="M183 205H191V265H183V205Z" fill="#015249"/>
<path d="M197 185H205V265H197V185Z" fill="#E6E8EC"/>
<path opacity="0.5" d="M537.453 276.96V276.047H539.521V284H538.509V276.96H537.453ZM541.74 279.941C541.74 278.68 541.945 277.697 542.356 276.993C542.767 276.282 543.485 275.926 544.512 275.926C545.531 275.926 546.246 276.282 546.657 276.993C547.068 277.697 547.273 278.68 547.273 279.941C547.273 281.224 547.068 282.222 546.657 282.933C546.246 283.644 545.531 284 544.512 284C543.485 284 542.767 283.644 542.356 282.933C541.945 282.222 541.74 281.224 541.74 279.941ZM546.283 279.941C546.283 279.303 546.239 278.764 546.151 278.324C546.07 277.877 545.898 277.517 545.634 277.246C545.377 276.975 545.003 276.839 544.512 276.839C544.013 276.839 543.632 276.975 543.368 277.246C543.111 277.517 542.939 277.877 542.851 278.324C542.77 278.764 542.73 279.303 542.73 279.941C542.73 280.601 542.77 281.155 542.851 281.602C542.939 282.049 543.111 282.409 543.368 282.68C543.632 282.951 544.013 283.087 544.512 283.087C545.003 283.087 545.377 282.951 545.634 282.68C545.898 282.409 546.07 282.049 546.151 281.602C546.239 281.155 546.283 280.601 546.283 279.941Z" fill="#737B8B"/>
<path d="M531 205H539V265H531V205Z" fill="#015249"/>
<path d="M545 185H553V265H545V185Z" fill="#E6E8EC"/>
<path opacity="0.5" d="M246.025 279.941C246.025 278.68 246.23 277.697 246.641 276.993C247.051 276.282 247.77 275.926 248.797 275.926C249.816 275.926 250.531 276.282 250.942 276.993C251.352 277.697 251.558 278.68 251.558 279.941C251.558 281.224 251.352 282.222 250.942 282.933C250.531 283.644 249.816 284 248.797 284C247.77 284 247.051 283.644 246.641 282.933C246.23 282.222 246.025 281.224 246.025 279.941ZM250.568 279.941C250.568 279.303 250.524 278.764 250.436 278.324C250.355 277.877 250.183 277.517 249.919 277.246C249.662 276.975 249.288 276.839 248.797 276.839C248.298 276.839 247.917 276.975 247.653 277.246C247.396 277.517 247.224 277.877 247.136 278.324C247.055 278.764 247.015 279.303 247.015 279.941C247.015 280.601 247.055 281.155 247.136 281.602C247.224 282.049 247.396 282.409 247.653 282.68C247.917 282.951 248.298 283.087 248.797 283.087C249.288 283.087 249.662 282.951 249.919 282.68C250.183 282.409 250.355 282.049 250.436 281.602C250.524 281.155 250.568 280.601 250.568 279.941ZM258.503 276.916H254.642V279.424C254.811 279.189 255.06 278.999 255.39 278.852C255.72 278.698 256.076 278.621 256.457 278.621C257.066 278.621 257.561 278.749 257.942 279.006C258.323 279.255 258.595 279.582 258.756 279.985C258.925 280.381 259.009 280.803 259.009 281.25C259.009 281.778 258.91 282.251 258.712 282.669C258.514 283.087 258.21 283.417 257.799 283.659C257.396 283.901 256.893 284.022 256.292 284.022C255.522 284.022 254.899 283.824 254.422 283.428C253.945 283.032 253.656 282.504 253.553 281.844H254.532C254.627 282.262 254.829 282.588 255.137 282.823C255.445 283.058 255.834 283.175 256.303 283.175C256.882 283.175 257.319 283.003 257.612 282.658C257.905 282.306 258.052 281.844 258.052 281.272C258.052 280.7 257.905 280.26 257.612 279.952C257.319 279.637 256.886 279.479 256.314 279.479C255.925 279.479 255.584 279.574 255.291 279.765C255.005 279.948 254.796 280.201 254.664 280.524H253.718V276.036H258.503V276.916Z" fill="#737B8B"/>
<path d="M241 165H249V265H241V165Z" fill="#015249"/>
<path d="M255 195H263V265H255V195Z" fill="#E6E8EC"/>
<path opacity="0.5" d="M596.645 276.96V276.047H598.713V284H597.701V276.96H596.645ZM600.668 276.96V276.047H602.736V284H601.724V276.96H600.668Z" fill="#737B8B"/>
<path d="M589 165H597V265H589V165Z" fill="#015249"/>
<path d="M603 195H611V265H603V195Z" fill="#E6E8EC"/>
<path opacity="0.5" d="M303.987 279.941C303.987 278.68 304.193 277.697 304.603 276.993C305.014 276.282 305.733 275.926 306.759 275.926C307.779 275.926 308.494 276.282 308.904 276.993C309.315 277.697 309.52 278.68 309.52 279.941C309.52 281.224 309.315 282.222 308.904 282.933C308.494 283.644 307.779 284 306.759 284C305.733 284 305.014 283.644 304.603 282.933C304.193 282.222 303.987 281.224 303.987 279.941ZM308.53 279.941C308.53 279.303 308.486 278.764 308.398 278.324C308.318 277.877 308.145 277.517 307.881 277.246C307.625 276.975 307.251 276.839 306.759 276.839C306.261 276.839 305.879 276.975 305.615 277.246C305.359 277.517 305.186 277.877 305.098 278.324C305.018 278.764 304.977 279.303 304.977 279.941C304.977 280.601 305.018 281.155 305.098 281.602C305.186 282.049 305.359 282.409 305.615 282.68C305.879 282.951 306.261 283.087 306.759 283.087C307.251 283.087 307.625 282.951 307.881 282.68C308.145 282.409 308.318 282.049 308.398 281.602C308.486 281.155 308.53 280.601 308.53 279.941ZM315.827 277.939C315.666 277.125 315.164 276.718 314.32 276.718C313.668 276.718 313.18 276.971 312.857 277.477C312.535 277.976 312.377 278.801 312.384 279.952C312.553 279.571 312.832 279.274 313.22 279.061C313.616 278.841 314.056 278.731 314.54 278.731C315.296 278.731 315.897 278.966 316.344 279.435C316.799 279.904 317.026 280.553 317.026 281.382C317.026 281.881 316.927 282.328 316.729 282.724C316.539 283.12 316.245 283.435 315.849 283.67C315.461 283.905 314.988 284.022 314.43 284.022C313.675 284.022 313.085 283.853 312.659 283.516C312.234 283.179 311.937 282.713 311.768 282.119C311.6 281.525 311.515 280.792 311.515 279.919C311.515 277.228 312.454 275.882 314.331 275.882C315.05 275.882 315.615 276.076 316.025 276.465C316.436 276.854 316.678 277.345 316.751 277.939H315.827ZM314.331 279.578C314.016 279.578 313.719 279.644 313.44 279.776C313.162 279.901 312.934 280.095 312.758 280.359C312.59 280.616 312.505 280.931 312.505 281.305C312.505 281.862 312.667 282.317 312.989 282.669C313.312 283.014 313.774 283.186 314.375 283.186C314.889 283.186 315.296 283.028 315.596 282.713C315.904 282.39 316.058 281.958 316.058 281.415C316.058 280.843 315.912 280.396 315.618 280.073C315.325 279.743 314.896 279.578 314.331 279.578Z" fill="#737B8B"/>
<path d="M299 155H307V265H299V155Z" fill="#015249"/>
<path d="M313 215H321V265H313V215Z" fill="#E6E8EC"/>
<path opacity="0.5" d="M653.743 276.96V276.047H655.811V284H654.799V276.96H653.743ZM657.909 283.197C658.84 282.449 659.57 281.837 660.098 281.36C660.626 280.876 661.07 280.374 661.429 279.853C661.796 279.325 661.979 278.808 661.979 278.302C661.979 277.825 661.862 277.451 661.627 277.18C661.4 276.901 661.029 276.762 660.516 276.762C660.017 276.762 659.629 276.92 659.35 277.235C659.079 277.543 658.932 277.957 658.91 278.478H657.942C657.971 277.657 658.221 277.022 658.69 276.575C659.159 276.128 659.764 275.904 660.505 275.904C661.26 275.904 661.858 276.113 662.298 276.531C662.745 276.949 662.969 277.525 662.969 278.258C662.969 278.867 662.786 279.461 662.419 280.04C662.06 280.612 661.649 281.118 661.187 281.558C660.725 281.991 660.135 282.497 659.416 283.076H663.2V283.912H657.909V283.197Z" fill="#737B8B"/>
<path d="M647 155H655V265H647V155Z" fill="#015249"/>
<path d="M661 215H669V265H661V215Z" fill="#E6E8EC"/>
<g filter="url(#filter0_d_348_1493)">
<path d="M570 5C570 2.23858 572.239 0 575 0H674C676.761 0 679 2.23858 679 5V27C679 29.7614 676.761 32 674 32H575C572.239 32 570 29.7614 570 27V5Z" fill="#FBFCFE"/>
<path d="M575 0.25H674C676.623 0.25 678.75 2.37665 678.75 5V27C678.75 29.6234 676.623 31.75 674 31.75H575C572.377 31.75 570.25 29.6234 570.25 27V5C570.25 2.37665 572.377 0.25 575 0.25Z" stroke="#DDE4F0" stroke-width="0.5"/>
</g>
<path d="M594.087 11.66L590.955 20H589.371L586.227 11.66H587.691L590.163 18.596L592.647 11.66H594.087ZM596.427 12.512C596.179 12.512 595.971 12.428 595.803 12.26C595.635 12.092 595.551 11.884 595.551 11.636C595.551 11.388 595.635 11.18 595.803 11.012C595.971 10.844 596.179 10.76 596.427 10.76C596.667 10.76 596.871 10.844 597.039 11.012C597.207 11.18 597.291 11.388 597.291 11.636C597.291 11.884 597.207 12.092 597.039 12.26C596.871 12.428 596.667 12.512 596.427 12.512ZM597.099 13.388V20H595.731V13.388H597.099ZM605.455 16.532C605.455 16.78 605.439 17.004 605.407 17.204H600.355C600.395 17.732 600.591 18.156 600.943 18.476C601.295 18.796 601.727 18.956 602.239 18.956C602.975 18.956 603.495 18.648 603.799 18.032H605.275C605.075 18.64 604.711 19.14 604.183 19.532C603.663 19.916 603.015 20.108 602.239 20.108C601.607 20.108 601.039 19.968 600.535 19.688C600.039 19.4 599.647 19 599.359 18.488C599.079 17.968 598.939 17.368 598.939 16.688C598.939 16.008 599.075 15.412 599.347 14.9C599.627 14.38 600.015 13.98 600.511 13.7C601.015 13.42 601.591 13.28 602.239 13.28C602.863 13.28 603.419 13.416 603.907 13.688C604.395 13.96 604.775 14.344 605.047 14.84C605.319 15.328 605.455 15.892 605.455 16.532ZM604.027 16.1C604.019 15.596 603.839 15.192 603.487 14.888C603.135 14.584 602.699 14.432 602.179 14.432C601.707 14.432 601.303 14.584 600.967 14.888C600.631 15.184 600.431 15.588 600.367 16.1H604.027ZM616.181 13.388L614.129 20H612.689L611.357 15.116L610.025 20H608.585L606.521 13.388H607.913L609.293 18.704L610.697 13.388H612.125L613.469 18.68L614.837 13.388H616.181ZM625.653 20L623.733 16.664H622.689V20H621.321V11.66H624.201C624.841 11.66 625.381 11.772 625.821 11.996C626.269 12.22 626.601 12.52 626.817 12.896C627.041 13.272 627.153 13.692 627.153 14.156C627.153 14.7 626.993 15.196 626.673 15.644C626.361 16.084 625.877 16.384 625.221 16.544L627.285 20H625.653ZM622.689 15.572H624.201C624.713 15.572 625.097 15.444 625.353 15.188C625.617 14.932 625.749 14.588 625.749 14.156C625.749 13.724 625.621 13.388 625.365 13.148C625.109 12.9 624.721 12.776 624.201 12.776H622.689V15.572ZM635.463 16.532C635.463 16.78 635.447 17.004 635.415 17.204H630.363C630.403 17.732 630.599 18.156 630.951 18.476C631.303 18.796 631.735 18.956 632.247 18.956C632.983 18.956 633.503 18.648 633.807 18.032H635.283C635.083 18.64 634.719 19.14 634.191 19.532C633.671 19.916 633.023 20.108 632.247 20.108C631.615 20.108 631.047 19.968 630.543 19.688C630.047 19.4 629.655 19 629.367 18.488C629.087 17.968 628.947 17.368 628.947 16.688C628.947 16.008 629.083 15.412 629.355 14.9C629.635 14.38 630.023 13.98 630.519 13.7C631.023 13.42 631.599 13.28 632.247 13.28C632.871 13.28 633.427 13.416 633.915 13.688C634.403 13.96 634.783 14.344 635.055 14.84C635.327 15.328 635.463 15.892 635.463 16.532ZM634.035 16.1C634.027 15.596 633.847 15.192 633.495 14.888C633.143 14.584 632.707 14.432 632.187 14.432C631.715 14.432 631.311 14.584 630.975 14.888C630.639 15.184 630.439 15.588 630.375 16.1H634.035ZM638.677 14.36C638.909 14.056 639.225 13.8 639.625 13.592C640.025 13.384 640.477 13.28 640.981 13.28C641.557 13.28 642.081 13.424 642.553 13.712C643.033 13.992 643.409 14.388 643.681 14.9C643.953 15.412 644.089 16 644.089 16.664C644.089 17.328 643.953 17.924 643.681 18.452C643.409 18.972 643.033 19.38 642.553 19.676C642.081 19.964 641.557 20.108 640.981 20.108C640.477 20.108 640.029 20.008 639.637 19.808C639.245 19.6 638.925 19.344 638.677 19.04V23.144H637.309V13.388H638.677V14.36ZM642.697 16.664C642.697 16.208 642.601 15.816 642.409 15.488C642.225 15.152 641.977 14.9 641.665 14.732C641.361 14.556 641.033 14.468 640.681 14.468C640.337 14.468 640.009 14.556 639.697 14.732C639.393 14.908 639.145 15.164 638.953 15.5C638.769 15.836 638.677 16.232 638.677 16.688C638.677 17.144 638.769 17.544 638.953 17.888C639.145 18.224 639.393 18.48 639.697 18.656C640.009 18.832 640.337 18.92 640.681 18.92C641.033 18.92 641.361 18.832 641.665 18.656C641.977 18.472 642.225 18.208 642.409 17.864C642.601 17.52 642.697 17.12 642.697 16.664ZM648.81 20.108C648.186 20.108 647.622 19.968 647.118 19.688C646.614 19.4 646.218 19 645.93 18.488C645.642 17.968 645.498 17.368 645.498 16.688C645.498 16.016 645.646 15.42 645.942 14.9C646.238 14.38 646.642 13.98 647.154 13.7C647.666 13.42 648.238 13.28 648.87 13.28C649.502 13.28 650.074 13.42 650.586 13.7C651.098 13.98 651.502 14.38 651.798 14.9C652.094 15.42 652.242 16.016 652.242 16.688C652.242 17.36 652.09 17.956 651.786 18.476C651.482 18.996 651.066 19.4 650.538 19.688C650.018 19.968 649.442 20.108 648.81 20.108ZM648.81 18.92C649.162 18.92 649.49 18.836 649.794 18.668C650.106 18.5 650.358 18.248 650.55 17.912C650.742 17.576 650.838 17.168 650.838 16.688C650.838 16.208 650.746 15.804 650.562 15.476C650.378 15.14 650.134 14.888 649.83 14.72C649.526 14.552 649.198 14.468 648.846 14.468C648.494 14.468 648.166 14.552 647.862 14.72C647.566 14.888 647.33 15.14 647.154 15.476C646.978 15.804 646.89 16.208 646.89 16.688C646.89 17.4 647.07 17.952 647.43 18.344C647.798 18.728 648.258 18.92 648.81 18.92ZM655.462 14.348C655.662 14.012 655.926 13.752 656.254 13.568C656.59 13.376 656.986 13.28 657.442 13.28V14.696H657.094C656.558 14.696 656.15 14.832 655.87 15.104C655.598 15.376 655.462 15.848 655.462 16.52V20H654.094V13.388H655.462V14.348ZM660.796 14.504V18.164C660.796 18.412 660.852 18.592 660.964 18.704C661.084 18.808 661.284 18.86 661.564 18.86H662.404V20H661.324C660.708 20 660.236 19.856 659.908 19.568C659.58 19.28 659.416 18.812 659.416 18.164V14.504H658.636V13.388H659.416V11.744H660.796V13.388H662.404V14.504H660.796Z" fill="#5A6ACF"/>
<path d="M9.47005 9.06995C9.19938 8.50062 8.80738 8.06195 8.29405 7.75395C7.78072 7.43662 7.18338 7.27795 6.50205 7.27795C5.82072 7.27795 5.20472 7.43662 4.65405 7.75395C4.11272 8.06195 3.68338 8.50995 3.36605 9.09795C3.05805 9.67662 2.90405 10.3486 2.90405 11.1139C2.90405 11.8792 3.05805 12.5512 3.36605 13.1299C3.68338 13.7086 4.11272 14.1566 4.65405 14.4739C5.20472 14.7819 5.82072 14.9359 6.50205 14.9359C7.45405 14.9359 8.23805 14.6512 8.85405 14.0819C9.47005 13.5126 9.82938 12.7426 9.93205 11.7719H6.04005V10.7359H11.2901V11.7159C11.2154 12.5186 10.9634 13.2559 10.5341 13.9279C10.1048 14.5906 9.54005 15.1179 8.84005 15.5099C8.14005 15.8926 7.36072 16.0839 6.50205 16.0839C5.59672 16.0839 4.77072 15.8739 4.02405 15.4539C3.27738 15.0246 2.68472 14.4319 2.24605 13.6759C1.81672 12.9199 1.60205 12.0659 1.60205 11.1139C1.60205 10.1619 1.81672 9.30795 2.24605 8.55195C2.68472 7.78662 3.27738 7.19395 4.02405 6.77395C4.77072 6.34462 5.59672 6.12995 6.50205 6.12995C7.53805 6.12995 8.45272 6.38662 9.24605 6.89995C10.0488 7.41328 10.6321 8.13662 10.9961 9.06995H9.47005ZM12.9986 12.1359C12.9986 11.3519 13.1573 10.6659 13.4746 10.0779C13.7919 9.48062 14.2259 9.01862 14.7766 8.69195C15.3366 8.36528 15.9573 8.20195 16.6386 8.20195C17.3106 8.20195 17.8939 8.34662 18.3886 8.63595C18.8833 8.92528 19.2519 9.28928 19.4946 9.72795V8.32795H20.7826V15.9999H19.4946V14.5719C19.2426 15.0199 18.8646 15.3932 18.3606 15.6919C17.8659 15.9812 17.2873 16.1259 16.6246 16.1259C15.9433 16.1259 15.3273 15.9579 14.7766 15.6219C14.2259 15.2859 13.7919 14.8146 13.4746 14.2079C13.1573 13.6012 12.9986 12.9106 12.9986 12.1359ZM19.4946 12.1499C19.4946 11.5712 19.3779 11.0672 19.1446 10.6379C18.9113 10.2086 18.5939 9.88195 18.1926 9.65795C17.8006 9.42462 17.3665 9.30795 16.8905 9.30795C16.4145 9.30795 15.9806 9.41995 15.5886 9.64395C15.1966 9.86795 14.8839 10.1946 14.6506 10.6239C14.4173 11.0532 14.3006 11.5572 14.3006 12.1359C14.3006 12.7239 14.4173 13.2372 14.6506 13.6759C14.8839 14.1052 15.1966 14.4366 15.5886 14.6699C15.9806 14.8939 16.4145 15.0059 16.8905 15.0059C17.3665 15.0059 17.8006 14.8939 18.1926 14.6699C18.5939 14.4366 18.9113 14.1052 19.1446 13.6759C19.3779 13.2372 19.4946 12.7286 19.4946 12.1499ZM26.1515 16.1259C25.5635 16.1259 25.0362 16.0279 24.5695 15.8319C24.1029 15.6266 23.7342 15.3466 23.4635 14.9919C23.1929 14.6279 23.0435 14.2126 23.0155 13.7459H24.3315C24.3689 14.1286 24.5462 14.4412 24.8635 14.6839C25.1902 14.9266 25.6149 15.0479 26.1375 15.0479C26.6229 15.0479 27.0055 14.9406 27.2855 14.7259C27.5655 14.5112 27.7055 14.2406 27.7055 13.9139C27.7055 13.5779 27.5562 13.3306 27.2575 13.1719C26.9589 13.0039 26.4969 12.8406 25.8715 12.6819C25.3022 12.5326 24.8355 12.3832 24.4715 12.2339C24.1169 12.0752 23.8089 11.8466 23.5475 11.5479C23.2955 11.2399 23.1695 10.8386 23.1695 10.3439C23.1695 9.95195 23.2862 9.59262 23.5195 9.26595C23.7529 8.93928 24.0842 8.68262 24.5135 8.49595C24.9429 8.29995 25.4329 8.20195 25.9835 8.20195C26.8329 8.20195 27.5189 8.41662 28.0415 8.84595C28.5642 9.27528 28.8442 9.86328 28.8815 10.6099H27.6075C27.5795 10.2086 27.4162 9.88662 27.1175 9.64395C26.8282 9.40128 26.4362 9.27995 25.9415 9.27995C25.4842 9.27995 25.1202 9.37795 24.8495 9.57395C24.5789 9.76995 24.4435 10.0266 24.4435 10.3439C24.4435 10.5959 24.5229 10.8059 24.6815 10.9739C24.8495 11.1326 25.0549 11.2632 25.2975 11.3659C25.5495 11.4592 25.8949 11.5666 26.3335 11.6879C26.8842 11.8372 27.3322 11.9866 27.6775 12.1359C28.0229 12.2759 28.3169 12.4906 28.5595 12.7799C28.8115 13.0692 28.9422 13.4472 28.9515 13.9139C28.9515 14.3339 28.8349 14.7119 28.6015 15.0479C28.3682 15.3839 28.0369 15.6499 27.6075 15.8459C27.1875 16.0326 26.7022 16.1259 26.1515 16.1259ZM32.804 9.37795V13.8999C32.804 14.2732 32.8833 14.5392 33.042 14.6979C33.2006 14.8472 33.476 14.9219 33.868 14.9219H34.806V15.9999H33.658C32.9486 15.9999 32.4166 15.8366 32.062 15.5099C31.7073 15.1832 31.53 14.6466 31.53 13.8999V9.37795H30.536V8.32795H31.53V6.39595H32.804V8.32795H34.806V9.37795H32.804ZM40.1955 16.1259C39.4768 16.1259 38.8235 15.9626 38.2355 15.6359C37.6568 15.3092 37.1995 14.8472 36.8635 14.2499C36.5368 13.6432 36.3736 12.9432 36.3736 12.1499C36.3736 11.3659 36.5415 10.6752 36.8775 10.0779C37.2228 9.47128 37.6895 9.00928 38.2775 8.69195C38.8655 8.36528 39.5235 8.20195 40.2515 8.20195C40.9795 8.20195 41.6375 8.36528 42.2255 8.69195C42.8135 9.00928 43.2755 9.46662 43.6115 10.0639C43.9568 10.6612 44.1296 11.3566 44.1296 12.1499C44.1296 12.9432 43.9522 13.6432 43.5975 14.2499C43.2522 14.8472 42.7808 15.3092 42.1835 15.6359C41.5862 15.9626 40.9235 16.1259 40.1955 16.1259ZM40.1955 15.0059C40.6528 15.0059 41.0823 14.8986 41.4836 14.6839C41.8849 14.4692 42.2069 14.1472 42.4496 13.7179C42.7016 13.2886 42.8275 12.7659 42.8275 12.1499C42.8275 11.5339 42.7063 11.0112 42.4636 10.5819C42.2209 10.1526 41.9036 9.83528 41.5116 9.62995C41.1196 9.41528 40.6948 9.30795 40.2375 9.30795C39.7708 9.30795 39.3416 9.41528 38.9496 9.62995C38.5669 9.83528 38.2589 10.1526 38.0256 10.5819C37.7923 11.0112 37.6755 11.5339 37.6755 12.1499C37.6755 12.7752 37.7876 13.3026 38.0116 13.7319C38.2449 14.1612 38.5529 14.4832 38.9356 14.6979C39.3183 14.9032 39.7382 15.0059 40.1955 15.0059ZM49.0206 16.1259C48.4326 16.1259 47.9052 16.0279 47.4386 15.8319C46.9719 15.6266 46.6032 15.3466 46.3326 14.9919C46.0619 14.6279 45.9127 14.2126 45.8847 13.7459H47.2006C47.2379 14.1286 47.4153 14.4412 47.7327 14.6839C48.0593 14.9266 48.4839 15.0479 49.0066 15.0479C49.4919 15.0479 49.8746 14.9406 50.1546 14.7259C50.4346 14.5112 50.5746 14.2406 50.5746 13.9139C50.5746 13.5779 50.4252 13.3306 50.1266 13.1719C49.8279 13.0039 49.366 12.8406 48.7407 12.6819C48.1713 12.5326 47.7046 12.3832 47.3406 12.2339C46.9859 12.0752 46.6779 11.8466 46.4166 11.5479C46.1646 11.2399 46.0387 10.8386 46.0387 10.3439C46.0387 9.95195 46.1552 9.59262 46.3886 9.26595C46.6219 8.93928 46.9532 8.68262 47.3826 8.49595C47.8119 8.29995 48.3019 8.20195 48.8526 8.20195C49.7019 8.20195 50.3879 8.41662 50.9106 8.84595C51.4332 9.27528 51.7132 9.86328 51.7506 10.6099H50.4767C50.4487 10.2086 50.2852 9.88662 49.9866 9.64395C49.6972 9.40128 49.3052 9.27995 48.8106 9.27995C48.3532 9.27995 47.9893 9.37795 47.7187 9.57395C47.448 9.76995 47.3126 10.0266 47.3126 10.3439C47.3126 10.5959 47.3919 10.8059 47.5506 10.9739C47.7186 11.1326 47.9239 11.2632 48.1666 11.3659C48.4186 11.4592 48.7639 11.5666 49.2026 11.6879C49.7532 11.8372 50.2012 11.9866 50.5466 12.1359C50.8919 12.2759 51.1859 12.4906 51.4286 12.7799C51.6806 13.0692 51.8112 13.4472 51.8206 13.9139C51.8206 14.3339 51.7039 14.7119 51.4706 15.0479C51.2372 15.3839 50.906 15.6499 50.4767 15.8459C50.0567 16.0326 49.5712 16.1259 49.0206 16.1259ZM67.5775 8.18795C68.1749 8.18795 68.7069 8.31395 69.1735 8.56595C69.6402 8.80862 70.0089 9.17728 70.2795 9.67195C70.5502 10.1666 70.6855 10.7686 70.6855 11.4779V15.9999H69.4255V11.6599C69.4255 10.8946 69.2342 10.3112 68.8515 9.90995C68.4782 9.49928 67.9695 9.29395 67.3255 9.29395C66.6629 9.29395 66.1355 9.50862 65.7435 9.93795C65.3515 10.3579 65.1555 10.9692 65.1555 11.7719V15.9999H63.8955V11.6599C63.8955 10.8946 63.7041 10.3112 63.3214 9.90995C62.9481 9.49928 62.4394 9.29395 61.7954 9.29395C61.1328 9.29395 60.6055 9.50862 60.2135 9.93795C59.8215 10.3579 59.6255 10.9692 59.6255 11.7719V15.9999H58.3514V8.32795H59.6255V9.43395C59.8775 9.03262 60.2134 8.72462 60.6334 8.50995C61.0628 8.29528 61.5342 8.18795 62.0475 8.18795C62.6915 8.18795 63.2609 8.33262 63.7555 8.62195C64.2502 8.91128 64.6188 9.33595 64.8614 9.89595C65.0761 9.35462 65.4309 8.93462 65.9255 8.63595C66.4202 8.33728 66.9709 8.18795 67.5775 8.18795ZM80.2754 11.8699C80.2754 12.1126 80.2614 12.3692 80.2334 12.6399H74.1014C74.148 13.3959 74.4047 13.9886 74.8714 14.4179C75.3474 14.8379 75.9214 15.0479 76.5934 15.0479C77.144 15.0479 77.6014 14.9219 77.9654 14.6699C78.3387 14.4086 78.6 14.0632 78.7494 13.6339H80.1214C79.916 14.3712 79.5054 14.9732 78.8894 15.4399C78.2734 15.8972 77.508 16.1259 76.5934 16.1259C75.8654 16.1259 75.212 15.9626 74.6334 15.6359C74.064 15.3092 73.616 14.8472 73.2894 14.2499C72.9627 13.6432 72.7994 12.9432 72.7994 12.1499C72.7994 11.3566 72.958 10.6612 73.2754 10.0639C73.5927 9.46662 74.036 9.00928 74.6054 8.69195C75.184 8.36528 75.8467 8.20195 76.5934 8.20195C77.3214 8.20195 77.9654 8.36062 78.5254 8.67795C79.0854 8.99528 79.5147 9.43395 79.8134 9.99395C80.1214 10.5446 80.2754 11.1699 80.2754 11.8699ZM78.9594 11.6039C78.9594 11.1186 78.852 10.7032 78.6374 10.3579C78.4227 10.0032 78.1287 9.73728 77.7554 9.55995C77.3914 9.37328 76.9854 9.27995 76.5374 9.27995C75.8934 9.27995 75.3427 9.48528 74.8854 9.89595C74.4374 10.3066 74.1807 10.8759 74.1154 11.6039H78.9594ZM86.195 8.18795C87.1283 8.18795 87.8843 8.47262 88.463 9.04195C89.0417 9.60195 89.331 10.4139 89.331 11.4779V15.9999H88.071V11.6599C88.071 10.8946 87.8797 10.3112 87.497 9.90995C87.1143 9.49928 86.5917 9.29395 85.929 9.29395C85.257 9.29395 84.7203 9.50395 84.319 9.92395C83.927 10.3439 83.731 10.9552 83.731 11.7579V15.9999H82.457V8.32795H83.731V9.41995C83.983 9.02795 84.3237 8.72462 84.753 8.50995C85.1917 8.29528 85.6723 8.18795 86.195 8.18795ZM94.6281 16.1259C94.0401 16.1259 93.5128 16.0279 93.0461 15.8319C92.5794 15.6266 92.2108 15.3466 91.9401 14.9919C91.6694 14.6279 91.5201 14.2126 91.4921 13.7459H92.8081C92.8454 14.1286 93.0227 14.4412 93.34 14.6839C93.6667 14.9266 94.0914 15.0479 94.6141 15.0479C95.0994 15.0479 95.4821 14.9406 95.7621 14.7259C96.0421 14.5112 96.1821 14.2406 96.1821 13.9139C96.1821 13.5779 96.0328 13.3306 95.7341 13.1719C95.4354 13.0039 94.9734 12.8406 94.3481 12.6819C93.7788 12.5326 93.3121 12.3832 92.9481 12.2339C92.5934 12.0752 92.2854 11.8466 92.0241 11.5479C91.7721 11.2399 91.6461 10.8386 91.6461 10.3439C91.6461 9.95195 91.7628 9.59262 91.9961 9.26595C92.2294 8.93928 92.5608 8.68262 92.9901 8.49595C93.4194 8.29995 93.9094 8.20195 94.4601 8.20195C95.3094 8.20195 95.9954 8.41662 96.5181 8.84595C97.0408 9.27528 97.3208 9.86328 97.3581 10.6099H96.0841C96.0561 10.2086 95.8928 9.88662 95.5941 9.64395C95.3048 9.40128 94.9128 9.27995 94.4181 9.27995C93.9608 9.27995 93.5967 9.37795 93.326 9.57395C93.0553 9.76995 92.9201 10.0266 92.9201 10.3439C92.9201 10.5959 92.9994 10.8059 93.1581 10.9739C93.3261 11.1326 93.5314 11.2632 93.7741 11.3659C94.0261 11.4592 94.3714 11.5666 94.8101 11.6879C95.3608 11.8372 95.8088 11.9866 96.1541 12.1359C96.4994 12.2759 96.7934 12.4906 97.0361 12.7799C97.2881 13.0692 97.4188 13.4472 97.4281 13.9139C97.4281 14.3339 97.3114 14.7119 97.0781 15.0479C96.8448 15.3839 96.5134 15.6499 96.0841 15.8459C95.6641 16.0326 95.1788 16.1259 94.6281 16.1259ZM99.2505 12.1359C99.2505 11.3519 99.4092 10.6659 99.7265 10.0779C100.044 9.48062 100.478 9.01862 101.028 8.69195C101.588 8.36528 102.209 8.20195 102.89 8.20195C103.562 8.20195 104.146 8.34662 104.64 8.63595C105.135 8.92528 105.504 9.28928 105.746 9.72795V8.32795H107.034V15.9999H105.746V14.5719C105.494 15.0199 105.116 15.3932 104.612 15.6919C104.118 15.9812 103.539 16.1259 102.876 16.1259C102.195 16.1259 101.579 15.9579 101.028 15.6219C100.478 15.2859 100.044 14.8146 99.7265 14.2079C99.4092 13.6012 99.2505 12.9106 99.2505 12.1359ZM105.746 12.1499C105.746 11.5712 105.63 11.0672 105.396 10.6379C105.163 10.2086 104.846 9.88195 104.444 9.65795C104.052 9.42462 103.618 9.30795 103.142 9.30795C102.666 9.30795 102.232 9.41995 101.84 9.64395C101.448 9.86795 101.136 10.1946 100.902 10.6239C100.669 11.0532 100.552 11.5572 100.552 12.1359C100.552 12.7239 100.669 13.2372 100.902 13.6759C101.136 14.1052 101.448 14.4366 101.84 14.6699C102.232 14.8939 102.666 15.0059 103.142 15.0059C103.618 15.0059 104.052 14.8939 104.444 14.6699C104.846 14.4366 105.163 14.1052 105.396 13.6759C105.63 13.2372 105.746 12.7286 105.746 12.1499ZM110.345 7.08195C110.103 7.08195 109.897 6.99795 109.729 6.82995C109.561 6.66195 109.477 6.45662 109.477 6.21395C109.477 5.97128 109.561 5.76595 109.729 5.59795C109.897 5.42995 110.103 5.34595 110.345 5.34595C110.579 5.34595 110.775 5.42995 110.933 5.59795C111.101 5.76595 111.185 5.97128 111.185 6.21395C111.185 6.45662 111.101 6.66195 110.933 6.82995C110.775 6.99795 110.579 7.08195 110.345 7.08195ZM110.961 8.32795V15.9999H109.687V8.32795H110.961ZM116.349 16.1259C115.761 16.1259 115.233 16.0279 114.767 15.8319C114.3 15.6266 113.931 15.3466 113.661 14.9919C113.39 14.6279 113.241 14.2126 113.213 13.7459H114.529C114.566 14.1286 114.743 14.4412 115.061 14.6839C115.387 14.9266 115.812 15.0479 116.335 15.0479C116.82 15.0479 117.203 14.9406 117.483 14.7259C117.763 14.5112 117.903 14.2406 117.903 13.9139C117.903 13.5779 117.753 13.3306 117.455 13.1719C117.156 13.0039 116.694 12.8406 116.069 12.6819C115.499 12.5326 115.033 12.3832 114.669 12.2339C114.314 12.0752 114.006 11.8466 113.745 11.5479C113.493 11.2399 113.367 10.8386 113.367 10.3439C113.367 9.95195 113.483 9.59262 113.717 9.26595C113.95 8.93928 114.281 8.68262 114.711 8.49595C115.14 8.29995 115.63 8.20195 116.181 8.20195C117.03 8.20195 117.716 8.41662 118.239 8.84595C118.761 9.27528 119.041 9.86328 119.079 10.6099H117.805C117.777 10.2086 117.613 9.88662 117.315 9.64395C117.025 9.40128 116.633 9.27995 116.139 9.27995C115.681 9.27995 115.317 9.37795 115.047 9.57395C114.776 9.76995 114.641 10.0266 114.641 10.3439C114.641 10.5959 114.72 10.8059 114.879 10.9739C115.047 11.1326 115.252 11.2632 115.495 11.3659C115.747 11.4592 116.092 11.5666 116.531 11.6879C117.081 11.8372 117.529 11.9866 117.875 12.1359C118.22 12.2759 118.514 12.4906 118.757 12.7799C119.009 13.0692 119.139 13.4472 119.149 13.9139C119.149 14.3339 119.032 14.7119 118.799 15.0479C118.565 15.3839 118.234 15.6499 117.805 15.8459C117.385 16.0326 116.899 16.1259 116.349 16.1259Z" fill="black"/>
<path d="M7.07991 51.1401C6.14658 51.1401 5.30658 50.9801 4.55991 50.6601C3.81324 50.3268 3.22658 49.8601 2.79991 49.2601C2.37324 48.6601 2.15991 47.9601 2.15991 47.1601H4.59991C4.65324 47.7601 4.88658 48.2534 5.29991 48.6401C5.72658 49.0268 6.31991 49.2201 7.07991 49.2201C7.86658 49.2201 8.47991 49.0334 8.91991 48.6601C9.35991 48.2734 9.57991 47.7801 9.57991 47.1801C9.57991 46.7134 9.43991 46.3334 9.15991 46.0401C8.89324 45.7468 8.55324 45.5201 8.13991 45.3601C7.73991 45.2001 7.17991 45.0268 6.45991 44.8401C5.55324 44.6001 4.81324 44.3601 4.23991 44.1201C3.67991 43.8668 3.19991 43.4801 2.79991 42.9601C2.39991 42.4401 2.19991 41.7468 2.19991 40.8801C2.19991 40.0801 2.39991 39.3801 2.79991 38.7801C3.19991 38.1801 3.75991 37.7201 4.47991 37.4001C5.19991 37.0801 6.03324 36.9201 6.97991 36.9201C8.32658 36.9201 9.42658 37.2601 10.2799 37.9401C11.1466 38.6068 11.6266 39.5268 11.7199 40.7001H9.19991C9.15991 40.1934 8.91991 39.7601 8.47991 39.4001C8.03991 39.0401 7.45991 38.8601 6.73991 38.8601C6.08658 38.8601 5.55324 39.0268 5.13991 39.3601C4.72658 39.6934 4.51991 40.1734 4.51991 40.8001C4.51991 41.2268 4.64658 41.5801 4.89991 41.8601C5.16658 42.1268 5.49991 42.3401 5.89991 42.5001C6.29991 42.6601 6.84658 42.8334 7.53991 43.0201C8.45991 43.2734 9.20658 43.5268 9.77991 43.7801C10.3666 44.0334 10.8599 44.4268 11.2599 44.9601C11.6732 45.4801 11.8799 46.1801 11.8799 47.0601C11.8799 47.7668 11.6866 48.4334 11.2999 49.0601C10.9266 49.6868 10.3732 50.1934 9.63991 50.5801C8.91991 50.9534 8.06658 51.1401 7.07991 51.1401ZM14.3102 45.4401C14.3102 44.3334 14.5369 43.3534 14.9902 42.5001C15.4569 41.6468 16.0835 40.9868 16.8702 40.5201C17.6702 40.0401 18.5502 39.8001 19.5102 39.8001C20.3769 39.8001 21.1302 39.9734 21.7702 40.3201C22.4235 40.6534 22.9435 41.0734 23.3302 41.5801V39.9801H25.6302V51.0001H23.3302V49.3601C22.9435 49.8801 22.4169 50.3134 21.7502 50.6601C21.0835 51.0068 20.3235 51.1801 19.4702 51.1801C18.5235 51.1801 17.6569 50.9401 16.8702 50.4601C16.0835 49.9668 15.4569 49.2868 14.9902 48.4201C14.5369 47.5401 14.3102 46.5468 14.3102 45.4401ZM23.3302 45.4801C23.3302 44.7201 23.1702 44.0601 22.8502 43.5001C22.5435 42.9401 22.1369 42.5134 21.6302 42.2201C21.1235 41.9268 20.5769 41.7801 19.9902 41.7801C19.4035 41.7801 18.8569 41.9268 18.3502 42.2201C17.8435 42.5001 17.4302 42.9201 17.1102 43.4801C16.8035 44.0268 16.6502 44.6801 16.6502 45.4401C16.6502 46.2001 16.8035 46.8668 17.1102 47.4401C17.4302 48.0134 17.8435 48.4534 18.3502 48.7601C18.8702 49.0534 19.4169 49.2001 19.9902 49.2001C20.5769 49.2001 21.1235 49.0534 21.6302 48.7601C22.1369 48.4668 22.5435 48.0401 22.8502 47.4801C23.1702 46.9068 23.3302 46.2401 23.3302 45.4801ZM31.4049 36.2001V51.0001H29.1249V36.2001H31.4049ZM34.1383 45.4401C34.1383 44.3334 34.365 43.3534 34.8183 42.5001C35.285 41.6468 35.9117 40.9868 36.6983 40.5201C37.4983 40.0401 38.385 39.8001 39.3583 39.8001C40.0783 39.8001 40.785 39.9601 41.4783 40.2801C42.185 40.5868 42.745 41.0001 43.1583 41.5201V36.2001H45.4583V51.0001H43.1583V49.3401C42.785 49.8734 42.265 50.3134 41.5983 50.6601C40.945 51.0068 40.1917 51.1801 39.3383 51.1801C38.3783 51.1801 37.4983 50.9401 36.6983 50.4601C35.9117 49.9668 35.285 49.2868 34.8183 48.4201C34.365 47.5401 34.1383 46.5468 34.1383 45.4401ZM43.1583 45.4801C43.1583 44.7201 42.9983 44.0601 42.6783 43.5001C42.3717 42.9401 41.965 42.5134 41.4583 42.2201C40.9517 41.9268 40.405 41.7801 39.8183 41.7801C39.2317 41.7801 38.685 41.9268 38.1783 42.2201C37.6717 42.5001 37.2583 42.9201 36.9383 43.4801C36.6317 44.0268 36.4783 44.6801 36.4783 45.4401C36.4783 46.2001 36.6317 46.8668 36.9383 47.4401C37.2583 48.0134 37.6717 48.4534 38.1783 48.7601C38.6983 49.0534 39.245 49.2001 39.8183 49.2001C40.405 49.2001 40.9517 49.0534 41.4583 48.7601C41.965 48.4668 42.3717 48.0401 42.6783 47.4801C42.9983 46.9068 43.1583 46.2401 43.1583 45.4801ZM53.733 51.1801C52.693 51.1801 51.753 50.9468 50.913 50.4801C50.073 50.0001 49.413 49.3334 48.933 48.4801C48.453 47.6134 48.213 46.6134 48.213 45.4801C48.213 44.3601 48.4597 43.3668 48.953 42.5001C49.4464 41.6334 50.1197 40.9668 50.973 40.5001C51.8264 40.0334 52.7797 39.8001 53.833 39.8001C54.8864 39.8001 55.8397 40.0334 56.693 40.5001C57.5464 40.9668 58.2197 41.6334 58.713 42.5001C59.2064 43.3668 59.453 44.3601 59.453 45.4801C59.453 46.6001 59.1997 47.5934 58.693 48.4601C58.1864 49.3268 57.493 50.0001 56.613 50.4801C55.7464 50.9468 54.7864 51.1801 53.733 51.1801ZM53.733 49.2001C54.3197 49.2001 54.8664 49.0601 55.373 48.7801C55.893 48.5001 56.313 48.0801 56.633 47.5201C56.953 46.9601 57.113 46.2801 57.113 45.4801C57.113 44.6801 56.9597 44.0068 56.653 43.4601C56.3464 42.9001 55.9397 42.4801 55.433 42.2001C54.9264 41.9201 54.3797 41.7801 53.793 41.7801C53.2064 41.7801 52.6597 41.9201 52.153 42.2001C51.6597 42.4801 51.2664 42.9001 50.973 43.4601C50.6797 44.0068 50.533 44.6801 50.533 45.4801C50.533 46.6668 50.833 47.5868 51.433 48.2401C52.0464 48.8801 52.813 49.2001 53.733 49.2001ZM63.1269 51.1401C62.7136 51.1401 62.3669 51.0001 62.0869 50.7201C61.8069 50.4401 61.6669 50.0934 61.6669 49.6801C61.6669 49.2668 61.8069 48.9201 62.0869 48.6401C62.3669 48.3601 62.7136 48.2201 63.1269 48.2201C63.5269 48.2201 63.8669 48.3601 64.1469 48.6401C64.4269 48.9201 64.5669 49.2668 64.5669 49.6801C64.5669 50.0934 64.4269 50.4401 64.1469 50.7201C63.8669 51.0001 63.5269 51.1401 63.1269 51.1401ZM63.1269 42.7401C62.7136 42.7401 62.3669 42.6001 62.0869 42.3201C61.8069 42.0401 61.6669 41.6934 61.6669 41.2801C61.6669 40.8668 61.8069 40.5201 62.0869 40.2401C62.3669 39.9601 62.7136 39.8201 63.1269 39.8201C63.5269 39.8201 63.8669 39.9601 64.1469 40.2401C64.4269 40.5201 64.5669 40.8668 64.5669 41.2801C64.5669 41.6934 64.4269 42.0401 64.1469 42.3201C63.8669 42.6001 63.5269 42.7401 63.1269 42.7401ZM80.5246 51.0001L77.3246 45.4401H75.5846V51.0001H73.3046V37.1001H78.1046C79.1713 37.1001 80.0713 37.2868 80.8046 37.6601C81.5513 38.0334 82.1046 38.5334 82.4646 39.1601C82.8379 39.7868 83.0246 40.4868 83.0246 41.2601C83.0246 42.1668 82.7579 42.9934 82.2246 43.7401C81.7046 44.4734 80.8979 44.9734 79.8046 45.2401L83.2446 51.0001H80.5246ZM75.5846 43.6201H78.1046C78.9579 43.6201 79.5979 43.4068 80.0246 42.9801C80.4646 42.5534 80.6846 41.9801 80.6846 41.2601C80.6846 40.5401 80.4713 39.9801 80.0446 39.5801C79.6179 39.1668 78.9713 38.9601 78.1046 38.9601H75.5846V43.6201ZM95.8213 47.0401C95.8213 47.7068 95.6546 48.3334 95.3213 48.9201C95.0013 49.5068 94.5213 50.0001 93.8813 50.4001C93.2546 50.8001 92.508 51.0401 91.6413 51.1201V52.7401H90.3413V51.1201C89.088 51.0001 88.0746 50.6068 87.3013 49.9401C86.528 49.2734 86.1413 48.3934 86.1413 47.3001H88.5813C88.6213 47.8201 88.788 48.2534 89.0813 48.6001C89.3746 48.9334 89.7946 49.1468 90.3413 49.2401V44.8401C89.448 44.6134 88.7213 44.3868 88.1613 44.1601C87.6013 43.9201 87.1213 43.5468 86.7213 43.0401C86.3346 42.5334 86.1413 41.8401 86.1413 40.9601C86.1413 39.8534 86.528 38.9401 87.3013 38.2201C88.0746 37.4868 89.088 37.0601 90.3413 36.9401V35.3201H91.6413V36.9401C92.8146 37.0468 93.7546 37.4201 94.4613 38.0601C95.1813 38.6868 95.588 39.5534 95.6813 40.6601H93.2413C93.2013 40.2468 93.0413 39.8801 92.7613 39.5601C92.4813 39.2268 92.108 39.0001 91.6413 38.8801V43.2001C92.5346 43.4134 93.2613 43.6401 93.8213 43.8801C94.3813 44.1068 94.8546 44.4734 95.2413 44.9801C95.628 45.4734 95.8213 46.1601 95.8213 47.0401ZM88.4613 40.8401C88.4613 41.3868 88.6213 41.8134 88.9413 42.1201C89.2746 42.4268 89.7413 42.6734 90.3413 42.8601V38.8201C89.768 38.8868 89.308 39.0934 88.9613 39.4401C88.628 39.7868 88.4613 40.2534 88.4613 40.8401ZM91.6413 49.2401C92.228 49.1468 92.688 48.9134 93.0213 48.5401C93.3546 48.1534 93.5213 47.6934 93.5213 47.1601C93.5213 46.6268 93.3546 46.2134 93.0213 45.9201C92.7013 45.6134 92.2413 45.3668 91.6413 45.1801V49.2401ZM114.585 38.1801L109.025 51.0001H106.725L112.345 38.4201H104.945V36.4801H114.585V38.1801ZM118.256 51.1401C117.843 51.1401 117.496 51.0001 117.216 50.7201C116.936 50.4401 116.796 50.0934 116.796 49.6801C116.796 49.2668 116.936 48.9201 117.216 48.6401C117.496 48.3601 117.843 48.2201 118.256 48.2201C118.656 48.2201 118.996 48.3601 119.276 48.6401C119.556 48.9201 119.696 49.2668 119.696 49.6801C119.696 50.0934 119.556 50.4401 119.276 50.7201C118.996 51.0001 118.656 51.1401 118.256 51.1401ZM124.82 43.3801C123.433 42.6868 122.74 41.5934 122.74 40.1001C122.74 39.3801 122.92 38.7201 123.28 38.1201C123.64 37.5201 124.18 37.0468 124.9 36.7001C125.62 36.3401 126.5 36.1601 127.54 36.1601C128.567 36.1601 129.44 36.3401 130.16 36.7001C130.893 37.0468 131.44 37.5201 131.8 38.1201C132.16 38.7201 132.34 39.3801 132.34 40.1001C132.34 40.8468 132.147 41.5068 131.76 42.0801C131.387 42.6401 130.887 43.0734 130.26 43.3801C131.02 43.6601 131.62 44.1201 132.06 44.7601C132.5 45.3868 132.72 46.1268 132.72 46.9801C132.72 47.8468 132.5 48.6134 132.06 49.2801C131.62 49.9468 131.007 50.4601 130.22 50.8201C129.433 51.1801 128.54 51.3601 127.54 51.3601C126.54 51.3601 125.647 51.1801 124.86 50.8201C124.087 50.4601 123.48 49.9468 123.04 49.2801C122.6 48.6134 122.38 47.8468 122.38 46.9801C122.38 46.1134 122.6 45.3668 123.04 44.7401C123.48 44.1134 124.073 43.6601 124.82 43.3801ZM130.16 40.3801C130.16 39.6334 129.927 39.0601 129.46 38.6601C128.993 38.2601 128.353 38.0601 127.54 38.0601C126.74 38.0601 126.107 38.2601 125.64 38.6601C125.173 39.0601 124.94 39.6401 124.94 40.4001C124.94 41.0668 125.18 41.6134 125.66 42.0401C126.153 42.4534 126.78 42.6601 127.54 42.6601C128.3 42.6601 128.927 42.4468 129.42 42.0201C129.913 41.5934 130.16 41.0468 130.16 40.3801ZM127.54 44.3801C126.66 44.3801 125.94 44.6001 125.38 45.0401C124.833 45.4668 124.56 46.0868 124.56 46.9001C124.56 47.6601 124.827 48.2801 125.36 48.7601C125.893 49.2268 126.62 49.4601 127.54 49.4601C128.447 49.4601 129.16 49.2201 129.68 48.7401C130.213 48.2601 130.48 47.6468 130.48 46.9001C130.48 46.1001 130.207 45.4801 129.66 45.0401C129.127 44.6001 128.42 44.3801 127.54 44.3801ZM145.014 38.3801H138.314V42.3601C138.594 41.9868 139.007 41.6734 139.554 41.4201C140.114 41.1668 140.707 41.0401 141.334 41.0401C142.454 41.0401 143.361 41.2801 144.054 41.7601C144.761 42.2401 145.261 42.8468 145.554 43.5801C145.861 44.3134 146.014 45.0868 146.014 45.9001C146.014 46.8868 145.821 47.7668 145.434 48.5401C145.061 49.3001 144.494 49.9001 143.734 50.3401C142.987 50.7801 142.067 51.0001 140.974 51.0001C139.521 51.0001 138.354 50.6401 137.474 49.9201C136.594 49.2001 136.067 48.2468 135.894 47.0601H138.114C138.261 47.6868 138.587 48.1868 139.094 48.5601C139.601 48.9201 140.234 49.1001 140.994 49.1001C141.941 49.1001 142.647 48.8134 143.114 48.2401C143.594 47.6668 143.834 46.9068 143.834 45.9601C143.834 45.0001 143.594 44.2668 143.114 43.7601C142.634 43.2401 141.927 42.9801 140.994 42.9801C140.341 42.9801 139.787 43.1468 139.334 43.4801C138.894 43.8001 138.574 44.2401 138.374 44.8001H136.214V36.3801H145.014V38.3801ZM150.148 47.9001C151.428 46.7934 152.434 45.8868 153.168 45.1801C153.914 44.4601 154.534 43.7134 155.028 42.9401C155.521 42.1668 155.768 41.3934 155.768 40.6201C155.768 39.8201 155.574 39.1934 155.188 38.7401C154.814 38.2868 154.221 38.0601 153.408 38.0601C152.621 38.0601 152.008 38.3134 151.568 38.8201C151.141 39.3134 150.914 39.9801 150.888 40.8201H148.688C148.728 39.3001 149.181 38.1401 150.048 37.3401C150.928 36.5268 152.041 36.1201 153.388 36.1201C154.841 36.1201 155.974 36.5201 156.788 37.3201C157.614 38.1201 158.028 39.1868 158.028 40.5201C158.028 41.4801 157.781 42.4068 157.288 43.3001C156.808 44.1801 156.228 44.9734 155.548 45.6801C154.881 46.3734 154.028 47.1801 152.988 48.1001L152.088 48.9001H158.428V50.8001H148.708V49.1401L150.148 47.9001ZM163.73 48.2601L161.31 53.7801H159.83L161.25 48.2601H163.73ZM165.923 43.5201C165.923 41.2134 166.309 39.4134 167.083 38.1201C167.869 36.8134 169.216 36.1601 171.123 36.1601C173.029 36.1601 174.369 36.8134 175.143 38.1201C175.929 39.4134 176.323 41.2134 176.323 43.5201C176.323 45.8534 175.929 47.6801 175.143 49.0001C174.369 50.3068 173.029 50.9601 171.123 50.9601C169.216 50.9601 167.869 50.3068 167.083 49.0001C166.309 47.6801 165.923 45.8534 165.923 43.5201ZM174.083 43.5201C174.083 42.4401 174.009 41.5268 173.863 40.7801C173.729 40.0334 173.449 39.4268 173.023 38.9601C172.596 38.4801 171.963 38.2401 171.123 38.2401C170.283 38.2401 169.649 38.4801 169.223 38.9601C168.796 39.4268 168.509 40.0334 168.363 40.7801C168.229 41.5268 168.163 42.4401 168.163 43.5201C168.163 44.6401 168.229 45.5801 168.363 46.3401C168.496 47.1001 168.776 47.7134 169.203 48.1801C169.643 48.6468 170.283 48.8801 171.123 48.8801C171.963 48.8801 172.596 48.6468 173.023 48.1801C173.463 47.7134 173.749 47.1001 173.883 46.3401C174.016 45.5801 174.083 44.6401 174.083 43.5201ZM179.235 43.5201C179.235 41.2134 179.622 39.4134 180.395 38.1201C181.182 36.8134 182.528 36.1601 184.435 36.1601C186.342 36.1601 187.682 36.8134 188.455 38.1201C189.242 39.4134 189.635 41.2134 189.635 43.5201C189.635 45.8534 189.242 47.6801 188.455 49.0001C187.682 50.3068 186.342 50.9601 184.435 50.9601C182.528 50.9601 181.182 50.3068 180.395 49.0001C179.622 47.6801 179.235 45.8534 179.235 43.5201ZM187.395 43.5201C187.395 42.4401 187.322 41.5268 187.175 40.7801C187.042 40.0334 186.762 39.4268 186.335 38.9601C185.908 38.4801 185.275 38.2401 184.435 38.2401C183.595 38.2401 182.962 38.4801 182.535 38.9601C182.108 39.4268 181.822 40.0334 181.675 40.7801C181.542 41.5268 181.475 42.4401 181.475 43.5201C181.475 44.6401 181.542 45.5801 181.675 46.3401C181.808 47.1001 182.088 47.7134 182.515 48.1801C182.955 48.6468 183.595 48.8801 184.435 48.8801C185.275 48.8801 185.908 48.6468 186.335 48.1801C186.775 47.7134 187.062 47.1001 187.195 46.3401C187.328 45.5801 187.395 44.6401 187.395 43.5201Z" fill="black"/>
<path d="M18.1641 76.1041C18.9321 75.4641 19.5441 74.9321 20.0001 74.5081C20.4561 74.0761 20.8361 73.6281 21.1401 73.1641C21.4441 72.7001 21.5961 72.2441 21.5961 71.7961C21.5961 71.3881 21.5001 71.0681 21.3081 70.8361C21.1161 70.6041 20.8201 70.4881 20.4201 70.4881C20.0201 70.4881 19.7121 70.6241 19.4961 70.8961C19.2801 71.1601 19.1681 71.5241 19.1601 71.9881H17.5281C17.5601 71.0281 17.8441 70.3001 18.3801 69.8041C18.9241 69.3081 19.6121 69.0601 20.4441 69.0601C21.3561 69.0601 22.0561 69.3041 22.5441 69.7921C23.0321 70.2721 23.2761 70.9081 23.2761 71.7001C23.2761 72.3241 23.1081 72.9201 22.7721 73.4881C22.4361 74.0561 22.0521 74.5521 21.6201 74.9761C21.1881 75.3921 20.6241 75.8961 19.9281 76.4881H23.4681V77.8801H17.5401V76.6321L18.1641 76.1041ZM25.9627 78.0841C25.6587 78.0841 25.4067 77.9921 25.2067 77.8081C25.0147 77.6161 24.9187 77.3801 24.9187 77.1001C24.9187 76.8201 25.0147 76.5881 25.2067 76.4041C25.4067 76.2121 25.6587 76.1161 25.9627 76.1161C26.2587 76.1161 26.5027 76.2121 26.6947 76.4041C26.8867 76.5881 26.9827 76.8201 26.9827 77.1001C26.9827 77.3801 26.8867 77.6161 26.6947 77.8081C26.5027 77.9921 26.2587 78.0841 25.9627 78.0841ZM28.4399 70.8001V69.2521H31.3319V78.0001H29.6039V70.8001H28.4399ZM33.2996 71.4001C33.2996 70.7921 33.4756 70.3161 33.8276 69.9721C34.1876 69.6281 34.6476 69.4561 35.2076 69.4561C35.7676 69.4561 36.2236 69.6281 36.5756 69.9721C36.9356 70.3161 37.1156 70.7921 37.1156 71.4001C37.1156 72.0161 36.9356 72.4961 36.5756 72.8401C36.2236 73.1841 35.7676 73.3561 35.2076 73.3561C34.6476 73.3561 34.1876 73.1841 33.8276 72.8401C33.4756 72.4961 33.2996 72.0161 33.2996 71.4001ZM41.0036 69.6001L36.2876 78.0001H34.6556L39.3596 69.6001H41.0036ZM35.1956 70.4641C34.7556 70.4641 34.5356 70.7761 34.5356 71.4001C34.5356 72.0321 34.7556 72.3481 35.1956 72.3481C35.4116 72.3481 35.5796 72.2721 35.6996 72.1201C35.8196 71.9601 35.8796 71.7201 35.8796 71.4001C35.8796 70.7761 35.6516 70.4641 35.1956 70.4641ZM38.5676 76.1881C38.5676 75.5721 38.7436 75.0961 39.0956 74.7601C39.4556 74.4161 39.9156 74.2441 40.4756 74.2441C41.0356 74.2441 41.4876 74.4161 41.8316 74.7601C42.1836 75.0961 42.3596 75.5721 42.3596 76.1881C42.3596 76.8041 42.1836 77.2841 41.8316 77.6281C41.4876 77.9721 41.0356 78.1441 40.4756 78.1441C39.9076 78.1441 39.4476 77.9721 39.0956 77.6281C38.7436 77.2841 38.5676 76.8041 38.5676 76.1881ZM40.4636 75.2521C40.0076 75.2521 39.7796 75.5641 39.7796 76.1881C39.7796 76.8201 40.0076 77.1361 40.4636 77.1361C40.9116 77.1361 41.1356 76.8201 41.1356 76.1881C41.1356 75.5641 40.9116 75.2521 40.4636 75.2521Z" fill="#015249"/>
<path d="M50.3759 76.9921L52.416 71.4241H53.5799L51 78.0001H49.728L47.1479 71.4241H48.3239L50.3759 76.9921ZM57.4825 78.1081C56.9785 78.1081 56.5265 78.0241 56.1265 77.8561C55.7265 77.6801 55.4106 77.4401 55.1786 77.1361C54.9466 76.8241 54.8185 76.4681 54.7945 76.0681H55.9226C55.9546 76.3961 56.1066 76.6641 56.3786 76.8721C56.6586 77.0801 57.0226 77.1841 57.4706 77.1841C57.8866 77.1841 58.2145 77.0921 58.4545 76.9081C58.6945 76.7241 58.8145 76.4921 58.8145 76.2121C58.8145 75.9241 58.6865 75.7121 58.4305 75.5761C58.1745 75.4321 57.7785 75.2921 57.2425 75.1561C56.7545 75.0281 56.3545 74.9001 56.0425 74.7721C55.7385 74.6361 55.4745 74.4401 55.2505 74.1841C55.0345 73.9201 54.9265 73.5761 54.9265 73.1521C54.9265 72.8161 55.0266 72.5081 55.2266 72.2281C55.4266 71.9481 55.7105 71.7281 56.0785 71.5681C56.4465 71.4001 56.8666 71.3161 57.3386 71.3161C58.0666 71.3161 58.6546 71.5001 59.1026 71.8681C59.5506 72.2361 59.7905 72.7401 59.8225 73.3801H58.7305C58.7065 73.0361 58.5666 72.7601 58.3106 72.5521C58.0626 72.3441 57.7266 72.2401 57.3026 72.2401C56.9106 72.2401 56.5986 72.3241 56.3666 72.4921C56.1346 72.6601 56.0186 72.8801 56.0186 73.1521C56.0186 73.3681 56.0865 73.5481 56.2225 73.6921C56.3665 73.8281 56.5425 73.9401 56.7505 74.0281C56.9665 74.1081 57.2625 74.2001 57.6385 74.3041C58.1105 74.4321 58.4946 74.5601 58.7906 74.6881C59.0866 74.8081 59.3386 74.9921 59.5466 75.2401C59.7626 75.4881 59.8745 75.8121 59.8825 76.2121C59.8825 76.5721 59.7826 76.8961 59.5826 77.1841C59.3826 77.4721 59.0985 77.7001 58.7305 77.8681C58.3705 78.0281 57.9545 78.1081 57.4825 78.1081ZM66.7153 69.1201V78.0001H65.6232V69.1201H66.7153ZM68.6683 74.6881C68.6683 74.0161 68.8044 73.4281 69.0764 72.9241C69.3484 72.4121 69.7203 72.0161 70.1923 71.7361C70.6723 71.4561 71.2043 71.3161 71.7883 71.3161C72.3643 71.3161 72.8643 71.4401 73.2883 71.6881C73.7123 71.9361 74.0283 72.2481 74.2363 72.6241V71.4241H75.3404V78.0001H74.2363V76.7761C74.0203 77.1601 73.6963 77.4801 73.2643 77.7361C72.8403 77.9841 72.3443 78.1081 71.7763 78.1081C71.1923 78.1081 70.6643 77.9641 70.1923 77.6761C69.7203 77.3881 69.3484 76.9841 69.0764 76.4641C68.8044 75.9441 68.6683 75.3521 68.6683 74.6881ZM74.2363 74.7001C74.2363 74.2041 74.1364 73.7721 73.9364 73.4041C73.7364 73.0361 73.4643 72.7561 73.1203 72.5641C72.7843 72.3641 72.4124 72.2641 72.0044 72.2641C71.5964 72.2641 71.2243 72.3601 70.8883 72.5521C70.5523 72.7441 70.2843 73.0241 70.0843 73.3921C69.8843 73.7601 69.7844 74.1921 69.7844 74.6881C69.7844 75.1921 69.8843 75.6321 70.0843 76.0081C70.2843 76.3761 70.5523 76.6601 70.8883 76.8601C71.2243 77.0521 71.5964 77.1481 72.0044 77.1481C72.4124 77.1481 72.7843 77.0521 73.1203 76.8601C73.4643 76.6601 73.7364 76.3761 73.9364 76.0081C74.1364 75.6321 74.2363 75.1961 74.2363 74.7001ZM80.0138 78.1081C79.5098 78.1081 79.0577 78.0241 78.6577 77.8561C78.2577 77.6801 77.9418 77.4401 77.7098 77.1361C77.4778 76.8241 77.3497 76.4681 77.3257 76.0681H78.4537C78.4857 76.3961 78.6377 76.6641 78.9097 76.8721C79.1897 77.0801 79.5538 77.1841 80.0018 77.1841C80.4178 77.1841 80.7458 77.0921 80.9858 76.9081C81.2258 76.7241 81.3458 76.4921 81.3458 76.2121C81.3458 75.9241 81.2178 75.7121 80.9618 75.5761C80.7058 75.4321 80.3097 75.2921 79.7737 75.1561C79.2857 75.0281 78.8857 74.9001 78.5737 74.7721C78.2697 74.6361 78.0057 74.4401 77.7817 74.1841C77.5657 73.9201 77.4578 73.5761 77.4578 73.1521C77.4578 72.8161 77.5577 72.5081 77.7577 72.2281C77.9577 71.9481 78.2418 71.7281 78.6098 71.5681C78.9778 71.4001 79.3977 71.3161 79.8697 71.3161C80.5977 71.3161 81.1857 71.5001 81.6337 71.8681C82.0817 72.2361 82.3217 72.7401 82.3537 73.3801H81.2618C81.2378 73.0361 81.0977 72.7601 80.8417 72.5521C80.5937 72.3441 80.2578 72.2401 79.8338 72.2401C79.4418 72.2401 79.1297 72.3241 78.8977 72.4921C78.6657 72.6601 78.5497 72.8801 78.5497 73.1521C78.5497 73.3681 78.6177 73.5481 78.7537 73.6921C78.8977 73.8281 79.0737 73.9401 79.2817 74.0281C79.4977 74.1081 79.7938 74.2001 80.1698 74.3041C80.6418 74.4321 81.0258 74.5601 81.3218 74.6881C81.6178 74.8081 81.8697 74.9921 82.0777 75.2401C82.2937 75.4881 82.4057 75.8121 82.4137 76.2121C82.4137 76.5721 82.3138 76.8961 82.1138 77.1841C81.9138 77.4721 81.6298 77.7001 81.2618 77.8681C80.9018 78.0281 80.4858 78.1081 80.0138 78.1081ZM85.7873 72.3241V76.2001C85.7873 76.5201 85.8554 76.7481 85.9914 76.8841C86.1274 77.0121 86.3634 77.0761 86.6993 77.0761H87.5034V78.0001H86.5194C85.9114 78.0001 85.4553 77.8601 85.1513 77.5801C84.8473 77.3001 84.6953 76.8401 84.6953 76.2001V72.3241H83.8433V71.4241H84.6953V69.7681H85.7873V71.4241H87.5034V72.3241H85.7873ZM101.786 71.4241L99.7336 78.0001H98.6056L97.0216 72.7801L95.4376 78.0001H94.3097L92.2456 71.4241H93.3617L94.8736 76.9441L96.5056 71.4241H97.6216L99.2176 76.9561L100.706 71.4241H101.786ZM109.369 74.4601C109.369 74.6681 109.357 74.8881 109.333 75.1201H104.077C104.117 75.7681 104.337 76.2761 104.737 76.6441C105.145 77.0041 105.637 77.1841 106.213 77.1841C106.685 77.1841 107.077 77.0761 107.389 76.8601C107.709 76.6361 107.933 76.3401 108.061 75.9721H109.237C109.061 76.6041 108.709 77.1201 108.181 77.5201C107.653 77.9121 106.997 78.1081 106.213 78.1081C105.589 78.1081 105.029 77.9681 104.533 77.6881C104.045 77.4081 103.661 77.0121 103.381 76.5001C103.101 75.9801 102.961 75.3801 102.961 74.7001C102.961 74.0201 103.097 73.4241 103.369 72.9121C103.641 72.4001 104.021 72.0081 104.509 71.7361C105.005 71.4561 105.573 71.3161 106.213 71.3161C106.837 71.3161 107.389 71.4521 107.869 71.7241C108.349 71.9961 108.717 72.3721 108.973 72.8521C109.237 73.3241 109.369 73.8601 109.369 74.4601ZM108.241 74.2321C108.241 73.8161 108.149 73.4601 107.965 73.1641C107.781 72.8601 107.529 72.6321 107.209 72.4801C106.897 72.3201 106.549 72.2401 106.165 72.2401C105.613 72.2401 105.141 72.4161 104.749 72.7681C104.365 73.1201 104.145 73.6081 104.089 74.2321H108.241ZM117.311 74.4601C117.311 74.6681 117.299 74.8881 117.275 75.1201H112.019C112.059 75.7681 112.279 76.2761 112.679 76.6441C113.087 77.0041 113.579 77.1841 114.155 77.1841C114.627 77.1841 115.019 77.0761 115.331 76.8601C115.651 76.6361 115.875 76.3401 116.003 75.9721H117.179C117.003 76.6041 116.651 77.1201 116.123 77.5201C115.595 77.9121 114.939 78.1081 114.155 78.1081C113.531 78.1081 112.971 77.9681 112.475 77.6881C111.987 77.4081 111.603 77.0121 111.323 76.5001C111.043 75.9801 110.903 75.3801 110.903 74.7001C110.903 74.0201 111.039 73.4241 111.311 72.9121C111.583 72.4001 111.963 72.0081 112.451 71.7361C112.947 71.4561 113.515 71.3161 114.155 71.3161C114.779 71.3161 115.331 71.4521 115.811 71.7241C116.291 71.9961 116.659 72.3721 116.915 72.8521C117.179 73.3241 117.311 73.8601 117.311 74.4601ZM116.183 74.2321C116.183 73.8161 116.091 73.4601 115.907 73.1641C115.723 72.8601 115.471 72.6321 115.151 72.4801C114.839 72.3201 114.491 72.2401 114.107 72.2401C113.555 72.2401 113.083 72.4161 112.691 72.7681C112.307 73.1201 112.087 73.6081 112.031 74.2321H116.183ZM122.924 78.0001L120.344 75.0961V78.0001H119.252V69.1201H120.344V74.3401L122.876 71.4241H124.4L121.304 74.7001L124.412 78.0001H122.924Z" fill="#737B8B"/>
<path d="M4.60864 78V68.9639" stroke="#149D52" stroke-width="1.5" stroke-linecap="round" stroke-linejoin="round"/>
<path d="M1 71.5576L4.5576 68L8.11519 71.5576" stroke="#015249" stroke-width="1.5" stroke-linecap="round" stroke-linejoin="round"/>
<path opacity="0.5" d="M4.87397 119.091C4.27597 119.091 3.73864 118.987 3.26197 118.779C2.79397 118.562 2.42564 118.268 2.15697 117.895C1.8883 117.514 1.74964 117.076 1.74097 116.582H3.00197C3.0453 117.007 3.21864 117.366 3.52197 117.661C3.83397 117.947 4.28464 118.09 4.87397 118.09C5.4373 118.09 5.8793 117.951 6.19997 117.674C6.5293 117.388 6.69397 117.024 6.69397 116.582C6.69397 116.235 6.59864 115.954 6.40797 115.737C6.2173 115.52 5.97897 115.356 5.69297 115.243C5.40697 115.13 5.0213 115.009 4.53597 114.879C3.93797 114.723 3.45697 114.567 3.09297 114.411C2.73764 114.255 2.42997 114.012 2.16997 113.683C1.91864 113.345 1.79297 112.894 1.79297 112.331C1.79297 111.837 1.91864 111.399 2.16997 111.018C2.4213 110.637 2.7723 110.342 3.22297 110.134C3.6823 109.926 4.20664 109.822 4.79597 109.822C5.6453 109.822 6.33864 110.034 6.87597 110.459C7.42197 110.884 7.72964 111.447 7.79897 112.149H6.49897C6.45564 111.802 6.27364 111.499 5.95297 111.239C5.6323 110.97 5.20764 110.836 4.67897 110.836C4.18497 110.836 3.78197 110.966 3.46997 111.226C3.15797 111.477 3.00197 111.833 3.00197 112.292C3.00197 112.621 3.09297 112.89 3.27497 113.098C3.46564 113.306 3.6953 113.466 3.96397 113.579C4.2413 113.683 4.62697 113.804 5.12097 113.943C5.71897 114.108 6.19997 114.272 6.56397 114.437C6.92797 114.593 7.23997 114.84 7.49997 115.178C7.75997 115.507 7.88997 115.958 7.88997 116.53C7.88997 116.972 7.77297 117.388 7.53897 117.778C7.30497 118.168 6.9583 118.484 6.49897 118.727C6.03964 118.97 5.49797 119.091 4.87397 119.091ZM9.68885 115.412C9.68885 114.684 9.83619 114.047 10.1309 113.501C10.4255 112.946 10.8285 112.517 11.3399 112.214C11.8599 111.911 12.4362 111.759 13.0689 111.759C13.6929 111.759 14.2345 111.893 14.6939 112.162C15.1532 112.431 15.4955 112.769 15.7209 113.176V111.876H16.9169V119H15.7209V117.674C15.4869 118.09 15.1359 118.437 14.6679 118.714C14.2085 118.983 13.6712 119.117 13.0559 119.117C12.4232 119.117 11.8512 118.961 11.3399 118.649C10.8285 118.337 10.4255 117.899 10.1309 117.336C9.83619 116.773 9.68885 116.131 9.68885 115.412ZM15.7209 115.425C15.7209 114.888 15.6125 114.42 15.3959 114.021C15.1792 113.622 14.8845 113.319 14.5119 113.111C14.1479 112.894 13.7449 112.786 13.3029 112.786C12.8609 112.786 12.4579 112.89 12.0939 113.098C11.7299 113.306 11.4395 113.609 11.2229 114.008C11.0062 114.407 10.8979 114.875 10.8979 115.412C10.8979 115.958 11.0062 116.435 11.2229 116.842C11.4395 117.241 11.7299 117.548 12.0939 117.765C12.4579 117.973 12.8609 118.077 13.3029 118.077C13.7449 118.077 14.1479 117.973 14.5119 117.765C14.8845 117.548 15.1792 117.241 15.3959 116.842C15.6125 116.435 15.7209 115.962 15.7209 115.425ZM20.599 109.38V119H19.416V109.38H20.599ZM29.6153 115.165C29.6153 115.39 29.6023 115.629 29.5763 115.88H23.8823C23.9256 116.582 24.1639 117.132 24.5973 117.531C25.0393 117.921 25.5723 118.116 26.1963 118.116C26.7076 118.116 27.1323 117.999 27.4703 117.765C27.8169 117.522 28.0596 117.202 28.1983 116.803H29.4723C29.2816 117.488 28.9003 118.047 28.3283 118.48C27.7563 118.905 27.0456 119.117 26.1963 119.117C25.5203 119.117 24.9136 118.965 24.3763 118.662C23.8476 118.359 23.4316 117.93 23.1283 117.375C22.8249 116.812 22.6733 116.162 22.6733 115.425C22.6733 114.688 22.8206 114.043 23.1153 113.488C23.4099 112.933 23.8216 112.509 24.3503 112.214C24.8876 111.911 25.5029 111.759 26.1963 111.759C26.8723 111.759 27.4703 111.906 27.9903 112.201C28.5103 112.496 28.9089 112.903 29.1863 113.423C29.4723 113.934 29.6153 114.515 29.6153 115.165ZM28.3933 114.918C28.3933 114.467 28.2936 114.082 28.0943 113.761C27.8949 113.432 27.6219 113.185 27.2753 113.02C26.9373 112.847 26.5603 112.76 26.1443 112.76C25.5463 112.76 25.0349 112.951 24.6103 113.332C24.1943 113.713 23.9559 114.242 23.8953 114.918H28.3933ZM34.1988 119.117C33.6528 119.117 33.1631 119.026 32.7298 118.844C32.2964 118.653 31.9541 118.393 31.7028 118.064C31.4514 117.726 31.3128 117.34 31.2868 116.907H32.5088C32.5434 117.262 32.7081 117.553 33.0028 117.778C33.3061 118.003 33.7004 118.116 34.1858 118.116C34.6364 118.116 34.9918 118.016 35.2518 117.817C35.5118 117.618 35.6418 117.366 35.6418 117.063C35.6418 116.751 35.5031 116.521 35.2258 116.374C34.9484 116.218 34.5194 116.066 33.9388 115.919C33.4101 115.78 32.9768 115.642 32.6388 115.503C32.3094 115.356 32.0234 115.143 31.7808 114.866C31.5468 114.58 31.4298 114.207 31.4298 113.748C31.4298 113.384 31.5381 113.05 31.7548 112.747C31.9714 112.444 32.2791 112.205 32.6778 112.032C33.0764 111.85 33.5314 111.759 34.0428 111.759C34.8314 111.759 35.4684 111.958 35.9538 112.357C36.4391 112.756 36.6991 113.302 36.7338 113.995H35.5508C35.5248 113.622 35.3731 113.323 35.0958 113.098C34.8271 112.873 34.4631 112.76 34.0038 112.76C33.5791 112.76 33.2411 112.851 32.9898 113.033C32.7384 113.215 32.6128 113.453 32.6128 113.748C32.6128 113.982 32.6864 114.177 32.8338 114.333C32.9898 114.48 33.1804 114.602 33.4058 114.697C33.6398 114.784 33.9604 114.883 34.3678 114.996C34.8791 115.135 35.2951 115.273 35.6158 115.412C35.9364 115.542 36.2094 115.741 36.4348 116.01C36.6688 116.279 36.7901 116.63 36.7988 117.063C36.7988 117.453 36.6904 117.804 36.4738 118.116C36.2571 118.428 35.9494 118.675 35.5508 118.857C35.1608 119.03 34.7101 119.117 34.1988 119.117ZM45.8336 112.851H44.3386V119H43.1556V112.851H42.2326V111.876H43.1556V111.369C43.1556 110.572 43.3593 109.991 43.7666 109.627C44.1826 109.254 44.8456 109.068 45.7556 109.068V110.056C45.2356 110.056 44.8673 110.16 44.6506 110.368C44.4426 110.567 44.3386 110.901 44.3386 111.369V111.876H45.8336V112.851ZM48.8959 113.033C49.1039 112.626 49.3986 112.309 49.7799 112.084C50.1699 111.859 50.6422 111.746 51.1969 111.746V112.968H50.8849C49.5589 112.968 48.8959 113.687 48.8959 115.126V119H47.7129V111.876H48.8959V113.033ZM56.1695 119.117C55.5022 119.117 54.8955 118.965 54.3495 118.662C53.8122 118.359 53.3875 117.93 53.0755 117.375C52.7722 116.812 52.6205 116.162 52.6205 115.425C52.6205 114.697 52.7765 114.056 53.0885 113.501C53.4092 112.938 53.8425 112.509 54.3885 112.214C54.9345 111.911 55.5455 111.759 56.2215 111.759C56.8975 111.759 57.5085 111.911 58.0545 112.214C58.6005 112.509 59.0295 112.933 59.3415 113.488C59.6622 114.043 59.8225 114.688 59.8225 115.425C59.8225 116.162 59.6579 116.812 59.3285 117.375C59.0079 117.93 58.5702 118.359 58.0155 118.662C57.4609 118.965 56.8455 119.117 56.1695 119.117ZM56.1695 118.077C56.5942 118.077 56.9929 117.977 57.3655 117.778C57.7382 117.579 58.0372 117.28 58.2625 116.881C58.4965 116.482 58.6135 115.997 58.6135 115.425C58.6135 114.853 58.5009 114.368 58.2755 113.969C58.0502 113.57 57.7555 113.276 57.3915 113.085C57.0275 112.886 56.6332 112.786 56.2085 112.786C55.7752 112.786 55.3765 112.886 55.0125 113.085C54.6572 113.276 54.3712 113.57 54.1545 113.969C53.9379 114.368 53.8295 114.853 53.8295 115.425C53.8295 116.006 53.9335 116.495 54.1415 116.894C54.3582 117.293 54.6442 117.592 54.9995 117.791C55.3549 117.982 55.7449 118.077 56.1695 118.077ZM70.445 111.746C70.9996 111.746 71.4936 111.863 71.927 112.097C72.3603 112.322 72.7026 112.665 72.954 113.124C73.2053 113.583 73.331 114.142 73.331 114.801V119H72.161V114.97C72.161 114.259 71.9833 113.718 71.628 113.345C71.2813 112.964 70.809 112.773 70.211 112.773C69.5956 112.773 69.106 112.972 68.742 113.371C68.378 113.761 68.196 114.329 68.196 115.074V119H67.026V114.97C67.026 114.259 66.8483 113.718 66.493 113.345C66.1463 112.964 65.674 112.773 65.076 112.773C64.4606 112.773 63.971 112.972 63.607 113.371C63.243 113.761 63.061 114.329 63.061 115.074V119H61.878V111.876H63.061V112.903C63.295 112.53 63.607 112.244 63.997 112.045C64.3956 111.846 64.8333 111.746 65.31 111.746C65.908 111.746 66.4366 111.88 66.896 112.149C67.3553 112.418 67.6976 112.812 67.923 113.332C68.1223 112.829 68.4516 112.439 68.911 112.162C69.3703 111.885 69.8816 111.746 70.445 111.746ZM79.2303 110.68V109.601H81.6743V119H80.4783V110.68H79.2303ZM89.3414 113.735V114.736H84.1544V113.735H89.3414ZM91.5545 110.68V109.601H93.9985V119H92.8025V110.68H91.5545ZM96.3876 118.051C97.4883 117.167 98.3506 116.443 98.9746 115.88C99.5986 115.308 100.123 114.714 100.548 114.099C100.981 113.475 101.198 112.864 101.198 112.266C101.198 111.703 101.059 111.261 100.782 110.94C100.513 110.611 100.075 110.446 99.4686 110.446C98.8793 110.446 98.4199 110.632 98.0906 111.005C97.7699 111.369 97.5966 111.859 97.5706 112.474H96.4266C96.4613 111.503 96.7559 110.754 97.3106 110.225C97.8653 109.696 98.5803 109.432 99.4556 109.432C100.348 109.432 101.055 109.679 101.575 110.173C102.103 110.667 102.368 111.347 102.368 112.214C102.368 112.933 102.151 113.635 101.718 114.32C101.293 114.996 100.808 115.594 100.262 116.114C99.7156 116.625 99.0179 117.223 98.1686 117.908H102.641V118.896H96.3876V118.051ZM111.49 109.939C112.478 109.939 113.332 110.125 114.051 110.498C114.779 110.862 115.334 111.386 115.715 112.071C116.105 112.756 116.3 113.562 116.3 114.489C116.3 115.416 116.105 116.222 115.715 116.907C115.334 117.583 114.779 118.103 114.051 118.467C113.332 118.822 112.478 119 111.49 119H108.669V109.939H111.49ZM111.49 118.025C112.66 118.025 113.553 117.717 114.168 117.102C114.783 116.478 115.091 115.607 115.091 114.489C115.091 113.362 114.779 112.483 114.155 111.85C113.54 111.217 112.651 110.901 111.49 110.901H109.852V118.025H111.49ZM124.86 115.165C124.86 115.39 124.847 115.629 124.821 115.88H119.127C119.171 116.582 119.409 117.132 119.842 117.531C120.284 117.921 120.817 118.116 121.441 118.116C121.953 118.116 122.377 117.999 122.715 117.765C123.062 117.522 123.305 117.202 123.443 116.803H124.717C124.527 117.488 124.145 118.047 123.573 118.48C123.001 118.905 122.291 119.117 121.441 119.117C120.765 119.117 120.159 118.965 119.621 118.662C119.093 118.359 118.677 117.93 118.373 117.375C118.07 116.812 117.918 116.162 117.918 115.425C117.918 114.688 118.066 114.043 118.36 113.488C118.655 112.933 119.067 112.509 119.595 112.214C120.133 111.911 120.748 111.759 121.441 111.759C122.117 111.759 122.715 111.906 123.235 112.201C123.755 112.496 124.154 112.903 124.431 113.423C124.717 113.934 124.86 114.515 124.86 115.165ZM123.638 114.918C123.638 114.467 123.539 114.082 123.339 113.761C123.14 113.432 122.867 113.185 122.52 113.02C122.182 112.847 121.805 112.76 121.389 112.76C120.791 112.76 120.28 112.951 119.855 113.332C119.439 113.713 119.201 114.242 119.14 114.918H123.638ZM126.48 115.425C126.48 114.688 126.627 114.047 126.922 113.501C127.217 112.946 127.624 112.517 128.144 112.214C128.673 111.911 129.275 111.759 129.951 111.759C130.826 111.759 131.546 111.971 132.109 112.396C132.681 112.821 133.058 113.41 133.24 114.164H131.966C131.845 113.731 131.606 113.388 131.251 113.137C130.904 112.886 130.471 112.76 129.951 112.76C129.275 112.76 128.729 112.994 128.313 113.462C127.897 113.921 127.689 114.576 127.689 115.425C127.689 116.283 127.897 116.946 128.313 117.414C128.729 117.882 129.275 118.116 129.951 118.116C130.471 118.116 130.904 117.995 131.251 117.752C131.598 117.509 131.836 117.163 131.966 116.712H133.24C133.049 117.44 132.668 118.025 132.096 118.467C131.524 118.9 130.809 119.117 129.951 119.117C129.275 119.117 128.673 118.965 128.144 118.662C127.624 118.359 127.217 117.93 126.922 117.375C126.627 116.82 126.48 116.17 126.48 115.425ZM136.54 117.362L135.084 120.859H134.291L135.24 117.362H136.54ZM142.023 118.051C143.124 117.167 143.986 116.443 144.61 115.88C145.234 115.308 145.759 114.714 146.183 114.099C146.617 113.475 146.833 112.864 146.833 112.266C146.833 111.703 146.695 111.261 146.417 110.94C146.149 110.611 145.711 110.446 145.104 110.446C144.515 110.446 144.056 110.632 143.726 111.005C143.406 111.369 143.232 111.859 143.206 112.474H142.062C142.097 111.503 142.392 110.754 142.946 110.225C143.501 109.696 144.216 109.432 145.091 109.432C145.984 109.432 146.69 109.679 147.21 110.173C147.739 110.667 148.003 111.347 148.003 112.214C148.003 112.933 147.787 113.635 147.353 114.32C146.929 114.996 146.443 115.594 145.897 116.114C145.351 116.625 144.654 117.223 143.804 117.908H148.276V118.896H142.023V118.051ZM150.144 114.203C150.144 112.712 150.387 111.551 150.872 110.719C151.357 109.878 152.207 109.458 153.42 109.458C154.625 109.458 155.47 109.878 155.955 110.719C156.44 111.551 156.683 112.712 156.683 114.203C156.683 115.72 156.44 116.898 155.955 117.739C155.47 118.58 154.625 119 153.42 119C152.207 119 151.357 118.58 150.872 117.739C150.387 116.898 150.144 115.72 150.144 114.203ZM155.513 114.203C155.513 113.449 155.461 112.812 155.357 112.292C155.262 111.763 155.058 111.339 154.746 111.018C154.443 110.697 154.001 110.537 153.42 110.537C152.831 110.537 152.38 110.697 152.068 111.018C151.765 111.339 151.561 111.763 151.457 112.292C151.362 112.812 151.314 113.449 151.314 114.203C151.314 114.983 151.362 115.637 151.457 116.166C151.561 116.695 151.765 117.119 152.068 117.44C152.38 117.761 152.831 117.921 153.42 117.921C154.001 117.921 154.443 117.761 154.746 117.44C155.058 117.119 155.262 116.695 155.357 116.166C155.461 115.637 155.513 114.983 155.513 114.203ZM158.664 118.051C159.765 117.167 160.627 116.443 161.251 115.88C161.875 115.308 162.399 114.714 162.824 114.099C163.257 113.475 163.474 112.864 163.474 112.266C163.474 111.703 163.335 111.261 163.058 110.94C162.789 110.611 162.352 110.446 161.745 110.446C161.156 110.446 160.696 110.632 160.367 111.005C160.046 111.369 159.873 111.859 159.847 112.474H158.703C158.738 111.503 159.032 110.754 159.587 110.225C160.142 109.696 160.857 109.432 161.732 109.432C162.625 109.432 163.331 109.679 163.851 110.173C164.38 110.667 164.644 111.347 164.644 112.214C164.644 112.933 164.427 113.635 163.994 114.32C163.569 114.996 163.084 115.594 162.538 116.114C161.992 116.625 161.294 117.223 160.445 117.908H164.917V118.896H158.664V118.051ZM166.785 114.203C166.785 112.712 167.027 111.551 167.513 110.719C167.998 109.878 168.847 109.458 170.061 109.458C171.265 109.458 172.11 109.878 172.596 110.719C173.081 111.551 173.324 112.712 173.324 114.203C173.324 115.72 173.081 116.898 172.596 117.739C172.11 118.58 171.265 119 170.061 119C168.847 119 167.998 118.58 167.513 117.739C167.027 116.898 166.785 115.72 166.785 114.203ZM172.154 114.203C172.154 113.449 172.102 112.812 171.998 112.292C171.902 111.763 171.699 111.339 171.387 111.018C171.083 110.697 170.641 110.537 170.061 110.537C169.471 110.537 169.021 110.697 168.709 111.018C168.405 111.339 168.202 111.763 168.098 112.292C168.002 112.812 167.955 113.449 167.955 114.203C167.955 114.983 168.002 115.637 168.098 116.166C168.202 116.695 168.405 117.119 168.709 117.44C169.021 117.761 169.471 117.921 170.061 117.921C170.641 117.921 171.083 117.761 171.387 117.44C171.699 117.119 171.902 116.695 171.998 116.166C172.102 115.637 172.154 114.983 172.154 114.203Z" fill="black"/>
<path d="M5.5 321C7.98528 321 10 318.985 10 316.5C10 314.015 7.98528 312 5.5 312C3.01472 312 1 314.015 1 316.5C1 318.985 3.01472 321 5.5 321Z" fill="#5A6ACF"/>
<path opacity="0.7" d="M20.0161 319.112H22.9441V320H18.9241V311.636H20.0161V319.112ZM24.1958 316.688C24.1958 316.016 24.3318 315.428 24.6038 314.924C24.8758 314.412 25.2478 314.016 25.7198 313.736C26.1998 313.456 26.7318 313.316 27.3158 313.316C27.8918 313.316 28.3918 313.44 28.8158 313.688C29.2398 313.936 29.5558 314.248 29.7638 314.624V313.424H30.8678V320H29.7638V318.776C29.5478 319.16 29.2238 319.48 28.7918 319.736C28.3678 319.984 27.8718 320.108 27.3038 320.108C26.7198 320.108 26.1918 319.964 25.7198 319.676C25.2478 319.388 24.8758 318.984 24.6038 318.464C24.3318 317.944 24.1958 317.352 24.1958 316.688ZM29.7638 316.7C29.7638 316.204 29.6638 315.772 29.4638 315.404C29.2638 315.036 28.9918 314.756 28.6478 314.564C28.3118 314.364 27.9398 314.264 27.5318 314.264C27.1238 314.264 26.7518 314.36 26.4158 314.552C26.0798 314.744 25.8118 315.024 25.6118 315.392C25.4118 315.76 25.3118 316.192 25.3118 316.688C25.3118 317.192 25.4118 317.632 25.6118 318.008C25.8118 318.376 26.0798 318.66 26.4158 318.86C26.7518 319.052 27.1238 319.148 27.5318 319.148C27.9398 319.148 28.3118 319.052 28.6478 318.86C28.9918 318.66 29.2638 318.376 29.4638 318.008C29.6638 317.632 29.7638 317.196 29.7638 316.7ZM35.5412 320.108C35.0372 320.108 34.5852 320.024 34.1852 319.856C33.7852 319.68 33.4692 319.44 33.2372 319.136C33.0052 318.824 32.8772 318.468 32.8532 318.068H33.9812C34.0132 318.396 34.1652 318.664 34.4372 318.872C34.7172 319.08 35.0812 319.184 35.5292 319.184C35.9452 319.184 36.2732 319.092 36.5132 318.908C36.7532 318.724 36.8732 318.492 36.8732 318.212C36.8732 317.924 36.7452 317.712 36.4892 317.576C36.2332 317.432 35.8372 317.292 35.3012 317.156C34.8132 317.028 34.4132 316.9 34.1012 316.772C33.7972 316.636 33.5332 316.44 33.3092 316.184C33.0932 315.92 32.9852 315.576 32.9852 315.152C32.9852 314.816 33.0852 314.508 33.2852 314.228C33.4852 313.948 33.7692 313.728 34.1372 313.568C34.5052 313.4 34.9252 313.316 35.3972 313.316C36.1252 313.316 36.7132 313.5 37.1612 313.868C37.6092 314.236 37.8492 314.74 37.8812 315.38H36.7892C36.7652 315.036 36.6252 314.76 36.3692 314.552C36.1212 314.344 35.7852 314.24 35.3612 314.24C34.9692 314.24 34.6572 314.324 34.4252 314.492C34.1932 314.66 34.0772 314.88 34.0772 315.152C34.0772 315.368 34.1452 315.548 34.2812 315.692C34.4252 315.828 34.6012 315.94 34.8092 316.028C35.0252 316.108 35.3212 316.2 35.6972 316.304C36.1692 316.432 36.5532 316.56 36.8492 316.688C37.1452 316.808 37.3972 316.992 37.6052 317.24C37.8212 317.488 37.9332 317.812 37.9412 318.212C37.9412 318.572 37.8412 318.896 37.6412 319.184C37.4412 319.472 37.1572 319.7 36.7892 319.868C36.4292 320.028 36.0132 320.108 35.5412 320.108ZM41.3147 314.324V318.2C41.3147 318.52 41.3827 318.748 41.5187 318.884C41.6547 319.012 41.8907 319.076 42.2267 319.076H43.0307V320H42.0467C41.4387 320 40.9827 319.86 40.6787 319.58C40.3747 319.3 40.2227 318.84 40.2227 318.2V314.324H39.3707V313.424H40.2227V311.768H41.3147V313.424H43.0307V314.324H41.3147ZM53.209 313.388C53.033 312.5 52.485 312.056 51.565 312.056C50.853 312.056 50.321 312.332 49.969 312.884C49.617 313.428 49.445 314.328 49.453 315.584C49.637 315.168 49.941 314.844 50.365 314.612C50.797 314.372 51.277 314.252 51.805 314.252C52.629 314.252 53.285 314.508 53.773 315.02C54.269 315.532 54.517 316.24 54.517 317.144C54.517 317.688 54.409 318.176 54.193 318.608C53.985 319.04 53.665 319.384 53.233 319.64C52.809 319.896 52.293 320.024 51.685 320.024C50.861 320.024 50.217 319.84 49.753 319.472C49.289 319.104 48.965 318.596 48.781 317.948C48.597 317.3 48.505 316.5 48.505 315.548C48.505 312.612 49.529 311.144 51.577 311.144C52.361 311.144 52.977 311.356 53.425 311.78C53.873 312.204 54.137 312.74 54.217 313.388H53.209ZM51.577 315.176C51.233 315.176 50.909 315.248 50.605 315.392C50.301 315.528 50.053 315.74 49.861 316.028C49.677 316.308 49.585 316.652 49.585 317.06C49.585 317.668 49.761 318.164 50.113 318.548C50.465 318.924 50.969 319.112 51.625 319.112C52.185 319.112 52.629 318.94 52.957 318.596C53.293 318.244 53.461 317.772 53.461 317.18C53.461 316.556 53.301 316.068 52.981 315.716C52.661 315.356 52.193 315.176 51.577 315.176ZM59.9614 316.688C59.9614 316.016 60.0974 315.428 60.3694 314.924C60.6414 314.412 61.0134 314.016 61.4854 313.736C61.9654 313.456 62.5014 313.316 63.0934 313.316C63.6054 313.316 64.0814 313.436 64.5214 313.676C64.9614 313.908 65.2974 314.216 65.5294 314.6V311.12H66.6334V320H65.5294V318.764C65.3134 319.156 64.9934 319.48 64.5694 319.736C64.1454 319.984 63.6494 320.108 63.0814 320.108C62.4974 320.108 61.9654 319.964 61.4854 319.676C61.0134 319.388 60.6414 318.984 60.3694 318.464C60.0974 317.944 59.9614 317.352 59.9614 316.688ZM65.5294 316.7C65.5294 316.204 65.4294 315.772 65.2294 315.404C65.0294 315.036 64.7574 314.756 64.4134 314.564C64.0774 314.364 63.7054 314.264 63.2974 314.264C62.8894 314.264 62.5174 314.36 62.1814 314.552C61.8454 314.744 61.5774 315.024 61.3774 315.392C61.1774 315.76 61.0774 316.192 61.0774 316.688C61.0774 317.192 61.1774 317.632 61.3774 318.008C61.5774 318.376 61.8454 318.66 62.1814 318.86C62.5174 319.052 62.8894 319.148 63.2974 319.148C63.7054 319.148 64.0774 319.052 64.4134 318.86C64.7574 318.66 65.0294 318.376 65.2294 318.008C65.4294 317.632 65.5294 317.196 65.5294 316.7ZM68.5708 316.688C68.5708 316.016 68.7068 315.428 68.9788 314.924C69.2508 314.412 69.6228 314.016 70.0948 313.736C70.5748 313.456 71.1068 313.316 71.6908 313.316C72.2668 313.316 72.7668 313.44 73.1908 313.688C73.6148 313.936 73.9308 314.248 74.1388 314.624V313.424H75.2428V320H74.1388V318.776C73.9228 319.16 73.5988 319.48 73.1668 319.736C72.7428 319.984 72.2468 320.108 71.6788 320.108C71.0948 320.108 70.5668 319.964 70.0948 319.676C69.6228 319.388 69.2508 318.984 68.9788 318.464C68.7068 317.944 68.5708 317.352 68.5708 316.688ZM74.1388 316.7C74.1388 316.204 74.0388 315.772 73.8388 315.404C73.6388 315.036 73.3668 314.756 73.0228 314.564C72.6868 314.364 72.3148 314.264 71.9068 314.264C71.4988 314.264 71.1268 314.36 70.7908 314.552C70.4548 314.744 70.1868 315.024 69.9868 315.392C69.7868 315.76 69.6868 316.192 69.6868 316.688C69.6868 317.192 69.7868 317.632 69.9868 318.008C70.1868 318.376 70.4548 318.66 70.7908 318.86C71.1268 319.052 71.4988 319.148 71.9068 319.148C72.3148 319.148 72.6868 319.052 73.0228 318.86C73.3668 318.66 73.6388 318.376 73.8388 318.008C74.0388 317.632 74.1388 317.196 74.1388 316.7ZM83.2522 313.424L79.2922 323.096H78.1642L79.4602 319.928L76.8082 313.424H78.0202L80.0842 318.752L82.1242 313.424H83.2522ZM87.1779 320.108C86.6739 320.108 86.2219 320.024 85.8219 319.856C85.4219 319.68 85.1059 319.44 84.8739 319.136C84.6419 318.824 84.5139 318.468 84.4899 318.068H85.6179C85.6499 318.396 85.8019 318.664 86.0739 318.872C86.3539 319.08 86.7179 319.184 87.1659 319.184C87.5819 319.184 87.9099 319.092 88.1499 318.908C88.3899 318.724 88.5099 318.492 88.5099 318.212C88.5099 317.924 88.3819 317.712 88.1259 317.576C87.8699 317.432 87.4739 317.292 86.9379 317.156C86.4499 317.028 86.0499 316.9 85.7379 316.772C85.4339 316.636 85.1699 316.44 84.9459 316.184C84.7299 315.92 84.6219 315.576 84.6219 315.152C84.6219 314.816 84.7219 314.508 84.9219 314.228C85.1219 313.948 85.4059 313.728 85.7739 313.568C86.1419 313.4 86.5619 313.316 87.0339 313.316C87.7619 313.316 88.3499 313.5 88.7979 313.868C89.2459 314.236 89.4859 314.74 89.5179 315.38H88.4259C88.4019 315.036 88.2619 314.76 88.0059 314.552C87.7579 314.344 87.4219 314.24 86.9979 314.24C86.6059 314.24 86.2939 314.324 86.0619 314.492C85.8299 314.66 85.7139 314.88 85.7139 315.152C85.7139 315.368 85.7819 315.548 85.9179 315.692C86.0619 315.828 86.2379 315.94 86.4459 316.028C86.6619 316.108 86.9579 316.2 87.3339 316.304C87.8059 316.432 88.1899 316.56 88.4859 316.688C88.7819 316.808 89.0339 316.992 89.2419 317.24C89.4579 317.488 89.5699 317.812 89.5779 318.212C89.5779 318.572 89.4779 318.896 89.2779 319.184C89.0779 319.472 88.7939 319.7 88.4259 319.868C88.0659 320.028 87.6499 320.108 87.1779 320.108Z" fill="#121212"/>
<path d="M119.5 321C121.985 321 124 318.985 124 316.5C124 314.015 121.985 312 119.5 312C117.015 312 115 314.015 115 316.5C115 318.985 117.015 321 119.5 321Z" fill="#D8D9DB"/>
<path opacity="0.7" d="M134.016 319.112H136.944V320H132.924V311.636H134.016V319.112ZM138.196 316.688C138.196 316.016 138.332 315.428 138.604 314.924C138.876 314.412 139.248 314.016 139.72 313.736C140.2 313.456 140.732 313.316 141.316 313.316C141.892 313.316 142.392 313.44 142.816 313.688C143.24 313.936 143.556 314.248 143.764 314.624V313.424H144.868V320H143.764V318.776C143.548 319.16 143.224 319.48 142.792 319.736C142.368 319.984 141.872 320.108 141.304 320.108C140.72 320.108 140.192 319.964 139.72 319.676C139.248 319.388 138.876 318.984 138.604 318.464C138.332 317.944 138.196 317.352 138.196 316.688ZM143.764 316.7C143.764 316.204 143.664 315.772 143.464 315.404C143.264 315.036 142.992 314.756 142.648 314.564C142.312 314.364 141.94 314.264 141.532 314.264C141.124 314.264 140.752 314.36 140.416 314.552C140.08 314.744 139.812 315.024 139.612 315.392C139.412 315.76 139.312 316.192 139.312 316.688C139.312 317.192 139.412 317.632 139.612 318.008C139.812 318.376 140.08 318.66 140.416 318.86C140.752 319.052 141.124 319.148 141.532 319.148C141.94 319.148 142.312 319.052 142.648 318.86C142.992 318.66 143.264 318.376 143.464 318.008C143.664 317.632 143.764 317.196 143.764 316.7ZM149.541 320.108C149.037 320.108 148.585 320.024 148.185 319.856C147.785 319.68 147.469 319.44 147.237 319.136C147.005 318.824 146.877 318.468 146.853 318.068H147.981C148.013 318.396 148.165 318.664 148.437 318.872C148.717 319.08 149.081 319.184 149.529 319.184C149.945 319.184 150.273 319.092 150.513 318.908C150.753 318.724 150.873 318.492 150.873 318.212C150.873 317.924 150.745 317.712 150.489 317.576C150.233 317.432 149.837 317.292 149.301 317.156C148.813 317.028 148.413 316.9 148.101 316.772C147.797 316.636 147.533 316.44 147.309 316.184C147.093 315.92 146.985 315.576 146.985 315.152C146.985 314.816 147.085 314.508 147.285 314.228C147.485 313.948 147.769 313.728 148.137 313.568C148.505 313.4 148.925 313.316 149.397 313.316C150.125 313.316 150.713 313.5 151.161 313.868C151.609 314.236 151.849 314.74 151.881 315.38H150.789C150.765 315.036 150.625 314.76 150.369 314.552C150.121 314.344 149.785 314.24 149.361 314.24C148.969 314.24 148.657 314.324 148.425 314.492C148.193 314.66 148.077 314.88 148.077 315.152C148.077 315.368 148.145 315.548 148.281 315.692C148.425 315.828 148.601 315.94 148.809 316.028C149.025 316.108 149.321 316.2 149.697 316.304C150.169 316.432 150.553 316.56 150.849 316.688C151.145 316.808 151.397 316.992 151.605 317.24C151.821 317.488 151.933 317.812 151.941 318.212C151.941 318.572 151.841 318.896 151.641 319.184C151.441 319.472 151.157 319.7 150.789 319.868C150.429 320.028 150.013 320.108 149.541 320.108ZM155.315 314.324V318.2C155.315 318.52 155.383 318.748 155.519 318.884C155.655 319.012 155.891 319.076 156.227 319.076H157.031V320H156.047C155.439 320 154.983 319.86 154.679 319.58C154.375 319.3 154.223 318.84 154.223 318.2V314.324H153.371V313.424H154.223V311.768H155.315V313.424H157.031V314.324H155.315ZM173.065 311.636L170.641 320H169.417L167.473 313.268L165.457 320L164.245 320.012L161.905 311.636H163.069L164.893 318.728L166.909 311.636H168.133L170.053 318.704L171.889 311.636H173.065ZM180.76 316.46C180.76 316.668 180.748 316.888 180.724 317.12H175.468C175.508 317.768 175.728 318.276 176.128 318.644C176.536 319.004 177.028 319.184 177.604 319.184C178.076 319.184 178.468 319.076 178.78 318.86C179.1 318.636 179.324 318.34 179.452 317.972H180.628C180.452 318.604 180.1 319.12 179.572 319.52C179.044 319.912 178.388 320.108 177.604 320.108C176.98 320.108 176.42 319.968 175.924 319.688C175.436 319.408 175.052 319.012 174.772 318.5C174.492 317.98 174.352 317.38 174.352 316.7C174.352 316.02 174.488 315.424 174.76 314.912C175.032 314.4 175.412 314.008 175.9 313.736C176.396 313.456 176.964 313.316 177.604 313.316C178.228 313.316 178.78 313.452 179.26 313.724C179.74 313.996 180.108 314.372 180.364 314.852C180.628 315.324 180.76 315.86 180.76 316.46ZM179.632 316.232C179.632 315.816 179.54 315.46 179.356 315.164C179.172 314.86 178.92 314.632 178.6 314.48C178.288 314.32 177.94 314.24 177.556 314.24C177.004 314.24 176.532 314.416 176.14 314.768C175.756 315.12 175.536 315.608 175.48 316.232H179.632ZM188.701 316.46C188.701 316.668 188.689 316.888 188.665 317.12H183.409C183.449 317.768 183.669 318.276 184.069 318.644C184.477 319.004 184.969 319.184 185.545 319.184C186.017 319.184 186.409 319.076 186.721 318.86C187.041 318.636 187.265 318.34 187.393 317.972H188.569C188.393 318.604 188.041 319.12 187.513 319.52C186.985 319.912 186.329 320.108 185.545 320.108C184.921 320.108 184.361 319.968 183.865 319.688C183.377 319.408 182.993 319.012 182.713 318.5C182.433 317.98 182.293 317.38 182.293 316.7C182.293 316.02 182.429 315.424 182.701 314.912C182.973 314.4 183.353 314.008 183.841 313.736C184.337 313.456 184.905 313.316 185.545 313.316C186.169 313.316 186.721 313.452 187.201 313.724C187.681 313.996 188.049 314.372 188.305 314.852C188.569 315.324 188.701 315.86 188.701 316.46ZM187.573 316.232C187.573 315.816 187.481 315.46 187.297 315.164C187.113 314.86 186.861 314.632 186.541 314.48C186.229 314.32 185.881 314.24 185.497 314.24C184.945 314.24 184.473 314.416 184.081 314.768C183.697 315.12 183.477 315.608 183.421 316.232H187.573ZM194.315 320L191.735 317.096V320H190.643V311.12H191.735V316.34L194.267 313.424H195.791L192.695 316.7L195.803 320H194.315Z" fill="#121212"/>
<defs>
<filter id="filter0_d_348_1493" x="569" y="0" width="111" height="35" filterUnits="userSpaceOnUse" color-interpolation-filters="sRGB">
<feFlood flood-opacity="0" result="BackgroundImageFix"/>
<feColorMatrix in="SourceAlpha" type="matrix" values="0 0 0 0 0 0 0 0 0 0 0 0 0 0 0 0 0 0 127 0" result="hardAlpha"/>
<feOffset dy="2"/>
<feGaussianBlur stdDeviation="0.5"/>
<feColorMatrix type="matrix" values="0 0 0 0 0.25098 0 0 0 0 0.282353 0 0 0 0 0.321569 0 0 0 0.05 0"/>
<feBlend mode="normal" in2="BackgroundImageFix" result="effect1_dropShadow_348_1493"/>
<feBlend mode="normal" in="SourceGraphic" in2="effect1_dropShadow_348_1493" result="shape"/>
</filter>
</defs>
</svg>
