<svg width="14" height="14" viewBox="0 0 14 14" fill="none" xmlns="http://www.w3.org/2000/svg">
<path d="M8.85547 6.98047L13.0742 2.80078C13.3086 2.56641 13.3086 2.13672 13.0742 1.90234L12.0977 0.925781C11.8633 0.691406 11.4336 0.691406 11.1992 0.925781L7.01953 5.14453L2.80078 0.925781C2.56641 0.691406 2.13672 0.691406 1.90234 0.925781L0.925781 1.90234C0.691406 2.13672 0.691406 2.56641 0.925781 2.80078L5.14453 6.98047L0.925781 11.1992C0.691406 11.4336 0.691406 11.8633 0.925781 12.0977L1.90234 13.0742C2.13672 13.3086 2.56641 13.3086 2.80078 13.0742L7.01953 8.85547L11.1992 13.0742C11.4336 13.3086 11.8633 13.3086 12.0977 13.0742L13.0742 12.0977C13.3086 11.8633 13.3086 11.4336 13.0742 11.1992L8.85547 6.98047Z" fill="white"/>
</svg>
