<svg width="50" height="29" viewBox="0 0 50 29" fill="none" xmlns="http://www.w3.org/2000/svg">
<path d="M42.7301 15.3551C42.192 15.3551 41.6696 15.4217 41.1695 15.545C41.2812 15.0585 41.3421 14.5527 41.3421 14.0324C41.3421 10.3095 38.324 7.29141 34.6011 7.29141C33.1883 7.29141 31.8775 7.72686 30.7941 8.46963C29.5296 3.59746 25.1023 0 19.8347 0C13.5816 0 8.5125 5.06914 8.5125 11.3222C3.81123 11.3222 0 15.1333 0 19.8347C0 24.5359 3.81113 28.3472 8.5125 28.3472H42.7301C46.3178 28.3472 49.2262 25.4388 49.2262 21.8511C49.2262 18.2635 46.3178 15.3551 42.7301 15.3551Z" fill="white"/>
</svg>
