<svg width="13" height="13" viewBox="0 0 13 13" fill="none" xmlns="http://www.w3.org/2000/svg">
<path d="M3.2468 0.950195H2.15483C1.45124 0.950195 0.880859 1.52057 0.880859 2.22417V3.31614C0.880859 4.01973 1.45124 4.59011 2.15483 4.59011H3.2468C3.95039 4.59011 4.52077 4.01973 4.52077 3.31614V2.22417C4.52077 1.52057 3.95039 0.950195 3.2468 0.950195Z" fill="#015249"/>
<path d="M3.2468 6.40991H2.15483C1.45124 6.40991 0.880859 6.98029 0.880859 7.68388V8.77585C0.880859 9.47945 1.45124 10.0498 2.15483 10.0498H3.2468C3.95039 10.0498 4.52077 9.47945 4.52077 8.77585V7.68388C4.52077 6.98029 3.95039 6.40991 3.2468 6.40991Z" fill="#015249"/>
<path d="M8.70676 0.950195H7.61479C6.9112 0.950195 6.34082 1.52057 6.34082 2.22417V3.31614C6.34082 4.01973 6.9112 4.59011 7.61479 4.59011H8.70676C9.41035 4.59011 9.98073 4.01973 9.98073 3.31614V2.22417C9.98073 1.52057 9.41035 0.950195 8.70676 0.950195Z" fill="#015249"/>
<path d="M11.4367 6.40991H7.61479C6.9112 6.40991 6.34082 6.98029 6.34082 7.68388V11.5058C6.34082 12.2094 6.9112 12.7798 7.61479 12.7798H11.4367C12.1403 12.7798 12.7107 12.2094 12.7107 11.5058V7.68388C12.7107 6.98029 12.1403 6.40991 11.4367 6.40991Z" fill="#015249"/>
</svg>
