<svg width="40" height="40" viewBox="0 0 40 40" fill="none" xmlns="http://www.w3.org/2000/svg">
<path d="M20 0C14.6957 0 9.60859 2.10714 5.85786 5.85786C2.10714 9.60859 0 14.6957 0 20C0 25.3043 2.10714 30.3914 5.85786 34.1421C9.60859 37.8929 14.6957 40 20 40C25.3043 40 30.3914 37.8929 34.1421 34.1421C37.8929 30.3914 40 25.3043 40 20C40 14.6957 37.8929 9.60859 34.1421 5.85786C30.3914 2.10714 25.3043 0 20 0V0Z" fill="#3F51B5"/>
<path d="M25.368 20H22V32H17V20H14V16H17V13.59C17.002 10.082 18.459 8 22.592 8H26V12H23.713C22.104 12 22 12.6 22 13.723V16H26L25.368 20Z" fill="white"/>
</svg>
