<svg width="127" height="190" viewBox="0 0 127 190" fill="none" xmlns="http://www.w3.org/2000/svg">
<path d="M104.882 1.18298C104.926 1.91762 105.084 4.34036 105.243 6.57553C105.588 11.4992 105.603 13.6249 105.315 16.1883C104.825 20.4398 103.326 29.0054 102.62 31.5063C101.64 34.9294 97.5339 40.9159 93.3121 45.0424C91.3813 46.9493 90.9202 47.2775 88.4707 48.5436C85.2575 50.2161 82.7071 51.3727 70.4452 56.6559L69.4365 57.0935L67.2031 56.1401C65.1139 55.2647 64.8833 55.2022 63.5289 55.1397C62.3473 55.0928 61.7998 55.1553 60.431 55.4836C59.5232 55.718 58.3129 55.9994 57.7653 56.1244C57.2034 56.2495 55.8777 56.6715 54.8115 57.0623C52.9383 57.75 52.7654 57.7969 50.3591 57.9532C48.558 58.0626 47.5494 58.0626 46.7857 57.9376C45.4025 57.7187 42.3478 57.7187 41.3824 57.9376C39.7254 58.3283 38.3421 59.2349 36.4834 61.1731L35.2298 62.4861L34.7975 62.1578C33.9186 61.4701 30.5181 60.4697 24.8986 59.2349C20.1725 58.2033 18.1264 57.4999 14.8124 55.8118C11.8153 54.28 10.1727 52.8889 8.4148 50.4193C5.21602 45.8864 2.60801 38.6807 1.28239 30.6466L1.18153 30.0214L0.965397 30.6466C0.864534 30.9905 0.590765 32.1471 0.374632 33.2256C0.0288178 35.0388 0 35.4608 0 38.8526C0 42.901 0.144089 44.0889 1.09508 47.2775C2.63683 52.5138 5.96529 57.8594 9.43783 60.6573C11.8729 62.6267 16.9016 65.8154 18.9333 66.6751C20.6191 67.3941 27.6795 69.2072 31.1088 69.8012C34.2932 70.3639 36.2096 71.2392 37.247 72.6459C37.9531 73.615 38.1404 74.2871 38.0683 75.5845C38.0251 76.366 38.0683 76.6161 38.198 76.5692C38.2845 76.5223 38.7311 76.5692 39.1634 76.6786C40.5467 76.9912 41.0222 78.0072 40.7196 80.0079C40.4602 81.6023 39.9271 82.8371 38.832 84.4001C37.5784 86.1976 37.1894 86.9792 37.2038 87.8076C37.2182 88.6047 37.7946 89.3081 38.5438 89.4332C38.9617 89.5113 39.1346 89.4488 39.4804 89.1206C39.8694 88.7611 39.8694 88.7298 39.5957 88.7142C39.1058 88.7142 38.9185 88.3234 39.0049 87.5106C39.0481 87.0104 39.1778 86.6822 39.394 86.4946C39.6821 86.2445 39.7398 86.2445 40.1144 86.4477C40.6331 86.7447 40.806 87.5419 40.5611 88.5579C40.2153 89.9802 39.8262 90.2772 38.2845 90.2772C37.1173 90.2772 36.4689 90.5898 35.979 91.4026C35.662 91.9184 35.6188 92.1216 35.6909 92.8563C35.7341 93.3252 35.835 93.8254 35.9214 93.9817C36.0367 94.2161 36.0655 94.138 36.0799 93.5909C36.0799 92.2779 36.7139 91.4339 37.4488 91.7465C38.0107 91.9809 37.5064 93.6222 36.5122 94.857C35.9935 95.4978 32.6794 98.4051 32.3048 98.5458C32.2183 98.577 32.276 98.3582 32.4489 98.0612C32.6218 97.7643 33.2125 96.2481 33.7601 94.7163C34.9704 91.2776 35.3451 90.4648 35.9935 89.8396L36.4978 89.355L36.2672 88.8548C36.0655 88.4015 36.0511 88.1515 36.1952 86.9948C36.3969 85.2598 37.3767 81.4147 38.1548 79.3046C38.6879 77.8353 38.7311 77.6477 38.4718 77.804C37.9098 78.1323 36.2816 80.0392 35.9935 80.6957C35.7197 81.3522 35.5035 81.5554 35.5035 81.1646C35.5035 81.0708 35.3595 80.4612 35.1866 79.836C34.8984 78.7419 34.7831 78.5856 33.3134 76.8818C31.5843 74.8811 31.1809 74.1934 31.1809 73.2399C31.1809 71.9895 32.1751 71.5049 33.6016 72.052C35.1289 72.6459 35.8782 73.6619 36.0367 75.3657L36.1231 76.241L35.6332 76.1316C34.2212 75.8346 33.5439 75.5376 33.0973 75.0218C32.5353 74.3809 32.1895 73.3337 32.4489 73.0523C32.7082 72.771 33.3854 73.3806 33.4431 73.9276C33.5295 74.5685 33.8753 75.0687 34.3797 75.2562C34.7831 75.4125 35.5035 75.35 35.5035 75.1625C35.5035 75.1156 35.201 74.6154 34.8407 74.0683C34.3652 73.3337 34.005 72.9742 33.5728 72.771C32.6794 72.3333 32.0166 72.2552 31.6996 72.5053C31.4402 72.7085 31.4258 72.7866 31.5843 73.3806C31.8437 74.2871 32.9964 75.8815 33.8033 76.4129C34.3508 76.7724 34.6822 76.8818 35.6044 76.9287C36.224 76.9756 36.8148 76.9443 36.9156 76.8662C37.3191 76.5692 35.7341 72.5209 34.9272 71.7706C34.3652 71.2704 33.1261 70.8641 32.3048 70.9266C31.7284 70.9735 31.6564 71.0204 31.2241 71.8175C30.5181 73.0992 30.4748 73.8182 31.008 75.0062C31.2529 75.5376 31.8149 76.4442 32.2471 77.0069C33.4287 78.5699 33.6016 79.3046 33.933 84.3845C34.1779 88.1983 34.1779 88.6829 33.9762 89.8083C33.6016 92.0278 32.6794 94.7788 31.4979 97.311C30.7486 98.9365 30.1002 100.625 29.5383 102.438C28.5873 105.533 28.5729 105.845 29.3221 108.284C30.4604 112.035 31.7861 113.489 35.0713 114.567C36.3969 115.005 37.6505 115.739 39.1346 116.943L40.0712 117.693L40.1576 125.68C40.2009 130.135 40.3161 134.199 40.4026 134.902C40.8781 138.654 42.6215 142.077 45.8059 145.547C47.0595 146.922 47.6935 147.501 48.0969 147.641C48.5292 147.798 49.5666 147.829 52.3764 147.766C54.4224 147.72 56.3965 147.735 56.7855 147.813C57.7509 148.017 59.1053 148.751 61.9439 150.611C64.6672 152.409 65.9063 153.065 68.3559 154.034C70.229 154.785 70.7477 155.222 71.3385 156.52C71.7852 157.504 71.742 158.301 71.1944 159.083C70.6181 159.927 70.3731 160.943 70.3731 162.584C70.3731 164.116 70.6757 166.164 71.0215 166.867C71.2665 167.383 72.1886 168.289 73.4422 169.243C74.3067 169.915 74.4076 170.04 74.4076 170.525C74.4076 171.134 74.0186 172.588 73.2981 174.62L72.7938 176.058L72.203 176.152C71.8716 176.214 71.18 176.402 70.6613 176.589C69.7967 176.886 69.5662 177.074 67.8227 178.949C66.7709 180.075 65.9063 181.028 65.9063 181.091C65.9063 181.216 69.4942 182.294 71.18 182.669C72.4048 182.951 72.765 182.966 73.7592 182.826C75.445 182.576 77.8657 182.013 77.7937 181.872C77.7505 181.81 77.8081 181.669 77.9234 181.575C78.0963 181.419 78.0675 181.122 77.7793 179.653C77.4047 177.699 77.1885 177.355 76.1655 176.933C75.5459 176.667 75.5315 176.636 75.6179 176.12C75.7764 175.011 77.5055 171.634 78.0819 171.29C78.2404 171.181 78.2548 171.04 78.1251 170.462C78.0386 170.071 77.981 169.024 77.981 168.117C77.981 165.538 78.4565 164.304 80.4593 161.709C80.9492 161.068 81.4247 160.38 81.5112 160.193C81.7417 159.646 81.4247 159.364 80.6034 159.364C79.9983 159.364 79.8542 159.427 79.4651 159.911C78.7447 160.818 78.4421 161.631 77.7793 164.507C76.8427 168.602 76.3672 169.384 75.5027 168.258C74.9551 167.57 73.5431 164.929 73.2261 164.022C72.9091 163.1 72.8803 161.599 73.1828 160.834C73.6872 159.505 75.2289 157.801 76.9148 156.707L77.4623 156.348L76.9292 157.098C76.2231 158.114 75.9061 158.817 75.7188 159.864C75.5171 160.865 75.6035 161.599 76.0358 162.694C76.3384 163.506 76.5689 163.444 76.5689 162.569C76.5689 161.709 76.9868 160.255 77.6496 158.786C78.2116 157.551 78.4709 157.192 79.5516 156.082C80.9781 154.644 81.9002 153.503 81.9002 153.175C81.9002 152.799 81.0357 152.925 79.7533 153.503C77.7505 154.394 75.7332 155.769 74.2923 157.239C73.8745 157.661 73.5142 157.973 73.471 157.926C73.3557 157.817 74.1626 156.582 75.1857 155.269C76.7563 153.284 79.3931 150.986 81.785 149.548C82.7359 148.986 85.3007 147.798 85.5889 147.798C85.7042 147.798 85.7906 147.735 85.7906 147.657C85.7906 147.485 83.7734 147.579 82.6207 147.813C80.3297 148.267 78.1971 149.408 75.9926 151.315C75.1569 152.049 74.4364 152.643 74.3788 152.643C74.1482 152.643 74.2779 151.893 74.6381 151.096C75.3586 149.533 76.5689 148.47 78.4133 147.782C78.8455 147.626 79.2922 147.407 79.3931 147.313C79.7245 147.016 79.6236 146.469 79.0905 145.672C77.5487 143.359 77.4191 142.89 78.0963 142.014C79.1481 140.67 81.0069 140.764 81.6985 142.202C82.0731 142.999 81.8714 143.171 81.0933 142.718C80.2432 142.233 80.0127 142.233 79.4651 142.733C78.3989 143.702 79.3354 145.297 80.9781 145.297C82.4334 145.297 84.1912 143.937 84.6956 142.421C84.8108 142.061 84.9549 141.327 84.9981 140.748C85.1134 139.514 85.2863 139.076 85.9203 138.623C86.6264 138.107 87.0586 138.154 87.3036 138.763C87.4909 139.248 87.5053 139.263 87.5197 138.888C87.5197 138.326 87.1739 137.857 86.684 137.747C85.9203 137.575 85.2575 137.919 84.2489 138.966C83.7158 139.514 83.2691 139.951 83.2547 139.936C83.1826 139.857 83.6149 137.638 83.759 137.356C83.831 137.2 84.3353 136.622 84.8541 136.09L85.8195 135.121L84.9693 134.137C84.4938 133.605 83.9751 132.824 83.7878 132.402C82.8368 130.198 82.8224 125.337 83.759 123.023C84.1624 122.023 85.0414 120.788 85.5601 120.491C85.9347 120.272 85.9924 120.288 86.2949 120.601C87.1163 121.429 87.7214 123.82 87.635 125.884C87.5773 127.494 87.4765 127.681 86.7272 127.525C86.1076 127.4 85.9347 127.197 85.9347 126.603C85.9347 125.962 86.2373 125.899 86.7704 126.415C87.1018 126.743 87.1307 126.759 87.0298 126.462C86.9578 126.29 86.8425 125.962 86.7704 125.712C86.4823 124.852 85.4736 125.055 84.9837 126.102C84.6523 126.806 84.9117 127.634 85.7762 128.572C86.5255 129.385 87.1595 129.666 87.4909 129.307C87.8223 128.932 88.0817 127.384 88.1825 125.212C88.2834 122.758 88.1393 121.835 86.7272 116.458C86.2229 114.473 85.7186 112.457 85.6465 111.972C85.344 110.253 85.9059 109.221 87.7935 108.034C89.1335 107.189 90.0701 106.971 92.1306 107.033C93.0815 107.064 93.8596 107.049 93.8452 107.002C93.8452 106.955 93.2833 106.533 92.6061 106.064C90.7185 104.767 89.1623 103.016 88.3554 101.297C86.0068 96.295 79.566 78.6168 79.1049 75.8658C78.9608 74.9905 79.3499 74.631 81.7561 73.5056C82.9089 72.9742 84.2633 72.2239 84.782 71.8488C85.6898 71.1767 90.2574 66.3781 90.2574 66.0811C90.2574 66.0029 89.6522 66.1436 88.9318 66.3937C87.1739 67.0033 85.6321 67.1127 83.6293 66.7688C80.9637 66.3156 80.9492 66.4875 83.9463 64.7369C86.6408 63.1582 88.4131 62.0015 88.6004 61.6889C88.7589 61.3919 87.8223 60.5948 86.9722 60.329C85.8771 59.9852 85.3296 60.1415 82.3613 61.6576C79.5228 63.1113 78.37 63.5802 76.1367 64.1742C74.422 64.6275 71.0359 65.1745 70.5748 65.0807C70.4307 65.0495 73.6151 63.8772 77.6496 62.4704C85.8339 59.6257 88.3122 58.5628 93.8596 55.5617C97.5483 53.561 100.315 51.6853 101.612 50.2942C103.586 48.1997 105.531 43.2761 107.159 36.2736C108.586 30.1777 108.802 27.6299 108.557 20.4086L108.398 15.7976L106.669 7.98228C105.718 3.68387 104.911 0.0888413 104.882 0.0106884C104.839 -0.083095 104.839 0.448344 104.882 1.18298ZM106.972 15.6413C107.26 19.502 106.929 22.8782 105.805 27.7549C105.416 29.4274 104.71 32.0221 104.248 33.507C103.773 34.9919 103.456 36.1955 103.557 36.1486C104.061 35.9766 106.583 29.8807 107.26 27.1766C107.678 25.551 107.908 25.6292 107.779 27.3486C107.649 29.0679 107.246 30.9592 106.626 32.8192C106.122 34.3198 106.107 34.3979 106.15 36.4143C106.179 38.4306 106.064 39.6342 105.833 39.6342C105.761 39.6342 105.689 38.8526 105.646 37.9148C105.574 36.0704 105.401 35.5546 105.027 36.1017C104.652 36.6487 103.975 38.6026 103.283 41.1191C102.894 42.4946 102.577 43.6512 102.548 43.6825C102.534 43.7138 102.332 43.5887 102.102 43.4168C101.496 42.9322 100.949 41.9944 100.747 41.0722C100.646 40.6189 100.531 40.2594 100.473 40.2594C100.43 40.2594 100.315 40.5251 100.228 40.869C99.7673 42.5102 100.387 43.7138 101.885 44.1514C103.514 44.6203 104.537 42.9479 104.767 39.4466C104.81 38.6963 104.897 38.118 104.954 38.1493C105.171 38.2899 105.257 40.3532 105.099 41.4317C104.81 43.4011 104.378 44.1358 102.534 45.8551C101.511 46.793 101.165 47.4495 100.934 48.7468C100.718 49.9972 100.401 50.6537 99.7096 51.2633C99.1189 51.7948 97.9806 52.4669 97.3322 52.6857L96.9864 52.7951L97.0872 50.7944C97.2889 46.1052 97.3466 43.6981 97.2601 43.6981C97.116 43.6981 96.4965 45.1205 96.2515 46.0427C96.1218 46.5116 95.9489 47.637 95.8769 48.5436C95.6463 51.3727 95.142 52.9045 94.0614 54.0925C93.4274 54.7802 92.2891 55.5617 91.4822 55.8743C91.0067 56.0619 91.0211 56.0619 92.1306 55.2179C93.4418 54.2175 93.7876 52.6232 93.1536 50.5443C92.7501 49.2313 92.534 49.0281 92.8222 50.2317C92.9663 50.8257 93.0095 51.3884 92.9375 51.9042C92.8366 52.6232 92.7357 52.7795 91.511 54.0925C89.7531 55.9525 88.2978 57.2811 88.4275 56.9372C88.4851 56.7809 88.5716 56.0306 88.6148 55.296L88.7012 53.9361L88.1969 55.0303C87.2748 56.9685 85.5601 58.5941 83.5428 59.4225C82.2172 59.9695 82.2316 59.8914 83.6149 59.1568C84.5515 58.6566 85.0846 58.2346 85.9924 57.2655C86.8713 56.3276 87.0298 56.0932 86.6408 56.3433C85.8627 56.8278 85.5457 56.7653 84.782 55.9212C84.2201 55.3116 84.0616 55.0303 83.9175 54.28C83.831 53.7955 83.7158 53.3891 83.6725 53.3891C83.514 53.3891 83.759 54.9834 83.9607 55.3273C84.3497 55.9838 84.6667 57.1248 84.5803 57.5312C84.4074 58.2502 82.9953 58.6409 82.1164 58.2033C81.9002 58.0939 81.6265 57.7969 81.4968 57.5468L81.2662 57.0623L81.151 57.9219C81.0789 58.3909 80.8628 59.1568 80.6611 59.6257L80.3008 60.4854L79.4939 59.5163C78.8455 58.7191 77.8513 57.9219 77.5199 57.9219C77.4911 57.9219 77.6784 58.3909 77.9522 58.9536C78.226 59.5163 78.4421 60.0633 78.4421 60.1727C78.4421 60.3759 77.275 61.1418 75.6179 62.0328C74.2635 62.7674 71.8572 63.674 70.9206 63.799L70.157 63.8928L71.0647 63.0019C71.5546 62.5173 72.0589 61.9077 72.1742 61.6576C72.4192 61.1575 72.4624 59.7976 72.2463 59.7976C71.9005 59.7976 70.7621 61.1731 70.2722 62.1735C69.4653 63.8303 68.7017 64.3305 65.8631 65.0182C64.379 65.3777 63.9323 65.4246 61.6989 65.3934L59.2062 65.3621L57.9959 65.8623C55.4167 66.9251 53.3706 68.6601 52.4628 70.5358C51.0508 73.49 50.6329 77.0538 51.3678 80.0392C51.8144 81.8054 53.2409 84.0562 54.4369 84.869C54.8115 85.1191 55.0564 85.3692 54.9988 85.4317C54.9412 85.4943 54.3216 85.6818 53.63 85.8694C52.9527 86.0413 52.1458 86.3071 51.8721 86.4477C51.1084 86.8385 49.7828 88.4641 48.7453 90.2772C47.6791 92.1373 47.4629 92.3405 47.0451 91.9341C46.5984 91.4964 46.656 91.0744 47.1892 90.9493C47.5206 90.8868 47.607 90.793 47.5782 90.5273C47.5062 89.9959 46.901 90.0271 46.2814 90.5898C45.633 91.1682 45.5898 91.6058 46.0509 92.6218C46.4975 93.5753 47.0019 93.6378 48.1402 92.8719C48.8606 92.403 51.1948 91.4495 51.3101 91.5902C51.3389 91.6214 50.9787 91.9184 50.5176 92.2779C48.6012 93.7316 47.6214 94.9976 47.607 96.0449C47.607 96.2481 47.8664 97.0296 48.1834 97.7643C49.2496 100.312 49.1488 101.094 47.3621 104.016C46.6993 105.095 46.0797 106.252 45.9932 106.596C45.8347 107.127 45.8636 107.268 46.1229 107.768C46.2814 108.08 46.7281 108.534 47.1027 108.799C48.2554 109.581 49.3217 109.378 51.0219 108.049C51.7856 107.455 52.0017 106.924 51.8 106.127C51.5407 105.079 51.2813 104.814 50.5176 104.814C49.5522 104.814 48.8174 105.079 48.486 105.533C48.1978 105.939 47.924 107.236 48.0969 107.424C48.1402 107.486 48.5724 107.33 49.0479 107.08C49.6675 106.767 49.9125 106.549 49.9125 106.33C49.9125 106.111 49.8548 106.064 49.6675 106.142C49.0335 106.408 49.0047 106.392 49.437 105.908C49.9125 105.376 50.2583 105.345 50.8202 105.783C51.0652 105.986 51.0508 106.033 50.6329 106.658C50.3159 107.143 49.9125 107.471 49.2929 107.799C48.803 108.049 48.2843 108.252 48.1546 108.252C47.6503 108.252 47.1604 106.549 47.4629 105.892C47.7511 105.298 49.3505 103.579 50.0277 103.141C50.9499 102.547 51.2381 102.704 51.8433 104.079C52.434 105.423 52.9816 107.268 53.313 109.034C53.5003 110.081 53.5147 110.441 53.385 110.925C53.1833 111.66 52.5925 112.051 51.8144 111.972C51.3533 111.926 51.2381 111.847 50.9931 111.3C50.6617 110.55 50.6473 109.659 50.9931 109.096C51.1372 108.846 51.166 108.737 51.0364 108.831C50.9355 108.893 50.4888 109.206 50.0421 109.534C48.9903 110.284 48.2554 110.488 46.5264 110.503C44.8549 110.519 44.3362 110.3 43.3276 109.159C42.0596 107.721 41.6273 106.627 40.9213 103.126C40.734 102.141 40.5467 101.328 40.5178 101.297C40.5034 101.266 40.4746 102.938 40.4746 105.017C40.4746 109.253 40.3594 110.597 40.0135 110.597C39.2931 110.597 38.5438 110.159 37.7513 109.3C37.2903 108.784 36.9444 108.502 37.0021 108.659C37.2182 109.487 37.3767 110.503 37.3047 110.753C37.0885 111.519 34.8119 111.801 33.7313 111.207C32.8667 110.722 31.5267 109.128 31.0224 107.971C30.5901 107.018 30.1867 105.283 30.1723 104.47C30.1723 103.907 30.8639 103.063 31.8293 102.469C32.6362 101.969 33.1261 101.891 33.5007 102.203C34.0627 102.672 35.4027 104.595 35.5035 105.048C35.6332 105.658 35.4459 106.142 35.3018 105.548C35.1866 105.048 33.9618 103.845 33.1117 103.391C31.9445 102.782 31.325 103.329 31.325 105.001C31.325 105.736 31.397 105.97 31.6996 106.377C32.1607 106.955 33.4287 107.783 33.8753 107.783C34.1779 107.783 34.639 107.408 34.639 107.158C34.639 106.908 33.9186 106.095 33.6304 106.017C33.3854 105.955 33.3566 106.002 33.4287 106.314C33.5583 106.877 33.1693 106.799 32.6362 106.142C32.3048 105.72 32.1895 105.439 32.1895 104.97C32.1895 104.642 32.2471 104.329 32.3048 104.282C32.4633 104.188 34.0771 105.314 34.6102 105.908C34.8407 106.158 35.1289 106.752 35.2874 107.315C35.5035 108.112 35.5756 108.221 35.6765 107.955C35.8782 107.33 36.1231 105.048 36.0223 104.61C35.979 104.376 35.6044 103.798 35.2154 103.329C34.8263 102.86 34.4085 102.266 34.2788 101.985C34.0482 101.516 34.0482 101.437 34.3797 100.546C34.5526 100.046 34.956 99.3117 35.2442 98.9522C35.8494 98.2019 37.8378 96.9984 38.4574 96.9984C39.1778 96.9984 40.3594 97.4673 40.9213 97.9987C41.6417 98.6552 41.9443 98.8271 42.7512 99.0303C43.342 99.171 43.6014 99.1241 45.2296 98.577C46.2382 98.2332 47.1027 97.9206 47.1459 97.858C47.2036 97.8111 47.1459 97.7017 47.0307 97.6236C46.8578 97.4985 46.8578 97.4048 47.0163 96.9202C47.218 96.295 47.1459 95.4978 46.8001 94.7788L46.5984 94.3412L45.7627 95.2477C43.976 97.1859 42.6071 97.139 41.6706 95.1383C41.0222 93.7785 41.051 93.7003 42.9674 90.6367C44.0624 88.8705 44.3506 87.7607 44.2498 85.5412C44.1345 82.712 43.7454 79.414 43.4284 78.4918C42.4342 75.6157 38.3853 70.2857 36.2672 69.0665C34.8119 68.2069 34.0627 68.0818 30.7198 68.0818C27.8668 68.0818 27.7083 68.0662 27.4202 67.7536C27.0311 67.3315 27.1176 66.55 27.6651 65.7841C28.1406 65.112 28.789 64.7994 29.7112 64.7994C30.8783 64.7994 31.9445 65.8154 31.0368 66.0498L30.6766 66.1436L31.08 66.253C31.4979 66.3781 32.031 66.1592 32.0598 65.8466C32.1319 65.0495 31.6708 64.5806 30.3163 64.096C29.7112 63.8772 28.861 63.4552 28.4288 63.1582C25.3597 61.0637 24.9562 60.923 26.3827 62.3923C27.4634 63.5177 27.766 64.1429 27.4202 64.5806C27.0023 65.1276 25.1003 66.7063 24.7257 66.8157C24.1781 66.9877 22.6508 66.7376 21.8439 66.3624C20.9506 65.9248 19.7258 64.8775 19.3656 64.2367C19.0342 63.6584 19.0774 63.4864 19.7546 62.4861C20.0428 62.0797 20.2013 61.9859 20.6336 61.9859C20.9217 62.0015 21.3252 62.0953 21.5269 62.2203C22.0744 62.5642 22.1897 62.5017 21.8007 62.0484C21.2964 61.4544 20.7632 61.2044 20.014 61.2044C19.2071 61.2044 18.4866 60.8292 17.0746 59.6569C15.2734 58.172 15.4031 58.2502 15.6769 58.8129C15.7922 59.0786 16.3541 59.8289 16.9161 60.4854C17.4636 61.1262 17.9535 61.8296 18.0111 62.0484C18.0544 62.2829 17.9823 62.7049 17.795 63.1582C17.5068 63.8772 17.4924 63.8772 16.9593 63.7678C15.6193 63.5021 14.9997 63.1426 12.6942 61.3138C12.1899 60.9074 11.066 60.1571 10.2015 59.6413C9.33697 59.1255 8.48685 58.5159 8.31394 58.3127C8.14103 58.0939 7.86726 57.4374 7.70877 56.8591C7.53586 56.2651 7.10359 55.3116 6.68573 54.6395C6.03733 53.5766 5.99411 53.4516 6.21024 53.264C6.51283 53.0296 6.54164 53.0296 7.75199 53.3109C8.29953 53.436 8.96234 53.6704 9.2217 53.8424C9.84128 54.2331 9.84128 54.0612 9.23611 53.2171C8.55889 52.2637 8.14103 51.9823 7.13241 51.826C6.52724 51.7322 6.06615 51.5603 5.74915 51.2946C5.47538 51.0758 5.21602 50.8882 5.15839 50.8882C4.89903 50.8882 5.44657 53.3891 6.02292 54.8271C6.1526 55.1553 6.22465 55.4211 6.19583 55.4211C5.9797 55.4211 2.56479 48.4029 2.21897 47.2306C1.97402 46.4178 0.936579 41.7599 0.979806 41.6974C1.00862 41.6818 1.26798 42.1038 1.55616 42.6509C2.08929 43.62 3.32846 45.1987 3.47255 45.058C3.50136 45.0111 3.32846 44.636 3.09792 44.2139C2.01725 42.307 1.34003 40.0875 1.36885 38.4463V37.5241L1.58498 38.3837C1.81552 39.3372 4.50999 45.4487 5.5042 47.2932C5.85002 47.934 6.42637 48.9187 6.7866 49.4814L7.42059 50.4974L6.75778 49.7159C6.39756 49.2782 5.73475 48.3404 5.28807 47.6214C4.48117 46.3397 2.96824 44.8548 2.5936 44.9955C2.13252 45.1518 2.39188 46.6523 3.18437 48.6061C3.90481 50.3411 4.16417 50.6068 3.80395 49.247C3.28523 47.2932 3.0691 46.3241 3.14114 46.2459C3.27082 46.0896 3.77513 46.5273 4.62526 47.4964C5.48979 48.5123 6.49842 50.1067 6.26787 50.1067C6.02292 50.1067 4.82698 48.7155 4.35149 47.9027C4.10654 47.4495 3.876 47.1525 3.84718 47.2463C3.78954 47.4338 4.65408 51.5447 4.76935 51.6697C4.81258 51.7166 4.81258 51.1852 4.75494 50.4974L4.66849 49.247L5.02871 49.8253C5.5042 50.5756 6.06615 50.8882 6.93068 50.8882H7.62231L9.32256 52.7951C10.7635 54.4207 12.8816 57.4374 12.8816 57.8594C12.8816 57.9219 12.3484 57.4061 11.6856 56.7184C10.3744 55.3429 9.69719 54.8583 8.21308 54.2488C6.85864 53.6861 6.68573 53.7642 7.30532 54.6395C7.80963 55.3585 8.22749 55.6711 10.7635 57.2655C11.5415 57.75 12.1179 58.172 12.0458 58.2033C11.9738 58.2189 11.3974 58.0314 10.7779 57.75C8.63094 56.8278 8.40039 56.8434 9.50988 57.9063C10.2736 58.6409 11.0949 58.9536 12.579 59.0786C13.6308 59.1724 14.7547 59.5788 14.9709 59.9383C15.1149 60.204 14.625 60.7354 14.236 60.7354C13.9046 60.7354 13.4579 60.3759 13.4579 60.0946C13.4579 60.0164 13.4003 59.9539 13.3138 59.9539C13.0257 59.9539 13.1697 60.7511 13.53 61.1262C13.9334 61.5795 14.4665 61.6264 15.0573 61.2513C15.5616 60.923 15.6769 61.0168 16.3253 62.2985L16.772 63.1582L16.6855 62.3767C16.5558 61.3294 15.8642 59.9227 14.4665 57.875C13.8181 56.9372 13.3859 56.2338 13.4867 56.312C13.5876 56.3745 14.3801 56.9528 15.2446 57.5624C17.161 58.9379 18.6739 59.7663 20.6624 60.501C22.4491 61.1731 23.1983 61.6264 23.8179 62.3767C24.4519 63.1582 24.4375 63.9084 23.8035 64.3461C23.2128 64.7369 22.5788 64.6587 21.8871 64.0804C21.2387 63.5489 21.1955 63.9241 21.8151 64.7056C22.377 65.3934 23.0687 65.6434 24.1205 65.534C25.1435 65.4402 25.7775 65.0964 26.0801 64.4555C26.5268 63.5333 25.8928 62.0328 24.6969 61.1887C24.2934 60.9074 23.9764 60.6573 23.9764 60.6417C23.9764 60.5479 26.5412 61.3607 27.4346 61.7202C29.6535 62.6267 32.7082 64.5962 32.8523 65.2058C32.8955 65.3934 32.8667 65.706 32.7803 65.8779C32.5785 66.2843 31.6131 66.8314 31.0944 66.8314C30.6045 66.8314 29.74 66.3781 29.74 66.128C29.74 65.9248 29.8264 65.8779 30.6766 65.6591C31.0656 65.5497 31.08 65.534 30.8207 65.4246C30.0714 65.0807 29.0195 65.5497 29.0195 66.2061C29.0195 66.6125 29.8985 67.3941 30.4892 67.5191C31.4835 67.7223 33.4863 66.6751 35.2874 65.0338L36.1952 64.2054L36.2096 65.3777C36.2384 67.3472 37.0597 69.2072 38.5438 70.6452C40.7196 72.771 43.7454 72.2395 43.7454 69.723C43.7454 69.3479 43.659 68.879 43.5581 68.6914C43.3852 68.3319 43.3852 68.3319 43.27 68.6289C43.2123 68.8008 43.1547 69.0978 43.1547 69.2854C43.1403 69.4886 42.9674 69.8637 42.7368 70.1294C41.9731 71.0516 40.4746 70.6765 39.2643 69.2541C37.7802 67.5035 37.3479 64.9713 38.2412 63.08C38.6015 62.3141 39.8839 60.923 39.9415 61.2356C39.9559 61.345 39.6821 62.3923 39.3219 63.5489C38.8752 64.987 38.6735 65.9092 38.6735 66.4719C38.6735 67.3472 38.9473 68.2537 39.3651 68.7539C40.0279 69.5511 41.5841 69.9106 42.2325 69.4104C42.9385 68.879 42.953 67.3784 42.2757 66.4875C41.9587 66.0811 41.9155 66.1749 42.1461 66.7376C42.3766 67.2847 42.1893 68.1912 41.7714 68.4882C41.4832 68.6914 41.3392 68.707 40.9069 68.5507C40.172 68.285 39.8262 67.6129 39.8262 66.4406C39.8262 65.3621 40.1432 64.518 41.4832 62.1422C42.391 60.501 42.391 60.501 42.4775 60.5948C42.5063 60.626 42.9674 62.6267 43.4861 65.0182C44.0192 67.4253 44.6388 70.0669 44.8693 70.8797C45.4169 72.8335 45.5033 73.5681 45.316 74.7873C45.1719 75.772 44.8549 76.366 44.4947 76.366C44.2353 76.366 43.342 75.4907 42.6792 74.5998C41.9731 73.615 41.9876 73.8964 42.708 75.3969C43.3852 76.8193 44.0192 77.6946 44.61 78.0229C44.9846 78.2417 45.0711 78.2417 45.3737 78.0229C45.7915 77.7259 46.1229 76.663 46.3102 75.0218C46.4975 73.4118 46.339 72.1301 45.6474 69.7855C45.0567 67.7223 44.8837 66.0498 45.1575 64.7838C45.4889 63.2051 47.2468 59.782 47.607 60.0321C47.9096 60.2353 48.803 65.2996 49.0623 68.285C49.2929 71.0829 49.1632 77.1788 48.8174 79.414L48.5436 81.1333L48.4427 75.0374C48.3563 69.2385 48.1402 65.5653 47.7367 63.377C47.4341 61.7202 47.1748 61.7514 46.7137 63.5021C46.3102 65.0651 46.2238 67.6598 46.512 69.4886C46.8434 71.5205 47.0163 74.6935 46.8722 76.3347C46.8145 77.085 46.4543 79.8673 46.0941 82.5245C45.3592 87.8545 45.1575 88.6204 43.7022 92.0278C42.7656 94.1849 42.6936 94.6694 43.1691 95.0289C43.976 95.6385 45.878 95.1071 45.878 94.2786C45.878 93.7003 45.633 93.122 45.3016 92.9344C45.0567 92.7937 44.9558 92.8406 44.6388 93.1689C44.2209 93.6222 44.293 93.9191 44.8117 93.7785C45.2872 93.6534 45.2584 93.9348 44.7397 94.3255C44.2498 94.7007 43.8895 94.7476 43.7743 94.4349C43.659 94.1067 44.1057 92.2623 44.5523 91.1838C44.7829 90.6367 45.4169 89.4957 45.95 88.636C46.9442 87.0573 47.7223 85.4317 48.0537 84.2126C48.3707 83.0559 49.6819 82.3838 50.2727 83.0872C50.7049 83.603 50.6761 84.8065 50.215 85.338C49.7828 85.8381 49.0479 86.1039 48.3131 86.0257C48.0105 85.9944 47.7511 86.0101 47.7511 86.057C47.7511 86.2602 48.558 86.9792 48.9471 87.1355C49.5811 87.4012 49.8692 87.3387 50.4024 86.8385C51.5263 85.76 51.6703 83.7436 50.9211 79.7266C50.3735 76.8506 50.3591 75.8971 50.5897 68.0818C50.7194 63.8928 50.7626 63.3301 51.1084 61.9234C51.3245 61.0793 51.5263 60.3447 51.5695 60.2978C51.6127 60.2509 51.6415 60.6417 51.6415 61.1575C51.6415 62.3298 52.0882 64.268 52.6069 65.3152C53.0968 66.2999 53.702 66.6751 54.7683 66.6751C55.4023 66.6751 55.604 66.5969 56.0218 66.1905C56.6414 65.6122 56.8143 64.8932 56.4829 64.2054C56.2236 63.6584 55.8489 63.3926 55.359 63.3926C54.97 63.3926 54.3792 63.799 54.3792 64.0648C54.3792 64.1898 54.4224 64.1898 54.5521 64.0491C54.7971 63.7834 55.6184 63.8147 55.8777 64.1116C56.1803 64.4399 56.1659 64.8307 55.8201 65.2996C55.2149 66.1436 53.9614 65.8935 53.6588 64.8775C53.4282 64.096 53.5723 62.7518 54.019 61.7514C54.3792 60.923 54.8979 60.1415 54.9988 60.2665C55.0276 60.3134 55.359 60.8449 55.7192 61.4701C57.7653 64.8307 60.4886 65.8623 62.2609 63.9397C62.7508 63.4083 62.8805 63.1582 62.8805 62.7362C62.8805 61.6576 61.8286 60.798 60.3301 60.6573C59.5664 60.5948 59.5376 60.5948 59.9987 60.7511C61.0505 61.1106 61.3099 61.2513 61.6557 61.7045C62.2897 62.5173 62.0736 63.2207 61.0938 63.6271C60.2581 63.971 59.5808 63.8459 58.8892 63.1894C57.3186 61.6889 57.6212 59.36 59.4656 58.7973C61.5549 58.1564 62.2897 58.3127 62.6787 59.4694C63.3127 61.3607 63.7882 62.4392 64.1052 62.7674C64.5519 63.2207 65.5605 63.3614 66.1513 63.0331C66.598 62.7674 67.0591 61.9546 67.0591 61.3919C67.0591 60.9699 66.4251 60.1727 65.8487 59.8445L65.402 59.5944L65.8487 60.0477C66.9438 61.1731 66.3386 62.7674 64.9698 62.3923C64.3934 62.236 64.134 61.6264 64.062 60.2978C63.99 58.9067 64.0044 58.891 65.3876 58.0939C66.3386 57.5468 66.9294 57.4999 67.7507 57.8594C68.4855 58.172 68.7017 58.6253 68.5864 59.5475C68.4423 60.5166 68.572 60.8449 69.1483 61.0481C69.8544 61.2981 70.5028 60.9074 70.5172 60.204C70.5172 59.9539 70.474 59.9695 70.1282 60.329C69.7103 60.7823 69.4077 60.798 69.1628 60.3916C68.961 60.0321 69.1916 59.36 69.6527 59.0004C69.9552 58.7504 70.3587 58.7035 72.3904 58.6722C74.5949 58.6409 74.811 58.6566 75.373 58.9848C75.7044 59.1724 76.0214 59.4068 76.079 59.5006C76.2231 59.7663 75.6612 60.2665 75.0848 60.3759C74.6093 60.4541 74.4941 60.4072 73.9897 59.8445C73.5719 59.3912 73.3846 59.2818 73.3269 59.4381C73.1828 59.8601 73.2549 60.1727 73.5575 60.5166C73.9897 61.0168 73.8024 61.4388 72.8803 62.0015C72.448 62.2672 72.1022 62.5173 72.1022 62.5486C72.1022 62.5642 72.5056 62.4392 73.0099 62.236C73.4998 62.0328 74.5229 61.6264 75.2721 61.345C76.0214 61.0793 76.7851 60.7042 76.9724 60.5322C77.4335 60.0633 77.3902 59.4225 76.8571 59.0161C76.6266 58.8285 76.4248 58.6097 76.4248 58.5315C76.4248 58.4534 76.6554 58.1095 76.9436 57.7656C77.2317 57.4218 77.4479 57.0935 77.4047 57.0623C77.3758 57.031 76.9292 57.2811 76.4104 57.6093C75.3154 58.344 74.6526 58.4065 73.6872 57.875C72.6785 57.328 72.7938 57.1873 74.3644 57.1092C75.4739 57.0466 75.9638 56.9372 76.6266 56.609C77.6064 56.1401 79.0185 55.0615 79.7245 54.2644C80.3441 53.561 80.6322 53.5141 80.0847 54.2019C79.1625 55.4054 78.9464 56.6871 79.4651 57.9219L79.7677 58.6253L80.0271 57.6562C80.3585 56.437 81.0789 54.8271 81.6121 54.155L82.0299 53.6235L81.8714 54.1862C81.4824 55.593 82.419 56.9841 83.7302 56.9841H84.1048L83.8166 56.6246C83.3123 56.0306 82.9089 55.0615 82.9089 54.4363C82.9089 53.2953 83.9895 52.2949 85.2143 52.2949C86.6552 52.2949 87.2459 54.3738 85.9059 54.7177C85.5889 54.8115 85.4304 54.7333 85.0702 54.3582C84.8396 54.0925 84.6379 53.7329 84.6379 53.5454C84.6379 53.3422 84.5803 53.2484 84.4794 53.3266C84.2201 53.4985 84.4362 54.6239 84.7964 55.0459C85.2719 55.593 86.0788 55.8274 86.5975 55.5617C87.2748 55.2179 88.2546 53.0139 88.3698 51.6072L88.4563 50.4974L88.7877 51.107C89.1191 51.7322 89.537 53.2015 89.537 53.7798C89.537 53.9518 89.4505 54.4676 89.3496 54.9052C89.1191 55.8274 89.2632 55.8431 89.681 54.9678C90.4447 53.3266 90.3583 51.9667 89.3929 50.263C89.0903 49.7159 88.8741 49.2001 88.9174 49.1219C89.0615 48.8718 89.9404 49.1219 90.5888 49.6221C91.3092 50.1535 91.7271 50.9663 91.7559 51.8417C91.7703 52.6232 91.5974 52.7795 91.2516 52.3106C91.0499 52.0448 90.9923 51.7948 91.0499 51.529C91.1219 51.2321 91.0931 51.1695 90.9778 51.2946C90.8914 51.3884 90.7905 51.701 90.7473 52.0136C90.6753 52.4356 90.7329 52.6388 91.0067 52.9983C91.3092 53.3578 91.3957 53.4047 91.6551 53.264C91.9721 53.0765 92.4187 52.1855 92.4187 51.7166C92.4187 51.5603 92.2602 50.8882 92.0585 50.2161C91.6983 49.0281 91.5686 47.4495 91.828 47.4495C91.9 47.4495 92.3467 47.9027 92.8222 48.4498C93.7011 49.4814 94.2919 50.7319 94.2919 51.6385C94.3063 51.9823 94.3207 52.0136 94.436 51.8104C94.508 51.6697 94.6377 50.5756 94.7098 49.372C94.8106 47.6058 94.9259 46.918 95.2861 45.7301C95.8192 44.0107 96.6117 42.3226 97.2025 41.6349C97.5915 41.1816 97.6348 41.166 97.8653 41.4161C98.067 41.6349 98.1247 42.0882 98.1823 43.9013C98.2688 46.3397 98.2111 46.3084 98.7731 44.1045C99.018 43.1511 99.1909 43.6981 99.1909 45.4175C99.1909 47.1212 98.946 48.4186 98.3696 49.7315C98.1535 50.2473 97.9518 50.7162 97.9229 50.81C97.9085 50.8882 98.2111 50.5756 98.6146 50.1067C100.214 48.2466 100.545 46.5273 99.8393 43.7606C99.1045 40.9003 99.3494 38.8839 100.43 38.9621C101.021 39.009 101.583 39.7436 101.698 40.6345C101.756 41.0253 101.857 41.3223 101.929 41.2754C102.102 41.1503 102.591 39.431 102.721 38.4931C102.851 37.5241 102.62 37.5397 102.145 38.4931L101.77 39.2434L101.857 37.7898C101.972 35.8516 102.462 33.804 103.341 31.7407C103.73 30.7873 104.205 29.5056 104.378 28.8803C105.084 26.2544 105.747 21.956 106.28 16.329C106.467 14.4533 106.655 12.9997 106.698 13.1091C106.756 13.2185 106.871 14.3439 106.972 15.6413ZM83.9895 62.9081C82.9377 63.9241 79.1625 66.9251 79.1625 66.7376C79.1625 66.6907 79.4075 66.3156 79.7101 65.9092C80.7331 64.5337 80.7331 64.5649 80.3153 64.7994C78.298 65.9561 76.5257 67.3159 75.3874 68.582C73.3702 70.8172 73.3125 71.0204 75.0272 69.8012C76.7851 68.5351 77.0732 68.4257 78.7735 68.3163L80.0991 68.2225L76.9724 69.9575C75.2433 70.8953 73.8312 71.7237 73.8312 71.7706C73.8312 71.8331 74.8543 71.8331 76.1079 71.7863C78.0098 71.7081 78.6294 71.6143 79.955 71.2236C81.6121 70.739 83.4276 70.0825 84.782 69.4886C86.439 68.7696 86.4679 68.8164 84.2057 68.6289L82.1164 68.4726L84.9261 68.1131C86.4679 67.9099 87.8655 67.7067 88.024 67.6754C88.7877 67.4722 85.8195 69.9262 84.2633 70.7859C83.2259 71.3486 80.906 72.2083 79.2634 72.6147C78.0531 72.9117 77.6064 72.9585 76.1655 72.8804C75.2433 72.8179 74.2923 72.7397 74.0474 72.6772C73.6583 72.5834 73.6727 72.6147 74.3356 73.193C75.9926 74.6154 76.2519 75.2719 75.9926 77.4445C75.762 79.3671 75.4162 80.555 74.7822 81.6804C73.8601 83.2904 73.788 85.1973 74.5805 86.2914C75.2433 87.2136 76.9148 87.6044 77.8657 87.0729C78.5862 86.6666 78.9464 85.5255 78.5862 84.7909C78.3989 84.4158 77.7072 84.025 77.2317 84.025C76.7995 84.025 76.2808 84.6815 76.2808 85.2285V85.6193L76.7274 85.2129C77.2317 84.7596 77.3038 84.7284 77.5487 84.9941C77.8225 85.2911 77.7649 86.0257 77.4479 86.2133C77.0877 86.4165 76.3384 86.4165 75.9782 86.2133C75.1569 85.7287 75.0272 83.7749 75.762 82.6495C75.9782 82.3056 76.4248 81.8211 76.7563 81.5866L77.347 81.1646L77.8225 81.7742C79.249 83.5717 80.3153 85.8225 80.8484 88.1671C81.0645 89.1049 81.0501 89.1518 80.7475 89.8083C80.5746 90.1834 80.0559 90.9024 79.6092 91.387C78.2836 92.8094 76.7995 93.4502 75.6035 93.1063C73.9609 92.6218 74.2347 90.793 76.0214 90.2616C76.6266 90.0896 78.0819 90.1365 78.6582 90.3554C79.2202 90.5586 78.2548 89.777 77.4479 89.3706C76.007 88.6516 73.9609 89.1518 73.0676 90.4492C72.7073 90.9962 72.6065 92.0904 72.8226 93.1063C72.9523 93.7003 73.1684 94.0911 73.6007 94.5756C74.4076 95.4353 75.4018 95.7479 77.7216 95.8573C79.7821 95.9511 80.1712 96.1074 80.1712 96.8733C80.1712 97.139 79.8974 98.03 79.566 98.8428C78.7879 100.765 77.5776 102.188 76.0502 102.969C75.1713 103.423 74.9119 103.485 73.8889 103.469C72.9235 103.469 72.5777 103.391 72.0157 103.079C71.1512 102.594 70.6613 101.859 70.6613 101.031C70.6613 100.203 71.0791 99.593 72.0013 99.0772C73.4278 98.2801 74.9984 98.6239 75.0992 99.7493C75.1569 100.437 74.7534 100.75 73.5575 100.937C72.9955 101.031 72.5344 101.156 72.5344 101.219C72.5344 101.375 73.5719 101.688 74.105 101.688C76.1655 101.688 77.0732 98.9522 75.373 97.858C74.6526 97.3891 72.9379 97.3579 71.7852 97.7643C68.6296 98.9053 67.4913 101.25 68.7449 103.985C69.2348 105.064 70.157 105.83 71.7996 106.517C75.5315 108.08 78.9464 107.815 82.3901 105.673C83.0241 105.283 83.5573 105.001 83.5861 105.032C83.6149 105.064 83.5284 105.595 83.4132 106.205C82.6351 109.862 80.7187 112.785 77.3902 115.333C74.0474 117.912 71.0791 117.975 68.6729 115.505C67.7219 114.551 67.693 114.567 69.9408 114.895C71.7708 115.161 73.471 115.192 74.3788 114.958C75.4883 114.677 77.592 113.473 78.543 112.582C79.7101 111.504 80.7619 110.066 81.3239 108.815C81.5544 108.268 81.7561 107.783 81.7561 107.737C81.7561 107.69 81.151 108.299 80.4305 109.081C78.1971 111.472 75.9782 112.488 72.9667 112.488C70.546 112.504 68.9322 111.879 67.5634 110.378C66.4395 109.159 66.1225 108.331 66.1225 106.611C66.1225 105.376 66.1801 105.111 66.5403 104.345C66.7565 103.876 67.0446 103.36 67.1743 103.204C67.5634 102.735 67.1023 102.922 66.3818 103.532C64.5807 105.079 64.1773 106.142 63.8026 110.3C63.673 111.754 63.9179 112.707 65.5461 117.24C65.719 117.724 64.7248 116.662 63.7162 115.302C62.6067 113.801 62.1456 112.801 62.0015 111.535C61.9007 110.628 62.0159 108.19 62.2321 106.924L62.3185 106.455L62.1024 106.846C61.9727 107.064 61.6557 107.862 61.3819 108.643C59.5808 113.661 59.869 116.161 62.7076 120.272C64.624 123.039 65.8055 123.93 71.1512 126.65C72.8803 127.54 74.3932 128.338 74.5085 128.447C75.373 129.213 75.6324 132.152 74.8831 132.761C74.4941 133.074 72.6353 132.933 72.2463 132.558C71.8428 132.167 71.5979 131.12 71.7996 130.651C72.0013 130.151 72.4192 130.198 73.0388 130.776C73.3125 131.042 73.5431 131.182 73.5431 131.073C73.5431 130.713 72.9955 129.901 72.5489 129.619C72.1454 129.369 72.0734 129.354 71.6699 129.588C71.108 129.901 70.5172 130.885 70.4163 131.651C70.1858 133.652 73.4278 134.981 75.6468 133.808C77.1597 133.011 77.6352 131.479 77.0588 129.338C76.6986 128.025 76.3096 127.337 75.3586 126.259L74.4796 125.258L75.7044 125.899C77.275 126.728 77.592 126.728 78.37 125.868C79.7533 124.383 79.7965 121.82 78.4565 120.319C77.4767 119.225 76.5257 119.334 76.1511 120.569C75.8773 121.523 76.0502 122.226 76.7418 123.008C77.2462 123.57 77.3038 123.602 77.2173 123.258C76.9724 122.257 76.9724 121.288 77.2173 121.023C78.0819 120.069 78.9464 121.867 78.3845 123.477C77.5487 125.837 75.7764 125.165 74.7534 122.085C74.3644 120.913 74.3067 119.897 74.6093 119.131C74.8255 118.569 75.0848 118.428 77.1597 117.818C78.1251 117.521 79.9406 116.724 82.6639 115.38C83.1106 115.161 83.4852 115.02 83.4852 115.052C83.4852 115.099 82.7936 116.443 81.9579 118.037C79.9118 121.898 79.6813 122.679 79.6813 125.524C79.6669 127.447 79.7245 127.9 80.0703 129.197C80.6322 131.339 80.5602 132.98 79.8109 134.934L79.5948 135.496L79.1193 134.652C78.5718 133.652 78.1251 133.511 77.2317 134.074C76.2952 134.668 76.0646 135.137 76.0646 136.466C76.0646 137.779 76.3384 138.341 77.1309 138.685L77.592 138.888L77.2173 138.154C76.6986 137.091 76.7274 136.231 77.2894 135.575L77.7216 135.059L78.0098 135.434C78.2692 135.762 78.298 136.028 78.298 137.904V140.014L77.4623 140.967C75.9782 142.671 74.3211 144.781 73.8024 145.641C73.1108 146.766 72.6065 148.345 72.3183 150.299C72.1166 151.643 71.9725 152.127 71.497 153.003C71.0071 153.909 70.8918 154.034 70.6757 153.894C70.0849 153.565 69.6671 152.784 69.4365 151.627L69.1916 150.471L68.6008 150.549C67.7939 150.674 65.8775 150.361 65.0994 150.002C64.4078 149.658 63.111 148.345 63.2407 148.11C63.2839 148.017 63.9611 147.469 64.7248 146.876C65.4885 146.282 66.7853 145.156 67.6066 144.375L69.0763 142.937V143.843C69.0763 144.953 68.7017 145.86 67.5922 147.485C67.1599 148.126 66.8141 148.673 66.8429 148.704C66.9294 148.798 69.8544 146.891 70.7766 146.156C71.9725 145.172 72.8082 144.062 73.9609 141.874C75.2145 139.498 75.301 139.17 75.373 136.778L75.4162 134.746L74.8687 136.809C74.2347 139.138 73.9897 139.623 72.6209 141.108C70.4163 143.531 69.8256 142.327 70.9351 137.622C71.2376 136.309 71.4826 135.199 71.4682 135.184C71.4538 135.168 70.8342 136.294 70.1137 137.7C68.6729 140.451 68.0965 141.202 66.3674 142.468C64.0188 144.187 62.7076 144.484 58.6587 144.218C57.2178 144.125 55.6472 143.999 55.1861 143.937L54.336 143.843L57.578 143.03C63.2695 141.608 63.7306 141.436 65.1571 140.264C66.987 138.732 68.6873 135.231 68.889 132.558C68.9754 131.307 68.7161 129.979 68.1541 128.744C67.2896 126.915 64.9121 124.367 63.1687 123.414C61.2667 122.382 57.9094 121.617 55.7048 121.742C54.4801 121.804 54.2495 121.867 53.1112 122.476C51.5263 123.32 49.898 125.008 49.192 126.525C48.7742 127.415 48.7309 127.65 48.7886 128.572C48.8606 129.948 49.509 131.354 50.7338 132.792C52.3476 134.684 53.313 135.184 55.3158 135.153C56.5982 135.137 57.7797 134.856 59.0333 134.246C59.9699 133.793 60.431 133.261 60.431 132.652C60.431 132.026 59.6673 130.417 59.0333 129.698C58.5002 129.088 58.3993 129.041 57.7077 129.041C57.2898 129.041 56.6558 129.119 56.2956 129.229L55.6328 129.401L56.3821 129.619C57.4051 129.901 57.9094 130.245 58.212 130.854C58.5434 131.511 58.3705 132.152 57.7653 132.48C57.2322 132.761 55.1717 132.761 54.2495 132.495C53.4426 132.245 52.7366 131.495 52.5061 130.635C52.2323 129.651 52.5925 128.76 53.7885 127.462C55.3446 125.79 57.0449 125.352 59.1486 126.071C61.0361 126.712 62.9813 128.369 63.6874 129.916C64.0188 130.667 64.062 130.901 63.99 131.792C63.8459 133.918 62.3041 136.215 60.3301 137.278C59.3071 137.825 59.163 137.857 57.5636 137.919C55.6616 137.997 53.8173 137.732 51.0364 136.997C48.9182 136.434 48.0825 135.981 46.9586 134.746C45.0855 132.699 44.293 129.651 44.293 124.414C44.293 122.929 44.2209 121.96 44.0768 121.445C43.7743 120.35 42.8665 119.037 41.9155 118.334C40.9357 117.599 40.9933 117.553 43.097 117.396C44.5091 117.287 44.5668 117.287 45.9068 117.834C46.656 118.147 47.6791 118.475 48.169 118.584C49.0623 118.787 49.0767 118.787 49.9557 118.287C50.4456 118.021 51.1804 117.506 51.5983 117.177C52.0017 116.834 53.0824 116.177 53.9902 115.708C57.261 114.02 57.6644 113.582 59.9987 109.347C62.722 104.392 63.2983 103.563 66.8862 99.4524C71.0071 94.7476 72.5344 91.6214 72.5344 87.8545C72.5344 85.9632 72.3471 84.9785 71.569 82.712C70.5892 79.8516 70.6613 78.6324 71.8428 78.3198C72.1166 78.2417 72.3039 78.3042 72.52 78.5387C72.9091 78.9607 72.9091 79.5703 72.5344 80.3205L72.2319 80.9301L72.5633 80.8207C72.7506 80.7582 73.1108 80.4768 73.3702 80.1799C74.1915 79.242 73.8745 77.8978 72.6641 77.2257C72.0878 76.8974 71.108 76.9287 70.5604 77.3038C69.7679 77.8197 69.5806 78.398 69.5806 80.3518C69.5806 81.8367 69.6383 82.2275 69.9841 83.2278C70.6469 85.1817 70.4884 86.3227 69.206 89.0268L68.572 90.3554L68.5288 86.6822C68.4999 83.1653 68.572 81.571 68.9322 78.4918C69.1772 76.4442 69.0763 74.4747 68.7017 73.912C67.8227 72.6147 65.402 72.4115 64.3502 73.5525C63.8171 74.1152 63.673 74.6935 63.9179 75.2406C64.1196 75.6783 65.0418 76.4285 65.5893 76.6005L65.9208 76.7099L65.5461 76.0847C65.3444 75.7564 65.1571 75.2719 65.1427 75.0374C65.1139 74.631 65.1715 74.5841 65.8919 74.3653C66.6556 74.1308 66.6844 74.1308 66.9294 74.4747C67.2608 74.9124 67.549 76.3973 67.4625 77.2257C67.4049 77.7728 66.6844 79.8047 66.5403 79.8047C66.5115 79.8047 66.0504 79.3358 65.5173 78.7419C64.379 77.507 63.6441 77.0694 62.9237 77.1944C62.3329 77.3038 62.1024 77.4914 61.5549 78.3042C61.0217 79.1014 61.0361 79.2889 61.6125 78.8513C61.8863 78.6324 62.3473 78.4761 62.8228 78.4292C63.4856 78.3667 63.6297 78.4136 63.9467 78.7575C64.2637 79.1014 64.3214 79.3046 64.3214 80.0236C64.3214 81.3209 64.2781 81.3678 63.5001 81.1177C62.0592 80.6488 60.503 81.0552 60.1428 81.993C59.9987 82.3838 60.0131 82.5401 60.2292 83.0246C60.3877 83.3529 60.6759 83.7593 60.9065 83.9312L61.2955 84.2438L61.9151 83.9156L62.5203 83.5717H62.0736C61.5693 83.5561 61.1082 83.0872 61.1802 82.6808C61.209 82.5245 61.3964 82.29 61.6125 82.165C61.9583 81.9461 62.0159 81.9461 62.2753 82.2118C62.5058 82.4307 62.5923 82.7745 62.6643 83.7749C62.794 85.4786 62.9093 85.6662 63.4424 84.9941C63.6586 84.7284 63.9467 84.4939 64.0764 84.4939C64.9121 84.4939 64.7248 89.9802 63.8026 92.0904C63.356 93.1376 61.2234 95.279 60.6471 95.279C60.0275 95.279 60.0275 94.8257 60.6471 94.2474L61.209 93.7472L60.5318 93.8879C59.7249 94.0442 59.0621 94.4037 58.9468 94.7163C58.8172 95.0914 59.3791 95.701 60.0996 95.9667C61.3819 96.4513 62.0448 96.2481 63.8603 94.857L64.768 94.1536L64.6672 94.7632C64.3934 96.4513 63.99 97.4048 62.9669 98.874C61.9439 100.359 61.4252 101.453 59.3791 106.439C58.4137 108.799 58.1544 109.143 57.7221 108.643C56.7855 107.565 56.4541 104.423 57.1025 102.829C57.5204 101.813 57.9094 101.406 58.2408 101.625C58.6875 101.922 59.0333 102.938 59.0333 103.907C59.0189 104.407 59.0477 104.814 59.0909 104.814C59.2206 104.814 60.114 102.516 60.2869 101.719C60.6327 100.062 60.186 99.3117 58.8604 99.3117C55.8345 99.3429 54.6098 103.97 56.0362 109.956C56.5838 112.254 56.4829 112.957 55.4599 113.801C55.0276 114.176 53.6588 114.755 53.6588 114.583C53.6588 114.536 53.8893 114.161 54.1631 113.754C55.287 112.051 55.4023 111.347 55.042 108.377C54.8115 106.533 54.6098 106.033 53.0392 103.36C51.7424 101.14 51.2093 99.1554 51.2093 96.4826C51.2093 95.0758 51.2237 95.0133 51.6271 94.5913C52.1458 94.0442 53.9902 93.3564 54.6386 93.4659C55.3158 93.5753 55.921 94.1067 56.3965 95.0133C56.9872 96.123 56.9584 96.6857 56.3244 97.2953C55.7192 97.858 55.2293 97.9049 54.5665 97.4673C53.7164 96.9046 53.4715 96.0762 53.8749 95.0758C54.0478 94.6225 53.6732 94.7632 53.1401 95.3415C52.8663 95.6385 52.6501 95.998 52.6501 96.1543C52.6646 97.0296 53.9181 98.8584 54.7538 99.1866C55.604 99.5461 56.5406 99.2961 57.65 98.4207C58.6154 97.6548 58.7739 96.4982 58.1832 94.3568C57.9094 93.3095 57.0305 92.3405 55.4311 91.2776C54.8115 90.8712 54.091 90.3241 53.8317 90.0584C53.2697 89.4957 52.7222 88.4172 52.8951 88.2452C52.996 88.1202 55.1141 87.9014 58.2696 87.6982C59.48 87.62 59.6961 87.6356 60.0996 87.917C60.6615 88.3078 61.4396 89.5113 61.5404 90.1678C61.6557 91.0119 61.2523 91.2619 59.7393 91.2776C58.529 91.2932 58.4858 91.2776 58.4425 90.9337C58.3705 90.371 58.7739 89.8396 59.3071 89.777L59.7826 89.7301L59.235 89.5113C58.7019 89.3081 58.6587 89.3238 58.1544 89.7614C57.8662 90.0115 57.5492 90.4335 57.4627 90.6992C57.2178 91.3401 57.5924 91.9966 58.4858 92.4655C59.4223 92.95 61.3531 92.8719 62.2897 92.3092C63.3848 91.6371 63.5289 91.2932 63.5001 89.4019C63.4856 88.0733 63.4136 87.62 63.1687 87.0573C62.6211 85.8538 61.0505 84.6815 58.3129 83.4467C56.5117 82.6339 55.676 81.9774 55.2438 81.0396C54.9268 80.3831 54.8691 79.2733 55.1141 78.3511C55.3734 77.3038 56.31 77.1944 57.1457 78.101C57.5348 78.523 57.578 78.6324 57.4915 79.2108C57.3763 80.0079 57.189 80.2737 56.8287 80.1642C56.31 80.0236 56.1803 79.6797 56.4829 79.3046L56.7567 78.9763L56.2956 79.242C55.4023 79.7266 55.8777 80.8364 56.9584 80.8051C57.6356 80.7738 58.1832 80.3987 58.4137 79.8047C58.5578 79.414 58.5434 79.242 58.284 78.6793C58.1255 78.3042 57.6933 77.679 57.333 77.3038C56.7135 76.6474 56.6126 76.6005 55.9066 76.6005C54.8691 76.6005 54.0334 77.1944 53.6011 78.2573C53.4426 78.6637 53.2553 79.0232 53.2121 79.0232C53.0824 79.0232 52.6646 77.4289 52.5205 76.3191C52.1747 73.7088 53.1689 70.5983 54.97 68.6914C56.2956 67.269 58.0967 66.5031 60.0707 66.5344C61.065 66.5344 62.1312 66.8001 61.2811 66.8157C59.9699 66.8626 56.8864 68.2694 55.5752 69.4417C54.3216 70.5358 53.5579 72.2239 53.7308 73.4744C53.947 75.0374 55.0564 75.647 57.7653 75.647C59.0621 75.647 59.4944 75.5845 60.1716 75.2875C61.2811 74.8186 62.477 73.6307 62.9669 72.5053C63.4568 71.3799 63.8171 69.4104 63.6874 68.6289L63.5865 68.0349L62.3185 68.1287C58.9901 68.3944 57.0737 69.4729 56.0651 71.6768C55.604 72.6772 55.5752 73.2243 55.9498 73.7244C56.2091 74.0683 56.3388 74.0996 57.506 74.0996C59.0045 74.0996 59.7537 73.787 60.7768 72.771C61.526 72.0207 62.088 70.8953 61.9439 70.4264C61.8142 69.9731 61.137 70.02 59.4944 70.5827C57.9238 71.1298 57.6789 71.4111 58.1399 72.052C58.3849 72.3802 58.5578 72.4584 59.0765 72.4584C59.8114 72.4584 60.2436 72.0989 60.3877 71.3642C60.4454 71.0047 60.5462 70.8953 60.8056 70.8953C61.2234 70.8953 61.2234 70.8953 60.9065 71.5987C60.6471 72.1926 59.869 72.8335 58.9613 73.1774C57.506 73.7244 56.0507 73.1305 56.5261 72.177C56.7855 71.6612 58.0535 70.5045 58.9468 69.9887C59.9266 69.426 61.3387 69.0196 62.3329 69.0196H63.0102L62.8084 69.7543C62.0736 72.4115 61.2667 73.6463 59.9555 74.1152C58.0823 74.7873 56.7135 74.8342 55.676 74.2559C55.2293 74.0058 54.8115 73.3024 54.8115 72.8179C54.8115 72.2708 55.4887 70.9735 56.0507 70.4264C58.0103 68.5195 60.2725 67.7692 64.1196 67.7692C66.9438 67.7692 67.8371 68.5507 68.572 71.6768C69.1339 74.0371 69.4365 74.7404 69.9841 74.9436C70.7477 75.2406 72.0013 74.8342 72.448 74.1465C72.9667 73.3493 72.4624 70.9109 71.7708 70.7703C71.4682 70.7077 70.4307 71.4268 70.3155 71.7863C70.2146 72.0676 70.3443 72.6147 70.4884 72.6147C70.546 72.6147 70.6757 72.3958 70.7621 72.1458C70.9351 71.6299 71.18 71.5674 71.5979 71.8957C71.8284 72.0832 71.8428 72.177 71.7131 72.5053C71.4538 73.1149 70.863 73.4744 70.4163 73.3024C69.4942 72.9429 69.1483 71.5674 69.5806 69.8793C69.9985 68.1756 70.8774 67.3628 72.7218 67.0033C73.5431 66.847 73.5719 66.9564 72.9523 67.988C72.4336 68.8321 72.0734 69.1291 71.2088 69.4104L70.5892 69.6136L71.0071 69.723C71.5979 69.895 72.9091 69.1447 74.3211 67.8317C75.69 66.5656 76.7851 65.7997 78.687 64.7681C80.4593 63.8147 84.5082 62.3923 83.9895 62.9081ZM47.3621 114.286C49.6963 114.88 50.2727 115.208 49.9701 115.724C49.826 115.943 49.6099 115.989 48.7742 115.958C47.5206 115.927 47.0739 115.693 46.5984 114.911C46.2958 114.395 46.2382 114.348 46.195 114.63C46.1661 114.802 46.2526 115.177 46.3823 115.442C46.7569 116.224 46.584 116.443 45.7051 116.318C44.4659 116.13 43.8751 115.63 43.6302 114.567C43.5293 114.145 43.5005 114.192 43.2988 115.036C42.8809 116.709 42.0308 116.755 41.5985 115.13C41.3103 114.067 41.123 113.926 41.123 114.739C41.123 115.896 39.9991 116.412 38.7456 115.849C38.2268 115.599 37.8522 115.005 37.9963 114.614C38.0827 114.348 39.2355 114.098 41.7714 113.801C43.976 113.535 44.6676 113.598 47.3621 114.286Z" fill="white"/>
<path d="M25.7775 71.1292C24.74 71.3793 21.815 72.2546 21.7142 72.364C21.5269 72.5516 22.9389 74.8961 23.8323 75.8652C24.5671 76.6624 25.8495 77.4596 27.1175 77.9128C27.91 78.2098 28.299 78.2411 30.2442 78.2098L32.4776 78.1629L32.0454 77.4596L31.6131 76.7562L30.6477 76.7406C30.1002 76.7249 29.4085 76.6311 29.0915 76.5374C28.7745 76.4436 28.1694 76.3654 27.7515 76.3654C26.642 76.3654 26.1809 76.0684 24.668 74.3647L23.328 72.8485L23.9764 72.8017C24.8409 72.7391 25.6766 73.0674 26.0513 73.5988C26.2962 73.9583 26.325 74.099 26.1809 74.4898C26.0224 74.9274 26.0368 74.9587 26.3683 74.9587C26.7717 74.9587 27.2904 74.4585 27.2904 74.0521C27.2904 73.6301 27.5786 73.3956 28.1117 73.3956C28.6304 73.3956 28.7745 73.5988 28.933 74.521C29.0339 75.1306 29.3077 75.4901 29.3077 75.0056C29.3077 74.8493 29.4518 74.4741 29.6103 74.1771C29.9993 73.505 30.6189 71.5512 30.4892 71.4574C30.4027 71.4105 29.6103 71.3011 27.0743 70.9885C26.8437 70.9572 26.253 71.0198 25.7775 71.1292Z" fill="white"/>
<path d="M85.0704 89.0735C85.0704 89.2923 86.1943 92.606 86.7418 94.0127C88.0818 97.4202 88.8743 98.3424 92.9664 101.281C94.4506 102.344 95.8338 103.407 96.0499 103.657C96.6983 104.423 98.0384 107.017 98.341 108.143C98.5571 108.893 98.6147 109.393 98.5571 109.878C98.3554 111.331 97.1162 113.426 96.1508 113.973C95.6177 114.254 94.5226 114.254 93.269 113.942C91.9002 113.598 91.5256 113.238 91.4391 112.129C91.3815 111.378 91.4247 111.206 91.6985 110.909C92.1307 110.44 92.8656 110.55 94.3353 111.347L95.4736 111.957L95.3871 111.316C95.2575 110.394 94.9116 109.972 93.8598 109.378C92.5486 108.659 91.8425 108.69 90.5169 109.518C89.9694 109.878 89.2489 110.44 88.9464 110.769C88.4132 111.347 88.3844 111.425 88.3844 112.379C88.3844 113.488 88.6294 114.411 89.1337 115.13C89.7533 116.036 92.7935 117.318 94.3209 117.318C94.6379 117.318 95.3727 117.146 95.9635 116.927C96.5543 116.708 97.0874 116.536 97.145 116.536C97.3323 116.536 97.7502 118.475 97.7502 119.303C97.7502 120.241 97.2027 121.554 96.4822 122.367C96.0788 122.804 95.6753 123.054 94.8252 123.336C93.1538 123.914 92.6062 123.867 91.7849 123.086C91.2374 122.57 91.1221 122.351 91.1221 121.913C91.1221 120.632 91.9146 119.6 92.5774 119.991C92.9088 120.178 93.2834 121.022 93.2834 121.554C93.2834 121.835 93.3123 121.866 93.514 121.679C93.8166 121.413 94.2921 120.366 94.2921 119.975C94.2921 119.537 93.9174 118.756 93.4563 118.209C92.9953 117.693 92.4621 117.662 91.0501 118.084C89.7965 118.475 89.3498 118.959 89.1049 120.225C88.6438 122.617 89.638 124.789 91.7129 125.915C93.6292 126.978 95.3871 127.103 96.9577 126.321L97.7502 125.93L97.1738 126.743C96.8712 127.196 96.4102 128.04 96.1508 128.634C95.7329 129.619 95.6897 129.885 95.5889 131.839C95.4736 134.277 95.3727 134.621 94.3497 135.59C93.0961 136.778 91.223 137.2 90.1135 136.528C88.0242 135.246 88.6294 131.698 90.9492 131.698C91.4535 131.698 91.5976 131.776 91.8858 132.198C92.0731 132.48 92.3324 132.995 92.4477 133.324L92.6639 133.933L92.9088 133.183C93.2114 132.214 93.197 131.823 92.8656 131.104C92.4189 130.166 92.0587 129.9 91.2086 129.916C89.9118 129.916 87.7504 131.229 87.2461 132.292C86.8715 133.073 86.6409 134.558 86.7562 135.34C86.8138 135.731 87.1308 136.418 87.6063 137.153C89.2489 139.685 89.321 139.888 89.3066 141.467C89.2922 142.342 89.1481 143.546 88.9031 144.671C88.4853 146.688 88.3124 147 86.3095 149.595C85.6467 150.455 85.1136 151.174 85.1424 151.205C85.1568 151.221 85.6179 151.033 86.151 150.767C86.6842 150.502 87.1597 150.33 87.1885 150.361C87.3758 150.564 84.6237 154.097 82.7073 156.097L80.546 158.395L81.9869 158.504C84.4508 158.692 84.3931 158.536 82.8946 160.536C82.1742 161.474 81.2952 162.74 80.9206 163.334C80.2578 164.382 80.2434 164.413 80.1858 165.835C80.1569 166.617 80.2146 167.82 80.301 168.508C80.4739 169.821 80.4451 170.024 79.3789 173.197C79.3212 173.369 79.6382 173.072 80.0993 172.525C80.546 171.994 80.9927 171.556 81.0791 171.556C81.18 171.556 81.4105 172.166 81.5978 172.916C82.131 175.042 83.1684 178.449 83.4278 178.855L83.6439 179.231L85.8484 179.121C87.5343 179.043 88.0818 179.059 88.1683 179.215C88.2259 179.309 88.3124 179.84 88.3412 180.372C88.4565 181.763 88.3844 181.794 85.8484 181.763C83.4566 181.716 82.5056 181.513 80.7621 180.59L79.5518 179.965L78.7881 180.794C78.3558 181.247 78.01 181.685 78.01 181.747C78.01 181.95 79.8976 182.904 81.0359 183.31C81.9869 183.623 82.4047 183.67 84.494 183.67C87.2605 183.67 89.3498 183.388 89.4507 182.998C89.6524 182.294 89.7821 179.996 89.6668 179.215C89.5804 178.543 89.4507 178.261 89.0904 177.902C88.6294 177.449 88.615 177.449 87.1597 177.527L85.6899 177.621L84.494 174.995L83.2837 172.369L83.9753 169.962C84.9551 166.601 84.9839 165.866 84.2491 162.396C84.2058 162.162 84.4796 161.709 85.3153 160.677C88.8599 156.316 91.7993 151.142 93.3267 146.547C94.854 141.967 96.0788 139.232 98.341 135.371C99.1046 134.074 99.8827 132.714 100.07 132.323C100.459 131.495 100.488 130.979 100.286 125.508L100.156 121.898L100.632 120.929C101.482 119.209 103.168 117.896 105.2 117.38C106.914 116.943 109.061 117.427 109.436 118.318C109.594 118.662 109.551 118.803 109.191 119.365C108.687 120.147 106.583 122.304 105.704 122.945C104.911 123.508 104.335 123.554 104.032 123.07C103.471 122.195 104.047 120.256 105.156 119.272C105.473 118.975 105.906 118.6 106.107 118.412L106.468 118.099L106.035 118.193C105.027 118.412 103.485 119.35 102.664 120.241C101.756 121.241 101.28 122.163 101.035 123.445C100.762 124.852 101.136 125.633 102.174 125.852C103.398 126.102 104.897 125.555 107.764 123.805C108.975 123.07 110.891 122.32 111.568 122.32C112.202 122.32 112.519 122.742 112.923 124.086C113.283 125.243 113.369 125.383 114.709 126.837C116.266 128.509 116.799 129.416 117.116 130.932C117.375 132.151 118.067 137.559 118.067 138.404C118.067 138.779 118.182 139.154 118.384 139.451C118.902 140.17 118.888 141.405 118.268 146.078C117.764 149.892 117.707 150.502 117.707 153.659C117.721 157.238 117.75 157.567 118.744 162.131C118.816 162.49 118.816 162.475 117.865 162.021C117.346 161.756 116.885 161.552 116.842 161.552C116.799 161.552 116.957 161.881 117.188 162.287C117.98 163.678 118.643 165.382 119.003 166.945C119.191 167.805 119.652 169.415 120.012 170.54C120.372 171.65 120.66 172.791 120.66 173.072C120.66 173.353 120.401 174.104 120.084 174.776C119.767 175.448 119.508 176.011 119.508 176.042C119.508 176.073 119.695 176.089 119.94 176.089C120.66 176.089 121.078 176.401 121.438 177.261C121.741 177.918 122.663 180.981 122.85 181.888C122.908 182.185 122.087 183.638 121.957 183.482C121.899 183.404 121.683 182.841 121.453 182.216C121.237 181.606 121.006 181.091 120.949 181.091C120.905 181.091 120.689 181.466 120.487 181.919L120.098 182.732V182.185C120.084 181.419 119.479 180.106 118.946 179.699C118.701 179.512 118.067 179.199 117.519 178.996C115.891 178.386 115.43 178.058 114.565 176.823C114.248 176.386 113.888 175.573 113.672 174.807C113.297 173.541 113.283 173.088 113.614 173.775C114.018 174.604 115.156 175.995 115.963 176.667C117.13 177.636 119.032 178.59 119.969 178.683L120.732 178.777L119.378 177.402C117.375 175.354 116.972 174.213 117.707 172.65C118.254 171.493 118.398 170.571 118.211 169.54C118.052 168.696 117.116 166.398 116.928 166.398C116.885 166.398 116.525 167.445 116.15 168.742C115.761 170.024 115.401 171.118 115.329 171.165C115.271 171.212 114.637 170.634 113.931 169.868C111.9 167.695 110.992 165.413 110.949 162.334C110.934 160.74 111.165 159.989 111.684 159.989C112.029 159.989 113.312 161.49 113.773 162.428C114.075 163.037 114.292 163.928 114.637 166.148C114.897 167.742 115.142 169.055 115.199 169.055C115.358 169.055 115.891 167.351 116.136 166.101C116.251 165.476 116.352 164.21 116.366 163.287C116.395 161.005 116.424 161.052 113.73 157.41C112.159 155.285 111.41 154.597 109.104 153.19C106.381 151.518 106.554 151.658 106.943 151.58C107.39 151.502 108.47 152.065 110.877 153.659C112.015 154.425 113.686 155.519 114.58 156.113C115.488 156.707 116.251 157.16 116.294 157.129C116.323 157.082 115.905 156.426 115.358 155.66C112.49 151.721 111.986 150.173 112.894 148.141C113.312 147.235 114.421 145.984 114.94 145.828C115.689 145.64 115.833 145.984 115.833 148.079C115.833 149.079 115.79 150.486 115.718 151.189C115.588 152.784 115.776 152.893 116.194 151.455C116.828 149.189 116.856 145.906 116.237 144.531C115.905 143.812 115.372 143.718 114.637 144.249C113.96 144.734 111.482 147.407 111.006 148.157C110.805 148.47 110.603 148.735 110.531 148.735C110.372 148.735 108.96 146.344 108.37 145.047C108.096 144.453 107.764 143.562 107.635 143.093C107.303 141.764 106.943 138.497 106.929 136.606C106.914 135.012 106.943 134.793 107.318 133.996C107.937 132.62 109.81 131.073 110.862 131.073C111.655 131.073 112.937 132.48 113.744 134.183C114.335 135.465 114.378 138.622 113.802 139.466C113.052 140.561 111.914 140.92 111.323 140.248C110.675 139.498 110.185 137.528 110.444 136.7C110.747 135.793 111.41 136.215 112.159 137.778C112.548 138.622 112.548 138.622 112.735 138.263C112.836 138.06 112.952 137.466 112.98 136.95C113.038 136.121 112.98 135.856 112.591 134.902C111.972 133.433 111.813 133.261 111.05 133.261C109.94 133.261 108.773 134.011 108.427 134.965C108.182 135.621 107.836 137.731 107.836 138.497C107.836 140.561 108.759 141.889 110.574 142.499C113.096 143.327 115.588 142.233 116.266 139.982C116.799 138.216 116.957 134.058 116.554 132.401C116.251 131.12 115.603 129.729 114.897 128.853C113.802 127.478 111.453 126.071 110.257 126.071C109.047 126.071 105.632 129.15 104.811 130.979C104.335 132.042 103.874 134.34 103.312 138.575L102.937 141.311L100.315 144.077C98.8741 145.594 97.6637 146.813 97.6349 146.781C97.6061 146.75 98.168 145.812 98.8885 144.687L100.2 142.639V141.029C100.2 140.092 100.286 139.044 100.416 138.497C100.546 137.966 101.295 136.262 102.145 134.558C103.888 131.088 105.891 126.384 105.632 126.384C105.531 126.384 103.283 129.619 101.756 131.932C100.012 134.59 99.3208 135.95 98.2689 138.81C97.1738 141.811 95.7762 144.89 94.0615 148.048C91.4391 152.877 91.2374 153.299 91.4535 153.534C91.5111 153.581 91.9866 153.346 92.5198 153.002C94.0327 152.018 95.243 151.408 96.8712 150.752C98.658 150.033 100.229 148.923 101.914 147.235L103.11 146.016L103.009 149.298C102.88 153.346 102.981 154.05 103.845 155.066C104.594 155.925 105.776 156.707 107.361 157.348C108.024 157.629 108.557 157.895 108.557 157.942C108.557 158.004 108.413 158.708 108.254 159.52C107.635 162.459 107.851 164.819 109.061 168.821C110.315 172.963 111.136 174.276 116.093 180.043L117.649 181.841L116.698 185.076C116.165 186.858 115.776 188.343 115.819 188.39C115.905 188.484 118.946 189.093 119.003 189.031C119.018 189 119.277 188.437 119.551 187.78C119.839 187.108 120.113 186.561 120.185 186.561C120.242 186.561 120.617 186.827 121.006 187.124C121.554 187.562 121.799 187.921 122.188 188.843L122.692 190H123.96H125.228L126.035 189.078L126.842 188.156L126.438 186.858C125.79 184.764 124.824 182.31 124.392 181.606C124.162 181.263 123.686 180.684 123.326 180.356L122.663 179.746L123.038 177.011C123.571 173.01 123.787 169.586 123.571 168.461C123.34 167.258 122.591 165.679 121.424 163.975L120.459 162.568L120.127 160.458C119.94 159.302 119.753 157.285 119.695 155.988C119.608 153.628 119.608 153.612 120.07 152.08C121.222 148.266 121.755 145.062 121.626 142.733C121.453 139.685 120.127 133.605 118.355 127.79C116.698 122.32 115.949 120.85 113.269 117.834C110.661 114.895 107.937 113.426 105.142 113.41H104.09L104.076 112.504C104.061 109.581 103.283 106.908 101.828 104.673C100.243 102.234 97.8366 100.124 94.2632 97.9673C93.269 97.3733 92.1307 96.6387 91.7417 96.3573C89.7388 94.888 87.4478 92.4809 85.9349 90.2614C85.4594 89.5736 85.0704 89.0266 85.0704 89.0735Z" fill="white"/>
<path d="M34.0191 117.13C32.9384 120.881 32.4917 124.758 32.7511 127.993C32.9817 130.713 34.0047 139.794 34.509 143.655C35.7338 153.112 37.3475 159.286 39.8115 164.022C41.6558 167.554 44.941 172.853 46.5837 174.916C47.0592 175.51 47.7508 176.62 48.1398 177.37C49.0476 179.183 49.9409 180.481 51.2666 181.841C52.4913 183.091 52.8948 183.279 54.5086 183.279H55.5604L55.5028 182.263C55.474 181.7 55.474 181.247 55.5172 181.247C55.546 181.247 55.9783 181.497 56.4826 181.794C57.5777 182.466 58.0099 182.481 58.8745 181.887C59.494 181.465 59.5373 181.372 59.8254 180.215C60.2865 178.355 60.5747 176.761 60.5747 176.073C60.5747 175.307 60.4738 175.198 56.0359 170.915C54.2924 169.227 52.7651 167.711 52.6354 167.554C52.3328 167.179 50.5317 163.772 49.2925 161.224C48.7162 160.067 48.2695 158.911 48.183 158.41C48.0534 157.707 47.3041 151.392 46.9439 148.079C46.8574 147.203 46.843 147.172 46.4684 147.266C45.0131 147.625 43.3417 149.032 42.7653 150.376C42.2322 151.611 42.333 153.518 42.9814 154.378C43.3561 154.878 43.6298 154.596 43.9324 153.455C44.5088 151.22 44.941 150.83 45.4742 152.111C45.8488 153.033 46.1514 154.909 46.1658 156.285C46.1658 156.879 46.2378 157.66 46.3243 158.035C46.5837 159.145 46.3963 159.739 45.4454 160.849C44.0333 162.506 43.7883 163.381 44.5088 164.209C44.941 164.694 46.2234 165.303 46.7854 165.303C47.0447 165.288 47.0159 165.241 46.5837 164.991C45.9785 164.647 45.3013 163.834 45.3013 163.459C45.3013 163.084 45.8056 162.318 46.1946 162.084C46.771 161.724 47.6499 161.818 48.039 162.255C48.3704 162.646 48.3848 162.74 48.356 164.678C48.3127 166.663 48.3271 166.726 48.6729 167.101C48.9467 167.382 49.1917 167.492 49.6239 167.492C50.4597 167.492 50.5029 167.82 49.7824 168.664C49.4222 169.086 49.1917 169.508 49.1917 169.742C49.1917 170.477 50.5461 171.384 52.6642 172.087C54.7823 172.79 55.9927 173.916 56.9581 176.089C57.4624 177.214 57.4768 177.323 57.4768 179.011C57.4768 179.965 57.4336 180.809 57.3759 180.871C57.2318 181.012 56.2232 180.277 55.3587 179.402C54.8111 178.855 54.6094 178.496 54.4365 177.823C53.9322 175.917 53.6872 175.651 49.6528 172.744C47.3041 171.055 46.3099 170.133 46.3099 169.664C46.3099 169.305 46.771 168.977 47.5779 168.742L48.1975 168.57L46.9295 167.711C44.3215 165.929 42.65 164.475 42.4051 163.772C42.1601 163.084 42.5348 162.255 43.4713 161.365C45.1284 159.801 45.5174 158.582 44.797 157.238C43.8604 155.519 41.8143 155.3 40.5463 156.785L40.1861 157.207L40.5463 157.082C40.7481 157.004 41.3244 156.941 41.8143 156.941C42.6356 156.941 42.7653 156.988 43.0823 157.379C43.4137 157.801 43.529 158.488 43.3128 158.832C42.7941 159.676 40.3878 159.442 39.3648 158.442C38.7452 157.848 38.7596 157.254 39.4368 156.206C40.6328 154.315 40.7192 153.174 39.8115 151.033C39.2495 149.735 39.2207 149.563 39.2928 148.672C39.3936 147.438 39.8403 146.172 40.4166 145.406C40.9786 144.671 41.3532 144.655 41.6414 145.374C42.0304 146.406 41.7999 147.61 41.065 148.219C40.5319 148.672 40.5751 149.157 41.1803 149.47C41.8431 149.814 42.3474 149.642 42.5492 149.032C42.6356 148.735 42.7077 147.36 42.7077 145.703C42.7077 142.67 42.6068 142.139 42.016 142.045C41.2956 141.936 39.6386 143.436 38.6732 145.093C38.068 146.109 37.6357 147.75 37.6069 149.048C37.6069 149.657 37.5493 150.142 37.506 150.142C37.3908 150.142 37.0882 148.25 37.0882 147.469C37.0882 146.875 36.9009 144.702 36.5695 141.498L36.4686 140.576L37.4484 141.31C38.2841 141.92 38.5147 142.029 39.019 141.983C39.5233 141.936 39.6386 141.858 39.8691 141.389C40.3446 140.404 39.9844 136.668 39.2351 134.746C39.0622 134.324 39.0334 134.48 38.9469 136.387C38.8173 138.856 38.7308 139.419 38.4859 139.654C38.1977 139.904 37.7222 139.466 37.2611 138.528C36.9297 137.825 36.8721 137.544 36.8721 136.309C36.8721 134.761 37.0882 134.12 38.0392 132.839L38.5291 132.182L37.7366 132.088C37.0738 131.995 36.8721 131.885 36.4974 131.432C35.7914 130.541 35.9643 130.291 37.506 129.978C38.9902 129.681 39.5089 129.416 39.6242 128.837C40.042 126.758 39.1775 125.539 37.7222 126.149C36.9873 126.446 37.0017 126.555 37.8375 126.774C38.1689 126.852 38.5003 127.055 38.5867 127.196C38.8028 127.587 38.5291 128.29 38.0536 128.54C37.7078 128.728 37.6069 128.712 37.1602 128.415C36.4398 127.931 35.7914 126.446 35.7914 125.274C35.7914 124.179 36.1948 122.913 36.7568 122.288C37.2467 121.725 37.362 121.929 37.2035 123.117C36.9729 124.711 37.3187 124.93 38.3129 123.836C39.1631 122.929 39.3792 122.054 39.0046 121.085C38.5291 119.834 37.3908 119.334 36.3245 119.912C35.5176 120.35 35.0565 120.959 34.4946 122.272C34.192 122.991 33.9038 123.57 33.8606 123.57C33.7453 123.57 34.12 122.476 34.5378 121.616C35.2294 120.178 35.3735 117.974 34.9124 116.005C34.826 115.614 34.6963 115.286 34.6387 115.286C34.5954 115.286 34.3073 116.114 34.0191 117.13Z" fill="white"/>
</svg>
