<svg width="32" height="32" viewBox="0 0 32 32" fill="none" xmlns="http://www.w3.org/2000/svg">
<path d="M31.9832 16.2994C31.9832 14.9884 31.8744 14.0317 31.6388 13.0396H16.3188V18.9568H25.3113C25.1301 20.4274 24.151 22.642 21.9754 24.1301L21.9449 24.3282L26.7888 27.9951L27.1244 28.0278C30.2064 25.2463 31.9832 21.1537 31.9832 16.2994" fill="#4285F4"/>
<path d="M16.3188 31.8901C20.7243 31.8901 24.4228 30.4727 27.1243 28.0279L21.9753 24.1301C20.5974 25.0691 18.7481 25.7246 16.3188 25.7246C12.0039 25.7246 8.34162 22.9432 7.03613 19.0986L6.84477 19.1145L1.80806 22.9236L1.74219 23.1025C4.4254 28.3112 9.93695 31.8901 16.3188 31.8901Z" fill="#34A853"/>
<path d="M7.03586 19.0987C6.6914 18.1066 6.49205 17.0435 6.49205 15.9451C6.49205 14.8466 6.6914 13.7837 7.01774 12.7915L7.00862 12.5803L1.90877 8.70996L1.74191 8.78752C0.636024 10.949 0.00146484 13.3762 0.00146484 15.9451C0.00146484 18.5141 0.636024 20.9412 1.74191 23.1026L7.03586 19.0987" fill="#FBBC05"/>
<path d="M16.3188 6.16536C19.3828 6.16536 21.4496 7.45867 22.6281 8.53946L27.2331 4.1457C24.4049 1.57679 20.7244 0 16.3188 0C9.93699 0 4.42542 3.57874 1.74219 8.78739L7.01803 12.7914C8.34165 8.94691 12.0039 6.16536 16.3188 6.16536" fill="#EB4335"/>
</svg>
