<svg width="50" height="50" viewBox="0 0 50 50" fill="none" xmlns="http://www.w3.org/2000/svg">
<path d="M29.1667 16.6666V12.4999C29.1667 11.3949 28.7277 10.335 27.9462 9.55365C27.1648 8.77223 26.105 8.33325 25 8.33325H10.4167C9.3116 8.33325 8.25179 8.77223 7.4704 9.55365C6.68898 10.335 6.25 11.3949 6.25 12.4999V37.4999C6.25 38.6049 6.68898 39.6647 7.4704 40.4462C8.25179 41.2276 9.3116 41.6666 10.4167 41.6666H25C26.105 41.6666 27.1648 41.2276 27.9462 40.4462C28.7277 39.6647 29.1667 38.6049 29.1667 37.4999V33.3332" stroke="#015249" stroke-width="4" stroke-linecap="round" stroke-linejoin="round"/>
<path d="M43.7499 25L37.4999 31.25M14.5833 25H43.7499H14.5833ZM43.7499 25L37.4999 18.75L43.7499 25Z" stroke="#015249" stroke-width="4" stroke-linecap="round" stroke-linejoin="round"/>
</svg>
