<svg width="50" height="50" viewBox="0 0 50 50" fill="none" xmlns="http://www.w3.org/2000/svg">
<path d="M12.9313 23.2758C8.17783 23.2758 4.31055 19.4085 4.31055 14.6551C4.31055 9.90171 8.17783 6.03442 12.9313 6.03442C13.9002 6.03442 14.8675 6.20249 15.8054 6.53442C16.1493 6.65689 16.3795 6.98188 16.3795 7.34731C16.3795 7.71196 16.1493 8.03784 15.8054 8.16021C13.0554 9.13345 11.2071 11.7438 11.2071 14.655C11.2071 17.5663 13.0554 20.1766 15.8054 21.1499C16.1493 21.2723 16.3795 21.5981 16.3795 21.9627C16.3795 22.3283 16.1493 22.6533 15.8054 22.7756C14.8675 23.1077 13.9002 23.2758 12.9313 23.2758Z" fill="#556080"/>
<path d="M21.5493 11.2068C21.8769 11.4525 22.1683 11.7447 22.414 12.0714C22.6597 11.7447 22.9511 11.4525 23.2786 11.2068C22.9511 10.9611 22.6597 10.6689 22.414 10.3421C22.1683 10.6688 21.877 10.9611 21.5493 11.2068ZM22.414 15.5171C21.9372 15.5171 21.5519 15.1309 21.5519 14.655C21.5519 13.2292 20.3915 12.0688 18.9656 12.0688C18.4889 12.0688 18.1035 11.6826 18.1035 11.2067C18.1035 10.7308 18.4889 10.3446 18.9656 10.3446C20.3915 10.3446 21.5519 9.18423 21.5519 7.75835C21.5519 7.28247 21.9372 6.89624 22.414 6.89624C22.8907 6.89624 23.2761 7.28247 23.2761 7.75835C23.2761 9.18423 24.4364 10.3446 25.8623 10.3446C26.3391 10.3446 26.7244 10.7308 26.7244 11.2067C26.7244 11.6826 26.3391 12.0688 25.8623 12.0688C24.4364 12.0688 23.2761 13.2292 23.2761 14.655C23.2761 15.1309 22.8907 15.5171 22.414 15.5171Z" fill="#556080"/>
<path d="M4.31035 28.4481C3.83359 28.4481 3.44824 28.0619 3.44824 27.586V24.1377C3.44824 23.6619 3.83359 23.2756 4.31035 23.2756C4.78711 23.2756 5.17246 23.6619 5.17246 24.1377V27.586C5.17246 28.062 4.78711 28.4481 4.31035 28.4481Z" fill="#556080"/>
<path d="M6.03447 26.7239H2.58623C2.10947 26.7239 1.72412 26.3376 1.72412 25.8618C1.72412 25.3859 2.10947 24.9998 2.58623 24.9998H6.03447C6.51123 24.9998 6.89658 25.386 6.89658 25.8619C6.89658 26.3377 6.51123 26.7239 6.03447 26.7239Z" fill="#556080"/>
<path d="M3.44834 6.89653C3.44834 7.37241 3.06211 7.75864 2.58623 7.75864C2.11035 7.75864 1.72412 7.37241 1.72412 6.89653C1.72412 6.42065 2.11035 6.03442 2.58623 6.03442C3.06211 6.03442 3.44834 6.42065 3.44834 6.89653Z" fill="#556080"/>
<path d="M17.2413 25C17.2413 25.4759 16.8551 25.8622 16.3792 25.8622C15.9033 25.8622 15.5171 25.4759 15.5171 25C15.5171 24.5242 15.9033 24.1379 16.3792 24.1379C16.8551 24.1379 17.2413 24.5242 17.2413 25Z" fill="#556080"/>
<path d="M0 40.5172C0 40.5172 7.98965 31.8965 15.6009 31.8965C15.6009 31.8965 19.1241 32.0853 18.6207 34.4129C18.6207 34.4129 19.9741 34.0138 21.575 33.4913C27.8069 31.4551 34.6776 33.2715 39.0259 38.1784C39.1018 38.2646 39.1784 38.3509 39.2543 38.4388C39.2543 38.4388 46.6345 43.9655 50 43.9655H0V40.5172Z" fill="#556080"/>
</svg>
