<svg width="176" height="162" viewBox="0 0 176 162" fill="none" xmlns="http://www.w3.org/2000/svg">
<path d="M105.181 15.0356C105.181 17.2677 102.862 19.0801 99.9989 19.0801C97.1379 19.0801 94.8179 17.2677 94.8179 15.0356V4.05C94.8179 1.81606 97.1379 0 99.9989 0C102.862 0 105.181 1.81145 105.181 4.05V15.0356Z" fill="#FFE269"/>
<path d="M105.181 135.865C105.181 138.099 102.862 139.909 99.9989 139.909C97.1379 139.909 94.8179 138.099 94.8179 135.865V124.874C94.8179 122.641 97.1379 120.831 99.9989 120.831C102.862 120.831 105.181 122.641 105.181 124.874V135.865Z" fill="#FFE269"/>
<path d="M145.853 34.4931C144.138 36.0726 141.107 35.8425 139.082 33.9813C137.06 32.1174 136.81 29.3275 138.525 27.748L146.968 19.9766C148.684 18.3971 151.715 18.6254 153.74 20.4893C155.764 22.3532 156.012 25.1422 154.296 26.7217L145.853 34.4931Z" fill="#FFE269"/>
<path d="M53.03 119.935C51.314 121.515 48.284 121.286 46.259 119.423C44.235 117.559 43.986 114.77 45.702 113.19L54.145 105.419C55.861 103.839 58.892 104.069 60.916 105.931C62.939 107.794 63.189 110.584 61.473 112.164L53.03 119.935Z" fill="#FFE269"/>
<path d="M159.665 74.7242C157.24 74.7242 155.272 72.5888 155.272 69.9544C155.272 67.321 157.24 65.1855 159.665 65.1855H171.606C174.032 65.1855 176 67.3219 176 69.9553C176 72.5897 174.032 74.7251 171.606 74.7251L159.665 74.7242Z" fill="#FFE269"/>
<path d="M28.394 74.7244C25.968 74.7244 24 72.5889 24 69.9546C24 67.3212 25.968 65.1848 28.394 65.1848H40.334C42.76 65.1848 44.728 67.3203 44.728 69.9537C44.728 72.588 42.76 74.7235 40.334 74.7235L28.394 74.7244Z" fill="#FFE269"/>
<path d="M138.526 112.162C136.81 110.583 137.06 107.792 139.082 105.929C141.107 104.067 144.138 103.837 145.853 105.416L154.297 113.187C156.012 114.767 155.764 117.558 153.74 119.421C151.715 121.284 148.684 121.512 146.968 119.933L138.526 112.162Z" fill="#FFE269"/>
<path d="M45.7001 26.7217C43.9841 25.1431 44.2331 22.3532 46.2571 20.4893C48.2821 18.6254 51.3131 18.3971 53.0291 19.9766L61.4721 27.748C63.1871 29.3275 62.9371 32.1174 60.9141 33.9813C58.8901 35.8425 55.8591 36.0726 54.1431 34.494L45.7001 26.7217Z" fill="#FFE269"/>
<path d="M100 25.4395C93.0739 25.4354 86.2278 26.8015 79.9254 29.4454C73.623 32.0892 68.0116 35.949 63.4713 40.7633C58.9309 45.5776 55.5678 51.2338 53.6097 57.3489C51.6516 63.4639 51.1442 69.8949 52.122 76.2062C61.8441 74.3974 71.9495 75.9814 80.4732 80.6501C88.9969 85.3187 95.3297 92.7384 98.24 101.466C106.299 102.298 113.856 105.488 119.798 110.568C129.897 106.398 138.136 99.165 143.139 90.0776C148.143 80.9902 149.609 70.5979 147.292 60.6357C144.975 50.6734 139.016 41.7442 130.409 35.3386C121.802 28.9331 111.068 25.4389 100 25.4395V25.4395Z" fill="#FFE269"/>
<path d="M101.717 100.778C100.362 100.779 99.0079 100.87 97.6663 101.05C97.2535 94.3506 94.2047 88.019 89.0896 83.2381C83.9746 78.4572 77.1433 75.5542 69.8723 75.0716C62.6014 74.5889 55.3882 76.5597 49.5808 80.6156C43.7735 84.6714 39.7692 90.5349 38.3163 97.1103C38.1163 97.1103 37.9163 97.0964 37.7163 97.0964C29.8305 97.1651 22.2912 100.089 16.7299 105.236C11.1686 110.382 8.03246 117.337 8.00025 124.596C7.96805 131.855 11.0423 138.833 16.5578 144.022C22.0733 149.21 29.5864 152.19 37.4713 152.318V152.324H101.717C105.394 152.324 109.035 151.657 112.432 150.362C115.83 149.067 118.916 147.168 121.516 144.775C124.116 142.382 126.179 139.541 127.586 136.414C128.993 133.287 129.717 129.936 129.717 126.551C129.717 123.166 128.993 119.815 127.586 116.688C126.179 113.561 124.116 110.72 121.516 108.327C118.916 105.934 115.83 104.035 112.432 102.74C109.035 101.445 105.394 100.778 101.717 100.778V100.778Z" fill="#F1F0F0"/>
</svg>
