<svg width="40" height="40" viewBox="0 0 40 40" fill="none" xmlns="http://www.w3.org/2000/svg">
<g clip-path="url(#clip0_399_126)">
<path d="M33.9985 15.3538C33.962 15.3538 33.926 15.3558 33.8897 15.3566C33.9248 15.0683 33.9433 14.7749 33.9433 14.4771C33.9433 10.5113 30.7284 7.29639 26.7626 7.29639C24.2634 7.29639 22.0628 8.57342 20.7767 10.5103C19.7368 10.0117 18.5718 9.73233 17.3414 9.73233C12.9474 9.73233 9.38525 13.2944 9.38525 17.6885C9.38525 22.0826 12.9474 25.6447 17.3414 25.6447H33.9984C36.8402 25.6447 39.1439 23.341 39.1439 20.4992C39.1439 17.6574 36.8403 15.3538 33.9985 15.3538Z" fill="#0069A3"/>
<path opacity="0.1" d="M35.1766 24.4665H18.5196C14.1256 24.4665 10.5635 20.9043 10.5635 16.5103C10.5635 14.6133 11.2277 12.8718 12.3358 11.5046C10.536 12.9632 9.38525 15.1914 9.38525 17.6885C9.38525 22.0826 12.9474 25.6447 17.3414 25.6447H33.9984C35.7201 25.6447 37.2431 24.7983 38.1772 23.4997C37.3323 24.1074 36.2967 24.4665 35.1766 24.4665Z" fill="black"/>
<path opacity="0.1" d="M24.0985 12.6121C23.7879 11.2942 23.0778 10.0499 22.0937 9.02197C21.5892 9.45424 21.145 9.95494 20.7764 10.5102C20.7407 10.493 22.6933 11.5046 23.645 12.8336C23.8067 13.0595 24.1623 12.8825 24.0985 12.6121Z" fill="black"/>
<path d="M29.5216 30.328C21.0911 30.3959 14.1438 23.5637 14.0771 15.1331C14.0284 8.97745 17.6108 3.65353 22.8104 1.17415C23.341 0.921183 23.2075 0.128603 22.6218 0.0771964C21.985 0.0213369 21.3396 -0.00475692 20.6871 0.000711841C9.68275 0.0923527 0.77305 9.15159 0.857034 20.1559C0.940862 31.1298 9.86283 40 20.8565 40C28.9653 40 35.9457 35.1739 39.0851 28.2377C39.3273 27.7026 38.709 27.1867 38.2294 27.5258C35.7649 29.2686 32.7635 30.302 29.5216 30.328Z" fill="#F5DF5D"/>
<path opacity="0.1" d="M22.1674 38.6892C11.1737 38.6892 2.25172 29.8191 2.1679 18.8451C2.12797 13.6146 4.12087 8.82448 7.40384 5.22705C3.34821 8.92612 0.812034 14.2615 0.857034 20.156C0.940863 31.1299 9.86283 40.0001 20.8565 40.0001C26.711 40.0001 31.9768 37.4841 35.634 33.4749C32.0804 36.7139 27.3548 38.6892 22.1674 38.6892Z" fill="black"/>
<g opacity="0.05">
<path opacity="0.05" d="M5.94534 26.7068C4.63174 26.7068 3.43455 27.2047 2.53174 28.0219C3.92041 31.1894 6.10542 33.9284 8.83464 35.9843C10.1632 35.0661 11.0343 33.533 11.0343 31.7958C11.0343 28.9851 8.75589 26.7068 5.94534 26.7068Z" fill="black"/>
<path opacity="0.05" d="M8.61459 21.0021C9.47853 21.0021 10.1789 20.3018 10.1789 19.4378C10.1789 18.5739 9.47853 17.8735 8.61459 17.8735C7.75065 17.8735 7.05029 18.5739 7.05029 19.4378C7.05029 20.3018 7.75065 21.0021 8.61459 21.0021Z" fill="black"/>
<path opacity="0.05" d="M30.0108 30.3153C29.8067 30.3234 29.602 30.3285 29.396 30.3285C26.6356 30.3285 24.0459 29.598 21.809 28.3203C21.469 28.942 21.2754 29.6552 21.2754 30.4137C21.2754 32.8266 23.2314 34.7826 25.6443 34.7826C28.0572 34.7826 30.0132 32.8266 30.0132 30.4137C30.0133 30.3807 30.0116 30.3481 30.0108 30.3153Z" fill="black"/>
<path opacity="0.05" d="M8.78665 4.05249C7.0079 5.40077 5.46172 7.03953 4.21875 8.89851C4.80399 9.40758 5.56805 9.7164 6.40461 9.7164C8.24548 9.7164 9.73798 8.22406 9.73798 6.38304C9.7379 5.47577 9.37493 4.65351 8.78665 4.05249Z" fill="black"/>
</g>
</g>
<defs>
<clipPath id="clip0_399_126">
<rect width="40" height="40" fill="white"/>
</clipPath>
</defs>
</svg>
