<svg width="64" height="64" viewBox="0 0 64 64" fill="none" xmlns="http://www.w3.org/2000/svg">
<path d="M32 64C49.6731 64 64 49.6731 64 32C64 14.3269 49.6731 0 32 0C14.3269 0 0 14.3269 0 32C0 49.6731 14.3269 64 32 64Z" fill="#57BC90"/>
<path d="M48.8081 28.3225C48.9711 28.694 49.1571 29.0905 49.3596 29.501C49.1571 29.0905 48.9711 28.694 48.8081 28.3225Z" fill="black"/>
<path d="M30.6541 11.3516C30.867 11.3336 31.082 11.3196 31.2985 11.3091C31.0815 11.3186 30.867 11.3341 30.6541 11.3516Z" fill="black"/>
<path d="M41.062 46.131C41.0625 46.131 41.0625 46.131 41.063 46.1315C47.593 44.33 51.699 40.6645 53.628 36.997C53.628 36.997 50.9785 32.786 49.3595 29.501C50.9785 32.786 53.628 36.997 53.627 36.997C51.6985 40.6645 47.5925 44.33 41.062 46.131Z" fill="black"/>
<path d="M24.702 45.5366C24.79 45.5076 24.8765 45.4791 24.962 45.4506C25.504 45.2706 25.988 45.1086 26.352 44.9771C26.36 44.9741 26.3675 44.9716 26.3755 44.9686C26.4675 44.9351 26.5485 44.9041 26.624 44.8746L26.3455 42.8201C23.453 40.8191 21.3685 37.3336 20.8245 33.2316C20.7775 33.2381 20.731 33.2461 20.6825 33.2461C20.13 33.2461 19.6825 32.7986 19.6825 32.2461C19.6825 31.7021 20.1175 31.2616 20.6585 31.2486C20.6605 31.8726 20.6825 32.2461 20.6825 32.2461C20.6825 32.1111 20.697 31.9901 20.7015 31.8596C21.049 22.1316 34.16 24.6906 38.1305 21.7151C38.5625 21.3916 38.887 21.0026 39.0735 20.5246C39.822 21.2426 40.494 22.0696 41.069 22.9896C41.1775 23.1636 41.283 23.3406 41.3845 23.5206C42.605 25.6816 43.3175 28.2871 43.3175 31.0911C43.3175 31.1486 43.3145 31.2051 43.314 31.2626C43.784 31.3446 44.1415 31.7521 44.1415 32.2451C44.1415 32.7861 43.711 33.2241 43.174 33.2416C42.6275 37.3391 40.5445 40.8201 37.6545 42.8196L37.376 44.8741C37.734 45.0136 38.2865 45.2006 38.9375 45.4166C39.1905 45.5006 39.4605 45.5901 39.736 45.6816C39.745 45.6846 39.7535 45.6876 39.7625 45.6906C45.4815 43.7806 49.1395 40.3921 50.925 36.9961C50.925 36.9961 46.2155 29.5106 45.5185 26.7141C43.566 18.8516 38.783 12.0331 30.6495 11.3511C22.5205 12.0331 17.733 18.8516 15.78 26.7146C15.088 29.5106 10.373 36.9966 10.373 36.9966C12.3015 40.6641 16.4075 44.3296 22.9375 46.1306C23.538 45.9236 24.1435 45.7221 24.702 45.5366C24.702 45.5366 24.702 45.5371 24.702 45.5366Z" fill="black"/>
<path d="M45.5179 26.715C46.2149 29.5115 50.9244 36.997 50.9244 36.997C49.1389 40.393 45.4814 43.7815 39.7619 45.6915C40.0239 45.7785 40.2899 45.8675 40.5604 45.9595C40.5749 45.9645 40.5889 45.9695 40.6034 45.974C40.7559 46.026 40.9089 46.0785 41.0619 46.1315C47.5924 44.3305 51.6984 40.665 53.6269 36.9975C53.6274 36.9975 50.9784 32.7865 49.3594 29.5015C49.1569 29.091 48.9709 28.6945 48.8079 28.323C48.5364 27.7035 48.3294 27.152 48.2204 26.715C46.1619 18.4255 40.9599 11.2915 31.9999 11.2915C31.7629 11.2915 31.5299 11.298 31.2989 11.309C31.0819 11.3195 30.8674 11.334 30.6544 11.3515C30.6524 11.3515 30.6504 11.3515 30.6489 11.352C30.6489 11.352 30.6489 11.352 30.6494 11.352C38.7824 12.034 43.5654 18.8525 45.5179 26.715Z" fill="black"/>
<path d="M44.336 48.3495C43.2895 50.8675 39.593 54.4095 37.1995 55.857C36.5345 56.259 35.969 56.502 35.5905 56.5135C35.5745 56.239 35.5345 55.951 35.48 55.66C35.181 54.097 34.3545 52.421 33.5875 52.065C33.013 52.065 32.473 52.1781 32.001 52.1781C31.9135 52.1781 31.8215 52.1711 31.73 52.1651C31.7295 52.1651 31.729 52.1651 31.7285 52.1651C31.511 52.1501 31.282 52.1256 31.044 52.1026C31.024 52.1006 31.0065 52.099 30.9865 52.0975C30.987 52.0975 30.9875 52.0975 30.988 52.0975C30.801 52.08 30.611 52.0655 30.4145 52.0655C30.414 52.0655 30.414 52.0661 30.4135 52.0661C30.4135 52.0661 30.414 52.0661 30.4145 52.0661C29.554 52.6701 28.5025 54.8775 28.412 56.514C28.3555 56.5125 28.294 56.505 28.2295 56.493C28.1995 56.4875 28.1655 56.4776 28.1335 56.4701C28.1005 56.4621 28.0685 56.4555 28.0335 56.4455C25.805 55.7985 20.1105 50.6405 19.444 47.675C16.79 48.3385 11.3905 49.8016 7.79248 52.9156C13.66 59.7006 22.325 64 32 64C40.982 64 49.095 60.2945 54.9065 54.3345C52.2465 51.1435 47.6675 49.3465 44.336 48.3495ZM32 61.4125C31.2535 61.4125 30.6485 60.8076 30.6485 60.0611C30.6485 59.3146 31.2535 58.7095 32 58.7095C32.7465 58.7095 33.3515 59.3146 33.3515 60.0611C33.3515 60.8076 32.7465 61.4125 32 61.4125Z" fill="#77C9D4"/>
<path d="M44.3359 48.3496C47.6679 49.3466 52.2464 51.1436 54.9069 54.3346C55.3554 53.8751 55.7879 53.4006 56.2084 52.9146C52.6109 49.8011 47.2124 48.3381 44.5584 47.6746C44.5094 47.8886 44.4329 48.1151 44.3359 48.3496Z" fill="#77C9D4"/>
<path d="M37.5159 42.8101H37.5149V44.8836H37.5159V42.8101Z" fill="#E6AFA0"/>
<path d="M35.47 43.9821C34.3765 44.4031 33.211 44.6331 32 44.6331C29.9395 44.6331 28.0095 43.9711 26.3455 42.8201L26.624 44.8746C26.6375 44.8696 26.6555 44.8631 26.668 44.8581C26.668 47.0406 28.83 50.0411 31.682 50.6916C31.7875 50.7001 31.8925 50.7141 31.9995 50.7141C32.9815 50.7141 33.8985 50.3346 34.6885 49.7431L35.47 43.9821Z" fill="#E6AFA0"/>
<path d="M37.3105 45.2225C37.321 45.1 37.3315 44.977 37.3315 44.858C37.344 44.863 37.3615 44.869 37.375 44.8745L37.6535 42.821C36.9675 43.2955 36.237 43.687 35.47 43.9825L34.6895 49.7435C36.0595 48.718 37.0355 47.0465 37.271 45.537C37.2865 45.431 37.3 45.3265 37.3105 45.2225Z" fill="#D9A597"/>
<path d="M20.6826 32.2455C20.6826 32.2455 20.6611 31.872 20.6586 31.248C20.1176 31.261 19.6826 31.7015 19.6826 32.2455C19.6826 32.798 20.1301 33.2455 20.6826 33.2455C20.7311 33.2455 20.7776 33.238 20.8246 33.231C20.7646 32.7805 20.7236 32.3225 20.7021 31.8585C20.6971 31.9895 20.6826 32.1105 20.6826 32.2455Z" fill="#992B1F"/>
<path d="M44.1416 32.2454C44.1416 31.7524 43.7836 31.3449 43.3141 31.2629C43.3071 31.9354 43.2601 32.5964 43.1741 33.2424C43.7111 33.2244 44.1416 32.7864 44.1416 32.2454Z" fill="#992B1F"/>
<path d="M41.069 22.9894C40.494 22.0694 39.822 21.2424 39.0735 20.5244C39.822 21.2424 40.494 22.0694 41.069 22.9894Z" fill="#FFE1D9"/>
<path d="M35.4699 43.9818C36.2369 43.6863 36.9674 43.2948 37.6534 42.8203C37.6539 42.8203 37.6539 42.8198 37.6544 42.8198C40.5444 40.8208 42.6274 37.3393 43.1739 33.2418C43.2599 32.5963 43.3069 31.9353 43.3139 31.2623C43.3144 31.2048 43.3174 31.1483 43.3174 31.0908C43.3174 38.5698 38.2504 44.6323 31.9999 44.6323C31.6579 44.6323 31.3209 44.6063 30.9864 44.5708C36.7604 43.9573 41.2904 38.1603 41.2904 31.0913C41.2904 27.4488 40.0859 24.1468 38.1304 21.7148C34.1599 24.6903 21.0489 22.1313 20.7019 31.8583C20.7234 32.3223 20.7649 32.7803 20.8244 33.2308C21.3689 37.3328 23.4529 40.8188 26.3454 42.8193C28.0094 43.9703 29.9394 44.6323 31.9999 44.6323C33.2104 44.6328 34.3759 44.4028 35.4699 43.9818Z" fill="#FAD3A1"/>
<path d="M30.9866 44.5709C31.3211 44.6064 31.6581 44.6324 32.0001 44.6324C38.2506 44.6324 43.3176 38.5699 43.3176 31.0909C43.3176 28.2864 42.6051 25.6814 41.3846 23.5204C41.2831 23.3404 41.1776 23.1634 41.0691 22.9894C40.4941 22.0694 39.8221 21.2424 39.0736 20.5244C38.8866 21.0024 38.5621 21.3914 38.1306 21.7149C40.0861 24.1469 41.2906 27.4489 41.2906 31.0914C41.2906 38.1604 36.7606 43.9574 30.9866 44.5709Z" fill="#F2D6CE"/>
<path d="M37.1992 55.857C39.5932 54.41 43.2897 50.868 44.3357 48.3495C44.4332 48.115 44.5097 47.8885 44.5577 47.6745C44.5577 47.6745 44.5577 47.6745 44.5577 47.674C44.4477 47.5685 44.2742 47.454 44.0527 47.3335C44.2742 47.454 44.4467 47.568 44.5567 47.6735C43.9917 50.1875 39.8157 54.2745 37.1992 55.857Z" fill="#F5F5F5"/>
<path d="M38.9375 45.4175C39.1905 45.5015 39.4605 45.591 39.736 45.6825C39.4605 45.591 39.1905 45.5015 38.9375 45.4175Z" fill="#F5F5F5"/>
<path d="M24.9622 45.4503C25.5052 45.2708 25.9877 45.1088 26.3522 44.9768C25.9882 45.1088 25.5042 45.2708 24.9622 45.4503Z" fill="#F5F5F5"/>
<path d="M40.561 45.9595C40.5755 45.9645 40.5895 45.969 40.604 45.974C40.5895 45.969 40.575 45.964 40.561 45.9595Z" fill="#F5F5F5"/>
<path d="M28.0331 56.4444C27.6206 56.3224 27.0886 56.0449 26.4946 55.6609C26.7936 54.0979 27.8321 52.8774 28.5691 52.4629C29.4311 51.9774 30.3196 52.0709 30.4131 52.0654C30.4136 52.0654 30.4136 52.0649 30.4141 52.0649C30.6101 52.0649 30.8006 52.0794 30.9876 52.0969C31.1746 52.0799 31.3636 52.0654 31.5591 52.0654C31.6161 52.0919 31.6731 52.1249 31.7296 52.1649C31.8216 52.1714 31.9131 52.1779 32.0006 52.1779C32.4726 52.1779 33.0126 52.0649 33.5871 52.0649C34.3541 52.4209 35.1806 54.0969 35.4796 55.6599C38.1036 53.9599 41.9866 50.0914 42.5296 47.6734C41.9091 47.0759 39.2696 46.1989 37.2706 45.5364C37.0351 47.0459 36.0591 48.7174 34.6891 49.7429C33.8991 50.3344 32.9821 50.7139 32.0001 50.7139C31.8926 50.7139 31.7881 50.7004 31.6826 50.6914C31.6986 50.6949 31.7141 50.7009 31.7296 50.7044C28.5481 50.7839 25.0746 47.9169 24.7021 45.5369C24.1436 45.7224 23.5381 45.9234 22.9371 46.1314C21.3876 46.6679 19.8906 47.2439 19.4436 47.6739C20.1101 50.6399 25.8051 55.7979 28.0331 56.4444Z" fill="#F5F5F5"/>
<path d="M31.7282 52.1648C31.5112 52.1493 31.2812 52.1248 31.0437 52.1023C31.2817 52.1253 31.5107 52.1498 31.7282 52.1648Z" fill="#F5F5F5"/>
<path d="M28.2291 56.4925C28.1986 56.487 28.1651 56.4775 28.1331 56.4695C28.1651 56.477 28.1986 56.487 28.2291 56.4925Z" fill="#F5F5F5"/>
<path d="M26.6687 44.8579C26.6557 44.8629 26.6382 44.8694 26.6247 44.8744C26.5492 44.9039 26.4682 44.9344 26.3762 44.9684C26.4837 44.9289 26.5842 44.8914 26.6687 44.8579Z" fill="#F5F5F5"/>
<path d="M37.3315 44.8579C37.3315 44.9769 37.321 45.0994 37.3105 45.2224C37.323 45.0989 37.3315 44.9769 37.3315 44.8579Z" fill="#F5F5F5"/>
<path d="M30.9876 52.0969C30.9871 52.0969 30.9866 52.0969 30.9861 52.0969C31.0061 52.0989 31.0236 52.1004 31.0436 52.1019C31.2811 52.1244 31.5111 52.1494 31.7281 52.1644C31.7286 52.1644 31.7291 52.1644 31.7296 52.1644C31.6731 52.1244 31.6161 52.0914 31.5591 52.0649C31.3636 52.0654 31.1746 52.0799 30.9876 52.0969Z" fill="#CCCCCC"/>
<path d="M26.6684 44.8579C26.5839 44.8914 26.4834 44.9289 26.3754 44.9684C26.3674 44.9714 26.3599 44.9739 26.3519 44.9769C25.9869 45.1094 25.5049 45.2709 24.9619 45.4504C24.8764 45.4789 24.7904 45.5069 24.7019 45.5364V45.5369C25.0744 47.9169 28.5479 50.7839 31.7294 50.7044C31.7134 50.7009 31.6979 50.6949 31.6824 50.6914C28.8304 50.0409 26.6684 47.0404 26.6684 44.8579Z" fill="#E6E6E6"/>
<path d="M28.5689 52.4629C27.8319 52.8774 26.7934 54.0979 26.4944 55.6609C27.0884 56.0454 27.6204 56.3229 28.0329 56.4444C28.0679 56.4549 28.0994 56.4609 28.1329 56.4689C28.1649 56.4769 28.1984 56.4864 28.2289 56.4919C28.2939 56.5039 28.3549 56.5114 28.4114 56.5129C28.5019 54.8764 29.5534 52.6689 30.4139 52.0649C30.4139 52.0649 30.4134 52.0649 30.4129 52.0649C30.3194 52.0714 29.4309 51.9774 28.5689 52.4629Z" fill="#E6E6E6"/>
<path d="M40.6035 45.9739C40.589 45.9689 40.575 45.9644 40.5605 45.9594C40.29 45.8674 40.024 45.7784 39.762 45.6914C39.753 45.6884 39.7445 45.6854 39.7355 45.6824C39.4605 45.5909 39.1905 45.5014 38.937 45.4174C38.286 45.2009 37.7335 45.0144 37.3755 44.8749C37.375 44.8749 37.375 44.8749 37.3745 44.8744C37.3615 44.8694 37.344 44.8629 37.331 44.8579C37.331 44.9769 37.3225 45.0989 37.31 45.2224C37.2995 45.3264 37.286 45.4309 37.27 45.5364C39.269 46.1989 41.9085 47.0759 42.529 47.6734C41.986 50.0914 38.103 53.9599 35.479 55.6599C35.5335 55.9509 35.5735 56.2389 35.5895 56.5134C35.968 56.5019 36.5335 56.2589 37.1985 55.8569C39.815 54.2744 43.991 50.1874 44.5565 47.6734C44.4465 47.5679 44.274 47.4539 44.0525 47.3334C43.3715 46.9634 42.232 46.5364 41.0625 46.1314C41.062 46.1314 41.062 46.1314 41.0615 46.1309C40.9095 46.0784 40.7565 46.0259 40.6035 45.9739Z" fill="#E6E6E6"/>
<path d="M31.9999 61.4115C32.7463 61.4115 33.3514 60.8064 33.3514 60.06C33.3514 59.3136 32.7463 58.7085 31.9999 58.7085C31.2535 58.7085 30.6484 59.3136 30.6484 60.06C30.6484 60.8064 31.2535 61.4115 31.9999 61.4115Z" fill="#242424"/>
<path d="M26.5 31.29C27.6046 31.29 28.5 30.6185 28.5 29.79C28.5 28.9616 27.6046 28.29 26.5 28.29C25.3954 28.29 24.5 28.9616 24.5 29.79C24.5 30.6185 25.3954 31.29 26.5 31.29Z" fill="#F5F5F5"/>
<path d="M26.5 30.79C27.0523 30.79 27.5 30.3423 27.5 29.79C27.5 29.2378 27.0523 28.79 26.5 28.79C25.9477 28.79 25.5 29.2378 25.5 29.79C25.5 30.3423 25.9477 30.79 26.5 30.79Z" fill="#734822"/>
<path d="M36.5 31.29C37.6046 31.29 38.5 30.6185 38.5 29.79C38.5 28.9616 37.6046 28.29 36.5 28.29C35.3954 28.29 34.5 28.9616 34.5 29.79C34.5 30.6185 35.3954 31.29 36.5 31.29Z" fill="#F5F5F5"/>
<path d="M36.5 30.79C37.0523 30.79 37.5 30.3423 37.5 29.79C37.5 29.2378 37.0523 28.79 36.5 28.79C35.9477 28.79 35.5 29.2378 35.5 29.79C35.5 30.3423 35.9477 30.79 36.5 30.79Z" fill="#734822"/>
<path d="M31.9598 40.9598C30.3598 40.9598 28.8598 40.0598 28.0598 38.7598C27.9598 38.4598 27.9598 38.1598 28.2598 38.0598C28.4598 37.9598 28.7598 37.9598 28.9598 38.2598C29.5598 39.3598 30.7598 40.0598 31.9598 40.0598C33.1598 40.0598 34.3598 39.3598 34.9598 38.2598C35.0598 38.0598 35.3598 37.9598 35.6598 38.0598C35.8598 38.1598 35.9598 38.4598 35.8598 38.7598C35.0598 40.0598 33.5598 40.9598 31.9598 40.9598Z" fill="#F4B28E"/>
<path d="M33 36C33 36.6 32.6 37 32 37C31.4 37 31 36.6 31 36H33Z" fill="#F7BE8F"/>
</svg>
