<svg width="13" height="13" viewBox="0 0 13 13" fill="none" xmlns="http://www.w3.org/2000/svg">
<g clip-path="url(#clip0_362_35)">
<path fill-rule="evenodd" clip-rule="evenodd" d="M11.5612 2.27535L12.8529 3.42172C12.9348 3.49465 12.987 3.60018 12.9981 3.71521C13.0092 3.83024 12.9783 3.94541 12.9122 4.03552L12.3346 4.81873L10.4239 3.12469L11.0026 2.34032C11.0694 2.25107 11.1656 2.19422 11.2703 2.18206C11.375 2.1699 11.4799 2.20341 11.5623 2.27535H11.5612ZM2.22909 3.57488C2.13986 3.57488 2.05429 3.53601 1.9912 3.46681C1.9281 3.39762 1.89266 3.30377 1.89266 3.20591C1.89266 3.10805 1.9281 3.0142 1.9912 2.945C2.05429 2.87581 2.13986 2.83693 2.22909 2.83693H7.84147C7.9307 2.83693 8.01627 2.87581 8.07936 2.945C8.14245 3.0142 8.1779 3.10805 8.1779 3.20591C8.1779 3.30377 8.14245 3.39762 8.07936 3.46681C8.01627 3.53601 7.9307 3.57488 7.84147 3.57488H2.22909ZM1.00399 0H9.06763C9.33356 0.00122163 9.58828 0.117625 9.77632 0.323862C9.96437 0.530098 10.0705 0.809464 10.0716 1.10112V1.75437L9.59766 2.39602C9.54886 2.46223 9.50698 2.53423 9.47282 2.61067C9.44743 2.63272 9.42204 2.65709 9.39771 2.68261V1.10112C9.39743 1.0051 9.3626 0.913076 9.30079 0.845067C9.23897 0.777058 9.15518 0.738562 9.06763 0.737951H1.00399C0.916251 0.738257 0.832187 0.776618 0.770147 0.84466C0.708108 0.912702 0.673131 1.0049 0.672852 1.10112V11.8989C0.673378 11.995 0.708332 12.0871 0.770182 12.1553C0.800792 12.1892 0.837215 12.216 0.877345 12.2343C0.917476 12.2527 0.960519 12.2621 1.00399 12.262H9.06763C9.11106 12.262 9.15407 12.2526 9.19419 12.2344C9.2343 12.2161 9.27074 12.1893 9.3014 12.1556C9.33207 12.1219 9.35636 12.0818 9.37288 12.0378C9.38941 11.9937 9.39785 11.9465 9.39771 11.8989V10.2338L9.59977 10.1399C9.78006 10.0668 9.93879 9.94124 10.0589 9.77669L10.0716 9.76044V11.8989C10.0691 12.1896 9.96241 12.4676 9.77454 12.6728C9.58668 12.878 9.33275 12.9938 9.06763 12.9954H1.00399C0.738615 12.9948 0.484208 12.8792 0.296165 12.6738C0.108122 12.4684 0.0016737 12.1899 0 11.8989L0 1.10112C0.00111386 0.809464 0.107248 0.530098 0.295292 0.323862C0.483335 0.117625 0.738057 0.00122163 1.00399 0V0ZM2.22909 10.1642C2.14298 10.1589 2.062 10.1177 2.00275 10.049C1.9435 9.98024 1.91049 9.88925 1.91049 9.79467C1.91049 9.70009 1.9435 9.6091 2.00275 9.54038C2.062 9.47165 2.14298 9.43041 2.22909 9.42512H5.94458C5.91468 9.67003 5.90406 9.91731 5.91284 10.1642H2.22909ZM2.22909 7.96778C2.14298 7.96249 2.062 7.92124 2.00275 7.85252C1.9435 7.7838 1.91049 7.6928 1.91049 7.59822C1.91049 7.50364 1.9435 7.41265 2.00275 7.34393C2.062 7.2752 2.14298 7.23396 2.22909 7.22867H6.26514V7.26L6.15405 7.96778H2.22909ZM2.22909 5.77133C2.13986 5.77133 2.05429 5.73246 1.9912 5.66326C1.9281 5.59406 1.89266 5.50021 1.89266 5.40236C1.89266 5.3045 1.9281 5.21065 1.9912 5.14145C2.05429 5.07225 2.13986 5.03338 2.22909 5.03338H7.66374L7.12313 5.77133H2.22909ZM9.23055 9.05034L7.87427 9.68502C6.88509 10.0876 6.92953 10.3151 7.02791 9.23831L7.3252 7.3563L10.1351 3.52731L12.0394 5.22135L9.23267 9.05034H9.23055ZM7.64998 7.64522L8.9047 8.75794L8.01392 9.17565C7.31567 9.50402 7.33472 9.66646 7.45638 8.8821L7.64998 7.64522Z" fill="#015249"/>
</g>
<defs>
<clipPath id="clip0_362_35">
<rect width="13" height="13" fill="white"/>
</clipPath>
</defs>
</svg>
