<svg width="376" height="117" viewBox="0 0 376 117" fill="none" xmlns="http://www.w3.org/2000/svg">
<rect width="376" height="117" rx="18" fill="white"/>
<path d="M131.94 50.5867H117.618V56.4667H129.042V62.0527H117.618V72.7207H110.394V45.0007H131.94V50.5867ZM144.601 52.6327C143.353 52.6327 142.441 52.4047 141.865 51.9487C141.313 51.4687 141.037 50.7247 141.037 49.7167C141.037 48.6847 141.313 47.9407 141.865 47.4847C142.441 47.0047 143.353 46.7647 144.601 46.7647C145.825 46.7647 146.725 47.0047 147.301 47.4847C147.877 47.9407 148.165 48.6847 148.165 49.7167C148.165 50.7247 147.877 51.4687 147.301 51.9487C146.725 52.4047 145.825 52.6327 144.601 52.6327ZM147.661 54.7207V72.7207H141.541V54.7207H147.661ZM157.417 72.7207V54.7207H162.889L163.069 58.3567C163.621 57.0367 164.425 56.0407 165.481 55.3687C166.537 54.6967 167.785 54.3607 169.225 54.3607C171.073 54.3607 172.573 54.9007 173.725 55.9807C174.877 57.0607 175.453 58.6447 175.453 60.7327V72.7207H169.333V62.3527C169.333 61.1047 169.093 60.2407 168.613 59.7607C168.133 59.2807 167.521 59.0407 166.777 59.0407C165.889 59.0407 165.121 59.3527 164.473 59.9767C163.849 60.6007 163.537 61.6687 163.537 63.1807V72.7207H157.417ZM195.185 61.3087C195.185 60.4687 194.945 59.8087 194.465 59.3287C194.009 58.8247 193.385 58.5727 192.593 58.5727C191.801 58.5727 191.117 58.7767 190.541 59.1847C189.989 59.5687 189.605 60.2647 189.389 61.2727L184.205 60.0487C184.541 58.3207 185.429 56.9407 186.869 55.9087C188.309 54.8767 190.337 54.3607 192.953 54.3607C195.593 54.3607 197.633 54.9487 199.073 56.1247C200.537 57.2767 201.269 58.9687 201.269 61.2007V67.7887C201.269 68.7247 201.689 69.1927 202.529 69.1927C202.961 69.1927 203.309 69.1447 203.573 69.0487L203.213 72.5407C202.493 72.8767 201.617 73.0447 200.585 73.0447C199.457 73.0447 198.485 72.8287 197.669 72.3967C196.853 71.9407 196.301 71.2567 196.013 70.3447C195.509 71.2807 194.705 71.9767 193.601 72.4327C192.521 72.8647 191.369 73.0807 190.145 73.0807C188.297 73.0807 186.821 72.6607 185.717 71.8207C184.637 70.9567 184.097 69.7207 184.097 68.1127C184.097 66.8167 184.481 65.7487 185.249 64.9087C186.041 64.0447 187.277 63.4447 188.957 63.1087L195.185 61.8127V61.3087ZM190.145 67.5367C190.145 68.0647 190.337 68.4607 190.721 68.7247C191.105 68.9887 191.561 69.1207 192.089 69.1207C192.905 69.1207 193.625 68.8807 194.249 68.4007C194.873 67.8967 195.185 67.1167 195.185 66.0607V65.0527L192.269 65.6647C191.549 65.8087 191.009 66.0247 190.649 66.3127C190.313 66.5767 190.145 66.9847 190.145 67.5367ZM211.389 72.7207V54.7207H216.861L217.041 58.3567C217.593 57.0367 218.397 56.0407 219.453 55.3687C220.509 54.6967 221.757 54.3607 223.197 54.3607C225.045 54.3607 226.545 54.9007 227.697 55.9807C228.849 57.0607 229.425 58.6447 229.425 60.7327V72.7207H223.305V62.3527C223.305 61.1047 223.065 60.2407 222.585 59.7607C222.105 59.2807 221.493 59.0407 220.749 59.0407C219.861 59.0407 219.093 59.3527 218.445 59.9767C217.821 60.6007 217.509 61.6687 217.509 63.1807V72.7207H211.389ZM247.645 54.3607C249.469 54.3607 250.981 54.6247 252.181 55.1527C253.405 55.6807 254.353 56.3647 255.025 57.2047C255.697 58.0447 256.129 58.9567 256.321 59.9407L250.669 61.8127C250.525 60.7807 250.225 60.0127 249.769 59.5087C249.313 58.9807 248.665 58.7167 247.825 58.7167C246.673 58.7167 245.797 59.1247 245.197 59.9407C244.621 60.7567 244.333 62.0407 244.333 63.7927C244.333 65.5687 244.645 66.8407 245.269 67.6087C245.917 68.3527 246.781 68.7247 247.861 68.7247C249.565 68.7247 250.561 67.7527 250.849 65.8087L256.357 67.5727C256.093 69.1327 255.217 70.4407 253.729 71.4967C252.265 72.5527 250.321 73.0807 247.897 73.0807C244.945 73.0807 242.581 72.2647 240.805 70.6327C239.053 68.9767 238.177 66.6727 238.177 63.7207C238.177 61.7527 238.573 60.0727 239.365 58.6807C240.181 57.2887 241.297 56.2207 242.713 55.4767C244.129 54.7327 245.773 54.3607 247.645 54.3607ZM267.999 52.6327C266.751 52.6327 265.839 52.4047 265.263 51.9487C264.711 51.4687 264.435 50.7247 264.435 49.7167C264.435 48.6847 264.711 47.9407 265.263 47.4847C265.839 47.0047 266.751 46.7647 267.999 46.7647C269.223 46.7647 270.123 47.0047 270.699 47.4847C271.275 47.9407 271.563 48.6847 271.563 49.7167C271.563 50.7247 271.275 51.4687 270.699 51.9487C270.123 52.4047 269.223 52.6327 267.999 52.6327ZM271.059 54.7207V72.7207H264.939V54.7207H271.059ZM288.376 73.0807C286.576 73.0807 284.908 72.7927 283.372 72.2167C281.836 71.6167 280.552 70.7647 279.52 69.6607L282.4 66.2767C283 67.0447 283.792 67.6927 284.776 68.2207C285.784 68.7247 286.9 68.9767 288.124 68.9767C288.868 68.9767 289.48 68.8687 289.96 68.6527C290.44 68.4367 290.68 68.1007 290.68 67.6447C290.68 67.3327 290.56 67.0687 290.32 66.8527C290.08 66.6367 289.6 66.4567 288.88 66.3127L286.36 65.8087C284.104 65.3527 282.496 64.6807 281.536 63.7927C280.6 62.8807 280.132 61.6927 280.132 60.2287C280.132 59.2447 280.432 58.3087 281.032 57.4207C281.632 56.5327 282.556 55.8007 283.804 55.2247C285.052 54.6487 286.648 54.3607 288.592 54.3607C292.312 54.3607 295.024 55.3927 296.728 57.4567L293.812 60.7687C293.236 60.0487 292.492 59.4847 291.58 59.0767C290.668 58.6687 289.756 58.4647 288.844 58.4647C287.092 58.4647 286.216 58.9087 286.216 59.7967C286.216 60.1087 286.36 60.3847 286.648 60.6247C286.96 60.8647 287.524 61.0567 288.34 61.2007L291.616 61.8487C293.464 62.2087 294.796 62.8327 295.612 63.7207C296.428 64.5847 296.836 65.6407 296.836 66.8887C296.836 68.6407 296.128 70.1167 294.712 71.3167C293.32 72.4927 291.208 73.0807 288.376 73.0807ZM318.299 54.7207V59.0767H312.935V66.3127C312.935 67.1767 313.139 67.8007 313.547 68.1847C313.979 68.5447 314.567 68.7247 315.311 68.7247C315.887 68.7247 316.379 68.6647 316.787 68.5447C317.195 68.4007 317.579 68.1967 317.939 67.9327L318.587 71.7127C317.987 72.1207 317.219 72.4567 316.283 72.7207C315.371 72.9607 314.447 73.0807 313.511 73.0807C311.447 73.0807 309.815 72.6487 308.615 71.7847C307.439 70.8967 306.839 69.4087 306.815 67.3207V59.0767H303.719V54.7207H306.815V50.6887L312.935 48.9967V54.7207H318.299Z" fill="#005C00"/>
<path d="M337.315 98.0607C337.901 97.4749 337.901 96.5251 337.315 95.9393L327.769 86.3934C327.183 85.8076 326.233 85.8076 325.648 86.3934C325.062 86.9792 325.062 87.9289 325.648 88.5147L334.133 97L325.648 105.485C325.062 106.071 325.062 107.021 325.648 107.607C326.233 108.192 327.183 108.192 327.769 107.607L337.315 98.0607ZM53 98.5H336.254V95.5H53V98.5Z" fill="#005C00"/>
<path d="M75 66.8354V69.3465C75 71.4225 79.2104 73.1103 84.4 73.1103C89.5896 73.1103 93.8 71.4225 93.8 69.3465V66.8354C91.778 68.5467 88.0817 69.3465 84.4 69.3465C80.7183 69.3465 77.022 68.5467 75 66.8354ZM90.6667 50.5276C95.8562 50.5276 100.067 48.8397 100.067 46.7638C100.067 44.6878 95.8562 43 90.6667 43C85.4771 43 81.2667 44.6878 81.2667 46.7638C81.2667 48.8397 85.4771 50.5276 90.6667 50.5276ZM75 60.6663V63.7008C75 65.7768 79.2104 67.4646 84.4 67.4646C89.5896 67.4646 93.8 65.7768 93.8 63.7008V60.6663C91.778 62.6658 88.0768 63.7008 84.4 63.7008C80.7232 63.7008 77.022 62.6658 75 60.6663ZM95.3667 61.3132C98.172 60.6604 100.067 59.4489 100.067 58.0551V55.544C98.9308 56.5085 97.2614 57.1671 95.3667 57.5729V61.3132ZM84.4 52.4095C79.2104 52.4095 75 54.5148 75 57.1142C75 59.7136 79.2104 61.8189 84.4 61.8189C89.5896 61.8189 93.8 59.7136 93.8 57.1142C93.8 54.5148 89.5896 52.4095 84.4 52.4095ZM95.1366 55.7204C98.0741 55.0853 100.067 53.8385 100.067 52.4095V49.8983C98.3286 51.3744 95.3422 52.1683 92.1991 52.3565C93.6433 53.1975 94.7057 54.3266 95.1366 55.7204Z" fill="#FFD300"/>
</svg>
