<svg width="145" height="140" viewBox="0 0 145 140" fill="none" xmlns="http://www.w3.org/2000/svg">
<ellipse cx="72.5" cy="70" rx="72.5" ry="70" fill="#57BC90"/>
<path d="M41.0975 45.7083H70.6015V51.2123H47.6255V65.4843H64.7775V70.6683H47.6255V90.4443H41.0975V45.7083ZM87.6115 91.4043C85.2222 91.3617 82.8969 91.1057 80.6355 90.6363C78.4169 90.2097 76.5609 89.6337 75.0675 88.9083V83.0843C78.9075 84.919 83.0889 85.879 87.6115 85.9643V70.0923C87.5262 70.0923 87.4622 70.071 87.4195 70.0283C83.1955 68.3217 80.1449 66.4657 78.2675 64.4603C76.3902 62.4123 75.4515 59.831 75.4515 56.7163C75.4515 53.559 76.5395 50.935 78.7155 48.8443C80.9342 46.711 83.8995 45.4097 87.6115 44.9403V39.1163H93.2435V44.8123C96.6995 45.0683 99.9635 45.8577 103.036 47.1803V52.8123C99.7502 51.319 96.4862 50.487 93.2435 50.3163V65.9323C96.1022 67.0843 98.3635 68.215 100.028 69.3243C101.734 70.4337 103.014 71.7777 103.868 73.3563C104.764 74.8923 105.212 76.8337 105.212 79.1803C105.212 82.5083 104.209 85.1963 102.204 87.2443C100.198 89.2497 97.2115 90.5297 93.2435 91.0843V97.0363H87.6115V91.4043ZM87.6115 50.7643C85.8622 51.2337 84.5182 51.9803 83.5795 53.0043C82.6835 53.9857 82.2355 55.223 82.2355 56.7163C82.2355 58.2523 82.6409 59.5323 83.4515 60.5563C84.3049 61.5377 85.6915 62.519 87.6115 63.5003V50.7643ZM93.2435 85.3883C96.6569 84.4497 98.3635 82.3803 98.3635 79.1803C98.3635 77.6017 97.9582 76.3217 97.1475 75.3403C96.3795 74.359 95.0782 73.4203 93.2435 72.5243V85.3883Z" fill="white"/>
<g clip-path="url(#clip0_307_186)">
<path d="M99.0834 120.067V123.375C99.0834 126.11 103.143 128.333 108.146 128.333C113.149 128.333 117.208 126.11 117.208 123.375V120.067C115.259 122.321 111.695 123.375 108.146 123.375C104.596 123.375 101.033 122.321 99.0834 120.067ZM114.188 98.5834C119.191 98.5834 123.25 96.3599 123.25 93.6251C123.25 90.8903 119.191 88.6667 114.188 88.6667C109.184 88.6667 105.125 90.8903 105.125 93.6251C105.125 96.3599 109.184 98.5834 114.188 98.5834ZM99.0834 111.94V115.938C99.0834 118.672 103.143 120.896 108.146 120.896C113.149 120.896 117.208 118.672 117.208 115.938V111.94C115.259 114.574 111.691 115.938 108.146 115.938C104.601 115.938 101.033 114.574 99.0834 111.94ZM118.719 112.792C121.423 111.932 123.25 110.336 123.25 108.5V105.192C122.155 106.463 120.545 107.33 118.719 107.865V112.792ZM108.146 101.063C103.143 101.063 99.0834 103.836 99.0834 107.261C99.0834 110.685 103.143 113.458 108.146 113.458C113.149 113.458 117.208 110.685 117.208 107.261C117.208 103.836 113.149 101.063 108.146 101.063ZM118.497 105.424C121.329 104.588 123.25 102.945 123.25 101.063V97.7544C121.574 99.699 118.695 100.745 115.665 100.993C117.057 102.101 118.082 103.588 118.497 105.424Z" fill="#FFD300"/>
</g>
<defs>
<clipPath id="clip0_307_186">
<rect width="24.1667" height="39.6667" fill="white" transform="translate(99.0834 88.6667)"/>
</clipPath>
</defs>
</svg>
