<svg width="614" height="187" viewBox="0 0 614 187" fill="none" xmlns="http://www.w3.org/2000/svg">
<g filter="url(#filter0_d_307_167)">
<rect x="4" width="606" height="179" rx="18" fill="#0B6E4F"/>
</g>
<path d="M202.618 76.056H178.066V86.136H197.65V95.712H178.066V114H165.682V66.48H202.618V76.056ZM224.656 78.288C222.437 78.288 220.816 77.8827 219.792 77.072C218.81 76.2187 218.32 74.896 218.32 73.104C218.32 71.2693 218.81 69.9467 219.792 69.136C220.816 68.2827 222.437 67.856 224.656 67.856C226.832 67.856 228.432 68.2827 229.456 69.136C230.48 69.9467 230.992 71.2693 230.992 73.104C230.992 74.896 230.48 76.2187 229.456 77.072C228.432 77.8827 226.832 78.288 224.656 78.288ZM230.096 82V114H219.216V82H230.096ZM247.441 114V82H257.169L257.489 88.464C258.47 86.1173 259.899 84.3467 261.777 83.152C263.654 81.9573 265.873 81.36 268.433 81.36C271.718 81.36 274.385 82.32 276.433 84.24C278.481 86.16 279.505 88.976 279.505 92.688V114H268.625V95.568C268.625 93.3493 268.198 91.8133 267.345 90.96C266.491 90.1067 265.403 89.68 264.081 89.68C262.502 89.68 261.137 90.2347 259.985 91.344C258.875 92.4533 258.321 94.352 258.321 97.04V114H247.441ZM314.584 93.712C314.584 92.2187 314.158 91.0453 313.304 90.192C312.494 89.296 311.384 88.848 309.976 88.848C308.568 88.848 307.352 89.2107 306.328 89.936C305.347 90.6187 304.664 91.856 304.28 93.648L295.064 91.472C295.662 88.4 297.24 85.9467 299.8 84.112C302.36 82.2773 305.966 81.36 310.616 81.36C315.31 81.36 318.936 82.4053 321.496 84.496C324.099 86.544 325.4 89.552 325.4 93.52V105.232C325.4 106.896 326.147 107.728 327.64 107.728C328.408 107.728 329.027 107.643 329.496 107.472L328.856 113.68C327.576 114.277 326.019 114.576 324.184 114.576C322.179 114.576 320.451 114.192 319 113.424C317.55 112.613 316.568 111.397 316.056 109.776C315.16 111.44 313.731 112.677 311.768 113.488C309.848 114.256 307.8 114.64 305.624 114.64C302.339 114.64 299.715 113.893 297.752 112.4C295.832 110.864 294.872 108.667 294.872 105.808C294.872 103.504 295.555 101.605 296.92 100.112C298.328 98.576 300.526 97.5093 303.512 96.912L314.584 94.608V93.712ZM305.624 104.784C305.624 105.723 305.966 106.427 306.648 106.896C307.331 107.365 308.142 107.6 309.08 107.6C310.531 107.6 311.811 107.173 312.92 106.32C314.03 105.424 314.584 104.037 314.584 102.16V100.368L309.4 101.456C308.12 101.712 307.16 102.096 306.52 102.608C305.923 103.077 305.624 103.803 305.624 104.784ZM343.391 114V82H353.119L353.439 88.464C354.42 86.1173 355.849 84.3467 357.727 83.152C359.604 81.9573 361.823 81.36 364.383 81.36C367.668 81.36 370.335 82.32 372.383 84.24C374.431 86.16 375.455 88.976 375.455 92.688V114H364.575V95.568C364.575 93.3493 364.148 91.8133 363.295 90.96C362.441 90.1067 361.353 89.68 360.031 89.68C358.452 89.68 357.087 90.2347 355.935 91.344C354.825 92.4533 354.271 94.352 354.271 97.04V114H343.391ZM407.846 81.36C411.089 81.36 413.777 81.8293 415.91 82.768C418.086 83.7067 419.772 84.9227 420.966 86.416C422.161 87.9093 422.929 89.5307 423.27 91.28L413.222 94.608C412.966 92.7733 412.433 91.408 411.622 90.512C410.812 89.5733 409.66 89.104 408.166 89.104C406.118 89.104 404.561 89.8293 403.494 91.28C402.47 92.7307 401.958 95.0133 401.958 98.128C401.958 101.285 402.513 103.547 403.622 104.912C404.774 106.235 406.31 106.896 408.23 106.896C411.26 106.896 413.03 105.168 413.542 101.712L423.334 104.848C422.865 107.621 421.308 109.947 418.662 111.824C416.06 113.701 412.604 114.64 408.294 114.64C403.046 114.64 398.844 113.189 395.686 110.288C392.572 107.344 391.014 103.248 391.014 98C391.014 94.5013 391.718 91.5147 393.126 89.04C394.577 86.5653 396.561 84.6667 399.078 83.344C401.596 82.0213 404.518 81.36 407.846 81.36ZM444.031 78.288C441.812 78.288 440.191 77.8827 439.167 77.072C438.185 76.2187 437.695 74.896 437.695 73.104C437.695 71.2693 438.185 69.9467 439.167 69.136C440.191 68.2827 441.812 67.856 444.031 67.856C446.207 67.856 447.807 68.2827 448.831 69.136C449.855 69.9467 450.367 71.2693 450.367 73.104C450.367 74.896 449.855 76.2187 448.831 77.072C447.807 77.8827 446.207 78.288 444.031 78.288ZM449.471 82V114H438.591V82H449.471ZM480.256 114.64C477.056 114.64 474.09 114.128 471.36 113.104C468.629 112.037 466.346 110.523 464.512 108.56L469.632 102.544C470.698 103.909 472.106 105.061 473.856 106C475.648 106.896 477.632 107.344 479.808 107.344C481.13 107.344 482.218 107.152 483.072 106.768C483.925 106.384 484.352 105.787 484.352 104.976C484.352 104.421 484.138 103.952 483.712 103.568C483.285 103.184 482.432 102.864 481.152 102.608L476.672 101.712C472.661 100.901 469.802 99.7067 468.096 98.128C466.432 96.5067 465.6 94.3947 465.6 91.792C465.6 90.0427 466.133 88.3787 467.2 86.8C468.266 85.2213 469.909 83.92 472.128 82.896C474.346 81.872 477.184 81.36 480.64 81.36C487.253 81.36 492.074 83.1947 495.104 86.864L489.92 92.752C488.896 91.472 487.573 90.4693 485.952 89.744C484.33 89.0187 482.709 88.656 481.088 88.656C477.973 88.656 476.416 89.4453 476.416 91.024C476.416 91.5787 476.672 92.0693 477.184 92.496C477.738 92.9227 478.741 93.264 480.192 93.52L486.016 94.672C489.301 95.312 491.669 96.4213 493.12 98C494.57 99.536 495.296 101.413 495.296 103.632C495.296 106.747 494.037 109.371 491.52 111.504C489.045 113.595 485.29 114.64 480.256 114.64ZM533.453 82V89.744H523.917V102.608C523.917 104.144 524.279 105.253 525.005 105.936C525.773 106.576 526.818 106.896 528.141 106.896C529.165 106.896 530.039 106.789 530.765 106.576C531.49 106.32 532.173 105.957 532.813 105.488L533.965 112.208C532.898 112.933 531.533 113.531 529.869 114C528.247 114.427 526.605 114.64 524.941 114.64C521.271 114.64 518.37 113.872 516.237 112.336C514.146 110.757 513.079 108.112 513.037 104.4V89.744H507.533V82H513.037V74.832L523.917 71.824V82H533.453Z" fill="white"/>
<path d="M536.582 149.061C537.168 148.475 537.168 147.525 536.582 146.939L527.036 137.393C526.45 136.808 525.501 136.808 524.915 137.393C524.329 137.979 524.329 138.929 524.915 139.515L533.4 148L524.915 156.485C524.329 157.071 524.329 158.021 524.915 158.607C525.501 159.192 526.45 159.192 527.036 158.607L536.582 149.061ZM79 149.5H535.522V146.5H79V149.5Z" fill="#DDB771"/>
<path d="M90 102.466V106.308C90 109.484 96.7859 112.066 105.15 112.066C113.514 112.066 120.3 109.484 120.3 106.308V102.466C117.041 105.084 111.084 106.308 105.15 106.308C99.2162 106.308 93.2588 105.084 90 102.466ZM115.25 77.5165C123.614 77.5165 130.4 74.9343 130.4 71.7583C130.4 68.5822 123.614 66 115.25 66C106.886 66 100.1 68.5822 100.1 71.7583C100.1 74.9343 106.886 77.5165 115.25 77.5165ZM90 93.0279V97.6705C90 100.847 96.7859 103.429 105.15 103.429C113.514 103.429 120.3 100.847 120.3 97.6705V93.0279C117.041 96.087 111.076 97.6705 105.15 97.6705C99.2241 97.6705 93.2588 96.087 90 93.0279ZM122.825 94.0176C127.346 93.0189 130.4 91.1654 130.4 89.0331V85.1912C128.569 86.6668 125.879 87.6745 122.825 88.2953V94.0176ZM105.15 80.3957C96.7859 80.3957 90 83.6167 90 87.5935C90 91.5703 96.7859 94.7914 105.15 94.7914C113.514 94.7914 120.3 91.5703 120.3 87.5935C120.3 83.6167 113.514 80.3957 105.15 80.3957ZM122.454 85.4612C127.189 84.4895 130.4 82.582 130.4 80.3957V76.5538C127.599 78.8122 122.786 80.0268 117.72 80.3147C120.047 81.6013 121.76 83.3288 122.454 85.4612Z" fill="#DDB771"/>
<defs>
<filter id="filter0_d_307_167" x="0" y="0" width="614" height="187" filterUnits="userSpaceOnUse" color-interpolation-filters="sRGB">
<feFlood flood-opacity="0" result="BackgroundImageFix"/>
<feColorMatrix in="SourceAlpha" type="matrix" values="0 0 0 0 0 0 0 0 0 0 0 0 0 0 0 0 0 0 127 0" result="hardAlpha"/>
<feOffset dy="4"/>
<feGaussianBlur stdDeviation="2"/>
<feComposite in2="hardAlpha" operator="out"/>
<feColorMatrix type="matrix" values="0 0 0 0 0 0 0 0 0 0 0 0 0 0 0 0 0 0 0.25 0"/>
<feBlend mode="normal" in2="BackgroundImageFix" result="effect1_dropShadow_307_167"/>
<feBlend mode="normal" in="SourceGraphic" in2="effect1_dropShadow_307_167" result="shape"/>
</filter>
</defs>
</svg>
