<svg width="191" height="160" viewBox="0 0 191 160" fill="none" xmlns="http://www.w3.org/2000/svg">
<circle cx="103" cy="80" r="80" fill="#015249"/>
<path d="M58.8698 113.568H53.4138V115.808H57.7658V117.936H53.4138V122H50.6618V111.44H58.8698V113.568ZM64.0266 113.072C63.472 113.072 63.0666 112.971 62.8106 112.768C62.5653 112.555 62.4426 112.224 62.4426 111.776C62.4426 111.317 62.5653 110.987 62.8106 110.784C63.0666 110.571 63.472 110.464 64.0266 110.464C64.5706 110.464 64.9706 110.571 65.2266 110.784C65.4826 110.987 65.6106 111.317 65.6106 111.776C65.6106 112.224 65.4826 112.555 65.2266 112.768C64.9706 112.971 64.5706 113.072 64.0266 113.072ZM65.3866 114V122H62.6666V114H65.3866ZM69.7229 122V114H72.1549L72.2989 116.752L71.9949 116.448C72.1015 115.872 72.2882 115.392 72.5549 115.008C72.8322 114.624 73.1735 114.336 73.5789 114.144C73.9949 113.941 74.4589 113.84 74.9709 113.84C75.5255 113.84 76.0055 113.947 76.4109 114.16C76.8269 114.373 77.1522 114.688 77.3869 115.104C77.6215 115.52 77.7389 116.043 77.7389 116.672V122H75.0189V117.392C75.0189 116.837 74.9122 116.453 74.6989 116.24C74.4855 116.027 74.2135 115.92 73.8829 115.92C73.6269 115.92 73.3869 115.984 73.1629 116.112C72.9389 116.229 72.7629 116.421 72.6349 116.688C72.5069 116.955 72.4429 117.312 72.4429 117.76V122H69.7229ZM86.5088 116.928C86.5088 116.555 86.4021 116.261 86.1888 116.048C85.9861 115.824 85.7088 115.712 85.3568 115.712C85.0048 115.712 84.7008 115.803 84.4448 115.984C84.1994 116.155 84.0288 116.464 83.9328 116.912L81.6288 116.368C81.7781 115.6 82.1728 114.987 82.8128 114.528C83.4528 114.069 84.3541 113.84 85.5168 113.84C86.2954 113.84 86.9568 113.957 87.5008 114.192C88.0554 114.416 88.4768 114.757 88.7648 115.216C89.0634 115.664 89.2128 116.219 89.2128 116.88V119.808C89.2128 120.224 89.3994 120.432 89.7728 120.432C89.9648 120.432 90.1194 120.411 90.2368 120.368L90.0768 121.92C89.7568 122.069 89.3674 122.144 88.9088 122.144C88.4928 122.144 88.1248 122.08 87.8048 121.952C87.4848 121.813 87.2341 121.611 87.0528 121.344C86.8714 121.067 86.7808 120.72 86.7808 120.304V120.208L87.0848 120.096C87.0848 120.555 86.9461 120.939 86.6688 121.248C86.4021 121.557 86.0501 121.787 85.6128 121.936C85.1861 122.085 84.7381 122.16 84.2688 122.16C83.7248 122.16 83.2501 122.075 82.8448 121.904C82.4394 121.733 82.1248 121.488 81.9008 121.168C81.6874 120.837 81.5808 120.432 81.5808 119.952C81.5808 119.376 81.7514 118.901 82.0928 118.528C82.4448 118.144 82.9941 117.877 83.7408 117.728L86.7648 117.104L86.7488 118.544L85.2128 118.864C84.8928 118.928 84.6528 119.024 84.4928 119.152C84.3434 119.269 84.2688 119.451 84.2688 119.696C84.2688 119.931 84.3541 120.107 84.5248 120.224C84.6954 120.341 84.8981 120.4 85.1328 120.4C85.3141 120.4 85.4848 120.373 85.6448 120.32C85.8154 120.267 85.9648 120.187 86.0928 120.08C86.2208 119.963 86.3221 119.819 86.3968 119.648C86.4714 119.477 86.5088 119.275 86.5088 119.04V116.928ZM93.7104 122V114H96.1424L96.2864 116.752L95.9824 116.448C96.089 115.872 96.2757 115.392 96.5424 115.008C96.8197 114.624 97.161 114.336 97.5664 114.144C97.9824 113.941 98.4464 113.84 98.9584 113.84C99.513 113.84 99.993 113.947 100.398 114.16C100.814 114.373 101.14 114.688 101.374 115.104C101.609 115.52 101.726 116.043 101.726 116.672V122H99.0064V117.392C99.0064 116.837 98.8997 116.453 98.6864 116.24C98.473 116.027 98.201 115.92 97.8704 115.92C97.6144 115.92 97.3744 115.984 97.1504 116.112C96.9264 116.229 96.7504 116.421 96.6224 116.688C96.4944 116.955 96.4304 117.312 96.4304 117.76V122H93.7104ZM109.824 113.84C110.635 113.84 111.307 113.957 111.84 114.192C112.384 114.416 112.806 114.72 113.104 115.104C113.414 115.477 113.606 115.883 113.68 116.32L111.168 117.152C111.094 116.693 110.955 116.352 110.752 116.128C110.56 115.893 110.278 115.776 109.904 115.776C109.563 115.776 109.275 115.856 109.04 116.016C108.816 116.165 108.646 116.411 108.528 116.752C108.411 117.083 108.352 117.509 108.352 118.032C108.352 118.555 108.416 118.981 108.544 119.312C108.672 119.632 108.854 119.867 109.088 120.016C109.323 120.155 109.6 120.224 109.92 120.224C110.187 120.224 110.406 120.176 110.576 120.08C110.758 119.973 110.907 119.824 111.024 119.632C111.142 119.44 111.216 119.205 111.248 118.928L113.696 119.712C113.622 120.181 113.419 120.603 113.088 120.976C112.768 121.339 112.342 121.627 111.808 121.84C111.275 122.053 110.651 122.16 109.936 122.16C109.062 122.16 108.299 122 107.648 121.68C106.998 121.349 106.496 120.875 106.144 120.256C105.792 119.627 105.616 118.875 105.616 118C105.616 117.125 105.792 116.379 106.144 115.76C106.496 115.131 106.987 114.656 107.616 114.336C108.256 114.005 108.992 113.84 109.824 113.84ZM118.87 113.072C118.316 113.072 117.91 112.971 117.654 112.768C117.409 112.555 117.286 112.224 117.286 111.776C117.286 111.317 117.409 110.987 117.654 110.784C117.91 110.571 118.316 110.464 118.87 110.464C119.414 110.464 119.814 110.571 120.07 110.784C120.326 110.987 120.454 111.317 120.454 111.776C120.454 112.224 120.326 112.555 120.07 112.768C119.814 112.971 119.414 113.072 118.87 113.072ZM120.23 114V122H117.51V114H120.23ZM127.927 122.16C127.127 122.16 126.38 122.032 125.687 121.776C125.004 121.509 124.439 121.131 123.991 120.64L125.271 119.136C125.537 119.477 125.889 119.765 126.327 120C126.775 120.224 127.271 120.336 127.815 120.336C128.145 120.336 128.417 120.288 128.631 120.192C128.844 120.096 128.951 119.947 128.951 119.744C128.951 119.595 128.897 119.477 128.791 119.392C128.684 119.296 128.471 119.216 128.151 119.152L127.031 118.928C126.028 118.725 125.313 118.427 124.887 118.032C124.471 117.627 124.263 117.099 124.263 116.448C124.263 116.011 124.396 115.595 124.663 115.2C124.929 114.795 125.34 114.469 125.895 114.224C126.449 113.968 127.159 113.84 128.023 113.84C128.833 113.84 129.548 113.957 130.167 114.192C130.785 114.427 131.276 114.768 131.639 115.216L130.343 116.688C130.087 116.368 129.756 116.117 129.351 115.936C128.945 115.755 128.54 115.664 128.135 115.664C127.879 115.664 127.66 115.691 127.479 115.744C127.308 115.787 127.18 115.851 127.095 115.936C127.009 116.021 126.967 116.128 126.967 116.256C126.967 116.395 127.031 116.517 127.159 116.624C127.297 116.72 127.548 116.805 127.911 116.88L129.367 117.168C130.188 117.317 130.78 117.589 131.143 117.984C131.505 118.379 131.687 118.853 131.687 119.408C131.687 119.931 131.548 120.4 131.271 120.816C130.993 121.232 130.577 121.563 130.023 121.808C129.468 122.043 128.769 122.16 127.927 122.16ZM138.842 111.456V119.152C138.842 119.536 138.933 119.813 139.114 119.984C139.306 120.144 139.567 120.224 139.898 120.224C140.154 120.224 140.373 120.197 140.554 120.144C140.746 120.08 140.917 119.989 141.066 119.872L141.354 121.552C141.087 121.744 140.751 121.893 140.346 122C139.941 122.107 139.525 122.16 139.098 122.16C138.49 122.16 137.962 122.075 137.514 121.904C137.077 121.733 136.735 121.461 136.49 121.088C136.255 120.715 136.133 120.219 136.122 119.6V112.208L138.842 111.456ZM141.226 114V115.936H134.746V114H141.226Z" fill="white"/>
<g clip-path="url(#clip0_345_1477)">
<path d="M120.428 7.62874C120.451 8.01925 120.535 9.30713 120.618 10.4953C120.8 13.1126 120.808 14.2426 120.656 15.6053C120.398 17.8653 119.608 22.4186 119.236 23.748C118.72 25.5676 116.556 28.7499 114.331 30.9435C113.314 31.9572 113.071 32.1316 111.78 32.8047C110.087 33.6937 108.743 34.3086 102.281 37.117L101.749 37.3496L100.572 36.8428C99.4714 36.3775 99.35 36.3442 98.6362 36.311C98.0136 36.2861 97.725 36.3193 97.0037 36.4938C96.5253 36.6184 95.8875 36.768 95.599 36.8345C95.3029 36.9009 94.6043 37.1253 94.0424 37.333C93.0553 37.6986 92.9642 37.7235 91.6962 37.8066C90.747 37.8648 90.2155 37.8648 89.8131 37.7983C89.0842 37.682 87.4744 37.682 86.9657 37.7983C86.0925 38.006 85.3636 38.4879 84.3841 39.5182L83.7235 40.2162L83.4957 40.0417C83.0325 39.6761 81.2405 39.1443 78.2792 38.4879C75.7887 37.9395 74.7105 37.5656 72.9641 36.6683C71.3847 35.854 70.5191 35.1145 69.5928 33.8017C67.9071 31.3921 66.5328 27.5618 65.8342 23.291L65.7811 22.9586L65.6672 23.291C65.614 23.4738 65.4698 24.0886 65.3559 24.6619C65.1736 25.6258 65.1584 25.8501 65.1584 27.6531C65.1584 29.8051 65.2344 30.4366 65.7355 32.1316C66.548 34.9151 68.302 37.7568 70.1319 39.244C71.4151 40.291 74.0651 41.986 75.1357 42.443C76.0241 42.8252 79.7447 43.789 81.5518 44.1047C83.2299 44.4039 84.2398 44.8692 84.7865 45.617C85.1585 46.1321 85.2573 46.4894 85.2193 47.179C85.1965 47.5945 85.2193 47.7274 85.2876 47.7025C85.3332 47.6776 85.5686 47.7025 85.7964 47.7606C86.5253 47.9268 86.7759 48.4669 86.6164 49.5304C86.4797 50.3779 86.1988 51.0343 85.6217 51.8652C84.9611 52.8208 84.7561 53.2362 84.7637 53.6766C84.7713 54.1003 85.075 54.4742 85.4699 54.5407C85.6901 54.5822 85.7812 54.549 85.9634 54.3745C86.1684 54.1834 86.1684 54.1668 86.0242 54.1585C85.766 54.1585 85.6673 53.9508 85.7128 53.5187C85.7356 53.2528 85.804 53.0783 85.9178 52.9786C86.0697 52.8457 86.1001 52.8457 86.2975 52.9537C86.5709 53.1116 86.662 53.5353 86.5329 54.0754C86.3507 54.8315 86.1456 54.9894 85.3332 54.9894C84.7181 54.9894 84.3765 55.1556 84.1183 55.5876C83.9512 55.8618 83.9285 55.9698 83.9664 56.3603C83.9892 56.6096 84.0424 56.8755 84.0879 56.9586C84.1487 57.0832 84.1639 57.0417 84.1714 56.7509C84.1714 56.0529 84.5055 55.6042 84.8928 55.7704C85.1889 55.895 84.9232 56.7675 84.3992 57.4239C84.1259 57.7645 82.3795 59.31 82.1821 59.3848C82.1365 59.4014 82.1669 59.2851 82.258 59.1272C82.3491 58.9693 82.6604 58.1634 82.949 57.3491C83.5868 55.5211 83.7842 55.0891 84.1259 54.7567L84.3916 54.4992L84.2702 54.2333C84.1639 53.9923 84.1563 53.8594 84.2322 53.2445C84.3385 52.3222 84.8548 50.2782 85.2648 49.1565C85.5458 48.3755 85.5686 48.2758 85.4319 48.3589C85.1358 48.5334 84.2777 49.5471 84.1259 49.896C83.9816 50.245 83.8677 50.353 83.8677 50.1453C83.8677 50.0954 83.7918 49.7714 83.7007 49.439C83.5488 48.8574 83.4881 48.7743 82.7136 47.8687C81.8024 46.8051 81.5898 46.4395 81.5898 45.9327C81.5898 45.268 82.1137 45.0104 82.8654 45.3012C83.6703 45.617 84.0651 46.157 84.1487 47.0627L84.1942 47.528L83.9361 47.4698C83.1919 47.312 82.8351 47.1541 82.5997 46.8799C82.3036 46.5392 82.1213 45.9825 82.258 45.833C82.3947 45.6834 82.7515 46.0075 82.7819 46.2983C82.8275 46.6389 83.0097 46.9048 83.2755 47.0045C83.4881 47.0876 83.8677 47.0544 83.8677 46.9547C83.8677 46.9298 83.7083 46.6639 83.5184 46.3731C83.2679 45.9825 83.078 45.7914 82.8503 45.6834C82.3795 45.4508 82.0302 45.4092 81.8632 45.5422C81.7265 45.6502 81.7189 45.6917 81.8024 46.0075C81.9391 46.4894 82.5465 47.3369 82.9717 47.6194C83.2603 47.8105 83.4349 47.8687 83.9209 47.8936C84.2474 47.9185 84.5587 47.9019 84.6118 47.8604C84.8244 47.7025 83.9892 45.5505 83.564 45.1517C83.2679 44.8858 82.6149 44.6697 82.1821 44.703C81.8783 44.7279 81.8404 44.7528 81.6126 45.1766C81.2405 45.8579 81.2178 46.2401 81.4987 46.8716C81.6278 47.1541 81.9239 47.636 82.1517 47.9351C82.7743 48.766 82.8654 49.1565 83.0401 51.8569C83.1692 53.8843 83.1692 54.1419 83.0629 54.7401C82.8654 55.92 82.3795 57.3823 81.7569 58.7284C81.362 59.5925 81.0203 60.4899 80.7242 61.4537C80.2231 63.0989 80.2155 63.265 80.6103 64.5612C81.2102 66.5553 81.9087 67.3281 83.6399 67.9014C84.3385 68.134 84.9991 68.5246 85.7812 69.1643L86.2747 69.5632L86.3203 73.809C86.3431 76.177 86.4038 78.3373 86.4494 78.7112C86.6999 80.7054 87.6187 82.525 89.2968 84.3696C89.9574 85.1008 90.2914 85.4082 90.5041 85.483C90.7318 85.5661 91.2785 85.5827 92.7592 85.5495C93.8374 85.5245 94.8776 85.5328 95.0827 85.5744C95.5914 85.6824 96.3051 86.0729 97.801 87.0617C99.2361 88.0172 99.8891 88.3662 101.18 88.8813C102.167 89.2801 102.44 89.5128 102.752 90.2024C102.987 90.7259 102.964 91.1496 102.676 91.5651C102.372 92.0138 102.243 92.5538 102.243 93.4263C102.243 94.2405 102.402 95.329 102.585 95.7029C102.714 95.9771 103.2 96.459 103.86 96.9659C104.316 97.3231 104.369 97.3896 104.369 97.6472C104.369 97.9712 104.164 98.744 103.784 99.8241L103.519 100.589L103.207 100.638C103.033 100.672 102.668 100.771 102.395 100.871C101.939 101.029 101.818 101.129 100.899 102.126C100.345 102.724 99.8891 103.231 99.8891 103.264C99.8891 103.33 101.78 103.904 102.668 104.103C103.314 104.253 103.503 104.261 104.027 104.186C104.916 104.053 106.191 103.754 106.153 103.679C106.131 103.646 106.161 103.571 106.222 103.522C106.313 103.438 106.298 103.281 106.146 102.5C105.948 101.461 105.834 101.278 105.295 101.054C104.969 100.913 104.961 100.896 105.007 100.622C105.09 100.032 106.001 98.2371 106.305 98.0543C106.389 97.9962 106.396 97.9214 106.328 97.614C106.282 97.4062 106.252 96.8495 106.252 96.3676C106.252 94.9967 106.503 94.3403 107.558 92.961C107.816 92.6203 108.067 92.2547 108.112 92.155C108.234 91.8642 108.067 91.7146 107.634 91.7146C107.315 91.7146 107.239 91.7479 107.034 92.0055C106.654 92.4874 106.495 92.9194 106.146 94.4483C105.652 96.6252 105.402 97.0406 104.946 96.4424C104.657 96.0768 103.913 94.6726 103.746 94.1907C103.579 93.7005 103.564 92.9028 103.724 92.4957C103.989 91.7894 104.802 90.8838 105.69 90.3021L105.979 90.111L105.698 90.5099C105.326 91.0499 105.159 91.4238 105.06 91.9805C104.954 92.5123 104.999 92.9028 105.227 93.4844C105.386 93.9165 105.508 93.8833 105.508 93.418C105.508 92.961 105.728 92.1883 106.077 91.4072C106.374 90.7508 106.51 90.5597 107.08 89.9698C107.831 89.2054 108.317 88.5988 108.317 88.4243C108.317 88.2249 107.862 88.2914 107.186 88.5988C106.131 89.0724 105.068 89.8036 104.308 90.5846C104.088 90.809 103.898 90.9752 103.875 90.9502C103.815 90.8921 104.24 90.2357 104.779 89.5377C105.607 88.4825 106.996 87.2611 108.257 86.4967C108.758 86.1975 110.109 85.5661 110.261 85.5661C110.322 85.5661 110.367 85.5328 110.367 85.4913C110.367 85.3999 109.304 85.4497 108.697 85.5744C107.49 85.8153 106.366 86.4219 105.204 87.4356C104.764 87.8261 104.384 88.1418 104.354 88.1418C104.232 88.1418 104.301 87.743 104.49 87.3192C104.87 86.4884 105.508 85.9234 106.48 85.5578C106.708 85.4747 106.943 85.3584 106.996 85.3085C107.171 85.1506 107.118 84.8598 106.837 84.4361C106.024 83.2064 105.956 82.9571 106.313 82.4918C106.867 81.7772 107.847 81.8271 108.211 82.5915C108.408 83.0152 108.302 83.1066 107.892 82.8657C107.444 82.6081 107.323 82.6081 107.034 82.874C106.472 83.3891 106.966 84.2367 107.831 84.2367C108.598 84.2367 109.525 83.5138 109.79 82.7078C109.851 82.5167 109.927 82.1262 109.95 81.8188C110.011 81.1624 110.102 80.9297 110.436 80.6888C110.808 80.4146 111.036 80.4395 111.165 80.7635C111.263 81.0211 111.271 81.0294 111.279 80.83C111.279 80.5309 111.096 80.2816 110.838 80.2235C110.436 80.1321 110.087 80.3149 109.555 80.8716C109.274 81.1624 109.039 81.395 109.031 81.3867C108.993 81.3452 109.221 80.1653 109.297 80.0157C109.335 79.9327 109.601 79.6252 109.874 79.3427L110.383 78.8276L109.935 78.3041C109.684 78.0216 109.411 77.6062 109.312 77.3818C108.811 76.2103 108.803 73.6262 109.297 72.3965C109.509 71.8647 109.973 71.2083 110.246 71.0505C110.443 70.9341 110.474 70.9424 110.633 71.1086C111.066 71.549 111.385 72.8202 111.339 73.917C111.309 74.7728 111.256 74.8725 110.861 74.7895C110.535 74.723 110.443 74.615 110.443 74.2992C110.443 73.9586 110.603 73.9253 110.884 74.1995C111.058 74.374 111.074 74.3823 111.02 74.2244C110.983 74.133 110.922 73.9586 110.884 73.8256C110.732 73.3686 110.2 73.4766 109.942 74.0333C109.768 74.4072 109.904 74.8476 110.36 75.3461C110.755 75.7782 111.089 75.9278 111.263 75.7367C111.438 75.5373 111.575 74.7147 111.628 73.5597C111.681 72.2552 111.605 71.765 110.861 68.9068C110.595 67.8515 110.33 66.7797 110.292 66.5221C110.132 65.6081 110.428 65.0597 111.423 64.4283C112.129 63.9796 112.623 63.8633 113.708 63.8965C114.21 63.9131 114.62 63.9048 114.612 63.8799C114.612 63.855 114.316 63.6306 113.959 63.3814C112.964 62.6917 112.144 61.7611 111.719 60.8471C110.481 58.1883 107.087 48.791 106.844 47.3286C106.768 46.8633 106.973 46.6722 108.241 46.0739C108.849 45.7914 109.563 45.3926 109.836 45.1932C110.314 44.8359 112.721 42.2851 112.721 42.1272C112.721 42.0857 112.402 42.1605 112.023 42.2934C111.096 42.6174 110.284 42.6756 109.229 42.4928C107.824 42.2519 107.816 42.3433 109.396 41.4127C110.815 40.5735 111.749 39.9586 111.848 39.7924C111.932 39.6346 111.438 39.2108 110.99 39.0696C110.413 38.8868 110.124 38.9698 108.56 39.7758C107.064 40.5485 106.457 40.7978 105.28 41.1135C104.377 41.3545 102.592 41.6453 102.349 41.5955C102.273 41.5788 103.951 40.9557 106.077 40.2079C110.39 38.6957 111.696 38.1307 114.62 36.5353C116.563 35.4718 118.021 34.4747 118.705 33.7353C119.745 32.6219 120.77 30.0046 121.628 26.2822C122.38 23.0417 122.494 21.6874 122.364 17.8487L122.281 15.3975L121.37 11.2431C120.869 8.95816 120.443 7.04711 120.428 7.00557C120.405 6.95572 120.405 7.23822 120.428 7.62874ZM121.529 15.3145C121.681 17.3667 121.506 19.1615 120.914 21.7538C120.709 22.6429 120.337 24.0222 120.094 24.8115C119.844 25.6009 119.677 26.2406 119.73 26.2157C119.995 26.1243 121.324 22.8838 121.681 21.4464C121.901 20.5823 122.023 20.6238 121.954 21.5378C121.886 22.4518 121.674 23.4572 121.347 24.4459C121.081 25.2436 121.074 25.2851 121.096 26.357C121.112 27.4288 121.051 28.0686 120.929 28.0686C120.891 28.0686 120.853 27.6531 120.831 27.1546C120.793 26.1742 120.702 25.9 120.504 26.1908C120.307 26.4816 119.95 27.5202 119.585 28.8579C119.38 29.5891 119.213 30.204 119.198 30.2206C119.191 30.2372 119.084 30.1707 118.963 30.0793C118.644 29.8218 118.355 29.3232 118.249 28.833C118.196 28.5921 118.135 28.4009 118.105 28.4009C118.082 28.4009 118.021 28.5422 117.976 28.725C117.733 29.5974 118.059 30.2372 118.849 30.4699C119.707 30.7191 120.246 29.8301 120.368 27.9689C120.39 27.5701 120.436 27.2626 120.466 27.2792C120.58 27.354 120.626 28.4508 120.542 29.0241C120.39 30.071 120.163 30.4616 119.191 31.3755C118.651 31.8741 118.469 32.223 118.348 32.9127C118.234 33.5774 118.067 33.9264 117.702 34.2504C117.391 34.5329 116.791 34.8902 116.45 35.0065L116.267 35.0647L116.32 34.0011C116.427 31.5085 116.457 30.2289 116.412 30.2289C116.336 30.2289 116.009 30.985 115.88 31.4752C115.812 31.7245 115.721 32.3227 115.683 32.8047C115.561 34.3086 115.295 35.1228 114.726 35.7543C114.392 36.1199 113.792 36.5353 113.367 36.7015C113.116 36.8012 113.124 36.8012 113.708 36.3526C114.399 35.8208 114.582 34.9733 114.248 33.8682C114.035 33.1702 113.921 33.0622 114.073 33.702C114.149 34.0178 114.172 34.3169 114.134 34.5911C114.08 34.9733 114.027 35.0564 113.382 35.7543C112.456 36.7431 111.689 37.4493 111.757 37.2665C111.787 37.1834 111.833 36.7846 111.856 36.3941L111.901 35.6712L111.636 36.2528C111.15 37.2831 110.246 38.1473 109.183 38.5876C108.484 38.8785 108.492 38.8369 109.221 38.4464C109.714 38.1805 109.995 37.9562 110.474 37.441C110.937 36.9425 111.02 36.8178 110.815 36.9508C110.405 37.2084 110.238 37.1751 109.836 36.7265C109.54 36.4024 109.456 36.2528 109.38 35.854C109.335 35.5964 109.274 35.3804 109.251 35.3804C109.168 35.3804 109.297 36.2279 109.403 36.4107C109.608 36.7597 109.775 37.3662 109.73 37.5823C109.639 37.9645 108.894 38.1722 108.431 37.9395C108.317 37.8814 108.173 37.7235 108.105 37.5906L107.983 37.333L107.923 37.79C107.885 38.0393 107.771 38.4464 107.664 38.6957L107.475 39.1526L107.049 38.6375C106.708 38.2137 106.184 37.79 106.009 37.79C105.994 37.79 106.093 38.0393 106.237 38.3384C106.381 38.6375 106.495 38.9283 106.495 38.9865C106.495 39.0945 105.88 39.5016 105.007 39.9752C104.293 40.3657 103.025 40.8477 102.531 40.9141L102.129 40.964L102.607 40.4904C102.866 40.2328 103.131 39.9088 103.192 39.7758C103.321 39.5099 103.344 38.7871 103.23 38.7871C103.048 38.7871 102.448 39.5182 102.19 40.05C101.765 40.9307 101.362 41.1966 99.8663 41.5622C99.0842 41.7533 98.8488 41.7783 97.6719 41.7616L96.3583 41.745L95.7205 42.0109C94.3613 42.5759 93.2831 43.4982 92.8047 44.4953C92.0606 46.0656 91.8404 47.9601 92.2277 49.5471C92.4631 50.486 93.2148 51.6824 93.845 52.1145C94.0424 52.2474 94.1715 52.3804 94.1411 52.4136C94.1108 52.4469 93.7842 52.5466 93.4198 52.6463C93.0629 52.7377 92.6377 52.8789 92.4934 52.9537C92.091 53.1614 91.3924 54.0255 90.8457 54.9894C90.2839 55.9781 90.17 56.0862 89.9498 55.8701C89.7144 55.6375 89.7447 55.4131 90.0257 55.3467C90.2003 55.3134 90.2459 55.2636 90.2307 55.1223C90.1927 54.8398 89.8738 54.8564 89.5473 55.1556C89.2056 55.463 89.1829 55.6956 89.4258 56.2357C89.6612 56.7426 89.927 56.7758 90.5268 56.3687C90.9065 56.1194 92.1366 55.6125 92.1973 55.6873C92.2125 55.7039 92.0227 55.8618 91.7797 56.0529C90.7698 56.8256 90.2535 57.4987 90.2459 58.0554C90.2459 58.1634 90.3826 58.5788 90.5496 58.9693C91.1115 60.3237 91.0583 60.7391 90.1168 62.2929C89.7675 62.8662 89.441 63.4811 89.3955 63.6639C89.3119 63.9464 89.3271 64.0211 89.4638 64.287C89.5473 64.4532 89.7827 64.6942 89.9801 64.8354C90.5876 65.2509 91.1495 65.1428 92.0454 64.4366C92.4479 64.1208 92.5618 63.8383 92.4555 63.4146C92.3188 62.8579 92.1821 62.7166 91.7797 62.7166C91.2709 62.7166 90.8837 62.8579 90.7091 63.0989C90.5572 63.3149 90.4129 64.0045 90.5041 64.1042C90.5268 64.1375 90.7546 64.0544 91.0052 63.9214C91.3317 63.7553 91.4608 63.6389 91.4608 63.5226C91.4608 63.4063 91.4304 63.3814 91.3317 63.4229C90.9976 63.5641 90.9824 63.5558 91.2102 63.2983C91.4608 63.0158 91.643 62.9991 91.9391 63.2318C92.0682 63.3398 92.0606 63.3647 91.8404 63.6971C91.6734 63.9547 91.4608 64.1292 91.1343 64.3036C90.8761 64.4366 90.6028 64.5446 90.5344 64.5446C90.2687 64.5446 90.0105 63.6389 90.17 63.29C90.3218 62.9742 91.1646 62.0602 91.5215 61.8276C92.0075 61.5119 92.1593 61.5949 92.4782 62.3261C92.7896 63.0407 93.0781 64.0211 93.2527 64.96C93.3514 65.5167 93.359 65.7078 93.2907 65.9654C93.1844 66.3559 92.8731 66.5637 92.4631 66.5221C92.2201 66.4972 92.1593 66.4556 92.0303 66.1648C91.8556 65.766 91.848 65.2924 92.0303 64.9933C92.1062 64.8603 92.1214 64.8022 92.053 64.852C91.9999 64.8853 91.7645 65.0514 91.5291 65.2259C90.9748 65.6248 90.5876 65.7328 89.6764 65.7411C88.7956 65.7494 88.5223 65.6331 87.9908 65.0265C87.3226 64.2621 87.0948 63.6805 86.7227 61.8193C86.624 61.2958 86.5253 60.8638 86.5101 60.8471C86.5025 60.8305 86.4873 61.7196 86.4873 62.8247C86.4873 65.0764 86.4266 65.7909 86.2444 65.7909C85.8647 65.7909 85.4699 65.5583 85.0522 65.1013C84.8093 64.8271 84.627 64.6775 84.6574 64.7606C84.7713 65.201 84.8548 65.7411 84.8169 65.874C84.703 66.2812 83.5033 66.4307 82.9338 66.115C82.4782 65.8574 81.772 65.0099 81.5063 64.395C81.2785 63.8882 81.0659 62.9659 81.0583 62.5338C81.0583 62.2347 81.4228 61.786 81.9315 61.4703C82.3567 61.2044 82.6149 61.1629 82.8123 61.3291C83.1084 61.5783 83.8146 62.6003 83.8677 62.8413C83.9361 63.1653 83.8374 63.4229 83.7614 63.1072C83.7007 62.8413 83.0553 62.2015 82.6073 61.9605C81.9922 61.6365 81.6657 61.9273 81.6657 62.8163C81.6657 63.2069 81.7037 63.3315 81.8632 63.5475C82.1061 63.855 82.7743 64.2953 83.0097 64.2953C83.1692 64.2953 83.4121 64.0959 83.4121 63.963C83.4121 63.83 83.0325 63.398 82.8806 63.3564C82.7515 63.3232 82.7364 63.3481 82.7743 63.5143C82.8427 63.8134 82.6377 63.7719 82.3567 63.4229C82.1821 63.1986 82.1213 63.049 82.1213 62.7997C82.1213 62.6252 82.1517 62.4591 82.1821 62.4341C82.2656 62.3843 83.116 62.9825 83.397 63.2983C83.5184 63.4312 83.6703 63.7469 83.7538 64.0461C83.8677 64.4698 83.9057 64.528 83.9588 64.3867C84.0651 64.0544 84.1942 62.8413 84.1411 62.6086C84.1183 62.484 83.9209 62.1766 83.7159 61.9273C83.5109 61.678 83.2907 61.3623 83.2223 61.2127C83.1008 60.9635 83.1008 60.9219 83.2755 60.4483C83.3666 60.1824 83.5792 59.7919 83.7311 59.6008C84.05 59.202 85.0978 58.5622 85.4243 58.5622C85.804 58.5622 86.4266 58.8115 86.7227 59.094C87.1024 59.4429 87.2618 59.5343 87.687 59.6424C87.9983 59.7171 88.135 59.6922 88.993 59.4014C89.5245 59.2186 89.9801 59.0524 90.0029 59.0192C90.0333 58.9943 90.0029 58.9361 89.9422 58.8946C89.851 58.8281 89.851 58.7782 89.9346 58.5207C90.0409 58.1883 90.0029 57.7645 89.8207 57.3823L89.7144 57.1497L89.274 57.6316C88.3324 58.6619 87.6111 58.637 87.1176 57.5734C86.7759 56.8506 86.791 56.809 87.8009 55.1805C88.378 54.2416 88.5299 53.6516 88.4767 52.4718C88.416 50.9679 88.211 49.2147 88.0439 48.7245C87.52 47.1956 85.3863 44.3623 84.2702 43.7142C83.5033 43.2572 83.1084 43.1908 81.3468 43.1908C79.8434 43.1908 79.7599 43.1825 79.608 43.0163C79.403 42.7919 79.4486 42.3765 79.7371 41.9694C79.9877 41.6121 80.3294 41.4459 80.8153 41.4459C81.4304 41.4459 81.9922 41.986 81.5139 42.1106L81.3241 42.1605L81.5367 42.2186C81.7569 42.2851 82.0378 42.1688 82.053 42.0026C82.091 41.5788 81.848 41.3296 81.1342 41.072C80.8153 40.9557 80.3673 40.7313 80.1395 40.5735C78.5222 39.4601 78.3096 39.3853 79.0613 40.1663C79.6308 40.7646 79.7903 41.0969 79.608 41.3296C79.3878 41.6204 78.3855 42.4596 78.1881 42.5177C77.8996 42.6091 77.0947 42.4762 76.6695 42.2768C76.1987 42.0441 75.5533 41.4874 75.3635 41.1468C75.1889 40.8393 75.2116 40.748 75.5685 40.2162C75.7204 40.0002 75.8039 39.9503 76.0317 39.9503C76.1836 39.9586 76.3962 40.0085 76.5025 40.0749C76.791 40.2577 76.8517 40.2245 76.6467 39.9835C76.381 39.6678 76.1 39.5349 75.7052 39.5349C75.28 39.5349 74.9003 39.3354 74.1562 38.7123C73.2071 37.9229 73.2754 37.9645 73.4197 38.2636C73.4804 38.4048 73.7766 38.8037 74.0727 39.1526C74.3612 39.4933 74.6194 39.8672 74.6498 39.9835C74.6725 40.1082 74.6346 40.3325 74.5359 40.5735C74.384 40.9557 74.3764 40.9557 74.0955 40.8975C73.3893 40.7563 73.0628 40.5652 71.8479 39.593C71.5822 39.377 70.9899 38.9782 70.5343 38.704C70.0787 38.4298 69.6308 38.1057 69.5396 37.9977C69.4485 37.8814 69.3043 37.5324 69.2207 37.225C69.1296 36.9092 68.9018 36.4024 68.6816 36.0451C68.3399 35.4801 68.3172 35.4136 68.4311 35.3139C68.5905 35.1893 68.6057 35.1893 69.2435 35.3389C69.532 35.4053 69.8813 35.53 70.018 35.6214C70.3445 35.8291 70.3445 35.7377 70.0256 35.289C69.6687 34.7822 69.4485 34.6326 68.917 34.5495C68.5981 34.4997 68.3551 34.4083 68.1881 34.267C68.0438 34.1507 67.9071 34.051 67.8768 34.051C67.7401 34.051 68.0286 35.3804 68.3323 36.1448C68.4007 36.3193 68.4386 36.4606 68.4235 36.4606C68.3096 36.4606 66.51 32.7299 66.3278 32.1067C66.1987 31.6746 65.652 29.1986 65.6748 29.1654C65.69 29.1571 65.8266 29.3814 65.9785 29.6722C66.2594 30.1874 66.9124 31.0266 66.9884 30.9518C67.0036 30.9268 66.9124 30.7274 66.791 30.5031C66.2215 29.4894 65.8646 28.3095 65.8798 27.4371V26.9469L65.9937 27.4039C66.1152 27.9107 67.5351 31.1595 68.059 32.1399C68.2412 32.4806 68.5449 33.0041 68.7348 33.3032L69.0689 33.8433L68.7196 33.4278C68.5298 33.1952 68.1805 32.6966 67.9451 32.3144C67.5199 31.6331 66.7226 30.8438 66.5252 30.9185C66.2822 31.0016 66.4189 31.7993 66.8365 32.8379C67.2162 33.7602 67.3528 33.9014 67.163 33.1786C66.8897 32.1399 66.7758 31.6248 66.8137 31.5833C66.8821 31.5002 67.1478 31.7328 67.5958 32.248C68.0514 32.788 68.5829 33.6355 68.4614 33.6355C68.3323 33.6355 67.7021 32.8961 67.4515 32.464C67.3225 32.223 67.201 32.0652 67.1858 32.115C67.1554 32.2147 67.611 34.4 67.6717 34.4664C67.6945 34.4914 67.6945 34.2089 67.6642 33.8433L67.6186 33.1786L67.8084 33.486C68.059 33.8848 68.3551 34.051 68.8107 34.051H69.1752L70.0712 35.0647C70.8305 35.9288 71.9466 37.5324 71.9466 37.7568C71.9466 37.79 71.6657 37.5158 71.3164 37.1502C70.6254 36.419 70.2686 36.1614 69.4865 35.8374C68.7727 35.5383 68.6816 35.5798 69.0081 36.0451C69.2739 36.4273 69.4941 36.5935 70.8305 37.441C71.2405 37.6986 71.5442 37.9229 71.5062 37.9395C71.4683 37.9479 71.1646 37.8481 70.838 37.6986C69.7067 37.2084 69.5852 37.2167 70.1699 37.7817C70.5723 38.1722 71.0051 38.3384 71.7872 38.4048C72.3415 38.4547 72.9337 38.6707 73.0476 38.8618C73.1236 39.0031 72.8654 39.2856 72.6604 39.2856C72.4857 39.2856 72.2504 39.0945 72.2504 38.9449C72.2504 38.9034 72.22 38.8701 72.1744 38.8701C72.0226 38.8701 72.0985 39.2939 72.2883 39.4933C72.5009 39.7343 72.7819 39.7592 73.0932 39.5598C73.3589 39.3853 73.4197 39.4351 73.7614 40.1165L73.9968 40.5735L73.9512 40.158C73.8829 39.6013 73.5184 38.8535 72.7819 37.7651C72.4402 37.2665 72.2124 36.8926 72.2655 36.9342C72.3187 36.9674 72.7363 37.2748 73.1919 37.5989C74.2018 38.3301 74.999 38.7704 76.0469 39.161C76.9884 39.5182 77.3833 39.7592 77.7098 40.158C78.0439 40.5735 78.0363 40.9723 77.7022 41.2049C77.3909 41.4127 77.0568 41.3711 76.6923 41.0637C76.3506 40.7812 76.3278 40.9806 76.6543 41.396C76.9505 41.7616 77.3149 41.8946 77.8692 41.8364C78.4083 41.7866 78.7424 41.6038 78.9019 41.2631C79.1373 40.7729 78.8032 39.9752 78.1729 39.5265C77.9603 39.377 77.7933 39.244 77.7933 39.2357C77.7933 39.1859 79.1448 39.6179 79.6156 39.809C80.7849 40.291 82.3947 41.3379 82.4706 41.6619C82.4934 41.7616 82.4782 41.9278 82.4326 42.0192C82.3263 42.2352 81.8176 42.5261 81.5443 42.5261C81.2861 42.5261 80.8305 42.2851 80.8305 42.1522C80.8305 42.0441 80.8761 42.0192 81.3241 41.9029C81.5291 41.8447 81.5367 41.8364 81.4 41.7783C81.0051 41.5955 80.4509 41.8447 80.4509 42.1937C80.4509 42.4097 80.914 42.8252 81.2253 42.8916C81.7493 42.9997 82.8047 42.443 83.7538 41.5705L84.2322 41.1302L84.2398 41.7533C84.255 42.8002 84.6878 43.789 85.4699 44.5534C86.6164 45.6834 88.211 45.4009 88.211 44.0632C88.211 43.8638 88.1654 43.6145 88.1122 43.5148C88.0211 43.3237 88.0211 43.3237 87.9604 43.4816C87.93 43.573 87.8996 43.7308 87.8996 43.8305C87.892 43.9386 87.8009 44.138 87.6794 44.2792C87.277 44.7695 86.4873 44.57 85.8495 43.8139C85.0674 42.8833 84.8396 41.5373 85.3104 40.5319C85.5002 40.1248 86.176 39.3853 86.2064 39.5515C86.214 39.6096 86.0697 40.1663 85.8799 40.7812C85.6445 41.5456 85.5382 42.0358 85.5382 42.3349C85.5382 42.8002 85.6825 43.2822 85.9027 43.548C86.2519 43.9718 87.072 44.1629 87.4137 43.897C87.7857 43.6145 87.7933 42.8169 87.4365 42.3433C87.2694 42.1272 87.2466 42.1771 87.3681 42.4762C87.4896 42.767 87.3909 43.2489 87.1707 43.4068C87.0188 43.5148 86.9429 43.5231 86.7151 43.44C86.3279 43.2988 86.1456 42.9415 86.1456 42.3183C86.1456 41.745 86.3127 41.2963 87.0188 40.0334C87.4972 39.161 87.4972 39.161 87.5428 39.2108C87.5579 39.2274 87.8009 40.291 88.0743 41.5622C88.3552 42.8418 88.6817 44.246 88.8032 44.6781C89.0917 45.7167 89.1373 46.1072 89.0386 46.7553C88.9627 47.2787 88.7956 47.5945 88.6058 47.5945C88.4691 47.5945 87.9983 47.1292 87.6491 46.6556C87.277 46.1321 87.2846 46.2817 87.6643 47.0793C88.0211 47.8354 88.3552 48.3007 88.6665 48.4752C88.864 48.5915 88.9095 48.5915 89.069 48.4752C89.2892 48.3173 89.4638 47.7523 89.5625 46.8799C89.6612 46.0241 89.5777 45.3428 89.2132 44.0964C88.9019 42.9997 88.8108 42.1106 88.9551 41.4376C89.1297 40.5984 90.0561 38.7787 90.2459 38.9117C90.4053 39.0197 90.8761 41.7118 91.0128 43.2988C91.1343 44.7861 91.0659 48.0265 90.8837 49.2147L90.7394 50.1287L90.6863 46.8882C90.6407 43.8056 90.5268 41.853 90.3142 40.6898C90.1548 39.809 90.0181 39.8257 89.7751 40.7563C89.5625 41.5871 89.517 42.9664 89.6688 43.9386C89.8435 45.0187 89.9346 46.7054 89.8586 47.5779C89.8283 47.9767 89.6384 49.4557 89.4486 50.8682C89.0614 53.7015 88.9551 54.1086 88.1882 55.92C87.6946 57.0666 87.6567 57.3242 87.9072 57.5153C88.3324 57.8393 89.3347 57.5568 89.3347 57.1165C89.3347 56.809 89.2056 56.5016 89.031 56.4019C88.9019 56.3271 88.8488 56.352 88.6817 56.5265C88.4615 56.7675 88.4995 56.9253 88.7728 56.8506C89.0234 56.7841 89.0082 56.9337 88.7349 57.1414C88.4767 57.3408 88.2869 57.3657 88.2261 57.1995C88.1654 57.0251 88.4008 56.0446 88.6362 55.4713C88.7576 55.1805 89.0917 54.5739 89.3727 54.1169C89.8966 53.2777 90.3066 52.4136 90.4813 51.7655C90.6483 51.1507 91.3393 50.7934 91.6506 51.1673C91.8784 51.4415 91.8632 52.0813 91.6202 52.3638C91.3924 52.6297 91.0052 52.7709 90.6179 52.7294C90.4585 52.7127 90.3218 52.7211 90.3218 52.746C90.3218 52.854 90.747 53.2362 90.952 53.3193C91.2861 53.4605 91.438 53.4273 91.7189 53.1614C92.3112 52.5881 92.3871 51.5163 91.9923 49.3809C91.7038 47.852 91.6962 47.3452 91.8176 43.1908C91.886 40.964 91.9088 40.6649 92.091 39.9171C92.2049 39.4684 92.3112 39.0779 92.334 39.0529C92.3568 39.028 92.3719 39.2357 92.3719 39.5099C92.3719 40.1331 92.6073 41.1634 92.8807 41.7201C93.1388 42.2435 93.4577 42.443 94.0196 42.443C94.3537 42.443 94.46 42.4014 94.6802 42.1854C95.0067 41.878 95.0978 41.4957 94.9232 41.1302C94.7865 40.8393 94.5891 40.6981 94.3309 40.6981C94.1259 40.6981 93.8146 40.9141 93.8146 41.0554C93.8146 41.1219 93.8374 41.1219 93.9057 41.0471C94.0348 40.9058 94.4676 40.9224 94.6043 41.0803C94.7638 41.2548 94.7562 41.4625 94.5739 41.7118C94.255 42.1605 93.5944 42.0275 93.435 41.4874C93.3135 41.072 93.3894 40.3574 93.6248 39.8257C93.8146 39.3853 94.088 38.9698 94.1411 39.0363C94.1563 39.0612 94.3309 39.3437 94.5208 39.6761C95.599 41.4625 97.0341 42.0109 97.968 40.9889C98.2262 40.7064 98.2945 40.5735 98.2945 40.3491C98.2945 39.7758 97.7402 39.3188 96.9506 39.244C96.5481 39.2108 96.5329 39.2108 96.7759 39.2939C97.3302 39.485 97.4669 39.5598 97.6491 39.8007C97.9832 40.2328 97.8693 40.6067 97.353 40.8227C96.9126 41.0055 96.5557 40.9391 96.1912 40.5901C95.3636 39.7924 95.5231 38.5544 96.495 38.2553C97.596 37.9146 97.9832 37.9977 98.1882 38.6126C98.5223 39.6179 98.7729 40.1913 98.9399 40.3657C99.1753 40.6067 99.7068 40.6815 100.018 40.507C100.254 40.3657 100.497 39.9337 100.497 39.6346C100.497 39.4102 100.162 38.9865 99.8587 38.812L99.6233 38.679L99.8587 38.92C100.436 39.5182 100.117 40.3657 99.3955 40.1663C99.0918 40.0832 98.9551 39.7592 98.9172 39.0529C98.8792 38.3134 98.8868 38.3051 99.6157 37.8814C100.117 37.5906 100.428 37.5656 100.861 37.7568C101.248 37.9229 101.362 38.1639 101.301 38.6541C101.225 39.1693 101.294 39.3437 101.597 39.4518C101.97 39.5847 102.311 39.377 102.319 39.0031C102.319 38.8701 102.296 38.8785 102.114 39.0696C101.894 39.3105 101.734 39.3188 101.605 39.1028C101.499 38.9117 101.62 38.5544 101.863 38.3633C102.023 38.2304 102.235 38.2054 103.306 38.1888C104.468 38.1722 104.582 38.1805 104.878 38.355C105.052 38.4547 105.219 38.5793 105.25 38.6292C105.326 38.7704 105.03 39.0363 104.726 39.0945C104.475 39.136 104.415 39.1111 104.149 38.812C103.929 38.571 103.83 38.5129 103.799 38.5959C103.724 38.8203 103.762 38.9865 103.921 39.1693C104.149 39.4351 104.05 39.6595 103.564 39.9586C103.336 40.0999 103.154 40.2328 103.154 40.2494C103.154 40.2577 103.367 40.1913 103.632 40.0832C103.891 39.9752 104.43 39.7592 104.825 39.6096C105.219 39.4684 105.622 39.269 105.721 39.1776C105.964 38.9283 105.941 38.5876 105.66 38.3716C105.538 38.2719 105.432 38.1556 105.432 38.114C105.432 38.0725 105.553 37.8897 105.705 37.7069C105.857 37.5241 105.971 37.3496 105.948 37.333C105.933 37.3164 105.698 37.4493 105.424 37.6238C104.847 38.0143 104.498 38.0476 103.989 37.7651C103.458 37.4742 103.519 37.3995 104.346 37.3579C104.931 37.3247 105.189 37.2665 105.538 37.092C106.055 36.8428 106.799 36.2695 107.171 35.8457C107.497 35.4718 107.649 35.4469 107.361 35.8125C106.875 36.4523 106.761 37.1336 107.034 37.79L107.194 38.1639L107.33 37.6487C107.505 37.0006 107.885 36.1448 108.165 35.7875L108.386 35.505L108.302 35.8042C108.097 36.552 108.591 37.2915 109.282 37.2915H109.479L109.327 37.1003C109.061 36.7846 108.849 36.2695 108.849 35.9371C108.849 35.3306 109.418 34.7988 110.064 34.7988C110.823 34.7988 111.134 35.9039 110.428 36.0867C110.261 36.1365 110.178 36.095 109.988 35.8956C109.866 35.7543 109.76 35.5632 109.76 35.4635C109.76 35.3555 109.73 35.3056 109.677 35.3472C109.54 35.4386 109.654 36.0368 109.844 36.2612C110.094 36.552 110.519 36.6766 110.793 36.5353C111.15 36.3526 111.666 35.181 111.727 34.4332L111.772 33.8433L111.947 34.1673C112.121 34.4997 112.342 35.2807 112.342 35.5881C112.342 35.6795 112.296 35.9537 112.243 36.1864C112.121 36.6766 112.197 36.6849 112.418 36.2196C112.82 35.3472 112.774 34.6243 112.266 33.7186C112.106 33.4278 111.992 33.1536 112.015 33.1121C112.091 32.9791 112.554 33.1121 112.896 33.378C113.276 33.6605 113.496 34.0925 113.511 34.5578C113.519 34.9733 113.427 35.0564 113.245 34.8071C113.139 34.6658 113.109 34.5329 113.139 34.3917C113.177 34.2338 113.162 34.2005 113.101 34.267C113.055 34.3169 113.002 34.4831 112.979 34.6492C112.942 34.8736 112.972 34.9816 113.116 35.1727C113.276 35.3638 113.321 35.3887 113.458 35.3139C113.625 35.2142 113.86 34.7406 113.86 34.4914C113.86 34.4083 113.777 34.051 113.67 33.6937C113.481 33.0622 113.412 32.223 113.549 32.223C113.587 32.223 113.822 32.464 114.073 32.7548C114.536 33.3032 114.847 33.9679 114.847 34.4498C114.855 34.6326 114.863 34.6492 114.923 34.5412C114.961 34.4664 115.03 33.8848 115.068 33.245C115.121 32.3061 115.181 31.9405 115.371 31.3091C115.652 30.3951 116.07 29.4977 116.381 29.1321C116.586 28.8912 116.609 28.8829 116.73 29.0158C116.837 29.1321 116.867 29.3731 116.897 30.3369C116.943 31.6331 116.913 31.6165 117.209 30.4449C117.338 29.9381 117.429 30.2289 117.429 31.1429C117.429 32.0485 117.3 32.7382 116.996 33.4361C116.882 33.7103 116.776 33.9596 116.761 34.0094C116.753 34.051 116.913 33.8848 117.125 33.6355C117.968 32.6468 118.143 31.7328 117.771 30.2621C117.383 28.7416 117.513 27.6698 118.082 27.7113C118.393 27.7362 118.689 28.1268 118.75 28.6004C118.781 28.8081 118.834 28.966 118.872 28.941C118.963 28.8746 119.221 27.9606 119.289 27.462C119.358 26.9469 119.236 26.9552 118.986 27.462L118.788 27.8609L118.834 27.0881C118.894 26.0578 119.153 24.9694 119.616 23.8726C119.821 23.3658 120.071 22.6844 120.163 22.3521C120.535 20.9562 120.884 18.6712 121.165 15.68C121.264 14.683 121.362 13.9103 121.385 13.9684C121.415 14.0266 121.476 14.6248 121.529 15.3145ZM109.418 40.4405C108.864 40.9806 106.875 42.5759 106.875 42.4762C106.875 42.4513 107.004 42.2519 107.163 42.0358C107.702 41.3046 107.702 41.3213 107.482 41.4459C106.419 42.0608 105.485 42.7836 104.885 43.4566C103.822 44.6448 103.792 44.7528 104.695 44.1047C105.622 43.4317 105.774 43.3736 106.67 43.3154L107.368 43.2655L105.721 44.1878C104.809 44.6864 104.065 45.1267 104.065 45.1517C104.065 45.1849 104.604 45.1849 105.265 45.16C106.267 45.1184 106.594 45.0686 107.292 44.8608C108.165 44.6033 109.122 44.2543 109.836 43.9386C110.709 43.5564 110.724 43.5813 109.532 43.4816L108.431 43.3985L109.912 43.2074C110.724 43.0994 111.461 42.9913 111.544 42.9747C111.947 42.8667 110.383 44.1712 109.563 44.6282C109.016 44.9273 107.793 45.3843 106.928 45.6003C106.29 45.7582 106.055 45.7831 105.295 45.7416C104.809 45.7084 104.308 45.6668 104.179 45.6336C103.974 45.5837 103.982 45.6003 104.331 45.9078C105.204 46.6639 105.341 47.0128 105.204 48.1678C105.083 49.1898 104.9 49.8213 104.566 50.4195C104.08 51.2753 104.042 52.289 104.46 52.8706C104.809 53.3608 105.69 53.5686 106.191 53.2861C106.571 53.07 106.761 52.4635 106.571 52.073C106.472 51.8735 106.108 51.6658 105.857 51.6658C105.629 51.6658 105.356 52.0148 105.356 52.3056V52.5133L105.591 52.2973C105.857 52.0563 105.895 52.0397 106.024 52.181C106.169 52.3388 106.138 52.7294 105.971 52.8291C105.781 52.9371 105.386 52.9371 105.197 52.8291C104.764 52.5715 104.695 51.5329 105.083 50.9346C105.197 50.7518 105.432 50.4943 105.607 50.3696L105.918 50.1453L106.169 50.4693C106.92 51.4249 107.482 52.6213 107.763 53.8677C107.877 54.3662 107.869 54.3911 107.71 54.7401C107.619 54.9395 107.345 55.3217 107.11 55.5793C106.411 56.3354 105.629 56.6761 104.999 56.4933C104.134 56.2357 104.278 55.2636 105.219 54.9811C105.538 54.8897 106.305 54.9146 106.609 55.0309C106.905 55.1389 106.396 54.7235 105.971 54.5075C105.212 54.1253 104.134 54.3911 103.663 55.0808C103.473 55.3716 103.42 55.9532 103.534 56.4933C103.602 56.809 103.716 57.0167 103.944 57.2743C104.369 57.7313 104.893 57.8975 106.115 57.9557C107.201 58.0055 107.406 58.0886 107.406 58.4957C107.406 58.637 107.262 59.1106 107.087 59.5426C106.677 60.5646 106.039 61.3207 105.235 61.7362C104.771 61.9772 104.635 62.0104 104.096 62.0021C103.587 62.0021 103.405 61.9605 103.109 61.7944C102.653 61.5368 102.395 61.1463 102.395 60.7059C102.395 60.2655 102.615 59.9415 103.101 59.6673C103.853 59.2435 104.68 59.4263 104.733 60.0246C104.764 60.3902 104.551 60.5563 103.921 60.656C103.625 60.7059 103.382 60.7724 103.382 60.8056C103.382 60.8887 103.929 61.0549 104.21 61.0549C105.295 61.0549 105.774 59.6008 104.878 59.0192C104.498 58.7699 103.594 58.7533 102.987 58.9693C101.324 59.5759 100.724 60.8222 101.385 62.2763C101.643 62.8496 102.129 63.2567 102.995 63.6223C104.961 64.4532 106.761 64.3119 108.576 63.1736C108.91 62.9659 109.191 62.8163 109.206 62.833C109.221 62.8496 109.175 63.1321 109.115 63.4561C108.705 65.4004 107.695 66.9542 105.941 68.3085C104.179 69.6795 102.615 69.7127 101.347 68.3999C100.846 67.8931 100.831 67.9014 102.015 68.0759C102.979 68.2171 103.875 68.2337 104.354 68.1091C104.938 67.9595 106.047 67.3198 106.548 66.8462C107.163 66.2728 107.717 65.5084 108.014 64.8437C108.135 64.5529 108.241 64.2953 108.241 64.2704C108.241 64.2455 107.923 64.5695 107.543 64.985C106.366 66.2562 105.197 66.7963 103.61 66.7963C102.334 66.8046 101.484 66.4723 100.762 65.6746C100.17 65.0265 100.003 64.5861 100.003 63.6722C100.003 63.0158 100.033 62.8745 100.223 62.4674C100.337 62.2181 100.489 61.9439 100.557 61.8608C100.762 61.6116 100.519 61.7113 100.14 62.0353C99.1905 62.8579 98.9779 63.4229 98.7805 65.6331C98.7121 66.4058 98.8412 66.9126 99.6992 69.3222C99.7904 69.5798 99.2664 69.0148 98.7349 68.2919C98.1503 67.4943 97.9073 66.9625 97.8313 66.2895C97.7782 65.8075 97.8389 64.5114 97.9528 63.8383L97.9984 63.5891L97.8845 63.7968C97.8162 63.9131 97.6491 64.3369 97.5048 64.7523C96.5557 67.4195 96.7076 68.7489 98.2034 70.9341C99.2133 72.4048 99.8359 72.8784 102.653 74.3242C103.564 74.7978 104.361 75.2215 104.422 75.2797C104.878 75.6868 105.014 77.2489 104.62 77.5729C104.415 77.7391 103.435 77.6643 103.23 77.4649C103.017 77.2572 102.888 76.7005 102.995 76.4512C103.101 76.1853 103.321 76.2103 103.648 76.5177C103.792 76.6589 103.913 76.7337 103.913 76.6756C103.913 76.4845 103.625 76.0524 103.389 75.9028C103.177 75.7699 103.139 75.7616 102.926 75.8862C102.63 76.0524 102.319 76.5759 102.266 76.983C102.144 78.0465 103.853 78.7528 105.022 78.1296C105.819 77.7059 106.07 76.8916 105.766 75.7533C105.576 75.0553 105.371 74.6897 104.87 74.1164L104.407 73.5847L105.052 73.9253C105.88 74.3657 106.047 74.3657 106.457 73.9087C107.186 73.1194 107.209 71.7567 106.503 70.9591C105.986 70.3774 105.485 70.4356 105.288 71.092C105.143 71.5988 105.235 71.9727 105.599 72.3882C105.865 72.6873 105.895 72.7039 105.85 72.5211C105.721 71.9894 105.721 71.4742 105.85 71.333C106.305 70.8261 106.761 71.7816 106.465 72.6374C106.024 73.8921 105.09 73.5348 104.551 71.898C104.346 71.2748 104.316 70.7347 104.475 70.3276C104.589 70.0285 104.726 69.9537 105.819 69.6296C106.328 69.4718 107.285 69.048 108.72 68.3334C108.955 68.2171 109.153 68.1423 109.153 68.159C109.153 68.1839 108.788 68.8985 108.348 69.746C107.27 71.7983 107.148 72.2137 107.148 73.7259C107.14 74.7479 107.171 74.9889 107.353 75.6785C107.649 76.8168 107.611 77.6893 107.216 78.7279L107.102 79.027L106.852 78.5783C106.563 78.0465 106.328 77.9718 105.857 78.2709C105.364 78.5866 105.242 78.8359 105.242 79.5421C105.242 80.2401 105.386 80.5392 105.804 80.722L106.047 80.83L105.85 80.4395C105.576 79.8745 105.591 79.4175 105.888 79.0685L106.115 78.7943L106.267 78.9937C106.404 79.1682 106.419 79.3095 106.419 80.3066V81.4282L105.979 81.9351C105.197 82.8408 104.323 83.9625 104.05 84.4194C103.686 85.0177 103.42 85.8569 103.268 86.8955C103.162 87.6101 103.086 87.8676 102.835 88.3329C102.577 88.8148 102.516 88.8813 102.402 88.8065C102.091 88.6321 101.871 88.2166 101.749 87.6017L101.62 86.9869L101.309 87.0284C100.884 87.0949 99.8739 86.9287 99.4639 86.7376C99.0994 86.5548 98.416 85.8569 98.4843 85.7323C98.5071 85.6824 98.864 85.3916 99.2664 85.0759C99.6689 84.7601 100.352 84.1619 100.785 83.7464L101.56 82.982V83.4639C101.56 84.0539 101.362 84.5358 100.777 85.3999C100.55 85.7406 100.367 86.0314 100.383 86.048C100.428 86.0978 101.97 85.0842 102.456 84.6936C103.086 84.1702 103.526 83.5803 104.134 82.417C104.794 81.1541 104.84 80.9796 104.878 79.7083L104.9 78.6282L104.612 79.7249C104.278 80.963 104.149 81.2205 103.427 82.0099C102.266 83.2977 101.954 82.658 102.539 80.157C102.698 79.459 102.828 78.8691 102.82 78.8608C102.812 78.8525 102.486 79.4507 102.106 80.1985C101.347 81.6609 101.043 82.0597 100.132 82.7327C98.8944 83.6467 98.2034 83.8046 96.0698 83.6633C95.3105 83.6135 94.4828 83.547 94.2398 83.5138L93.7918 83.4639L95.5003 83.0319C98.4995 82.2758 98.7425 82.1844 99.4942 81.5612C100.459 80.7469 101.355 78.8857 101.461 77.4649C101.506 76.8002 101.37 76.0939 101.074 75.4375C100.618 74.4654 99.3651 73.1111 98.4464 72.6042C97.4441 72.0558 95.6749 71.6487 94.5132 71.7152C93.8678 71.7484 93.7463 71.7816 93.1464 72.1057C92.3112 72.5544 91.4532 73.4517 91.0811 74.2577C90.8609 74.7313 90.8381 74.8559 90.8685 75.3461C90.9065 76.0773 91.2482 76.8251 91.8936 77.5895C92.744 78.5949 93.2527 78.8608 94.3082 78.8442C94.984 78.8359 95.6066 78.6863 96.2672 78.3623C96.7607 78.1213 97.0037 77.8388 97.0037 77.5148C97.0037 77.1824 96.6013 76.3266 96.2672 75.9444C95.9862 75.6203 95.9331 75.5954 95.5686 75.5954C95.3484 75.5954 95.0143 75.637 94.8245 75.6951L94.4752 75.7865L94.8701 75.9028C95.4092 76.0524 95.6749 76.2352 95.8344 76.5592C96.009 76.9082 95.9179 77.2489 95.599 77.4234C95.318 77.5729 94.2322 77.5729 93.7463 77.4317C93.3211 77.2987 92.949 76.8999 92.8275 76.4429C92.6833 75.9195 92.8731 75.4459 93.5033 74.7562C94.3234 73.8672 95.2193 73.6345 96.3279 74.0167C97.3226 74.3574 98.3477 75.2381 98.7197 76.0607C98.8944 76.4595 98.9172 76.5842 98.8792 77.0578C98.8033 78.1878 97.9908 79.4092 96.9506 79.9742C96.4114 80.265 96.3355 80.2816 95.4927 80.3149C94.4904 80.3564 93.5185 80.2152 92.053 79.8246C90.9369 79.5255 90.4965 79.2846 89.9042 78.6282C88.9171 77.5397 88.4995 75.9195 88.4995 73.136C88.4995 72.3466 88.4615 71.8315 88.3856 71.5573C88.2261 70.9757 87.7478 70.2777 87.2466 69.9038C86.7303 69.5133 86.7607 69.4884 87.8693 69.4053C88.6134 69.3471 88.6438 69.3471 89.3499 69.6379C89.7447 69.8041 90.2839 69.9786 90.542 70.0368C91.0128 70.1448 91.0204 70.1448 91.4836 69.8789C91.7417 69.7376 92.129 69.4635 92.3492 69.289C92.5618 69.1062 93.1312 68.7572 93.6096 68.5079C95.3332 67.6106 95.5458 67.3779 96.7759 65.1262C98.211 62.4923 98.5147 62.0519 100.405 59.8667C102.577 57.3657 103.382 55.7039 103.382 53.7015C103.382 52.6961 103.283 52.1727 102.873 50.9679C102.357 49.4474 102.395 48.7993 103.017 48.6331C103.162 48.5915 103.26 48.6248 103.374 48.7494C103.579 48.9737 103.579 49.2978 103.382 49.6966L103.222 50.0207L103.397 49.9625C103.496 49.9293 103.686 49.7797 103.822 49.6218C104.255 49.1233 104.088 48.4087 103.45 48.0515C103.146 47.877 102.63 47.8936 102.342 48.093C101.924 48.3672 101.825 48.6746 101.825 49.7132C101.825 50.5026 101.856 50.7103 102.038 51.2421C102.387 52.2807 102.304 52.8872 101.628 54.3247L101.294 55.0309L101.271 53.0783C101.256 51.2088 101.294 50.3613 101.484 48.7245C101.613 47.636 101.56 46.5891 101.362 46.29C100.899 45.6003 99.6233 45.4923 99.069 46.0989C98.7881 46.398 98.7121 46.7054 98.8412 46.9962C98.9475 47.2289 99.4335 47.6277 99.722 47.7191L99.8967 47.7773L99.6992 47.4449C99.5929 47.2704 99.4942 47.0128 99.4866 46.8882C99.4714 46.6722 99.5018 46.6473 99.8815 46.5309C100.284 46.4063 100.299 46.4063 100.428 46.5891C100.603 46.8217 100.755 47.6111 100.709 48.0515C100.679 48.3423 100.299 49.4224 100.223 49.4224C100.208 49.4224 99.965 49.1732 99.6841 48.8574C99.0842 48.201 98.697 47.9684 98.3173 48.0348C98.006 48.093 97.8845 48.1927 97.596 48.6248C97.315 49.0485 97.3226 49.1482 97.6263 48.9156C97.7706 48.7993 98.0136 48.7162 98.2641 48.6912C98.6134 48.658 98.6894 48.6829 98.8564 48.8657C99.0235 49.0485 99.0538 49.1565 99.0538 49.5388C99.0538 50.2284 99.031 50.2533 98.621 50.1204C97.8617 49.8711 97.0417 50.0871 96.8518 50.5857C96.7759 50.7934 96.7835 50.8765 96.8974 51.1341C96.9809 51.3085 97.1328 51.5246 97.2543 51.616L97.4593 51.7821L97.7858 51.6077L98.1047 51.4249H97.8693C97.6036 51.4166 97.3606 51.1673 97.3985 50.9513C97.4137 50.8682 97.5124 50.7435 97.6263 50.6771C97.8086 50.5607 97.8389 50.5607 97.9756 50.702C98.0971 50.8183 98.1427 51.0011 98.1806 51.5329C98.249 52.4386 98.3097 52.5383 98.5907 52.181C98.7045 52.0397 98.8564 51.9151 98.9247 51.9151C99.3651 51.9151 99.2664 54.8315 98.7805 55.9532C98.5451 56.5099 97.4213 57.6482 97.1176 57.6482C96.7911 57.6482 96.7911 57.4073 97.1176 57.0998L97.4137 56.834L97.0569 56.9087C96.6316 56.9918 96.2824 57.1829 96.2216 57.3491C96.1533 57.5485 96.4494 57.8726 96.8291 58.0138C97.5048 58.2714 97.8541 58.1634 98.8108 57.4239L99.2892 57.05L99.2361 57.374C99.0918 58.2714 98.8792 58.7782 98.3401 59.5593C97.801 60.3486 97.5276 60.9302 96.4494 63.5808C95.9407 64.8354 95.804 65.0182 95.5762 64.7523C95.0827 64.179 94.908 62.5089 95.2497 61.6614C95.4699 61.1213 95.6749 60.9053 95.8496 61.0216C96.0849 61.1795 96.2672 61.7196 96.2672 62.2347C96.2596 62.5006 96.2748 62.7166 96.2975 62.7166C96.3659 62.7166 96.8367 61.4952 96.9278 61.0715C97.11 60.1907 96.8746 59.7919 96.1761 59.7919C94.5815 59.8085 93.9361 62.268 94.6878 65.4503C94.9764 66.6717 94.9232 67.0456 94.3841 67.4943C94.1563 67.6937 93.435 68.0011 93.435 67.9097C93.435 67.8848 93.5565 67.6854 93.7007 67.4693C94.293 66.5637 94.3537 66.1898 94.1639 64.6111C94.0424 63.6306 93.9361 63.3647 93.1085 61.9439C92.4251 60.7641 92.1442 59.7088 92.1442 58.288C92.1442 57.5402 92.1517 57.507 92.3643 57.2826C92.6377 56.9918 93.6096 56.6262 93.9513 56.6844C94.3082 56.7426 94.6271 57.0251 94.8776 57.507C95.189 58.0969 95.1738 58.396 94.8397 58.7201C94.5208 59.0192 94.2626 59.0441 93.9133 58.8115C93.4653 58.5123 93.3363 58.072 93.5489 57.5402C93.64 57.2992 93.4426 57.374 93.1616 57.6815C93.0174 57.8393 92.9035 58.0304 92.9035 58.1135C92.911 58.5788 93.5716 59.551 94.012 59.7254C94.46 59.9165 94.9536 59.7836 95.5382 59.3183C96.047 58.9112 96.1305 58.2963 95.8192 57.158C95.6749 56.6013 95.2117 56.0862 94.3689 55.5211C94.0424 55.3051 93.6628 55.0143 93.5261 54.8731C93.23 54.5739 92.9414 54.0006 93.0325 53.9092C93.0857 53.8428 94.2019 53.7264 95.8647 53.6184C96.5026 53.5769 96.6165 53.5852 96.8291 53.7347C97.1252 53.9425 97.5352 54.5822 97.5884 54.9312C97.6491 55.3799 97.4365 55.5128 96.6392 55.5211C96.0014 55.5295 95.9786 55.5211 95.9559 55.3384C95.9179 55.0392 96.1305 54.7567 96.4114 54.7235L96.662 54.6986L96.3735 54.5822C96.0925 54.4742 96.0698 54.4825 95.804 54.7152C95.6521 54.8481 95.4851 55.0725 95.4395 55.2137C95.3105 55.5544 95.5079 55.9034 95.9786 56.1526C96.4722 56.4102 97.4897 56.3687 97.9832 56.0695C98.5603 55.7123 98.6362 55.5295 98.621 54.5241C98.6134 53.8178 98.5755 53.5769 98.4464 53.2777C98.1578 52.638 97.3302 52.0148 95.8875 51.3584C94.9384 50.9263 94.498 50.5774 94.2702 50.0788C94.1032 49.7299 94.0728 49.1399 94.2019 48.6497C94.3385 48.093 94.8321 48.0348 95.2725 48.5168C95.4775 48.7411 95.5003 48.7993 95.4547 49.1067C95.394 49.5304 95.2953 49.6717 95.1054 49.6135C94.8321 49.5388 94.7638 49.356 94.9232 49.1565L95.0675 48.9821L94.8245 49.1233C94.3537 49.3809 94.6043 49.9708 95.1738 49.9542C95.5307 49.9376 95.8192 49.7382 95.9407 49.4224C96.0166 49.2147 96.009 49.1233 95.8723 48.8242C95.7888 48.6248 95.561 48.2924 95.3712 48.093C95.0447 47.744 94.9915 47.7191 94.6195 47.7191C94.0728 47.7191 93.6324 48.0348 93.4046 48.5998C93.3211 48.8159 93.2224 49.007 93.1996 49.007C93.1312 49.007 92.911 48.1595 92.8351 47.5695C92.6529 46.182 93.1768 44.5285 94.1259 43.5148C94.8245 42.7587 95.7736 42.3516 96.8139 42.3682C97.3378 42.3682 97.8997 42.5094 97.4517 42.5177C96.7607 42.5427 95.1358 43.2905 94.4448 43.9136C93.7842 44.4953 93.3818 45.3926 93.4729 46.0573C93.5868 46.8882 94.1715 47.2123 95.599 47.2123C96.2824 47.2123 96.5102 47.179 96.867 47.0212C97.4517 46.7719 98.0819 46.1404 98.3401 45.5422C98.5982 44.9439 98.7881 43.897 98.7197 43.4816L98.6666 43.1658L97.9984 43.2157C96.2444 43.3569 95.2345 43.9303 94.703 45.1018C94.46 45.6336 94.4448 45.9244 94.6423 46.1903C94.7789 46.3731 94.8473 46.3897 95.4623 46.3897C96.252 46.3897 96.6468 46.2235 97.1859 45.6834C97.5808 45.2846 97.8769 44.6864 97.801 44.4371C97.7326 44.1961 97.3758 44.2211 96.5102 44.5202C95.6825 44.811 95.5534 44.9606 95.7964 45.3012C95.9255 45.4757 96.0166 45.5173 96.29 45.5173C96.6772 45.5173 96.905 45.3261 96.9809 44.9356C97.0113 44.7445 97.0644 44.6864 97.2011 44.6864C97.4213 44.6864 97.4213 44.6864 97.2543 45.0603C97.1176 45.376 96.7076 45.7167 96.2292 45.8995C95.4623 46.1903 94.6954 45.8745 94.946 45.3677C95.0827 45.0935 95.7509 44.4786 96.2216 44.2044C96.7379 43.9053 97.4821 43.6893 98.006 43.6893H98.3629L98.2566 44.0798C97.8693 45.4923 97.4441 46.1487 96.7531 46.398C95.766 46.7553 95.0447 46.7802 94.498 46.4728C94.2626 46.3398 94.0424 45.9659 94.0424 45.7084C94.0424 45.4175 94.3993 44.7279 94.6954 44.4371C95.7281 43.4234 96.9202 43.0246 98.9475 43.0246C100.436 43.0246 100.907 43.44 101.294 45.1018C101.59 46.3564 101.749 46.7303 102.038 46.8384C102.44 46.9962 103.101 46.7802 103.336 46.4146C103.61 45.9909 103.344 44.6947 102.979 44.6199C102.82 44.5867 102.273 44.9689 102.213 45.16C102.159 45.3095 102.228 45.6003 102.304 45.6003C102.334 45.6003 102.402 45.484 102.448 45.3511C102.539 45.0769 102.668 45.0436 102.888 45.2181C103.01 45.3178 103.017 45.3677 102.949 45.5422C102.812 45.8662 102.501 46.0573 102.266 45.9659C101.78 45.7748 101.597 45.0436 101.825 44.1463C102.045 43.2406 102.509 42.8086 103.481 42.6174C103.913 42.5344 103.929 42.5925 103.602 43.1409C103.329 43.5896 103.139 43.7475 102.683 43.897L102.357 44.005L102.577 44.0632C102.888 44.1546 103.579 43.7558 104.323 43.0578C105.045 42.3848 105.622 41.9777 106.624 41.4293C107.558 40.9224 109.692 40.1663 109.418 40.4405ZM90.1168 67.7518C91.3469 68.0676 91.6506 68.242 91.4911 68.5162C91.4152 68.6326 91.3013 68.6575 90.8609 68.6409C90.2003 68.6243 89.9649 68.4996 89.7144 68.0842C89.5549 67.81 89.5245 67.7851 89.5018 67.9346C89.4866 68.026 89.5321 68.2254 89.6005 68.3667C89.7979 68.7821 89.7068 68.8985 89.2436 68.832C88.5906 68.7323 88.2793 68.4664 88.1502 67.9014C88.0971 67.677 88.0819 67.702 87.9756 68.1507C87.7554 69.0397 87.3074 69.0646 87.0796 68.2005C86.9277 67.6355 86.829 67.5607 86.829 67.9928C86.829 68.6076 86.2368 68.8818 85.5762 68.5827C85.3028 68.4498 85.1054 68.134 85.1813 67.9263C85.2269 67.7851 85.8343 67.6521 87.1707 67.4943C88.3324 67.353 88.6969 67.3862 90.1168 67.7518Z" fill="white"/>
<path d="M78.7424 44.8108C78.1957 44.9437 76.6543 45.409 76.6012 45.4672C76.5025 45.5669 77.2466 46.8132 77.7174 47.3284C78.1046 47.7521 78.7804 48.1759 79.4486 48.4168C79.8662 48.5747 80.0712 48.5913 81.0963 48.5747L82.2732 48.5498L82.0454 48.1759L81.8176 47.802L81.3089 47.7937C81.0204 47.7854 80.6559 47.7355 80.4888 47.6857C80.3218 47.6358 80.0029 47.5943 79.7827 47.5943C79.198 47.5943 78.955 47.4364 78.1578 46.5307L77.4516 45.7248L77.7933 45.6998C78.2489 45.6666 78.6893 45.8411 78.8867 46.1236C79.0158 46.3147 79.031 46.3895 78.955 46.5972C78.8715 46.8298 78.8791 46.8465 79.0538 46.8465C79.2664 46.8465 79.5397 46.5806 79.5397 46.3645C79.5397 46.1402 79.6916 46.0156 79.9725 46.0156C80.2459 46.0156 80.3218 46.1236 80.4053 46.6138C80.4585 46.9379 80.6027 47.129 80.6027 46.8714C80.6027 46.7883 80.6787 46.5889 80.7622 46.431C80.9672 46.0737 81.2937 45.0351 81.2254 44.9853C81.1798 44.9603 80.7622 44.9022 79.4258 44.736C79.3043 44.7194 78.993 44.7526 78.7424 44.8108Z" fill="white"/>
<path d="M109.988 54.3496C109.988 54.4659 110.58 56.2274 110.869 56.9752C111.575 58.7865 111.992 59.2767 114.149 60.8388C114.931 61.4038 115.66 61.9688 115.774 62.1017C116.116 62.5089 116.822 63.8882 116.981 64.4864C117.095 64.8852 117.125 65.1511 117.095 65.4087C116.989 66.1814 116.336 67.2948 115.827 67.5856C115.546 67.7352 114.969 67.7352 114.308 67.569C113.587 67.3862 113.39 67.1951 113.344 66.6052C113.314 66.2063 113.336 66.1149 113.481 65.9571C113.709 65.7078 114.096 65.766 114.87 66.1897L115.47 66.5138L115.425 66.1731C115.356 65.6829 115.174 65.4585 114.62 65.1428C113.929 64.7606 113.557 64.7772 112.858 65.2176C112.57 65.4087 112.19 65.7078 112.03 65.8823C111.75 66.1897 111.734 66.2313 111.734 66.7381C111.734 67.328 111.863 67.8183 112.129 68.2005C112.456 68.6824 114.058 69.3637 114.863 69.3637C115.03 69.3637 115.417 69.2723 115.728 69.156C116.04 69.0397 116.321 68.9483 116.351 68.9483C116.45 68.9483 116.67 69.9786 116.67 70.4189C116.67 70.9175 116.381 71.6154 116.002 72.0475C115.789 72.2801 115.576 72.4131 115.128 72.5626C114.248 72.8701 113.959 72.8451 113.526 72.4297C113.238 72.1555 113.177 72.0392 113.177 71.8065C113.177 71.1252 113.595 70.5768 113.944 70.7845C114.119 70.8842 114.316 71.3329 114.316 71.6154C114.316 71.765 114.331 71.7816 114.437 71.6819C114.597 71.5406 114.847 70.9839 114.847 70.7762C114.847 70.5436 114.65 70.1281 114.407 69.8373C114.164 69.5631 113.883 69.5465 113.139 69.7708C112.478 69.9786 112.243 70.2361 112.114 70.9092C111.871 72.1804 112.395 73.3353 113.488 73.9336C114.498 74.4986 115.425 74.5651 116.252 74.1496L116.67 73.9419L116.366 74.374C116.207 74.6149 115.964 75.0636 115.827 75.3793C115.607 75.9028 115.584 76.044 115.531 77.0827C115.47 78.3788 115.417 78.5616 114.878 79.0768C114.217 79.7083 113.23 79.9326 112.645 79.5753C111.544 78.894 111.863 77.0079 113.086 77.0079C113.352 77.0079 113.428 77.0494 113.579 77.2738C113.678 77.4233 113.815 77.6975 113.876 77.872L113.989 78.196L114.119 77.7972C114.278 77.2821 114.27 77.0743 114.096 76.6921C113.86 76.1936 113.671 76.0524 113.223 76.0607C112.539 76.0607 111.4 76.7586 111.134 77.3236C110.937 77.7391 110.816 78.5284 110.876 78.9438C110.907 79.1516 111.074 79.5172 111.324 79.9077C112.19 81.2537 112.228 81.3617 112.22 82.2009C112.213 82.6662 112.137 83.306 112.008 83.9042C111.787 84.9761 111.696 85.1423 110.641 86.5215C110.292 86.9785 110.011 87.3607 110.026 87.3774C110.033 87.3857 110.276 87.286 110.557 87.1447C110.838 87.0035 111.089 86.9121 111.104 86.9287C111.203 87.0367 109.753 88.9145 108.743 89.978L107.604 91.1994L108.363 91.2576C109.661 91.3573 109.631 91.2742 108.841 92.3378C108.462 92.8363 107.999 93.5093 107.801 93.825C107.452 94.3817 107.444 94.3984 107.414 95.1545C107.399 95.5699 107.429 96.2097 107.475 96.5753C107.566 97.2732 107.551 97.3813 106.989 99.068C106.958 99.1594 107.125 99.0015 107.368 98.7107C107.604 98.4282 107.839 98.1955 107.885 98.1955C107.938 98.1955 108.059 98.5196 108.158 98.9184C108.439 100.048 108.986 101.86 109.122 102.076L109.236 102.275L110.398 102.217C111.286 102.175 111.575 102.184 111.62 102.267C111.651 102.317 111.696 102.599 111.712 102.882C111.772 103.621 111.734 103.638 110.398 103.621C109.138 103.596 108.636 103.488 107.718 102.998L107.08 102.666L106.677 103.106C106.45 103.347 106.267 103.58 106.267 103.613C106.267 103.721 107.262 104.228 107.862 104.444C108.363 104.61 108.583 104.635 109.684 104.635C111.142 104.635 112.243 104.485 112.296 104.278C112.403 103.904 112.471 102.682 112.41 102.267C112.365 101.91 112.296 101.76 112.106 101.569C111.863 101.328 111.856 101.328 111.089 101.37L110.314 101.419L109.684 100.023L109.046 98.6276L109.411 97.348C109.927 95.5616 109.942 95.1711 109.555 93.3265C109.532 93.2019 109.677 92.9609 110.117 92.4125C111.985 90.0944 113.534 87.3441 114.339 84.9013C115.144 82.4668 115.789 81.0128 116.981 78.9605C117.384 78.2708 117.794 77.548 117.892 77.3402C118.097 76.8999 118.112 76.6257 118.006 73.7176L117.938 71.7982L118.188 71.2831C118.636 70.3691 119.525 69.6711 120.595 69.3969C121.499 69.1643 122.63 69.4219 122.828 69.8955C122.911 70.0783 122.889 70.153 122.699 70.4522C122.433 70.8676 121.324 72.0142 120.861 72.3549C120.444 72.654 120.14 72.6789 119.98 72.4214C119.684 71.9561 119.988 70.9258 120.573 70.4023C120.74 70.2444 120.967 70.045 121.074 69.9453L121.264 69.7791L121.036 69.829C120.504 69.9453 119.692 70.4439 119.259 70.9175C118.781 71.4492 118.53 71.9395 118.401 72.6208C118.257 73.3686 118.454 73.784 119.001 73.9004C119.646 74.0333 120.436 73.7425 121.947 72.8119C122.585 72.4214 123.595 72.0225 123.952 72.0225C124.286 72.0225 124.453 72.2469 124.665 72.9614C124.855 73.5763 124.901 73.6511 125.607 74.4238C126.427 75.3129 126.708 75.7948 126.875 76.6007C127.012 77.2488 127.376 80.1237 127.376 80.5724C127.376 80.7718 127.437 80.9712 127.543 81.1291C127.816 81.5113 127.809 82.1677 127.482 84.652C127.217 86.6794 127.186 87.0035 127.186 88.6819C127.194 90.5846 127.209 90.7591 127.733 93.1853C127.771 93.3764 127.771 93.3681 127.27 93.1271C126.996 92.9859 126.753 92.8778 126.731 92.8778C126.708 92.8778 126.791 93.0523 126.913 93.2684C127.33 94.0078 127.68 94.9135 127.87 95.7444C127.968 96.2014 128.211 97.0572 128.401 97.6554C128.591 98.2454 128.743 98.8519 128.743 99.0015C128.743 99.151 128.606 99.5499 128.439 99.9071C128.272 100.264 128.135 100.564 128.135 100.58C128.135 100.597 128.234 100.605 128.363 100.605C128.743 100.605 128.963 100.771 129.153 101.228C129.312 101.577 129.798 103.206 129.897 103.688C129.927 103.846 129.494 104.618 129.426 104.535C129.396 104.494 129.282 104.195 129.16 103.862C129.046 103.538 128.925 103.264 128.895 103.264C128.872 103.264 128.758 103.463 128.652 103.704L128.447 104.136V103.846C128.439 103.438 128.12 102.74 127.839 102.524C127.71 102.425 127.376 102.259 127.087 102.151C126.229 101.827 125.986 101.652 125.531 100.996C125.364 100.763 125.174 100.331 125.06 99.9238C124.863 99.2507 124.855 99.0098 125.03 99.3754C125.242 99.8158 125.842 100.555 126.267 100.913C126.882 101.428 127.885 101.935 128.378 101.984L128.781 102.034L128.067 101.303C127.012 100.215 126.799 99.608 127.186 98.7771C127.475 98.1623 127.551 97.6721 127.452 97.1237C127.368 96.675 126.875 95.4536 126.776 95.4536C126.753 95.4536 126.564 96.0103 126.366 96.6999C126.161 97.3813 125.971 97.9629 125.933 97.9878C125.903 98.0127 125.569 97.7053 125.197 97.2982C124.126 96.1432 123.648 94.9301 123.625 93.2933C123.617 92.4458 123.739 92.0469 124.012 92.0469C124.195 92.0469 124.87 92.8446 125.113 93.3431C125.273 93.6672 125.387 94.1408 125.569 95.3206C125.706 96.1682 125.835 96.8661 125.865 96.8661C125.948 96.8661 126.229 95.9604 126.359 95.2957C126.419 94.9634 126.472 94.2903 126.48 93.8001C126.495 92.587 126.51 92.612 125.09 90.676C124.263 89.546 123.868 89.1804 122.653 88.4326C121.218 87.5435 121.309 87.6183 121.514 87.5768C121.75 87.5352 122.319 87.8343 123.587 88.6819C124.187 89.089 125.068 89.6706 125.538 89.9863C126.017 90.3021 126.419 90.543 126.442 90.5264C126.457 90.5015 126.237 90.1525 125.948 89.7454C124.437 87.6516 124.172 86.829 124.65 85.7488C124.87 85.2669 125.455 84.6022 125.728 84.5191C126.123 84.4194 126.199 84.6022 126.199 85.7156C126.199 86.2473 126.176 86.9951 126.138 87.369C126.07 88.2166 126.169 88.2747 126.389 87.5103C126.723 86.3055 126.738 84.5606 126.412 83.8295C126.237 83.4473 125.956 83.3974 125.569 83.6799C125.212 83.9375 123.906 85.3583 123.655 85.7571C123.549 85.9233 123.443 86.0646 123.405 86.0646C123.321 86.0646 122.577 84.7933 122.266 84.1037C122.122 83.7879 121.947 83.3143 121.879 83.065C121.704 82.3588 121.514 80.6222 121.507 79.6169C121.499 78.7694 121.514 78.653 121.712 78.2293C122.038 77.4981 123.025 76.6755 123.579 76.6755C123.997 76.6755 124.673 77.4233 125.098 78.329C125.409 79.0103 125.432 80.6887 125.128 81.1374C124.734 81.719 124.134 81.9101 123.822 81.5528C123.481 81.154 123.223 80.1071 123.359 79.6667C123.519 79.1848 123.868 79.4091 124.263 80.24C124.468 80.6887 124.468 80.6887 124.567 80.4976C124.62 80.3896 124.68 80.0739 124.696 79.7997C124.726 79.3593 124.696 79.218 124.491 78.7112C124.164 77.9302 124.081 77.8388 123.678 77.8388C123.094 77.8388 122.478 78.2376 122.296 78.7444C122.167 79.0934 121.985 80.2151 121.985 80.6222C121.985 81.719 122.471 82.4253 123.428 82.7493C124.756 83.1897 126.07 82.6081 126.427 81.4116C126.708 80.4727 126.791 78.2625 126.579 77.3818C126.419 76.7004 126.078 75.961 125.706 75.4957C125.128 74.7645 123.891 74.0167 123.261 74.0167C122.623 74.0167 120.823 75.6535 120.39 76.6257C120.14 77.1907 119.897 78.4121 119.601 80.6638L119.403 82.1178L118.021 83.5885C117.262 84.3945 116.624 85.0426 116.609 85.0259C116.594 85.0093 116.89 84.5108 117.27 83.9126L117.961 82.8241V81.9683C117.961 81.4697 118.006 80.913 118.075 80.6222C118.143 80.3397 118.538 79.4341 118.986 78.5284C119.904 76.6838 120.96 74.1829 120.823 74.1829C120.77 74.1829 119.586 75.9028 118.781 77.1325C117.862 78.545 117.497 79.2679 116.943 80.7884C116.366 82.3837 115.63 84.0206 114.726 85.699C113.344 88.2664 113.238 88.4907 113.352 88.6154C113.382 88.6403 113.633 88.5157 113.914 88.3329C114.711 87.8094 115.349 87.4854 116.207 87.1364C117.148 86.7542 117.976 86.1643 118.864 85.2669L119.494 84.6188L119.441 86.3637C119.373 88.5157 119.426 88.8896 119.882 89.4297C120.276 89.8866 120.899 90.3021 121.734 90.6427C122.084 90.7923 122.365 90.9336 122.365 90.9585C122.365 90.9917 122.289 91.3656 122.205 91.7977C121.879 93.3598 121.993 94.6144 122.63 96.7415C123.291 98.9433 123.724 99.6413 126.336 102.707L127.156 103.663L126.655 105.383C126.374 106.33 126.169 107.119 126.191 107.144C126.237 107.194 127.839 107.518 127.87 107.485C127.877 107.468 128.014 107.169 128.158 106.82C128.31 106.463 128.454 106.172 128.492 106.172C128.523 106.172 128.72 106.313 128.925 106.471C129.214 106.704 129.343 106.895 129.548 107.385L129.813 108H130.482H131.15L131.575 107.51L132 107.02L131.788 106.33C131.446 105.217 130.937 103.912 130.709 103.538C130.588 103.355 130.337 103.048 130.147 102.873L129.798 102.549L129.996 101.095C130.277 98.9682 130.39 97.1486 130.277 96.5504C130.155 95.9106 129.76 95.0714 129.145 94.1657L128.636 93.4179L128.462 92.2962C128.363 91.6814 128.264 90.6095 128.234 89.9199C128.188 88.6652 128.188 88.6569 128.431 87.8427C129.039 85.8153 129.32 84.112 129.251 82.8739C129.16 81.2537 128.462 78.0216 127.528 74.9307C126.655 72.0225 126.26 71.2415 124.848 69.6379C123.473 68.0758 122.038 67.2948 120.565 67.2865H120.011L120.003 66.8046C119.996 65.2508 119.586 63.83 118.819 62.6418C117.983 61.3456 116.715 60.2239 114.832 59.0773C114.308 58.7616 113.709 58.3711 113.504 58.2215C112.448 57.4405 111.241 56.1609 110.444 54.981C110.193 54.6154 109.988 54.3246 109.988 54.3496Z" fill="white"/>
<path d="M83.0855 69.2638C82.516 71.2579 82.2806 73.3185 82.4173 75.0385C82.5388 76.4842 83.0779 81.3117 83.3436 83.364C83.989 88.3909 84.8395 91.6729 86.1379 94.1905C87.1098 96.0683 88.841 98.885 89.7066 99.9817C89.9572 100.297 90.3217 100.887 90.5267 101.286C91.005 102.25 91.4758 102.94 92.1744 103.663C92.8198 104.327 93.0324 104.427 93.8828 104.427H94.4371L94.4067 103.887C94.3915 103.588 94.3915 103.347 94.4143 103.347C94.4295 103.347 94.6573 103.48 94.923 103.638C95.5001 103.995 95.7279 104.003 96.1835 103.688C96.51 103.463 96.5328 103.413 96.6846 102.798C96.9276 101.81 97.0795 100.962 97.0795 100.597C97.0795 100.189 97.0263 100.131 94.6877 97.8547C93.7689 96.9573 92.964 96.1514 92.8957 96.0683C92.7362 95.8689 91.7871 94.0575 91.1341 92.7032C90.8304 92.0883 90.595 91.4735 90.5494 91.2076C90.4811 90.8337 90.0863 87.4769 89.8964 85.7154C89.8509 85.2501 89.8433 85.2335 89.6459 85.2833C88.879 85.4744 87.9982 86.2222 87.6945 86.9368C87.4135 87.5932 87.4667 88.6069 87.8084 89.0639C88.0058 89.3298 88.15 89.1802 88.3095 88.5737C88.6132 87.3855 88.841 87.1778 89.122 87.8591C89.3194 88.3493 89.4788 89.3464 89.4864 90.0776C89.4864 90.3933 89.5244 90.8087 89.5699 91.0082C89.7066 91.5981 89.6079 91.9138 89.1068 92.5038C88.3626 93.3845 88.2336 93.8498 88.6132 94.2902C88.841 94.5477 89.5168 94.8718 89.8129 94.8718C89.9496 94.8635 89.9344 94.8386 89.7066 94.7056C89.3877 94.5228 89.0308 94.0908 89.0308 93.8913C89.0308 93.6919 89.2966 93.2848 89.5016 93.1602C89.8053 92.9691 90.2685 93.0189 90.4735 93.2516C90.6482 93.4593 90.6557 93.5091 90.6406 94.5394C90.6178 95.5947 90.6254 95.6279 90.8076 95.8273C90.9519 95.9769 91.081 96.035 91.3088 96.035C91.7491 96.035 91.7719 96.2095 91.3923 96.6582C91.2024 96.8825 91.081 97.1069 91.081 97.2315C91.081 97.622 91.7947 98.1039 92.9109 98.4778C94.0271 98.8517 94.6649 99.45 95.1736 100.605C95.4394 101.203 95.447 101.261 95.447 102.159C95.447 102.666 95.4242 103.114 95.3938 103.147C95.3179 103.222 94.7864 102.832 94.3308 102.366C94.0422 102.076 93.9359 101.884 93.8448 101.527C93.5791 100.514 93.45 100.372 91.3239 98.8268C90.0863 97.9295 89.5623 97.4392 89.5623 97.19C89.5623 96.9989 89.8053 96.8244 90.2305 96.6997L90.557 96.6083L89.8888 96.1514C88.5145 95.2041 87.6337 94.4314 87.5046 94.0575C87.3756 93.6919 87.573 93.2516 88.0665 92.7779C88.9397 91.9471 89.1447 91.299 88.7651 90.5844C88.2715 89.6704 87.1933 89.5541 86.5251 90.3434L86.3353 90.5678L86.5251 90.5013C86.6314 90.4598 86.9352 90.4265 87.1933 90.4265C87.6261 90.4265 87.6945 90.4515 87.8615 90.6592C88.0361 90.8835 88.0969 91.2491 87.983 91.4319C87.7096 91.8806 86.4416 91.756 85.9025 91.2242C85.576 90.9084 85.5836 90.5927 85.9405 90.036C86.5707 89.0306 86.6162 88.4241 86.1379 87.2858C85.8418 86.5961 85.8266 86.5047 85.8645 86.0311C85.9177 85.3747 86.1531 84.7017 86.4568 84.2946C86.7529 83.9041 86.9503 83.8958 87.1022 84.278C87.3072 84.8263 87.1857 85.4661 86.7985 85.7902C86.5175 86.0311 86.5403 86.2887 86.8592 86.4549C87.2085 86.6377 87.4743 86.5463 87.5806 86.2222C87.6261 86.0644 87.6641 85.3332 87.6641 84.4524C87.6641 82.8405 87.6109 82.558 87.2996 82.5082C86.92 82.45 86.0468 83.2477 85.538 84.1284C85.2191 84.6685 84.9913 85.5409 84.9761 86.2305C84.9761 86.5546 84.9458 86.8122 84.923 86.8122C84.8623 86.8122 84.7028 85.8068 84.7028 85.3913C84.7028 85.0756 84.6041 83.9207 84.4294 82.2174L84.3763 81.7271L84.8926 82.1176C85.333 82.4417 85.4545 82.4999 85.7203 82.4749C85.986 82.45 86.0468 82.4085 86.1683 82.1592C86.4188 81.6357 86.229 79.6499 85.8342 78.6279C85.743 78.4036 85.7279 78.4867 85.6823 79.5004C85.614 80.8132 85.5684 81.1123 85.4393 81.2369C85.2875 81.3698 85.0369 81.1372 84.7939 80.6387C84.6193 80.2648 84.5889 80.1152 84.5889 79.4588C84.5889 78.6362 84.7028 78.2956 85.2039 77.6142L85.4621 77.2653L85.0445 77.2154C84.6952 77.1656 84.5889 77.1074 84.3915 76.8664C84.0194 76.3928 84.1105 76.2599 84.923 76.0937C85.7051 75.9358 85.9784 75.7946 86.0392 75.4872C86.2594 74.3821 85.8038 73.734 85.0369 74.058C84.6496 74.2159 84.6572 74.2741 85.0976 74.3904C85.2723 74.4319 85.4469 74.5399 85.4925 74.6147C85.6064 74.8224 85.4621 75.1963 85.2115 75.3293C85.0293 75.429 84.9761 75.4207 84.7408 75.2628C84.3611 75.0052 84.0194 74.2159 84.0194 73.5927C84.0194 73.0111 84.232 72.3381 84.5282 72.0057C84.7863 71.7066 84.8471 71.8146 84.7635 72.4461C84.6421 73.2936 84.8243 73.4099 85.3482 72.8283C85.7962 72.3464 85.9101 71.8811 85.7127 71.366C85.4621 70.7012 84.8623 70.4354 84.3004 70.7428C83.8752 70.9754 83.6322 71.2995 83.336 71.9974C83.1766 72.3796 83.0247 72.6871 83.002 72.6871C82.9412 72.6871 83.1386 72.1054 83.3588 71.6485C83.7233 70.884 83.7992 69.7125 83.5562 68.6656C83.5107 68.4578 83.4424 68.2834 83.412 68.2834C83.3892 68.2834 83.2373 68.7237 83.0855 69.2638Z" fill="white"/>
</g>
<path d="M150 119.082V120.25C150 121.215 151.629 122 153.636 122C155.643 122 157.272 121.215 157.272 120.25V119.082C156.49 119.878 155.06 120.25 153.636 120.25C152.212 120.25 150.782 119.878 150 119.082ZM156.06 111.5C158.067 111.5 159.695 110.715 159.695 109.75C159.695 108.785 158.067 108 156.06 108C154.052 108 152.424 108.785 152.424 109.75C152.424 110.715 154.052 111.5 156.06 111.5ZM150 116.214V117.625C150 118.59 151.629 119.375 153.636 119.375C155.643 119.375 157.272 118.59 157.272 117.625V116.214C156.49 117.144 155.058 117.625 153.636 117.625C152.214 117.625 150.782 117.144 150 116.214ZM157.878 116.515C158.963 116.211 159.695 115.648 159.695 115V113.832C159.256 114.281 158.61 114.587 157.878 114.776V116.515ZM153.636 112.375C151.629 112.375 150 113.354 150 114.562C150 115.771 151.629 116.75 153.636 116.75C155.643 116.75 157.272 115.771 157.272 114.562C157.272 113.354 155.643 112.375 153.636 112.375ZM157.789 113.914C158.925 113.619 159.695 113.039 159.695 112.375V111.207C159.023 111.894 157.868 112.263 156.652 112.35C157.211 112.741 157.622 113.266 157.789 113.914Z" fill="#FFD300"/>
<defs>
<clipPath id="clip0_345_1477">
<rect width="87" height="101" fill="white" transform="translate(45 7)"/>
</clipPath>
</defs>
</svg>
